<?xml version="1.0" standalone="no"?>
<!DOCTYPE svg PUBLIC "-//W3C//DTD SVG 1.1//EN" "http://www.w3.org/Graphics/SVG/1.1/DTD/svg11.dtd" >
<svg>
<metadata>
Created by FontForge 20090914 at Sun Jun 30 18:27:59 2013
 By www-data
Copyright 1990-1993 Bitstream Inc.  All rights reserved.
</metadata>
<defs>
<font id="SouvenirITCbyBT-DemiItalic" horiz-adv-x="1024" >
  <font-face 
    font-family="Souvenir Lt BT"
    font-weight="700"
    font-style="italic"
    font-stretch="normal"
    units-per-em="2048"
    panose-1="2 8 8 3 5 5 5 9 3 3"
    ascent="1638"
    descent="-410"
    x-height="947.999"
    cap-height="1479"
    bbox="-322.002 -483 2558 2034"
    underline-thickness="231"
    underline-position="-98"
    slope="-9.39999"
    unicode-range="U+0020-U+F002"
  />
<missing-glyph horiz-adv-x="1229" 
d="M102 -362v1806h1024v-1806h-1024zM217 -248h795v1577h-795v-1577z" />
    <glyph glyph-name=".notdef" horiz-adv-x="1229" 
d="M102 -362v1806h1024v-1806h-1024zM217 -248h795v1577h-795v-1577z" />
    <glyph glyph-name="space" unicode=" " horiz-adv-x="645" 
 />
    <glyph glyph-name="exclam" unicode="!" horiz-adv-x="682" 
d="M209 434l28.9971 820c2.66699 85.333 22.834 149.833 60.501 193.5s91.834 65.5 162.501 65.5c76.667 0 131 -9.66699 163 -29s48 -51 48 -95c0 -14 -1.16699 -28.5 -3.5 -43.5s-6.16602 -31.5 -11.499 -49.5l-264 -866c-7.33301 -22.667 -19 -39.667 -35 -51
s-37 -17 -63 -17c-25.333 0 -46 4.16699 -62 12.5s-24 18.833 -24 31.5v28zM67.9971 100c0 53.333 23 99.833 69 139.5s100.667 59.5 164 59.5c44 0 80 -12.167 108 -36.5s42 -55.833 42 -94.5c0 -56.667 -22.833 -104 -68.5 -142s-104.167 -57 -175.5 -57
c-40 0 -73.167 12.333 -99.5 37s-39.5 56 -39.5 94z" />
    <glyph glyph-name="quotedbl" unicode="&#x22;" horiz-adv-x="707" 
d="M543 852l-41.001 0.000976562l-80 461c-1.33301 8 -2.33301 15 -3 21s-1 11.333 -1 16c0 35.333 9.33301 63.166 28 83.499s44 30.5 76 30.5c32.667 0 58.334 -9.83301 77.001 -29.5s28 -46.5 28 -80.5c0 -4 -0.333008 -9 -1 -15l-3 -26zM202.999 852.001h-41.001
l-80 461c-0.666992 4.66699 -1.16699 9.5 -1.5 14.5s-0.5 12.5 -0.5 22.5c0 34.667 9.33301 62.334 28 83.001s43.334 31 74.001 31c32 0 57.167 -9.66699 75.5 -29s27.5 -46.333 27.5 -81c0 -10.667 -0.166992 -18.834 -0.5 -24.501s-0.833008 -11.167 -1.5 -16.5z" />
    <glyph glyph-name="numbersign" unicode="#" horiz-adv-x="1575" 
d="M705 852l-91 -252h265l88 252h-262zM711 1464h215l-148 -415h254l150 415h213l-148 -415h283l-74 -199h-278l-88 -248h292l-71 -196h-291l-148 -416h-215l148 416h-254l-150 -416h-215l148 416h-289l74 196h287l88 248h-304l74 199h299z" />
    <glyph glyph-name="dollar" unicode="$" horiz-adv-x="1290" 
d="M604 973l68.001 378.998c-50.667 -15.333 -90.334 -42.166 -119.001 -80.499s-43 -83.166 -43 -134.499c0 -38.667 7.5 -71.167 22.5 -97.5s38.833 -48.5 71.5 -66.5zM588.001 132.998c58.667 16 104.667 43.833 138 83.5s50 86.167 50 139.5
c0 41.333 -8.5 76.833 -25.5 106.5s-45.833 59.167 -86.5 88.5zM430.001 -10.002c-102.667 8.66699 -191.499 48.8262 -266.499 120.493s-112.5 148.834 -112.5 231.501c0 46.667 13.167 83.667 39.5 111s61.833 41 106.5 41c32 0 56.167 -8.16699 72.5 -24.5
s30.166 -51.166 41.499 -104.499c15.333 -69.333 35.333 -122.666 60 -159.999s53.334 -58 86.001 -62l80 471c-113.333 34 -199 83.833 -257 149.5s-87 145.834 -87 240.501c0 132.667 47 246.334 141 341.001s211.333 144.667 352 150l17 91
c2 12.667 9.83301 22.5 23.5 29.5s31.5 10.5 53.5 10.5c24.667 0 42.834 -4.5 54.501 -13.5s17.5 -22.833 17.5 -41.5v-19l-12 -71c86 -10 157.333 -41.667 214 -95s85 -114.666 85 -183.999c0 -47.333 -14.167 -85 -42.5 -113s-66.833 -42 -115.5 -42
c-39.333 0 -69.666 12.667 -90.999 38s-32 61 -32 107c0 7.33301 0.333008 16.833 1 28.5s1 19.167 1 22.5c0 24.667 -3.33301 44.334 -10 59.001s-18.334 28.334 -35.001 41.001l-76 -430c122.667 -47.333 211 -101.833 265 -163.5s81 -138.167 81 -229.5
c0 -70 -14.833 -140.5 -44.5 -211.5s-69.834 -132.167 -120.501 -183.5c-42.667 -41.333 -93.167 -75.166 -151.5 -101.499s-110.5 -39.5 -156.5 -39.5c-5.33301 0 -10.5 0.166992 -15.5 0.5s-12.833 1.16602 -23.5 2.49902l-30 -175
c-2.66699 -10.667 -9.33398 -19.167 -20.001 -25.5s-24 -9.5 -40 -9.5c-24 0 -42.833 5.5 -56.5 16.5s-20.5 25.833 -20.5 44.5c0 1.33301 0.333008 3.66602 1 6.99902s1 6 1 8z" />
    <glyph glyph-name="percent" unicode="%" horiz-adv-x="1802" 
d="M1350 602c-56.667 0 -106 -38.333 -148 -115s-63 -163.334 -63 -260.001c0 -54 10.167 -94.833 30.5 -122.5s50.5 -41.5 90.5 -41.5c57.333 0 105.333 36.833 144 110.5s58 163.834 58 270.501c0 54 -9.16699 93.833 -27.5 119.5s-46.5 38.5 -84.5 38.5zM920 262
c0 128.667 41.333 232.834 124 312.501s190.667 119.5 324 119.5c99.333 0 176.333 -26.167 231 -78.5s82 -125.833 82 -220.5c0 -124.667 -41 -226.5 -123 -305.5s-189 -118.5 -321 -118.5c-99.333 0 -177 25.667 -233 77s-84 122.666 -84 213.999zM551 1415
c-56.667 0 -105.667 -37.833 -147 -113.5s-62 -162.167 -62 -259.5c0 -54 10.167 -95 30.5 -123s50.5 -42 90.5 -42c57.333 0 105.5 36.667 144.5 110s58.5 163.333 58.5 270c0 53.333 -9.5 93 -28.5 119s-47.833 39 -86.5 39zM867 1321
c6 -18 10.4971 -35.335 13.4971 -52.002s4.5 -33.334 4.5 -50.001c0 -128.667 -41 -233 -123 -313s-189.333 -120 -322 -120c-98.667 0 -176.167 25.833 -232.5 77.5s-84.5 122.834 -84.5 213.501c0 126 41 229.167 123 309.5s186.333 120.5 313 120.5
c56.667 0 130 -18 220 -54s158.667 -54 206 -54c69.333 0 139.333 21.167 210 63.5s117.334 63.5 140.001 63.5c14.667 0 24.834 -2.66699 30.501 -8s8.5 -14.333 8.5 -27c0 -2 -0.166992 -3.66699 -0.5 -5s-0.833008 -2.33301 -1.5 -3l-825 -1477
c-10.667 -17.333 -22.167 -30.5 -34.5 -39.5s-25.5 -13.5 -39.5 -13.5c-16 0 -28.5 2.33301 -37.5 7s-13.5 11.334 -13.5 20.001c0 0.666992 0.166992 1.5 0.5 2.5s1.5 3.5 3.5 7.5l768 1378c-35.333 -21.333 -72.166 -37.166 -110.499 -47.499s-78.5 -15.5 -120.5 -15.5
c-18.667 0 -36 1.33301 -52 4s-30.667 6.66699 -44 12z" />
    <glyph glyph-name="ampersand" unicode="&#x26;" horiz-adv-x="1802" 
d="M809 940c73.333 33.333 128.833 76.167 166.5 128.5s56.5 111.833 56.5 178.5c0 36.667 -11.167 65.334 -33.5 86.001s-53.5 31 -93.5 31c-44 0 -80.5 -19.167 -109.5 -57.5s-43.5 -86.166 -43.5 -143.499c0 -20.667 5 -50.834 15 -90.501s24 -83.834 42 -132.501z
M852 203.001c-58 76.667 -110.166 155.666 -156.499 236.999s-87.833 165.333 -124.5 252c-52.667 -30 -94.834 -71.167 -126.501 -123.5s-47.5 -107.5 -47.5 -165.5c0 -76.667 21.667 -139.167 65 -187.5s99 -72.5 167 -72.5c27.333 0 58.833 4.83301 94.5 14.5
s78.5 24.834 128.5 45.501zM952.001 92c-72.667 -42.667 -148.833 -75.167 -228.5 -97.5s-160.5 -33.5 -242.5 -33.5c-141.333 0 -252.333 33.167 -333 99.5s-121 157.5 -121 273.5c0 109.333 43.667 211.166 131 305.499s201.333 160.5 342 198.5
c-22.667 48 -39.667 93.833 -51 137.5s-17 85.167 -17 124.5c0 130 43.667 231 131 303s210.333 108 369 108c130 0 228.667 -25 296 -75s101 -123 101 -219c0 -97.333 -36.5 -181.5 -109.5 -252.5s-182.5 -128.833 -328.5 -173.5c32 -72 67.167 -140.833 105.5 -206.5
s80.166 -129.5 125.499 -191.5c59.333 61.333 103.5 114.833 132.5 160.5s43.5 84.5 43.5 116.5c0 20 -17 37 -51 51s-51 31.667 -51 53c0 26 8.16699 44.5 24.5 55.5s44.5 16.5 84.5 16.5h335c25.333 0 42.666 -4 51.999 -12s14 -21.667 14 -41
c0 -31.333 -25.333 -59.666 -76 -84.999c-28.667 -14 -51 -26 -67 -36c-18 -12 -62.167 -63.5 -132.5 -154.5s-142.5 -167.167 -216.5 -228.5c30.667 -42 67.834 -76.5 111.501 -103.5s83.167 -40.5 118.5 -40.5c22.667 0 49.834 2.83301 81.501 8.5s52.167 8.5 61.5 8.5
c20 0 36 -5 48 -15s18 -22.667 18 -38c0 -38 -32.167 -72.167 -96.5 -102.5s-142.833 -45.5 -235.5 -45.5c-82 0 -152 10.333 -210 31s-111 54 -159 100z" />
    <glyph glyph-name="quotesingle" unicode="'" horiz-adv-x="365" 
d="M203 852l-41 0.00195312l-80 461c-1.33301 8 -2.33301 15 -3 21s-1 11.333 -1 16c0 35.333 9.33301 63.166 28 83.499s44 30.5 76 30.5s57.167 -9.66699 75.5 -29s27.5 -46.333 27.5 -81c0 -10.667 -0.166992 -18.834 -0.5 -24.501s-0.833008 -11.167 -1.5 -16.5z" />
    <glyph glyph-name="parenleft" unicode="(" horiz-adv-x="786" 
d="M815 1479c0 -13.333 -19.502 -49.335 -58.502 -108.002s-72.833 -115 -101.5 -169c-72.667 -135.333 -126.667 -272.333 -162 -411s-53 -283.667 -53 -435c0 -195.333 35 -386.666 105 -573.999c13.333 -36.667 20 -59 20 -67c0 -13.333 -6.16699 -25.166 -18.5 -35.499
s-26.5 -15.5 -42.5 -15.5c-18 0 -36.167 7.66699 -54.5 23s-37.833 39.666 -58.5 72.999c-60.667 98.667 -108.5 207 -143.5 325s-52.5 231 -52.5 339c0 150.667 29.167 304 87.5 460s138.833 295.667 241.5 419c52.667 62.667 102.334 113.334 149.001 152.001
s80.334 58 101.001 58c10.667 0 20.167 -3.33301 28.5 -10s12.5 -14.667 12.5 -24z" />
    <glyph glyph-name="parenright" unicode=")" horiz-adv-x="786" 
d="M-82 -301c0 12.667 19.5029 47.998 58.5029 105.998s72.833 114 101.5 168c72.667 136 126.667 273.333 162 412s53 283.334 53 434.001c0 196 -35 387.333 -105 574c-13.333 36.667 -20 59 -20 67c0 14 6.16699 26.333 18.5 37s26.5 16 42.5 16
c18 0 36 -7.83301 54 -23.5s37.667 -40.5 59 -74.5c60.667 -98 108.667 -206.167 144 -324.5s53 -231.166 53 -338.499c0 -151.333 -29.333 -305 -88 -461s-139.334 -295.333 -242.001 -418c-52.667 -62.667 -102.334 -113.5 -149.001 -152.5s-80.334 -58.5 -101.001 -58.5
c-10 0 -19.333 3.83301 -28 11.5s-13 16.167 -13 25.5z" />
    <glyph glyph-name="asterisk" unicode="*" 
d="M529 1050c1.33301 -57.333 17.6582 -118.002 48.9912 -182.002s47 -105 47 -123c0 -28.667 -10.5 -52.5 -31.5 -71.5s-48.167 -28.5 -81.5 -28.5s-60.166 9.33301 -80.499 28s-30.5 43.667 -30.5 75c0 16.667 15.333 57 46 121s47.334 123.667 50.001 179
c-50.667 -30.667 -98.167 -79.167 -142.5 -145.5s-88.166 -99.5 -131.499 -99.5c-27.333 0 -51.833 12.5 -73.5 37.5s-32.5 52.167 -32.5 81.5c0 28 10.333 51.167 31 69.5s49.334 29.166 86.001 32.499c6 0.666992 15 1.33398 27 2.00098c92 6.66699 164.667 23.667 218 51
c-58 30.667 -134 48 -228 52c-11.333 0.666992 -19.666 1 -24.999 1c-33.333 2.66699 -59.833 13.334 -79.5 32.001s-29.5 42.334 -29.5 71.001c0 32.667 11.333 61 34 85s49.334 36 80.001 36c35.333 0 75.333 -33 120 -99s92.334 -115.667 143.001 -149
c-3.33301 60 -20 120.833 -50 182.5s-45 101.834 -45 120.501c0 30.667 10.167 55.334 30.5 74.001s47.166 28 80.499 28s60.5 -9.66699 81.5 -29s31.5 -44.333 31.5 -75c0 -15.333 -15.167 -54.333 -45.5 -117s-48.166 -123.334 -53.499 -182.001
c50 29.333 98 77.666 144 144.999s89.667 101 131 101c27.333 0 51.833 -12.333 73.5 -37s32.5 -52 32.5 -82c0 -33.333 -10.167 -58 -30.5 -74s-60.166 -26.333 -119.499 -31c-51.333 -4 -92.333 -10 -123 -18s-59.667 -19 -87 -33c27.333 -15.333 56.833 -27 88.5 -35
s73.167 -13.333 124.5 -16c56.667 -4 95.334 -14.167 116.001 -30.5s31 -42.166 31 -77.499c0 -32 -11.167 -59.833 -33.5 -83.5s-48.5 -35.5 -78.5 -35.5c-37.333 0 -79 34.167 -125 102.5s-92.333 117.166 -139 146.499z" />
    <glyph glyph-name="plus" unicode="+" horiz-adv-x="1706" 
d="M752 1221h202v-510h498v-199h-498v-512h-202v512h-498v199h498v510z" />
    <glyph glyph-name="comma" unicode="," horiz-adv-x="645" 
d="M319 -20c0 3.33301 -1.33105 5.83398 -3.99805 7.50098s-10 2.5 -22 2.5c-4 0 -10.667 -0.333008 -20 -1s-17 -1 -23 -1c-24 0 -44 11.167 -60 33.5s-24 51.5 -24 87.5c0 50 19 93.833 57 131.5s83 56.5 135 56.5c46 0 82.167 -12.833 108.5 -38.5
s39.5 -61.167 39.5 -106.5c0 -42.667 -11.833 -90.5 -35.5 -143.5s-56.834 -104.833 -99.501 -155.5c-38.667 -46 -76 -82.5 -112 -109.5s-65 -40.5 -87 -40.5c-12.667 0 -23.334 3.5 -32.001 10.5s-13 15.833 -13 26.5c0 22 21 50.667 63 86c16 13.333 28.333 24.333 37 33
c28 25.333 50.333 49.166 67 71.499s25 38.833 25 49.5z" />
    <glyph glyph-name="hyphen" unicode="-" horiz-adv-x="729" 
d="M578 600c42.667 0 68.667 -3.49902 78 -10.499s14 -20.5 14 -40.5c0 -0.666992 -0.666992 -3.66699 -2 -9s-2 -9.33301 -2 -12l-17 -94c-7.33301 -36.667 -17.833 -60.834 -31.5 -72.501s-37.834 -17.5 -72.501 -17.5h-404c-38 0 -61.5 3.5 -70.5 10.5
s-13.5 20.5 -13.5 40.5c0 2.66699 0.166992 5.5 0.5 8.5s0.833008 6.5 1.5 10.5l19 94c7.33301 37.333 17.833 62 31.5 74s37.834 18 72.501 18h396z" />
    <glyph glyph-name="period" unicode="." horiz-adv-x="645" 
d="M150 98c0 51.333 20.3311 96.333 60.998 135s89 58 145 58c40 0 72.167 -11.667 96.5 -35s36.5 -54 36.5 -92c0 -53.333 -19.667 -98.833 -59 -136.5s-87.666 -56.5 -144.999 -56.5c-41.333 0 -74.166 11.5 -98.499 34.5s-36.5 53.833 -36.5 92.5z" />
    <glyph glyph-name="slash" unicode="/" horiz-adv-x="555" 
d="M113 -92c-12.667 -42 -24.3311 -69.333 -34.998 -82s-26.334 -19 -47.001 -19c-23.333 0 -39.833 3.16699 -49.5 9.5s-14.5 16.166 -14.5 29.499c0 2 0.5 5 1.5 9s2.83301 10.333 5.5 19l436 1539c12.667 43.333 24.167 70.833 34.5 82.5s25.166 17.5 44.499 17.5
c23.333 0 39.833 -3 49.5 -9s14.5 -15.667 14.5 -29c0 -2 -0.5 -5.16699 -1.5 -9.5s-2.5 -10.166 -4.5 -17.499z" />
    <glyph glyph-name="zero" unicode="0" horiz-adv-x="1290" 
d="M760 1356c-41.333 0 -78.832 -18.332 -112.499 -54.999s-66.5 -95 -98.5 -175c-42 -105.333 -75 -222.833 -99 -352.5s-36 -255.167 -36 -376.5c0 -93.333 11.833 -162.333 35.5 -207s60.167 -67 109.5 -67c38.667 0 73.167 16.667 103.5 50s60.166 87 89.499 161
c18 47.333 34.833 102 50.5 164s30.167 132.333 43.5 211c13.333 80 23.5 154.167 30.5 222.5s10.5 129.833 10.5 184.5c0 89.333 -9.66699 151.666 -29 186.999s-52 53 -98 53zM61.001 551.001c0 136 21.999 268.499 65.999 397.499s103.333 235.5 178 319.5
c68 76.667 143.5 135.667 226.5 177s166.5 62 250.5 62c138 0 247 -49.667 327 -149s120 -236 120 -410c0 -130 -20 -257.667 -60 -383s-96 -236.666 -168 -333.999c-62 -83.333 -134.167 -147.5 -216.5 -192.5s-169.166 -67.5 -260.499 -67.5c-146 0 -259.667 51 -341 153
s-122 244.333 -122 427z" />
    <glyph glyph-name="one" unicode="1" horiz-adv-x="1290" 
d="M887 0l-678.002 0.00195312c-24.667 0 -44.167 5.66699 -58.5 17s-21.5 26 -21.5 44c0 27.333 9.33301 47.666 28 60.999s49.334 21.666 92.001 24.999c57.333 5.33301 94.333 15.5 111 30.5s29 45.833 37 92.5l148 871c0 1.33301 0.333008 3.33301 1 6s1 4.66699 1 6
c0 18.667 -4.66699 31.167 -14 37.5s-31.333 9.5 -66 9.5h-37h-32c-37.333 1.33301 -62.833 6 -76.5 14s-20.5 21.667 -20.5 41c0 42.667 47.333 75.667 142 99c16 4 28.667 7.33301 38 10c86.667 22 171 51 253 87s128 54 138 54c29.333 0 50.333 -4.33301 63 -13
s19 -22.667 19 -42c0 -5.33301 -0.166992 -9.33301 -0.5 -12s-0.833008 -5 -1.5 -7l-184 -1146c-1.33301 -8 -2.33301 -16 -3 -24s-1 -18.667 -1 -32c0 -48.667 38.333 -77.667 115 -87c0.666992 -0.666992 1.33398 -1 2.00098 -1c31.333 -4 53.5 -11.5 66.5 -22.5
s19.5 -27.167 19.5 -48.5c0 -19.333 -7.83301 -35.833 -23.5 -49.5s-34.5 -20.5 -56.5 -20.5z" />
    <glyph glyph-name="two" unicode="2" horiz-adv-x="1290" 
d="M14 0c-16 0 -29.1641 6.16602 -39.4971 18.499s-15.5 28.833 -15.5 49.5c0 38 17.167 81.5 51.5 130.5s88.166 107.167 161.499 174.5l442 407c77.333 70.667 134.666 138.834 171.999 204.501s56 130.834 56 195.501c0 51.333 -13.833 90 -41.5 116s-68.5 39 -122.5 39
c-59.333 0 -110.333 -19.5 -153 -58.5s-64 -82.833 -64 -131.5c0 -14 5.83301 -34.167 17.5 -60.5s17.5 -47.833 17.5 -64.5c0 -40.667 -16.833 -73.334 -50.5 -98.001s-78.5 -37 -134.5 -37c-52.667 0 -94.5 15.5 -125.5 46.5s-46.5 72.833 -46.5 125.5
c0 115.333 60.5 219.166 181.5 311.499s264.167 138.5 429.5 138.5c137.333 0 248.333 -32.833 333 -98.5s127 -151.5 127 -257.5c0 -92.667 -35.333 -189.667 -106 -291s-178 -208.333 -322 -321l-342 -269h428c37.333 0 71.666 15 102.999 45s57.333 45 78 45
c16.667 0 30 -4.66699 40 -14s15 -22.333 15 -39c0 -6 -1.33301 -14.5 -4 -25.5s-6 -20.833 -10 -29.5l-109 -225c-4 -9.33301 -10.5 -16.166 -19.5 -20.499s-20.833 -6.5 -35.5 -6.5h-912z" />
    <glyph glyph-name="three" unicode="3" horiz-adv-x="1290" 
d="M793 799c101.333 -7.33301 180.832 -41.333 238.499 -102s86.5 -140 86.5 -238c0 -148 -56.167 -266.333 -168.5 -355s-262.833 -133 -451.5 -133c-146 0 -264.5 30.333 -355.5 91s-136.5 137.667 -136.5 231c0 54.667 15 98.334 45 131.001s70.333 49 121 49
c53.333 0 91.5 -11 114.5 -33s35.5 -70.667 37.5 -146c0.666992 -56.667 12.5 -97.667 35.5 -123s60.167 -38 111.5 -38c79.333 0 141.166 30.333 185.499 91s66.5 145.667 66.5 255c0 85.333 -19 147 -57 185s-99 57 -183 57c-64.667 0 -104 4.66699 -118 14s-21 27 -21 53
s6.5 46.5 19.5 61.5s30.5 22.5 52.5 22.5c138 0 233.167 23.667 285.5 71s78.5 127.666 78.5 240.999c0 64 -9.66699 109.667 -29 137s-51.333 41 -96 41c-43.333 0 -79 -11.833 -107 -35.5s-42 -53.5 -42 -89.5c0 -8.66699 2.66699 -21.667 8 -39s8 -31 8 -41
c0 -38 -16.167 -69.333 -48.5 -94s-74.166 -37 -125.499 -37c-50 0 -89.167 12.833 -117.5 38.5s-42.5 61.167 -42.5 106.5c0 95.333 45.167 175.5 135.5 240.5s206.5 97.5 348.5 97.5c150.667 0 267.834 -29.5 351.501 -88.5s125.5 -142.167 125.5 -249.5
c0 -102 -30.5 -185 -91.5 -249s-149.167 -105 -264.5 -123z" />
    <glyph glyph-name="four" unicode="4" horiz-adv-x="1290" 
d="M268 522l328.001 0.000976562l145 695c-103.333 -107.333 -194.833 -219.333 -274.5 -336s-145.834 -236.334 -198.501 -359.001zM563.001 354.001l-453.999 0.00390625c-28 0 -48.667 5.83301 -62 17.5s-20 29.167 -20 52.5c0 54.667 41.667 153.167 125 295.5
s190.333 292.166 321 449.499c100 120.667 186 205.5 258 254.5s146.333 73.5 223 73.5c51.333 0 88.5 -7 111.5 -21s34.5 -36.333 34.5 -67c0 -10 -0.5 -21.333 -1.5 -34s-3.16699 -32.667 -6.5 -60l-121 -778h166c13.333 0 23.833 -6.33301 31.5 -19
s11.5 -30.334 11.5 -53.001c0 -36.667 -6 -64.334 -18 -83.001s-29.333 -28 -52 -28h-168l-22 -153v-11c0 -18.667 14 -35.5 42 -50.5s42 -36.167 42 -63.5c0 -24.667 -7.16699 -43.5 -21.5 -56.5s-34.5 -19.5 -60.5 -19.5h-480c-16.667 0 -31 5.66699 -43 17
s-18 25.333 -18 42c0 22.667 6.16699 41 18.5 55s31.833 25 58.5 33c5.33301 2 12.666 4.33301 21.999 7c27.333 7.33301 46.333 33.666 57 78.999z" />
    <glyph glyph-name="five" unicode="5" horiz-adv-x="1290" 
d="M434 909c31.333 18.667 67.1699 32.334 107.503 41.001s89.833 13 148.5 13c132.667 0 240.667 -35 324 -105s125 -159.333 125 -268c0 -175.333 -63.5 -322.333 -190.5 -441s-284.167 -178 -471.5 -178c-137.333 0 -247 28 -329 84s-123 129 -123 219
c0 58.667 16.833 104.5 50.5 137.5s80.167 49.5 139.5 49.5c46 0 82 -11.167 108 -33.5s39 -52.833 39 -91.5c0 -10 -2 -25 -6 -45s-6 -35 -6 -45c0 -34 10.667 -61.333 32 -82s49.666 -31 84.999 -31c76 0 138.333 41.167 187 123.5s73 189.5 73 321.5
c0 68.667 -14.333 119.167 -43 151.5s-73 48.5 -133 48.5c-67.333 0 -131.833 -20.167 -193.5 -60.5s-99.5 -60.5 -113.5 -60.5c-15.333 0 -27 3.33301 -35 10s-12 16.334 -12 29.001c0 3.33301 0.166992 6.16602 0.5 8.49902s0.833008 4.5 1.5 6.5l174 758
c2 8.66699 7.83301 15.5 17.5 20.5s22.167 7.5 37.5 7.5c7.33301 0 57.5 -6.5 150.5 -19.5s182.167 -19.5 267.5 -19.5c69.333 0 139.166 6.16699 209.499 18.5s106.166 18.5 107.499 18.5c18.667 0 33 -4.5 43 -13.5s15 -22.167 15 -39.5
c0 -68.667 -52.5 -131.667 -157.5 -189s-232.167 -86 -381.5 -86c-41.333 0 -76 2.66699 -104 8s-53.333 13.666 -76 24.999z" />
    <glyph glyph-name="six" unicode="6" horiz-adv-x="1290" 
d="M666 797c-70.667 0 -131.334 -40 -182.001 -120s-76 -178.667 -76 -296c0 -76.667 13.833 -135.834 41.5 -177.501s66.834 -62.5 117.501 -62.5c70 0 128.5 40.833 175.5 122.5s70.5 184.834 70.5 309.501c0 76.667 -12 133.167 -36 169.5s-61 54.5 -111 54.5zM516 879
c34 27.333 72.166 47.832 114.499 61.499s90.166 20.5 143.499 20.5c119.333 0 215.833 -35.167 289.5 -105.5s110.5 -163.833 110.5 -280.5c0 -176.667 -57.167 -321.5 -171.5 -434.5s-262.166 -169.5 -443.499 -169.5c-158 0 -282.167 46.667 -372.5 140
s-135.5 221 -135.5 383c0 136.667 31.667 273.834 95 411.501s151.333 259.834 264 366.501c80.667 76.667 173.167 135 277.5 175s215.833 60 334.5 60c76 0 126 -4.83301 150 -14.5s36 -27.167 36 -52.5c0 -46.667 -44 -73.667 -132 -81
c-36 -2.66699 -63.333 -5.66699 -82 -9c-106.667 -20 -203.667 -72.833 -291 -158.5s-149.666 -189.834 -186.999 -312.501z" />
    <glyph glyph-name="seven" unicode="7" horiz-adv-x="1290" 
d="M545 0l-293.002 0.00292969c-16.667 0 -30.334 5.5 -41.001 16.5s-16 25.167 -16 42.5s4.33301 36.166 13 56.499s25.334 49.5 50.001 87.5l660 1022h-418c-46 0 -90.667 -21.833 -134 -65.5s-77.333 -65.5 -102 -65.5c-18 0 -32.333 6.16699 -43 18.5
s-16 29.166 -16 50.499c0 7.33301 0.5 14.166 1.5 20.499s2.5 12.5 4.5 18.5l66 251c2.66699 9.33301 8.83398 17 18.501 23s21.834 9 36.501 9h901c16 0 29.167 -4.33301 39.5 -13s15.5 -20 15.5 -34c0 -14.667 -55.667 -126.167 -167 -334.5s-217.333 -418.5 -318 -630.5
c-35.333 -75.333 -75 -166.333 -119 -273c-54.667 -133.333 -101 -200 -139 -200z" />
    <glyph glyph-name="eight" unicode="8" horiz-adv-x="1290" 
d="M770 924c60.667 43.333 104.832 86.001 132.499 128.001s41.5 86.667 41.5 134c0 51.333 -16.667 92.166 -50 122.499s-78 45.5 -134 45.5c-59.333 0 -108.666 -17.5 -147.999 -52.5s-59 -77.5 -59 -127.5c0 -36 12.667 -70 38 -102s85 -81.333 179 -148z
M501.998 659.001c-74 -48 -127 -96.499 -159 -145.499s-48 -105.5 -48 -169.5c0 -62.667 21.667 -114.167 65 -154.5s98.666 -60.5 165.999 -60.5c66 0 122.5 22.167 169.5 66.5s70.5 97.166 70.5 158.499c0 46 -15.167 88.5 -45.5 127.5s-103.166 98.167 -218.499 177.5z
M396.998 766.002c-68 29.333 -120.5 69.501 -157.5 120.501s-55.5 108.5 -55.5 172.5c0 128 52.333 235 157 321s238 129 400 129c143.333 0 256.333 -28.667 339 -86s124 -135 124 -233c0 -83.333 -27.333 -157.166 -82 -221.499s-132.334 -114.166 -233.001 -149.499
c82 -36.667 143.833 -83.834 185.5 -141.501s62.5 -125.834 62.5 -204.501c0 -152 -55 -274 -165 -366s-258 -138 -444 -138c-152 0 -273.833 33.833 -365.5 101.5s-137.5 156.834 -137.5 267.501c0 101.333 34.833 192.166 104.5 272.499s158.834 132.166 267.501 155.499z
" />
    <glyph glyph-name="nine" unicode="9" horiz-adv-x="1290" 
d="M602 686c71.333 0 132.167 39.833 182.5 119.5s75.5 178.5 75.5 296.5c0 76 -14 134.833 -42 176.5s-67.333 62.5 -118 62.5c-70 0 -128.333 -40.667 -175 -122s-70 -185.333 -70 -312c0 -75.333 12 -131 36 -167s61 -54 111 -54zM752.001 602
c-34 -27.333 -72.666 -47.8311 -115.999 -61.498s-92.333 -20.5 -147 -20.5c-118 0 -214 35.667 -288 107s-111 164.666 -111 279.999c0 171.333 57.833 314.166 173.5 428.499s264.167 171.5 445.5 171.5c156.667 0 280.5 -46.667 371.5 -140s136.5 -220 136.5 -380
c0 -137.333 -32.333 -275.333 -97 -414s-154 -261.334 -268 -368.001c-78.667 -73.333 -171.5 -130.666 -278.5 -171.999s-216.167 -62 -327.5 -62c-74.667 0 -124.834 5.16699 -150.501 15.5s-38.5 28.5 -38.5 54.5c0 45.333 43 71.666 129 78.999
c38 3.33301 67.333 7 88 11c106.667 20 203 72.333 289 157s149 189.334 189 314.001z" />
    <glyph glyph-name="colon" unicode=":" horiz-adv-x="674" 
d="M233 780c0 51.333 20.499 96.333 61.499 135s89.5 58 145.5 58c40 0 72.167 -11.667 96.5 -35s36.5 -54 36.5 -92c0 -53.333 -19.667 -98.833 -59 -136.5s-87.666 -56.5 -144.999 -56.5c-41.333 0 -74.333 11.5 -99 34.5s-37 53.833 -37 92.5zM122.999 98
c0 51.333 20.499 96.333 61.499 135s89.5 58 145.5 58c40 0 72.167 -11.667 96.5 -35s36.5 -54 36.5 -92c0 -53.333 -19.833 -98.833 -59.5 -136.5s-88.167 -56.5 -145.5 -56.5c-41.333 0 -74.166 11.5 -98.499 34.5s-36.5 53.833 -36.5 92.5z" />
    <glyph glyph-name="semicolon" unicode=";" horiz-adv-x="674" 
d="M285 -20c0 3.33301 -1.49805 5.83398 -4.49805 7.50098s-10.5 2.5 -22.5 2.5c-4 0 -10.667 -0.333008 -20 -1s-17 -1 -23 -1c-24 0 -44 11.167 -60 33.5s-24 51.5 -24 87.5c0 50 19 93.833 57 131.5s83.333 56.5 136 56.5c45.333 0 81.166 -12.833 107.499 -38.5
s39.5 -61.167 39.5 -106.5c0 -44 -12 -92 -36 -144s-57.667 -103.667 -101 -155c-40.667 -48 -78.167 -85 -112.5 -111s-62.5 -39 -84.5 -39c-12.667 0 -23.334 3.5 -32.001 10.5s-13 15.833 -13 26.5c0 22 21 51.333 63 88c15.333 12.667 27 23 35 31
c28.667 25.333 51.667 49.166 69 71.499s26 38.833 26 49.5zM231.002 782.001c0 52 20.167 97.168 60.5 135.501s88.5 57.5 144.5 57.5c40 0 72.5 -12 97.5 -36s37.5 -55 37.5 -93c0 -52.667 -20 -98 -60 -136s-88.667 -57 -146 -57c-40.667 0 -73.167 11.667 -97.5 35
s-36.5 54.666 -36.5 93.999z" />
    <glyph glyph-name="less" unicode="&#x3c;" horiz-adv-x="1706" 
d="M1442 1194v-219l-893 -365l893 -364v-219l-1178 485v199z" />
    <glyph glyph-name="equal" unicode="=" horiz-adv-x="1706" 
d="M254 496h1198v-199h-1198v199zM254 926h1198v-199h-1198v199z" />
    <glyph glyph-name="greater" unicode="&#x3e;" horiz-adv-x="1706" 
d="M264 1194l1178 -483v-199l-1178 -485v219l895 364l-895 365v219z" />
    <glyph glyph-name="question" unicode="?" horiz-adv-x="1124" 
d="M176 100c0 53.333 23.168 99.833 69.501 139.5s101.166 59.5 164.499 59.5c44 0 79.833 -12.167 107.5 -36.5s41.5 -55.833 41.5 -94.5c0 -56.667 -22.667 -104 -68 -142s-104 -57 -176 -57c-39.333 0 -72.333 12.333 -99 37s-40 56 -40 94zM391.001 397
c-30.667 0 -50.665 4.33301 -59.998 13s-14 24.334 -14 47.001c0 73.333 8.83301 137.833 26.5 193.5s41.834 95.5 72.501 119.5c21.333 17.333 61.166 39.333 119.499 66s98.833 49 121.5 67c42.667 33.333 73.834 75 93.501 125s29.5 112 29.5 186
c0 55.333 -10.833 96.166 -32.5 122.499s-55.167 39.5 -100.5 39.5c-76.667 0 -119.667 -48.333 -129 -145c-0.666992 -6 -1.33398 -10.667 -2.00098 -14c-4 -40.667 -19.333 -71.667 -46 -93s-63.334 -32 -110.001 -32c-39.333 0 -71.333 10.167 -96 30.5
s-37 46.833 -37 79.5c0 90.667 44.5 165.167 133.5 223.5s202.833 87.5 341.5 87.5c130 0 231.167 -33.167 303.5 -99.5s108.5 -158.5 108.5 -276.5c0 -88 -19.667 -165 -59 -231s-98 -121.667 -176 -167c-62 -35.333 -133.833 -66 -215.5 -92
s-128.834 -44.333 -141.501 -55c-12.667 -11.333 -23.334 -41 -32.001 -89c-3.33301 -20 -6.33301 -36 -9 -48c-5.33301 -24 -12.666 -39.667 -21.999 -47s-32 -11 -68 -11z" />
    <glyph glyph-name="at" unicode="@" horiz-adv-x="2019" 
d="M1176 319c-41.333 -66.667 -86.1699 -116.008 -134.503 -148.008s-101.833 -48 -160.5 -48c-94.667 0 -168.834 30.333 -222.501 91s-80.5 144.334 -80.5 251.001c0 76 16.667 149.833 50 221.5s81.333 137.167 144 196.5c46 42.667 95.333 75.167 148 97.5
s106.334 33.5 161.001 33.5c64 0 114.167 -15 150.5 -45s60.166 -76 71.499 -138l49 164h190l-174 -618l-2 -7c-9.33301 -38.667 -14 -67.667 -14 -87c0 -31.333 6.83301 -56 20.5 -74s31.834 -27 54.501 -27c22 0 50.333 8.33301 85 25s67.334 37.667 98.001 63
c68.667 58.667 121.334 131 158.001 217s55 181 55 285c0 183.333 -62.833 332 -188.5 446s-288.834 171 -489.501 171c-92 0 -179.333 -12.667 -262 -38s-158.667 -62.666 -228 -111.999c-115.333 -80.667 -204.166 -183.5 -266.499 -308.5s-93.5 -263.833 -93.5 -416.5
c0 -223.333 70.167 -400.666 210.5 -531.999s328.833 -197 565.5 -197c110.667 0 217.167 16.833 319.5 50.5s204.833 85.834 307.5 156.501l39 -51c-100.667 -75.333 -206.667 -131.833 -318 -169.5s-227.333 -56.5 -348 -56.5c-124.667 0 -240.5 15.333 -347.5 46
s-199.5 75 -277.5 133c-100.667 74.667 -178 167.167 -232 277.5s-81 231.5 -81 363.5c0 103.333 17.333 202.833 52 298.5s85.667 183.834 153 264.501c96.667 116 212.167 205 346.5 267s279.5 93 435.5 93c232.667 0 418.834 -63 558.501 -189s209.5 -293.667 209.5 -503
c0 -107.333 -19.667 -207.166 -59 -299.499s-96 -172.166 -170 -239.499c-39.333 -35.333 -81.5 -62.166 -126.5 -80.499s-90.833 -27.5 -137.5 -27.5c-65.333 0 -117 17.333 -155 52s-59.333 84 -64 148zM1118 947.992c-41.333 0 -78.834 -14.832 -112.501 -44.499
s-67.167 -77.5 -100.5 -143.5c-38 -76 -67 -147.667 -87 -215s-30 -128.333 -30 -183c0 -52.667 11.5 -94.5 34.5 -125.5s53.833 -46.5 92.5 -46.5c42.667 0 84.167 20.667 124.5 62s78.833 102 115.5 182c26.667 61.333 47.667 123.166 63 185.499s23 116.5 23 162.5
c0 53.333 -10.667 94.333 -32 123s-51.666 43 -90.999 43z" />
    <glyph glyph-name="A" unicode="A" horiz-adv-x="1536" 
d="M492 664l404.998 0.000976562c-16 83.333 -34.667 166.666 -56 249.999s-45.666 167 -72.999 251l-144.5 -250c-46.333 -84 -90.166 -167.667 -131.499 -251zM-33.002 0.000976562c-17.333 0 -31.498 5.83496 -42.498 17.502s-16.5 26.834 -16.5 45.501
c0 26.667 17.667 52.334 53 77.001c14.667 10 25.667 18 33 24c36 29.333 98.667 135.666 188 318.999l99 199c73.333 144.667 146.666 278.667 219.999 402s142 227.666 206 312.999c37.333 49.333 68.833 81 94.5 95s59.5 21 101.5 21c48.667 0 83.5 -6.16699 104.5 -18.5
s39.5 -38.833 55.5 -79.5c42.667 -108 85 -238.833 127 -392.5s79.667 -316.167 113 -487.5c10.667 -60 23 -134 37 -222c14 -96 26 -149.667 36 -161c3.33301 -4 10 -9.66699 20 -17c26.667 -19.333 40 -42.333 40 -69c0 -20.667 -7.16699 -36.834 -21.5 -48.501
s-33.833 -17.5 -58.5 -17.5h-428c-18.667 0 -33.334 5.5 -44.001 16.5s-16 25.833 -16 44.5c0 30 16.5 53.667 49.5 71s49.5 39 49.5 65c0 29.333 -3.83301 68.5 -11.5 117.5s-18.167 103.833 -31.5 164.5h-525l-106 -221c-5.33301 -9.33301 -9.5 -19.5 -12.5 -30.5
s-4.5 -20.5 -4.5 -28.5c0 -16.667 12.667 -34.334 38 -53.001s38 -42 38 -70c0 -23.333 -7.83301 -41.833 -23.5 -55.5s-37.167 -20.5 -64.5 -20.5h-297z" />
    <glyph glyph-name="B" unicode="B" horiz-adv-x="1489" 
d="M545 831c162.667 13.333 289 49.999 379 109.999s135 137.667 135 233c0 57.333 -20.833 97.833 -62.5 121.5s-121.167 35.5 -238.5 35.5c-51.333 0 -84.5 -3.66699 -99.5 -11s-24.167 -19.666 -27.5 -36.999zM518 663.999l-76.001 -461.001v-17
c0 -5.33301 2.33301 -10.666 7 -15.999s9.33398 -8 14.001 -8h16h191c106 0 190.833 30.167 254.5 90.5s95.5 139.166 95.5 236.499c0 60 -19 110.833 -57 152.5s-86 64.834 -144 69.501zM15.999 -0.00195312c-18 0 -32 5.16406 -42 15.4971s-15 24.833 -15 43.5
c0 33.333 20.667 61.333 62 84c16 8.66699 27.333 16.334 34 23.001c19.333 18.667 39.5 68.5 60.5 149.5s42.5 190.167 64.5 327.5l99 621c1.33301 6.66699 2.33301 13 3 19s1 11.667 1 17c0 16.667 -13 33 -39 49s-39 36.667 -39 62c0 20 7.5 36.333 22.5 49
s34.833 19 59.5 19h714c149.333 0 257 -21.667 323 -65s99 -112.666 99 -207.999c0 -82 -27 -158.667 -81 -230s-130 -129.666 -228 -174.999c77.333 -15.333 139.666 -52.5 186.999 -111.5s71 -129.167 71 -210.5c0 -132.667 -50.167 -245.667 -150.5 -339
s-222.166 -140 -365.499 -140h-840z" />
    <glyph glyph-name="C" unicode="C" horiz-adv-x="1587" 
d="M1520 1272l-0.000976562 -233.998c0 -32.667 -6.83301 -57.5 -20.5 -74.5s-33.5 -25.5 -59.5 -25.5c-34.667 0 -59.667 33 -75 99c-3.33301 13.333 -5.66602 23.333 -6.99902 30c-22.667 90.667 -62.834 158.334 -120.501 203.001s-133.5 67 -227.5 67
c-152 0 -278.167 -70.833 -378.5 -212.5s-150.5 -318.5 -150.5 -530.5c0 -140 33.667 -249 101 -327s161.333 -117 282 -117c61.333 0 122.333 11 183 33s119.334 54.667 176.001 98c14.667 11.333 33 27.666 55 48.999c36.667 35.333 66 53 88 53
c24 0 43.667 -7.33301 59 -22s23 -33.334 23 -56.001c0 -83.333 -66.667 -162.166 -200 -236.499s-292 -111.5 -476 -111.5c-212.667 0 -381.5 61.167 -506.5 183.5s-187.5 285.833 -187.5 490.5c0 130 28.667 256.667 86 380s134.333 224.666 231 303.999
c78 63.333 167 112.166 267 146.499s203.667 51.5 311 51.5c128 0 251.167 -26.667 369.5 -80s177.5 -107 177.5 -161z" />
    <glyph glyph-name="D" unicode="D" horiz-adv-x="1698" 
d="M487 264c-0.666992 -4.66699 -1.16895 -9.5 -1.50195 -14.5s-0.5 -13.167 -0.5 -24.5c0 -29.333 8.33301 -50 25 -62s45.334 -18 86.001 -18c180 0 331.167 74.333 453.5 223s183.5 334 183.5 556c0 131.333 -35 234 -105 308s-166.667 111 -290 111
c-70 0 -119.167 -8.5 -147.5 -25.5s-46.166 -50.5 -53.499 -100.5zM46.998 0c-20.667 0 -36.335 4.83398 -47.002 14.501s-16 23.834 -16 42.501c0 18 4 32.833 12 44.5s25 24.834 51 39.501c40 22 66 69.667 78 143c0.666992 5.33301 1.33398 9.66602 2.00098 12.999
l147 932c0.666992 3.33301 1.33398 7.66602 2.00098 12.999c2 11.333 3 18.666 3 21.999c0 28 -15.5 51.167 -46.5 69.5s-46.5 38.833 -46.5 61.5c0 39.333 36.667 65.833 110 79.5s238.333 20.5 495 20.5c270.667 0 475.5 -50.667 614.5 -152
s208.5 -250.666 208.5 -447.999c0 -133.333 -25 -257.833 -75 -373.5s-122 -215.834 -216 -300.501c-82.667 -74 -179.167 -129.333 -289.5 -166s-236.5 -55 -378.5 -55h-608z" />
    <glyph glyph-name="E" unicode="E" horiz-adv-x="1366" 
d="M455 213l-0.000976562 -8.00098c0 -18 9 -31.333 27 -40s45.667 -13 83 -13c128.667 0 227.334 5.66699 296.001 17s119 30 151 56l39 35c49.333 45.333 88.666 68 117.999 68c21.333 0 37 -4.5 47 -13.5s15 -23.167 15 -42.5c0 -26 -9.66699 -68.167 -29 -126.5
s-35.666 -95.833 -48.999 -112.5c-8.66699 -11.333 -25.5 -19.666 -50.5 -24.999s-57.833 -8 -98.5 -8h-986c-18.667 0 -33.167 4.66699 -43.5 14s-15.5 22.333 -15.5 39c0 28.667 20 53.667 60 75c12 6 21.333 11 28 15c22 14 39 32.5 51 55.5s22.333 61.167 31 114.5
l150 945c0.666992 2.66699 1.16699 5.66699 1.5 9s0.5 7.66602 0.5 12.999c0 26.667 -13.667 49.334 -41 68.001s-41 38.334 -41 59.001c0 22 7.5 39.5 22.5 52.5s35.5 19.5 61.5 19.5h972c26.667 0 45.667 -8 57 -24s17 -44.333 17 -85
c0 -92.667 -6.83301 -153.667 -20.5 -183s-38.834 -44 -75.501 -44c-22.667 0 -43.834 18.5 -63.501 55.5s-34.167 60.167 -43.5 69.5c-21.333 21.333 -50.166 36.166 -86.499 44.499s-100.833 12.5 -193.5 12.5h-60h-22c-62 0 -100.333 -3.66699 -115 -11
s-24 -23.333 -28 -48l-68 -412h266c78 0 139 15.333 183 46s68.333 46 73 46c16 0 29.167 -6.5 39.5 -19.5s15.5 -28.833 15.5 -47.5c0 -76.667 -10.833 -141 -32.5 -193s-49.5 -78 -83.5 -78c-23.333 0 -42.666 11 -57.999 33c-5.33301 7.33301 -9 12 -11 14
c-12 10.667 -27.5 18.167 -46.5 22.5s-48.167 6.5 -87.5 6.5h-283z" />
    <glyph glyph-name="F" unicode="F" horiz-adv-x="1251" 
d="M457 227c-2.66699 -17.333 -4.66992 -31.666 -6.00293 -42.999c0 -14.667 16.667 -30.334 50 -47.001s50 -37 50 -61s-9.16699 -42.667 -27.5 -56s-44.166 -20 -77.499 -20h-428c-18.667 0 -33.167 4.66699 -43.5 14s-15.5 22.333 -15.5 39c0 28.667 20 53.667 60 75
c12 6 21.333 11 28 15c22 14 39 32.5 51 55.5s22.333 61.167 31 114.5l150 945c0.666992 2.66699 1.16699 5.66699 1.5 9s0.5 7.66602 0.5 12.999c0 26.667 -13.667 49.334 -41 68.001s-41 38.334 -41 59.001c0 22 7.5 39.5 22.5 52.5s35.5 19.5 61.5 19.5h954
c27.333 0 46.833 -8.16699 58.5 -24.5s17.5 -44.5 17.5 -84.5c0 -91.333 -7.16699 -152 -21.5 -182s-40.166 -45 -77.499 -45c-22 0 -42.833 18.5 -62.5 55.5s-34.167 60.167 -43.5 69.5c-21.333 21.333 -49.5 36.166 -84.5 44.499s-101.833 12.5 -200.5 12.5h-30h-23
c-64.667 0 -104.667 -3.83301 -120 -11.5s-25 -23.5 -29 -47.5l-68 -412h246c77.333 0 138.333 15.333 183 46s69.667 46 75 46c15.333 0 28 -6.33301 38 -19s15 -28.667 15 -48c0 -77.333 -10.667 -141.833 -32 -193.5s-49 -77.5 -83 -77.5
c-22.667 0 -41.667 10.667 -57 32c-5.33301 8 -9.66602 13.333 -12.999 16c-10.667 10 -25.667 17.167 -45 21.5s-48.333 6.5 -87 6.5h-265z" />
    <glyph glyph-name="G" unicode="G" horiz-adv-x="1645" 
d="M985 778l503.998 0.00195312c20 0 35.167 -5 45.5 -15s15.5 -24.667 15.5 -44c0 -13.333 -14 -67.333 -42 -162s-42 -182.667 -42 -264c0 -8.66699 0.333008 -20 1 -34s1 -24 1 -30c0 -25.333 -40 -63.333 -120 -114l-7 -4c-69.333 -44 -156.666 -80.667 -261.999 -110
s-206.333 -44 -303 -44c-215.333 0 -387.166 61.333 -515.499 184s-192.5 284.667 -192.5 486c0 119.333 26.333 237.833 79 355.5s126 220.167 220 307.5c80.667 76 171 132.667 271 170s211 56 333 56c100.667 0 191.5 -12 272.5 -36s155.167 -60.667 222.5 -110
c21.333 -15.333 35.666 -30.833 42.999 -46.5s11 -41.167 11 -76.5c0 -80.667 -6.83301 -137.667 -20.5 -171s-36.167 -50 -67.5 -50c-33.333 0 -62.666 29.667 -87.999 89c-9.33301 21.333 -17 38 -23 50c-31.333 64.667 -75.5 112.667 -132.5 144s-128.167 47 -213.5 47
c-159.333 0 -288.333 -75.667 -387 -227s-148 -348 -148 -590c0 -140.667 29.333 -246.834 88 -318.501s144.667 -107.5 258 -107.5c120.667 0 211 35 271 105s90 175.667 90 317c0 32 -7.16699 53.167 -21.5 63.5s-44.166 15.5 -89.499 15.5
c-7.33301 0 -20.333 -0.333008 -39 -1s-34.334 -1 -47.001 -1c-24 0 -42.167 6.66699 -54.5 20s-18.5 32.666 -18.5 57.999c0 29.333 9 51.333 27 66s45 22 81 22z" />
    <glyph glyph-name="H" unicode="H" horiz-adv-x="1753" 
d="M47 0c-18.667 0 -32.832 4.50195 -42.499 13.502s-14.5 22.167 -14.5 39.5s4.16699 31.5 12.5 42.5s25.166 22.833 50.499 35.5c39.333 20 63.666 59 72.999 117c1.33301 8.66699 2.33301 15.667 3 21l164 984c1.33301 7.33301 2.33301 13.833 3 19.5s1 11.5 1 17.5
c0 17.333 -13 34.666 -39 51.999s-39 37.666 -39 60.999c0 24 7.16699 42.667 21.5 56s34.5 20 60.5 20h391c23.333 0 41.833 -5.16699 55.5 -15.5s20.5 -23.833 20.5 -40.5c0 -16 -4.33301 -29.667 -13 -41s-26.334 -25 -53.001 -41c-36 -21.333 -58.667 -61.333 -68 -120
l-3 -22l-51 -329h645l59 383c1.33301 7.33301 2.33301 14.333 3 21s1 12.667 1 18c0 16.667 -13 33.334 -39 50.001s-39 37 -39 61s7.16699 42.667 21.5 56s34.5 20 60.5 20h391c23.333 0 41.833 -5.16699 55.5 -15.5s20.5 -23.833 20.5 -40.5
c0 -16 -4.33301 -29.667 -13 -41s-26 -25 -52 -41c-36 -21.333 -58 -60 -66 -116c-1.33301 -10.667 -2.66602 -19.667 -3.99902 -27l-156 -971c-1.33301 -8.66699 -2.66602 -16.834 -3.99902 -24.501s-2 -12.5 -2 -14.5c0 -17.333 13 -34.5 39 -51.5s39 -37.167 39 -60.5
c0 -24.667 -6.83301 -43.5 -20.5 -56.5s-33.5 -19.5 -59.5 -19.5h-407c-16.667 -0 -29.5 4.83301 -38.5 14.5s-13.5 23.167 -13.5 40.5s3.66699 31.333 11 42s23 22.667 47 36c34 20 55 56 63 108c2 12 3.33301 21 4 27l72 437h-653l-78 -480
c-1.33301 -6.66699 -2.33301 -13 -3 -19s-1 -12 -1 -18c0 -17.333 13 -34.5 39 -51.5s39 -37.167 39 -60.5c0 -25.333 -6.83301 -44.333 -20.5 -57s-33.5 -19 -59.5 -19h-414z" />
    <glyph glyph-name="I" unicode="I" horiz-adv-x="772" 
d="M49 0c-18.667 0 -32.8311 4.50391 -42.498 13.5039s-14.5 22.167 -14.5 39.5s4.16699 31.5 12.5 42.5s25.166 22.833 50.499 35.5c39.333 20 63.666 59 72.999 117l3 20l164 985c1.33301 7.33301 2.33301 13.833 3 19.5s1 11.5 1 17.5c0 17.333 -13 34.666 -39 51.999
s-39 37.666 -39 60.999c0 24 7.16699 42.667 21.5 56s34.5 20 60.5 20h404c22.667 0 40.834 -5.16699 54.501 -15.5s20.5 -23.833 20.5 -40.5c0 -16 -4.33301 -29.667 -13 -41s-26 -25 -52 -41c-36.667 -21.333 -59.334 -61.333 -68.001 -120
c-2 -10 -3.33301 -17.667 -4 -23l-164 -973c-1.33301 -6.66699 -2.33301 -12.834 -3 -18.501s-1 -11.834 -1 -18.501c0 -17.333 13 -34.5 39 -51.5s39 -37.167 39 -60.5c0 -24.667 -7 -43.5 -21 -56.5s-34.333 -19.5 -61 -19.5h-424z" />
    <glyph glyph-name="J" unicode="J" horiz-adv-x="1141" 
d="M1151 1479c20.667 0 36.3311 -4.67188 46.998 -14.0049s16 -22.666 16 -39.999c0 -16 -4 -29.167 -12 -39.5s-27 -22.833 -57 -37.5c-26.667 -12.667 -45 -26 -55 -40s-19 -45.667 -27 -95l-129 -832c-24 -150.667 -80.5 -259 -169.5 -325s-221.5 -99 -397.5 -99
c-136.667 0 -239.5 26 -308.5 78s-103.5 129 -103.5 231c0 84.667 32.167 160.167 96.5 226.5s139.166 99.5 224.499 99.5c49.333 0 88 -11.167 116 -33.5s42 -52.833 42 -91.5c0 -25.333 -4.66699 -46.666 -14 -63.999s-19.666 -26 -30.999 -26c-4 0 -10.833 1 -20.5 3
s-17.167 3 -22.5 3c-37.333 0 -69.166 -13.5 -95.499 -40.5s-39.5 -59.167 -39.5 -96.5c0 -41.333 12.667 -73.166 38 -95.499s61 -33.5 107 -33.5c68 0 117.833 21.333 149.5 64s57.834 129 78.501 259l112 727c3.33301 20.667 6 40.334 8 59.001s3 32.667 3 42
c0 20 -3 34.667 -9 44s-18.667 17 -38 23c-27.333 8.66699 -46.833 18.334 -58.5 29.001s-17.5 23.667 -17.5 39c0 26.667 9.66699 46 29 58s52 18 98 18h440z" />
    <glyph glyph-name="K" unicode="K" horiz-adv-x="1526" 
d="M467 225c-1.33301 -6.66699 -2.32812 -12.8242 -2.99512 -18.4912s-1 -11.834 -1 -18.501c0 -17.333 13 -34.5 39 -51.5s39 -37.167 39 -60.5c0 -25.333 -6.83301 -44.333 -20.5 -57s-33.5 -19 -59.5 -19h-414c-18.667 0 -32.834 4.5 -42.501 13.5
s-14.5 22.167 -14.5 39.5s4.16699 31.5 12.5 42.5s25.166 22.833 50.499 35.5c39.333 20 63.666 59 72.999 117c1.33301 8.66699 2.33301 15.667 3 21l164 984c1.33301 7.33301 2.33301 13.833 3 19.5s1 11.5 1 17.5c0 17.333 -13 34.666 -39 51.999s-39 37.666 -39 60.999
c0 24 7.16699 42.667 21.5 56s34.5 20 60.5 20h391c23.333 0 41.833 -5.16699 55.5 -15.5s20.5 -23.833 20.5 -40.5c0 -15.333 -4 -28.5 -12 -39.5s-26 -25.167 -54 -42.5c-22 -12.667 -37.5 -26.334 -46.5 -41.001s-17.833 -46 -26.5 -94l-78 -444
c152.667 120.667 279.5 231.667 380.5 333s151.5 165 151.5 191c0 13.333 -12.833 29.166 -38.5 47.499s-38.5 40.166 -38.5 65.499s7.16699 45 21.5 59s34.166 21 59.499 21h404c22.667 0 40.667 -5.5 54 -16.5s20 -26.167 20 -45.5c0 -26.667 -22.667 -52.334 -68 -77.001
s-78.666 -46.667 -99.999 -66l-428 -393c70 -82 137.833 -178 203.5 -288s123.5 -224.667 173.5 -344c1.33301 -3.33301 3.33301 -8.66602 6 -15.999c13.333 -34 27.666 -56.333 42.999 -67c0.666992 -0.666992 1.66699 -1.33398 3 -2.00098c38.667 -24 58 -50 58 -78
c0 -27.333 -7.83301 -48.5 -23.5 -63.5s-37.834 -22.5 -66.501 -22.5h-412c-20.667 0 -36.667 5.33301 -48 16s-17 25.667 -17 45c0 31.333 15.667 58 47 80s47 35.667 47 41c0 31.333 -26 94.166 -78 188.499s-117.333 189.166 -196 284.499
c-32 -24.667 -63.833 -47.667 -95.5 -69s-63.5 -41.333 -95.5 -60z" />
    <glyph glyph-name="L" unicode="L" horiz-adv-x="1294" 
d="M469 229c-0.666992 -4 -1.16602 -7.83203 -1.49902 -11.499s-0.5 -7.16699 -0.5 -10.5c0 -18.667 11.333 -31.5 34 -38.5s70 -10.5 142 -10.5c100.667 0 177.834 6.66699 231.501 20s100.167 36 139.5 68c11.333 9.33301 26 22.666 44 39.999c40 38.667 75.667 58 107 58
c20 0 36.333 -6.33301 49 -19s19 -29 19 -49c0 -7.33301 -0.5 -14.166 -1.5 -20.499s-2.5 -12.166 -4.5 -17.499l-74 -164c-11.333 -26 -23.5 -44.833 -36.5 -56.5s-28.167 -17.5 -45.5 -17.5h-1024c-18.667 0 -32.834 4.5 -42.501 13.5s-14.5 22.167 -14.5 39.5
s4.16699 31.5 12.5 42.5s25.166 22.833 50.499 35.5c39.333 20 63.666 59 72.999 117c1.33301 8.66699 2.33301 15.667 3 21l164 984c1.33301 7.33301 2.33301 13.833 3 19.5s1 11.5 1 17.5c0 17.333 -13 34.666 -39 51.999s-39 37.666 -39 60.999
c0 24 7.16699 42.667 21.5 56s34.5 20 60.5 20h412c28.667 0 50.167 -5.16699 64.5 -15.5s21.5 -25.833 21.5 -46.5c0 -26 -21 -48.333 -63 -67c-6.66699 -2.66699 -12 -5 -16 -7c-48.667 -20.667 -77 -59.667 -85 -117c-1.33301 -11.333 -2.66602 -20.333 -3.99902 -27z
" />
    <glyph glyph-name="M" unicode="M" horiz-adv-x="1833" 
d="M346 272c-1.33301 -8.66699 -2.33301 -16.665 -3 -23.998s-1 -13.666 -1 -18.999c0 -23.333 20.5 -44.5 61.5 -63.5s61.5 -43.5 61.5 -73.5c0 -29.333 -11.167 -52 -33.5 -68s-54.166 -24 -95.499 -24h-316c-19.333 0 -34.333 5.16699 -45 15.5s-16 24.833 -16 43.5
c0 19.333 4.66699 35.333 14 48s28 26 56 40c27.333 14 46.166 28.833 56.499 44.5s18.166 38.5 23.499 68.5l167 954c0.666992 2.66699 1.33398 6.33398 2.00098 11.001c3.33301 19.333 5 31 5 35c0 18.667 -18.833 37.667 -56.5 57s-56.5 43.333 -56.5 72
c0 28 10.333 50 31 66s50 24 88 24h397c14.667 0 29 -7 43 -21s23 -30.333 27 -49l168 -707l413 730c9.33301 16.667 20.166 28.667 32.499 36s27.5 11 45.5 11h395c21.333 0 37.666 -5.66699 48.999 -17s17 -27 17 -47c0 -19.333 -4.5 -35 -13.5 -47
s-29.167 -26.333 -60.5 -43c-45.333 -24 -73.666 -70.333 -84.999 -139c-1.33301 -8.66699 -2.33301 -15 -3 -19l-151 -923c-0.666992 -4.66699 -1.5 -11.334 -2.5 -20.001s-1.5 -14.334 -1.5 -17.001c0 -22.667 16 -42.667 48 -60s48 -38.333 48 -63
c0 -26.667 -8.83301 -47.334 -26.5 -62.001s-42.5 -22 -74.5 -22h-426c-19.333 0 -34.333 5.16699 -45 15.5s-16 24.833 -16 43.5c0 19.333 4.66699 35.333 14 48s28 26 56 40c41.333 22.667 67.333 63 78 121c0.666992 3.33301 1.33398 6 2.00098 8l174 924l-545 -950
c-10.667 -18.667 -21.667 -31.834 -33 -39.501s-24.333 -11.5 -39 -11.5c-27.333 0 -48.333 7.5 -63 22.5s-27 43.5 -37 85.5l-209 864z" />
    <glyph glyph-name="N" unicode="N" horiz-adv-x="1597" 
d="M336 248c-0.666992 -4.66699 -1.66602 -10.998 -2.99902 -18.998c-2 -13.333 -3 -20.666 -3 -21.999c0 -19.333 20.167 -37.333 60.5 -54s60.5 -40.334 60.5 -71.001c0 -26.667 -11 -47 -33 -61s-53.333 -21 -94 -21h-297c-26.667 0 -46.667 5 -60 15s-20 24.667 -20 44
c0 20 6 37.167 18 51.5s31.333 26.5 58 36.5c0.666992 0.666992 2 1.33398 4 2.00098c49.333 19.333 80 62.666 92 129.999l178 974l4 25.5c1.33301 8.33301 2 12.833 2 13.5c0 16 -18.333 32.167 -55 48.5s-55 36.5 -55 60.5s10.167 43 30.5 57s48.833 21 85.5 21h275
c30 0 54.667 -6.33301 74 -19s45.666 -41.334 78.999 -86.001c54.667 -70.667 120.667 -175.834 198 -315.501s154 -293.167 230 -460.5l105 655c1.33301 8 2.33301 15.5 3 22.5s1 12.5 1 16.5c0 15.333 -14.667 31.666 -44 48.999s-44 38 -44 62s8 42.667 24 56
s38.667 20 68 20h309c21.333 0 37.666 -5.16699 48.999 -15.5s17 -25.166 17 -44.499c0 -17.333 -4.5 -31.833 -13.5 -43.5s-28.5 -25.167 -58.5 -40.5c-44.667 -21.333 -71.667 -61.333 -81 -120c-2 -11.333 -3.66699 -20.333 -5 -27l-205 -1121
c-4.66699 -26 -17.5 -45.333 -38.5 -58s-50.5 -19 -88.5 -19c-37.333 0 -64.666 3.33301 -81.999 10s-31 19 -41 37l-565 1077z" />
    <glyph glyph-name="O" unicode="O" horiz-adv-x="1749" 
d="M975 1343c-144 0 -265.667 -76.833 -365 -230.5s-149 -347.834 -149 -582.501c0 -132 25 -232.833 75 -302.5s122.667 -104.5 218 -104.5c150 0 276.167 74.333 378.5 223s153.5 333 153.5 553c0 144.667 -26.5 254.834 -79.5 330.501s-130.167 113.5 -231.5 113.5z
M770 -43c-205.333 0 -372.668 63 -502.001 189s-194 289 -194 489c0 106.667 21.833 211.5 65.5 314.5s106.5 196.833 188.5 281.5c90.667 94 190.334 164.167 299.001 210.5s226.667 69.5 354 69.5c208.667 0 376.5 -60.333 503.5 -181s190.5 -279.334 190.5 -476.001
c0 -117.333 -21.667 -230.666 -65 -339.999s-104.333 -204.333 -183 -285c-82 -84 -181.5 -150.333 -298.5 -199s-236.5 -73 -358.5 -73z" />
    <glyph glyph-name="P" unicode="P" horiz-adv-x="1450" 
d="M545 715l24 0.000976562c143.333 0 261.166 38 353.499 114s138.5 171.667 138.5 287c0 72 -24.333 125.167 -73 159.5s-124 51.5 -226 51.5c-49.333 0 -81.166 -4.33301 -95.499 -13s-23.5 -25.334 -27.5 -50.001zM477 227.001
c-0.666992 -7.33301 -1.49805 -14.6641 -2.49805 -21.9971s-1.5 -11.333 -1.5 -12c0 -20 16.333 -38.5 49 -55.5s49 -36.833 49 -59.5c0 -24.667 -8.83301 -43.834 -26.5 -57.501s-42.834 -20.5 -75.501 -20.5h-426c-19.333 0 -34 4.5 -44 13.5s-15 22.167 -15 39.5
s4.33301 31.5 13 42.5s26 22.833 52 35.5c25.333 12 43.166 25.833 53.499 41.5s19.166 46.167 26.499 91.5l152 969c2 13.333 3.5 23.666 4.5 30.999s1.5 11.333 1.5 12c0 18 -15.667 35.833 -47 53.5s-47 39.5 -47 65.5c0 27.333 8.33301 48.166 25 62.499
s41 21.5 73 21.5h661c153.333 0 273.333 -31.833 360 -95.5s130 -151.5 130 -263.5c0 -96.667 -25.5 -182 -76.5 -256s-127.167 -136.667 -228.5 -188c-75.333 -37.333 -161.666 -66.833 -258.999 -88.5s-194 -32.5 -290 -32.5c-14 0 -35.667 1.33301 -65 4h-5z" />
    <glyph glyph-name="Q" unicode="Q" horiz-adv-x="1749" 
d="M991 -14c30.667 -20.667 61.667 -35.501 93 -44.501s68 -13.5 110 -13.5c34.667 0 70 2.5 106 7.5s54.667 7.5 56 7.5c36.667 0 64.5 -9.33301 83.5 -28s28.5 -45.667 28.5 -81c0 -48 -23.167 -84.167 -69.5 -108.5s-115.166 -36.5 -206.499 -36.5
c-115.333 0 -210 24.167 -284 72.5s-120 115.5 -138 201.5h-18c-200.667 0 -363.834 61.833 -489.501 185.5s-188.5 283.834 -188.5 480.501c0 109.333 21.667 215.333 65 318s106.333 196.667 189 282c90.667 94 190.5 164.5 299.5 211.5s226.833 70.5 353.5 70.5
c208 0 375.667 -60.667 503 -182s191 -280.333 191 -477c0 -212.667 -61.5 -397.167 -184.5 -553.5s-289.5 -260.5 -499.5 -312.5zM721 126.999c-5.33301 22.667 -9 42.6689 -11 60.002s-3 34.333 -3 51c0 54 8.66699 94.667 26 122s43.333 41 78 41
c29.333 0 51.333 -7 66 -21s22 -35 22 -63c0 -14.667 -2 -36.834 -6 -66.501s-6 -51.834 -6 -66.501c0 -8.66699 0.666992 -17.5 2 -26.5s4 -19.833 8 -32.5c30 0 61.833 13.167 95.5 39.5s68.167 65.166 103.5 116.499c59.333 86 105.833 182.333 139.5 289
s50.5 211.667 50.5 315c0 151.333 -26.333 265.5 -79 342.5s-130.667 115.5 -234 115.5c-144 0 -265.333 -77.167 -364 -231.5s-148 -350.166 -148 -587.499c0 -122 21.333 -215.667 64 -281s108 -104 196 -116z" />
    <glyph glyph-name="R" unicode="R" horiz-adv-x="1501" 
d="M449 244l-6.00195 -28.9941c-2 -10 -3 -15.333 -3 -16c0 -18.667 15.333 -35.834 46 -51.501s46 -36.834 46 -63.501c0 -26 -9.16699 -46.5 -27.5 -61.5s-43.833 -22.5 -76.5 -22.5h-405c-20.667 0 -36.5 5.16699 -47.5 15.5s-16.5 24.833 -16.5 43.5
c0 19.333 5 35.5 15 48.5s29 26.167 57 39.5c28 15.333 47.333 31.666 58 48.999s19.334 45.666 26.001 84.999l172 989c2.66699 14.667 4 27 4 37c0 14.667 -14.333 29.667 -43 45s-43 34.333 -43 57c0 22 7.83301 39.167 23.5 51.5s37.834 18.5 66.501 18.5h758
c134.667 0 233.167 -23.333 295.5 -70s93.5 -119.667 93.5 -219c0 -106.667 -32.5 -196.334 -97.5 -269.001s-156.833 -122.334 -275.5 -149.001c54.667 -94 97.5 -208.333 128.5 -343s50.5 -211 58.5 -229c8 -18.667 25 -37.5 51 -56.5s39 -38.833 39 -59.5
c0 -26 -9.16699 -46.5 -27.5 -61.5s-43.5 -22.5 -75.5 -22.5h-401c-22 0 -38.833 5.5 -50.5 16.5s-17.5 26.5 -17.5 46.5c0 17.333 4 32 12 44s21 23.333 39 34c6.66699 4 14.667 8 24 12c28 12.667 42 34.667 42 66c0 44.667 -13 110.5 -39 197.5s-60 172.833 -102 257.5
c-36.667 -12 -74.167 -21.333 -112.5 -28s-78.5 -11 -120.5 -13zM544.998 813.006c182 19.333 312.498 55.833 391.498 109.5s118.5 132.5 118.5 236.5c0 60.667 -17.167 104.5 -51.5 131.5s-90.166 40.5 -167.499 40.5c-84 0 -139.167 -8.5 -165.5 -25.5
s-45.166 -54.167 -56.499 -111.5z" />
    <glyph glyph-name="S" unicode="S" horiz-adv-x="1395" 
d="M518 618c-123.333 51.333 -210.836 107.831 -262.503 169.498s-77.5 139.167 -77.5 232.5c0 144.667 56.833 262.667 170.5 354s262.5 137 446.5 137c140 0 262 -20.833 366 -62.5s156 -89.5 156 -143.5c0 -80 -9 -139.333 -27 -178s-45.333 -58 -82 -58
c-46.667 0 -78 32 -94 96c-3.33301 14 -6 24.333 -8 31c-15.333 48 -48.666 85.333 -99.999 112s-115.666 40 -192.999 40c-76.667 0 -136.834 -18.167 -180.501 -54.5s-65.5 -85.833 -65.5 -148.5c0 -46 12.833 -83.667 38.5 -113s79.167 -60.666 160.5 -93.999l264 -111
c90.667 -38 157.334 -86.333 200.001 -145s64 -131.667 64 -219c0 -148.667 -65.667 -270.167 -197 -364.5s-303.666 -141.5 -516.999 -141.5c-168.667 0 -310.5 36.167 -425.5 108.5s-172.5 158.5 -172.5 258.5c0 45.333 15.333 83.166 46 113.499s69.667 45.5 117 45.5
c50 0 90.167 -16.167 120.5 -48.5s49.166 -79.166 56.499 -140.499c0.666992 -6.66699 1.33398 -16 2.00098 -28c2 -40 17.667 -70 47 -90c22.667 -14.667 54 -26.5 94 -35.5s83 -13.5 129 -13.5c92.667 0 167 19.667 223 59s84 91.333 84 156
c0 42.667 -11.5 77.834 -34.5 105.501s-66.833 54.5 -131.5 80.5z" />
    <glyph glyph-name="T" unicode="T" horiz-adv-x="1233" 
d="M737 227c-1.33301 -6 -2.33105 -11.835 -2.99805 -17.502s-1 -11.167 -1 -16.5c0 -20 16 -38.167 48 -54.5s48 -36.5 48 -60.5c0 -24.667 -8.66699 -43.834 -26 -57.501s-42 -20.5 -74 -20.5h-440c-20.667 0 -36.834 5 -48.501 15s-17.5 24 -17.5 42
c0 18.667 5.16699 33.834 15.5 45.501s29.833 23.834 58.5 36.501c30 14.667 50.5 30.334 61.5 47.001s19.833 44 26.5 82l180 1049h-20c-59.333 0 -108.666 -5.83301 -147.999 -17.5s-77.333 -31.167 -114 -58.5c-18.667 -14 -41.334 -33.667 -68.001 -59
c-40.667 -40 -74 -60 -100 -60c-15.333 0 -27.333 4 -36 12s-13 18.333 -13 31c0 11.333 0.166992 19.166 0.5 23.499s1.5 8.83301 3.5 13.5l82 215c6 18 19.167 32.833 39.5 44.5s43.166 17.5 68.499 17.5h985c31.333 0 53.833 -6.33301 67.5 -19s20.5 -33 20.5 -61v-180
c0 -19.333 -7.33301 -36.166 -22 -50.499s-31.667 -21.5 -51 -21.5c-26 0 -56.333 22 -91 66c-14 17.333 -24.667 30 -32 38c-20 20.667 -44 35.5 -72 44.5s-75.667 14.833 -143 17.5z" />
    <glyph glyph-name="U" unicode="U" horiz-adv-x="1602" 
d="M1468 647c-9.33301 -105.333 -25.665 -191.499 -48.998 -258.499s-56.666 -126.833 -99.999 -179.5c-64.667 -80 -151.167 -142 -259.5 -186s-229.5 -66 -363.5 -66c-185.333 0 -329.5 39.667 -432.5 119s-154.5 190 -154.5 332c0 33.333 2.83301 72.333 8.5 117
s13.5 89.334 23.5 134.001l140 595l4.5 23c1 5.33301 1.5 9 1.5 11c0 18 -15 35.667 -45 53s-45 38 -45 62c0 23.333 8.33301 41.833 25 55.5s39.667 20.5 69 20.5h434c22.667 0 39.667 -5.16699 51 -15.5s17 -25.833 17 -46.5s-5.33301 -37.5 -16 -50.5
s-30.667 -26.167 -60 -39.5c-27.333 -12.667 -46.833 -28.667 -58.5 -48s-22.834 -52.333 -33.501 -99l-107 -432c-13.333 -57.333 -23.833 -113.333 -31.5 -168s-11.5 -101.334 -11.5 -140.001c0 -100 23.5 -174.5 70.5 -223.5s118.5 -73.5 214.5 -73.5
c107.333 0 195.666 23.5 264.999 70.5s119.666 117.167 150.999 210.5c13.333 41.333 25.666 91.333 36.999 150s23.333 137.667 36 237c14.667 109.333 24.5 192 29.5 248s7.5 105 7.5 147c0 47.333 -2.16699 78.166 -6.5 92.499s-12.166 25.833 -23.499 34.5
c-4.66699 3.33301 -12.667 7.66602 -24 12.999c-33.333 16.667 -50 36.334 -50 59.001c0 24 9.16699 42.333 27.5 55s44.5 19 78.5 19h303c22.667 0 40 -4.83301 52 -14.5s18 -23.5 18 -41.5c0 -26 -21.5 -50.167 -64.5 -72.5s-66.5 -55.5 -70.5 -99.5z" />
    <glyph glyph-name="V" unicode="V" horiz-adv-x="1389" 
d="M696 287c134 218.667 243.331 420.169 327.998 604.502s127 304.166 127 359.499c0 27.333 -21.167 52.666 -63.5 75.999s-63.5 48 -63.5 74c0 24.667 7.66699 43.834 23 57.501s37 20.5 65 20.5h338c20 0 35.167 -5.16699 45.5 -15.5s15.5 -25.166 15.5 -44.499
c0 -23.333 -14 -49.333 -42 -78c-18.667 -18 -32.667 -33.667 -42 -47c-10.667 -14.667 -39.167 -78.834 -85.5 -192.501s-92.833 -218.834 -139.5 -315.501c-74 -154.667 -145.667 -292 -215 -412s-134.666 -220 -195.999 -300l-8 -11
c-55.333 -70.667 -119.666 -106 -192.999 -106c-47.333 0 -80.833 4.16699 -100.5 12.5s-37.5 24.5 -53.5 48.5c-26 38 -59.833 123.167 -101.5 255.5s-76.834 275.166 -105.501 428.499c-34 188.667 -58 366.667 -72 534c-2 19.333 -3 30.666 -3 33.999
c-3.33301 22.667 -16.166 44.334 -38.499 65.001s-33.5 40.667 -33.5 60c0 26 8.66699 46.5 26 61.5s41.333 22.5 72 22.5h389c21.333 0 37.333 -5.33301 48 -16s16 -26.667 16 -48c0 -18 -3.66699 -33.167 -11 -45.5s-19 -23.166 -35 -32.499
c-7.33301 -4.66699 -17.333 -10 -30 -16c-26 -12 -39 -35.333 -39 -70c0 -129.333 15.167 -276 45.5 -440s74.5 -338.667 132.5 -524z" />
    <glyph glyph-name="W" unicode="W" horiz-adv-x="1835" 
d="M895 688l-283 -596.003c-24.667 -54 -49.5 -90 -74.5 -108s-59.5 -27 -103.5 -27c-44.667 0 -76.5 8.33301 -95.5 25s-38.167 56 -57.5 118c-24 74 -44.167 160.5 -60.5 259.5s-30.5 219.5 -42.5 361.5c-10 118 -16.833 238.167 -20.5 360.5s-6.16699 187.5 -7.5 195.5
c-4 21.333 -17 41.833 -39 61.5s-33 38.5 -33 56.5c0 25.333 8.83301 45.666 26.5 60.999s41.5 23 71.5 23h381c20.667 0 36 -5.16699 46 -15.5s15 -25.833 15 -46.5c0 -19.333 -3.83301 -35.166 -11.5 -47.499s-22.167 -24.5 -43.5 -36.5
c-2.66699 -1.33301 -6.33398 -3.33301 -11.001 -6c-34.667 -20.667 -52 -66.334 -52 -137.001c0 -110 6 -232.667 18 -368s29.667 -275.666 53 -420.999l215 504c24.667 59.333 43.834 118.166 57.501 176.499s20.5 109.5 20.5 153.5c0 48.667 -11.833 85 -35.5 109
s-35.5 43 -35.5 57c0 24 8.33301 43 25 57s39.667 21 69 21h366c20.667 0 36.5 -5 47.5 -15s16.5 -24.333 16.5 -43c0 -32 -21.667 -59.333 -65 -82c-12 -6.66699 -21 -12 -27 -16c-16.667 -10 -28.334 -23.333 -35.001 -40s-10 -41 -10 -73
c0 -23.333 1.83301 -56.833 5.5 -100.5s9.16699 -93.167 16.5 -148.5l76 -558c94 196.667 170.667 376.5 230 539.5s89 266.5 89 310.5c0 25.333 -18.667 50 -56 74s-56 48.667 -56 74c0 24.667 6.83301 43.834 20.5 57.501s32.834 20.5 57.501 20.5h301
c17.333 0 30.5 -5.16699 39.5 -15.5s13.5 -25.166 13.5 -44.499c0 -23.333 -15.333 -53 -46 -89c-18 -20.667 -32 -38 -42 -52c-10 -14.667 -28 -63.667 -54 -147c-16 -52.667 -29.333 -95 -40 -127c-52 -155.333 -107.5 -301.166 -166.5 -437.499
s-117.5 -254.833 -175.5 -355.5l-47 -83c-62.667 -114 -127.667 -171 -195 -171c-41.333 0 -70.333 5 -87 15s-32.667 33.667 -48 71c-22 56.667 -44.167 142.834 -66.5 258.501s-40.5 244.5 -54.5 386.5z" />
    <glyph glyph-name="X" unicode="X" horiz-adv-x="1456" 
d="M344 0l-362.003 0.000976562c-16 0 -29.333 6.33301 -40 19s-16 28.334 -16 47.001c0 25.333 18 48.166 54 68.499s63.667 39.833 83 58.5c14.667 14 72.5 80.833 173.5 200.5l293.5 335.5c-135.333 201.333 -238.333 385.333 -309 552c-4 9.33301 -6.66699 15 -8 17
c-8.66699 17.333 -28.667 34 -60 50s-47 35.667 -47 59c0 21.333 5.66699 38.666 17 51.999s26.333 20 45 20h459c19.333 0 34.333 -5.33301 45 -16s16 -25.334 16 -44.001c0 -24 -13 -46.167 -39 -66.5s-39 -34.833 -39 -43.5c0 -8 5.83301 -23.833 17.5 -47.5
s29.834 -57.167 54.501 -100.5l113 -194l190 217c24.667 27.333 41.834 49.333 51.501 66s14.5 32 14.5 46c0 16.667 -12.667 32.334 -38 47.001s-38 30.667 -38 48c0 30 6.5 52.167 19.5 66.5s33.167 21.5 60.5 21.5h315c30.667 0 55 -6.5 73 -19.5s27 -30.5 27 -52.5
c0 -34 -22 -63 -66 -87c-34.667 -18 -61.667 -36 -81 -54c-4 -4 -51 -57 -141 -159s-183 -198.667 -279 -290c89.333 -124 173.833 -257.167 253.5 -399.5s120.167 -214.5 121.5 -216.5c14 -21.333 36.667 -41.166 68 -59.499s47 -41.5 47 -69.5c0 -24 -7.33301 -42 -22 -54
s-36 -18 -64 -18h-441c-19.333 0 -35 6.16699 -47 18.5s-18 28.833 -18 49.5c0 23.333 13.333 44.333 40 63s40 33.667 40 45c0 9.33301 -2.16699 19.666 -6.5 30.999s-11.166 24.333 -20.499 39l-211 334l-156 -197l-23 -29c-64.667 -80.667 -97 -133.667 -97 -159
c0 -20 11.167 -37.5 33.5 -52.5s33.5 -32.5 33.5 -52.5c0 -30 -7.5 -52.5 -22.5 -67.5s-37.5 -22.5 -67.5 -22.5z" />
    <glyph glyph-name="Y" unicode="Y" horiz-adv-x="1360" 
d="M782 243c-1.33301 -7.33301 -2.33105 -14.0029 -2.99805 -20.0029s-1 -11.333 -1 -16c0 -22 17.5 -41.667 52.5 -59s52.5 -38.666 52.5 -63.999c0 -26 -9.83301 -46.5 -29.5 -61.5s-46.834 -22.5 -81.501 -22.5h-442c-20.667 0 -36.834 5.33301 -48.501 16
s-17.5 25 -17.5 43c0 18.667 4.66699 34 14 46s29.333 26 60 42c28.667 15.333 47.667 30.5 57 45.5s16.333 39.167 21 72.5l49 339c-66.667 92 -129.167 192 -187.5 300s-115.5 228.667 -171.5 362c-10.667 26.667 -33 50.167 -67 70.5s-51 43.833 -51 70.5
c0 21.333 8.16699 38.666 24.5 51.999s38.166 20 65.499 20h461c21.333 0 37.5 -5.16699 48.5 -15.5s16.5 -25.166 16.5 -44.499c0 -29.333 -16.333 -53.166 -49 -71.499s-49 -34.166 -49 -47.499s12.167 -48.833 36.5 -106.5s54.5 -118.834 90.5 -183.501l115 -207l172 190
c52.667 60 98.834 121.333 138.501 184s59.5 101 59.5 115c0 8 -15.333 21.5 -46 40.5s-46 41.167 -46 66.5c0 24.667 8 44.167 24 58.5s38 21.5 66 21.5h322c21.333 0 37.5 -5.5 48.5 -16.5s16.5 -26.833 16.5 -47.5c0 -29.333 -19 -57.333 -57 -84s-63.333 -49 -76 -67
c-88 -127.333 -173.5 -240.166 -256.5 -338.499s-173.5 -195.833 -271.5 -292.5z" />
    <glyph glyph-name="Z" unicode="Z" horiz-adv-x="1262" 
d="M983 0l-978.998 0.00195312c-28.667 0 -48.834 5.66699 -60.501 17s-17.5 30.333 -17.5 57c0 40 14.667 85.5 44 136.5s79.666 117.5 150.999 199.5l776 886h-303c-82 0 -156.833 -27.167 -224.5 -81.5s-109.5 -81.5 -125.5 -81.5c-18 0 -32.167 6 -42.5 18
s-15.5 29 -15.5 51c0 6 0.333008 11.167 1 15.5s1.66699 8.83301 3 13.5l58 186c6 21.333 18.167 37 36.5 47s44.166 15 77.499 15h863c28 0 51 -7.5 69 -22.5s27 -34.167 27 -57.5c0 -44.667 -20.667 -102 -62 -172s-101.333 -148.667 -180 -236l-733 -811h348
c48.667 0 95.334 6 140.001 18s80 28 106 48c14.667 10.667 37.334 31 68.001 61s55.667 45 75 45c18.667 0 32.667 -5.33301 42 -16s14 -26.334 14 -47.001c0 -10 -0.333008 -17.333 -1 -22s-2 -9.33398 -4 -14.001l-65 -210c-3.33301 -11.333 -13.333 -21.333 -30 -30
s-35.334 -13 -56.001 -13z" />
    <glyph glyph-name="bracketleft" unicode="[" horiz-adv-x="786" 
d="M362 -129l160.001 0.000976562c15.333 0 25.666 -3.33301 30.999 -10s8 -19 8 -37c0 -48.667 -5.83301 -82 -17.5 -100s-35.167 -27 -70.5 -27h-299c-12 0 -23.167 4.66699 -33.5 14s-15.5 19.666 -15.5 30.999l6 35l279 1626c4 26.667 13 46 27 58s34.333 18 61 18h307
c14 0 24 -3.5 30 -10.5s9 -19.167 9 -36.5c0 -48.667 -6 -82 -18 -100s-35.333 -27 -70 -27h-146z" />
    <glyph glyph-name="backslash" unicode="\" horiz-adv-x="555" 
d="M231 1413l163.999 -1540v-16c0 -18 -5.16699 -30.833 -15.5 -38.5s-28.833 -11.5 -55.5 -11.5c-20 0 -34.167 6.66699 -42.5 20s-14.833 40.333 -19.5 81l-164 1540c0 2.66699 -0.333008 5.83398 -1 9.50098s-1 5.83398 -1 6.50098c0 18 5.33301 30.667 16 38
s29.334 11 56.001 11c20 0 34.5 -6.66699 43.5 -20s15.5 -40 19.5 -80z" />
    <glyph glyph-name="bracketright" unicode="]" horiz-adv-x="786" 
d="M369 1305l-158 0.00292969c-14.667 0 -24.834 3.33301 -30.501 10s-8.5 19 -8.5 37c0 48 5.83301 81.167 17.5 99.5s35.167 27.5 70.5 27.5h297c12.667 0 24.334 -4.83301 35.001 -14.5s16 -19.834 16 -30.501c-1.33301 -8.66699 -3.33301 -20.334 -6 -35.001l-278 -1626
c-4 -26.667 -13.333 -46 -28 -58s-35.667 -18 -63 -18h-305c-14 0 -24 3.5 -30 10.5s-9 19.167 -9 36.5c0 49.333 6.16699 83.166 18.5 101.499s35.5 27.5 69.5 27.5h146z" />
    <glyph glyph-name="asciicircum" unicode="^" horiz-adv-x="2048" 
d="M905 1462h236l491 -565h-112l-498 373l-498 -373h-112z" />
    <glyph glyph-name="underscore" unicode="_" 
d="M0 -279h1024v-204h-1024v204z" />
    <glyph glyph-name="grave" unicode="`" 
d="M592 1401l248 -318h-121l-275 179c-26.667 18 -46.167 35.5 -58.5 52.5s-18.5 34.833 -18.5 53.5c0 31.333 9.5 57 28.5 77s43.5 30 73.5 30c22.667 0 44.167 -6.16699 64.5 -18.5s39.833 -30.833 58.5 -55.5z" />
    <glyph glyph-name="a" unicode="a" horiz-adv-x="1124" 
d="M608 825c-66 0 -124.501 -51.334 -175.501 -154.001s-76.5 -224.667 -76.5 -366c0 -52 10 -92.667 30 -122s47.667 -44 83 -44c66.667 0 124.334 53.833 173.001 161.5s73 234.834 73 381.501c0 45.333 -9.5 80.5 -28.5 105.5s-45.167 37.5 -78.5 37.5zM708.999 222.999
c-50.667 -87.333 -104.497 -151.165 -161.497 -191.498s-122.167 -60.5 -195.5 -60.5c-93.333 0 -166.5 31.667 -219.5 95s-79.5 151.333 -79.5 264c0 173.333 54.5 323.833 163.5 451.5s236.167 191.5 381.5 191.5c56.667 0 106.667 -11.333 150 -34
s78.666 -55.667 105.999 -99c4 31.333 26.333 60.666 67 87.999s77 41 109 41c15.333 0 27.333 -4.83301 36 -14.5s13 -22.834 13 -39.501c0 -2 -0.333008 -4.66699 -1 -8s-1 -6 -1 -8l-110 -583c-2.66699 -10.667 -4.33398 -20.167 -5.00098 -28.5s-1 -17.5 -1 -27.5
c0 -26.667 14.333 -48 43 -64s43 -33.667 43 -53c0 -33.333 -35.333 -70.333 -106 -111s-132.334 -61 -185.001 -61c-24.667 0 -43.167 7.83301 -55.5 23.5s-18.5 38.5 -18.5 68.5c0 15.333 2 35.333 6 60s11 58 21 100z" />
    <glyph glyph-name="b" unicode="b" horiz-adv-x="1223" 
d="M305 84c-41.333 -36.667 -81.333 -64.998 -120 -84.998s-72.334 -30 -101.001 -30c-14 0 -25 4.5 -33 13.5s-12 20.833 -12 35.5c0 18.667 5 49 15 91s16.667 72.667 20 92l174 1018c1.33301 6 2.33301 12.5 3 19.5s1 14.833 1 23.5
c0 27.333 -17.833 46.666 -53.5 57.999s-53.5 26.666 -53.5 45.999c0 14.667 6.83301 27.834 20.5 39.501s37.834 24.5 72.501 38.5c54 20.667 107.167 37 159.5 49s93.833 18 124.5 18c22 0 38.833 -4.5 50.5 -13.5s17.5 -22.167 17.5 -39.5v-12l-96 -621
c33.333 48.667 76.333 85.5 129 110.5s112.667 37.5 180 37.5c108.667 0 196.5 -34.167 263.5 -102.5s100.5 -157.833 100.5 -268.5c0 -176.667 -60.167 -326.334 -180.5 -449.001s-265.5 -184 -435.5 -184c-60 0 -110 9.33301 -150 28s-72 47.667 -96 87zM684 811.002
c-70.667 0 -131.665 -51 -182.998 -153s-77 -223.667 -77 -365c0 -57.333 11.667 -101.333 35 -132s56.666 -46 99.999 -46c76 0 138.333 46.833 187 140.5s73 212.5 73 356.5c0 63.333 -11.833 112.333 -35.5 147s-56.834 52 -99.501 52z" />
    <glyph glyph-name="c" unicode="c" horiz-adv-x="1118" 
d="M541 -29c-148.667 0 -263.998 35.668 -345.998 107.001s-123 171 -123 299c0 166 58.667 306.5 176 421.5s264 172.5 440 172.5c116 0 211.5 -22.667 286.5 -68s112.5 -100 112.5 -164c0 -36.667 -15.333 -67.334 -46 -92.001s-69.667 -37 -117 -37
c-46 0 -82.167 14.833 -108.5 44.5s-39.5 69.5 -39.5 119.5c0 12 -8.33301 24.167 -25 36.5s-36.334 18.5 -59.001 18.5c-66.667 0 -127.667 -46.667 -183 -140s-83 -196.666 -83 -309.999c0 -79.333 18.667 -139.833 56 -181.5s91.666 -62.5 162.999 -62.5
c81.333 0 157 25 227 75s109 75 117 75c15.333 0 27.333 -4.83301 36 -14.5s13 -22.834 13 -39.501c0 -56.667 -51.833 -114.167 -155.5 -172.5s-217.5 -87.5 -341.5 -87.5z" />
    <glyph glyph-name="d" unicode="d" horiz-adv-x="1237" 
d="M879 1262l0.00292969 6.00293c0 19.333 -15.833 34.166 -47.5 44.499s-47.5 24.166 -47.5 41.499c0 19.333 7.16699 35.5 21.5 48.5s41.5 26.833 81.5 41.5c58 21.333 113.5 38.166 166.5 50.499s91.5 18.5 115.5 18.5c26 0 45.167 -5 57.5 -15s18.5 -25.333 18.5 -46
c0 -7.33301 -0.166992 -13.166 -0.5 -17.499s-0.833008 -8.16602 -1.5 -11.499l-174 -1138c0 -2 -0.333008 -4.66699 -1 -8s-1 -5.66602 -1 -6.99902c0 -24 17.333 -43.667 52 -59s52 -34.333 52 -57c0 -38.667 -38.333 -78.834 -115 -120.501
s-145.334 -62.5 -206.001 -62.5c-27.333 0 -48.5 9.5 -63.5 28.5s-22.5 45.833 -22.5 80.5c0 19.333 6.33301 59.666 19 120.999c3.33301 15.333 5.66602 26.666 6.99902 33.999c-34 -84 -84.167 -149 -150.5 -195s-142.833 -69 -229.5 -69c-105.333 0 -190.5 35 -255.5 105
s-97.5 161.333 -97.5 274c0 80.667 17.167 161 51.5 241s81.5 150 141.5 210c54.667 53.333 117.167 95.333 187.5 126s140.166 46 209.499 46c39.333 0 74 -6.33301 104 -19s56 -31.667 78 -57zM655.003 840.003c-65.333 0 -125 -51.1689 -179 -153.502
s-81 -217.166 -81 -344.499c0 -65.333 11.167 -114.833 33.5 -148.5s54.833 -50.5 97.5 -50.5c73.333 0 134.333 49.833 183 149.5s73 224.167 73 373.5c0 52.667 -11.5 94.834 -34.5 126.501s-53.833 47.5 -92.5 47.5z" />
    <glyph glyph-name="e" unicode="e" horiz-adv-x="1124" 
d="M414 397c-2 -12 -3.16895 -22.001 -3.50195 -30.001s-0.5 -15.667 -0.5 -23c0 -66.667 18.833 -118.834 56.5 -156.501s89.834 -56.5 156.501 -56.5c80.667 0 159.834 24.667 237.501 74s120.5 74 128.5 74c14.667 0 27.167 -5.5 37.5 -16.5s15.5 -24.167 15.5 -39.5
c0 -53.333 -55.833 -108.666 -167.5 -165.999s-235.167 -86 -370.5 -86c-136 0 -242.667 36.5 -320 109.5s-116 173.167 -116 300.5c0 164.667 62 304.5 186 419.5s272 172.5 444 172.5c120.667 0 214.667 -20.667 282 -62s101 -98.666 101 -171.999
c0 -93.333 -57 -169.333 -171 -228s-279.333 -96.667 -496 -114zM415.998 527.999c105.333 10.667 192.668 38.668 262.001 84.001s104 94.666 104 147.999c0 28 -8.66699 49.667 -26 65s-42 23 -74 23c-56.667 0 -108.834 -28.5 -156.501 -85.5
s-84.167 -135.167 -109.5 -234.5z" />
    <glyph glyph-name="f" unicode="f" horiz-adv-x="621" 
d="M506 948h124.998c16 0 28.167 -5 36.5 -15s12.5 -25.333 12.5 -46c0 -27.333 -6.5 -47.833 -19.5 -61.5s-32.5 -20.5 -58.5 -20.5h-115l-63 -402c-45.333 -286.667 -110 -490.667 -194 -612s-199.667 -182 -347 -182c-62 0 -111.667 14.5 -149 43.5s-56 67.167 -56 114.5
c0 36 11.667 65.333 35 88s53.333 34 90 34c33.333 0 58.833 -8.83301 76.5 -26.5s26.5 -42.834 26.5 -75.501v-33c0 -12.667 2.33301 -22.667 7 -30s10.334 -11 17.001 -11c32.667 0 61.167 18.833 85.5 56.5s41.166 88.5 50.499 152.5l116 883h-61
c-16.667 0 -29.334 5.16699 -38.001 15.5s-13 25.5 -13 45.5c0 27.333 6.5 47.833 19.5 61.5s32.167 20.5 57.5 20.5h52c14.667 185.333 61.5 326.333 140.5 423s187.167 145 324.5 145c65.333 0 118.833 -15.167 160.5 -45.5s62.5 -67.833 62.5 -112.5
c0 -38 -10.833 -68.333 -32.5 -91s-50.5 -34 -86.5 -34c-28.667 0 -52.167 6.5 -70.5 19.5s-30.166 31.5 -35.499 55.5c-2.66699 10.667 -4 26.334 -4 47.001c0 33.333 -7.66699 50 -23 50c-23.333 0 -42.166 -15.5 -56.499 -46.5s-26.166 -83.167 -35.499 -156.5z" />
    <glyph glyph-name="g" unicode="g" horiz-adv-x="1128" 
d="M631 827c-63.333 0 -118.167 -45.668 -164.5 -137.001s-69.5 -200.666 -69.5 -327.999c0 -48.667 10 -86 30 -112s49 -39 87 -39c60.667 0 112.667 44.667 156 134s65 198.333 65 327c0 53.333 -8.33301 92.5 -25 117.5s-43 37.5 -79 37.5zM747.999 134.999
l37.9961 -0.00195312c59.333 0 106.333 -16.667 141 -50s52 -78.666 52 -135.999c0 -102 -56 -184.5 -168 -247.5s-260.667 -94.5 -446 -94.5c-146.667 0 -251.667 13.833 -315 41.5s-95 73.167 -95 136.5c0 50.667 22.667 95 68 133s97 57 155 57
c22.667 0 40.334 -4 53.001 -12s19 -19 19 -33c0 -6 -4.16699 -16.833 -12.5 -32.5s-12.5 -28.5 -12.5 -38.5c0 -26.667 17 -47 51 -61s82.667 -21 146 -21c87.333 0 155.5 13.5 204.5 40.5s73.5 63.833 73.5 110.5c0 71.333 -69 114 -207 128
c-29.333 2.66699 -52.666 5.33398 -69.999 8.00098c-125.333 15.333 -217.666 51.5 -276.999 108.5s-89 138.167 -89 243.5c0 154.667 55.667 285.834 167 393.501s250.333 161.5 417 161.5c32 0 82.333 -5.5 151 -16.5s125 -16.5 169 -16.5h133
c32.667 0 54.834 -4.83301 66.501 -14.5s17.5 -27.5 17.5 -53.5c0 -29.333 -6.66699 -49.833 -20 -61.5s-41.666 -17.5 -84.999 -17.5c-14.667 0 -32.334 0.666992 -53.001 2s-42.667 3.33301 -66 6c38 -24 66.333 -53.667 85 -89s28 -77.333 28 -126
c0 -109.333 -29 -204.833 -87 -286.5s-135.333 -135.834 -232 -162.501z" />
    <glyph glyph-name="h" unicode="h" horiz-adv-x="1237" 
d="M350 0l-261.998 0.00390625c-10.667 0 -18.167 2.66699 -22.5 8s-6.5 15 -6.5 29v12v6l244 1180c0.666992 2 1.83398 7.33301 3.50098 16s2.5 15.667 2.5 21c0 24 -15.667 41.667 -47 53s-47 28.333 -47 51c0 15.333 5.16699 28 15.5 38s29.166 20 56.499 30
c58 21.333 116.667 38.666 176 51.999s103.666 20 132.999 20c22 0 39.5 -5.83301 52.5 -17.5s19.5 -27.167 19.5 -46.5c0 -10.667 -0.333008 -19 -1 -25s-1.66699 -12 -3 -18l-119 -594c32.667 47.333 76.334 85.5 131.001 114.5s110.667 43.5 168 43.5
c84.667 0 154 -24.333 208 -73s81 -110.334 81 -185.001c0 -32.667 -3.66699 -69 -11 -109c-0.666992 -4 -1.33398 -7.33301 -2.00098 -10l-57 -285c-0.666992 -2 -1 -4 -1 -6c-4.66699 -22.667 -7 -38.334 -7 -47.001c0 -23.333 14.667 -43.833 44 -61.5
s44 -34.167 44 -49.5s-6 -29 -18 -41s-34.667 -26.333 -68 -43c-52 -25.333 -102.333 -46 -151 -62s-84.334 -24 -107.001 -24c-30.667 0 -54 9.83301 -70 29.5s-24 48.167 -24 85.5c0 15.333 1.16699 31.666 3.5 48.999s5.83301 36 10.5 56l88 413
c2.66699 12 4.66699 23.667 6 35s2 23.666 2 36.999c0 40 -6.66699 68.167 -20 84.5s-36 24.5 -68 24.5c-55.333 0 -104.833 -31 -148.5 -93s-77.5 -150 -101.5 -264l-86 -410c-1.33301 -7.33301 -4.83301 -13.166 -10.5 -17.499s-12.5 -6.5 -20.5 -6.5h-10z" />
    <glyph glyph-name="i" unicode="i" horiz-adv-x="639" 
d="M221 1186c0 49.333 22.999 91.333 68.999 126s103 52 171 52c49.333 0 88.333 -12.667 117 -38s43 -60.333 43 -105c0 -56 -21.667 -100.5 -65 -133.5s-101.666 -49.5 -174.999 -49.5c-48 0 -86.667 13.5 -116 40.5s-44 62.833 -44 107.5zM101.999 198l95.001 470.001
c2 8 3.5 15.833 4.5 23.5s1.5 14.834 1.5 21.501c0 24.667 -17.5 42.667 -52.5 54s-52.5 28.666 -52.5 51.999c0 16 4.5 30.167 13.5 42.5s22.5 22.833 40.5 31.5c48 22 105.167 40.833 171.5 56.5s118.166 23.5 155.499 23.5c30.667 0 54 -5.66699 70 -17
s24 -27.666 24 -48.999v-10.5c0 -2.33301 -0.666992 -5.16602 -2 -8.49902l-127 -600c-1.33301 -6 -2.33301 -11.5 -3 -16.5s-1 -10.167 -1 -15.5c0 -19.333 15.833 -37.833 47.5 -55.5s47.5 -36.834 47.5 -57.501c0 -18.667 -6.33301 -34.334 -19 -47.001
s-38.667 -27.667 -78 -45c-66.667 -30 -119 -50.833 -157 -62.5s-71.667 -17.5 -101 -17.5c-31.333 0 -55.166 8.5 -71.499 25.5s-24.5 42.167 -24.5 75.5c0 13.333 1.16699 28.666 3.5 45.999s7.16602 44 14.499 80z" />
    <glyph glyph-name="j" unicode="j" horiz-adv-x="674" 
d="M233 1186c0 49.333 22.832 91.333 68.499 126s102.167 52 169.5 52c49.333 0 88.333 -12.667 117 -38s43 -60.333 43 -105c0 -56 -21.667 -100.5 -65 -133.5s-101.666 -49.5 -174.999 -49.5c-47.333 0 -85.5 13.5 -114.5 40.5s-43.5 62.833 -43.5 107.5zM224.999 674
c0.666992 1.33301 1.00293 2.99805 1.00293 4.99805c2 14.667 3 26 3 34c0 22 -16.333 40 -49 54s-49 32.667 -49 56c0 18.667 7.83301 35 23.5 49s39.834 26.333 72.501 37c60.667 19.333 119.667 34.833 177 46.5s100 17.5 128 17.5c19.333 0 34.5 -6.66699 45.5 -20
s16.5 -31.333 16.5 -54c0 -5.33301 -1 -15.333 -3 -30c-0.666992 -3.33301 -1 -5.66602 -1 -6.99902l-131 -751c-32.667 -187.333 -86.834 -318.166 -162.501 -392.499s-186.834 -111.5 -333.501 -111.5c-68 0 -120.5 12.167 -157.5 36.5s-55.5 58.5 -55.5 102.5
c0 36.667 11.167 66 33.5 88s52.166 33 89.499 33c26.667 0 48.667 -5.5 66 -16.5s30 -27.167 38 -48.5c3.33301 -8 5.66602 -19 6.99902 -33c2.66699 -22 10.667 -33 24 -33c19.333 0 35.5 14.333 48.5 43s26.833 84 41.5 166z" />
    <glyph glyph-name="k" unicode="k" horiz-adv-x="1225" 
d="M467 547c86.667 134.667 181.834 238.995 285.501 312.995s205.167 111 304.5 111c40 0 70.833 -9.66699 92.5 -29s32.5 -47.333 32.5 -84c0 -28 -10.333 -52 -31 -72s-46.667 -30 -78 -30c-22.667 0 -50.667 4.33301 -84 13s-55.666 13 -66.999 13
c-23.333 0 -46.833 -5.33301 -70.5 -16s-52.834 -29.667 -87.501 -57c62 -181.333 116 -308.666 162 -381.999s93.667 -110 143 -110c2.66699 0 8.5 0.333008 17.5 1s16.833 1 23.5 1c17.333 0 30.5 -4.5 39.5 -13.5s13.5 -22.167 13.5 -39.5
c0 -32.667 -38.333 -69.834 -115 -111.501s-140.667 -62.5 -192 -62.5c-32.667 0 -65 13.333 -97 40s-66 69.334 -102 128.001c-32.667 54.667 -58.167 111.834 -76.5 171.501s-27.5 115.834 -27.5 168.501v24c-55.333 -70.667 -99.833 -149.167 -133.5 -235.5
s-50.5 -159.833 -50.5 -220.5v-29c0 -17.333 -2.83301 -28.166 -8.5 -32.499s-20.167 -6.5 -43.5 -6.5h-237c-6 0 -11.333 1.5 -16 4.5s-7 6.16699 -7 9.5c0 8.66699 1.33301 19 4 31l207 1130c4.66699 24.667 8 43.5 10 56.5s3 22.5 3 28.5c0 30.667 -17.5 51.667 -52.5 63
s-52.5 27.666 -52.5 48.999c0 14.667 5.83301 27.5 17.5 38.5s30.5 21.5 56.5 31.5c59.333 20.667 118.166 37.334 176.499 50.001s102.5 19 132.5 19c22 0 39.5 -5.66699 52.5 -17s19.5 -26.666 19.5 -45.999c0 -8 -0.333008 -15.5 -1 -22.5s-1.66699 -13.167 -3 -18.5z
" />
    <glyph glyph-name="l" unicode="l" horiz-adv-x="639" 
d="M80 199l194 1060.99c0.666992 2 1.5 5.5 2.5 10.5s1.83301 8.16699 2.5 9.5c0 18.667 -17.167 32.834 -51.5 42.501s-51.5 26.834 -51.5 51.501c0 15.333 5.5 27.833 16.5 37.5s31.5 19.834 61.5 30.501c62.667 20.667 125 37.334 187 50.001s109.667 19 143 19
c23.333 0 42.166 -5.66699 56.499 -17s21.5 -26.666 21.5 -45.999c-0.666992 -3.33301 -1.5 -8.66602 -2.5 -15.999s-2.5 -16 -4.5 -26l-215 -1107c-0.666992 -3.33301 -1.16699 -6.5 -1.5 -9.5s-0.5 -8.16699 -0.5 -15.5c0 -16 3.66699 -29.333 11 -40
s18.666 -19 33.999 -25c4.66699 -2 11.334 -4 20.001 -6c30.667 -8.66699 46 -24.334 46 -47.001c0 -13.333 -4.5 -25.166 -13.5 -35.499s-27.167 -22.5 -54.5 -36.5c-73.333 -38.667 -133.666 -67.167 -180.999 -85.5s-85.333 -27.5 -114 -27.5c-38.667 0 -67 12 -85 36
s-27 61.333 -27 112c0 14 0.5 27.333 1.5 40s2.5 26 4.5 40z" />
    <glyph glyph-name="m" unicode="m" horiz-adv-x="1796" 
d="M94 0c-6.66699 0 -12.999 3.83398 -18.999 11.501s-9 16.167 -9 25.5c0 4 0.166992 7.66699 0.5 11s0.833008 6.66602 1.5 9.99902l114 626c0.666992 2 1.16699 4.16699 1.5 6.5s0.5 5.5 0.5 9.5c0 23.333 -17 43 -51 59s-51 36 -51 60
c0 31.333 40.167 64.833 120.5 100.5s152.833 53.5 217.5 53.5c23.333 0 41.166 -7.33301 53.499 -22s18.5 -36 18.5 -64c-0.666992 -4 -1.16699 -8 -1.5 -12s-1.16602 -10 -2.49902 -18l-35 -179c45.333 99.333 99.166 173.333 161.499 222s133.833 73 214.5 73
c69.333 0 122.5 -17.167 159.5 -51.5s55.5 -83.5 55.5 -147.5c0 -14 -1 -29.833 -3 -47.5s-5 -37.834 -9 -60.501c42.667 99.333 95.834 175.333 159.501 228s134.167 79 211.5 79c85.333 0 155.5 -25.333 210.5 -76s82.5 -115.667 82.5 -195
c0 -26.667 -3.33301 -58 -10 -94v-2l-58 -297c-0.666992 -4 -1.16699 -8.16699 -1.5 -12.5s-0.5 -11.833 -0.5 -22.5c0 -26 14.667 -48.167 44 -66.5s44 -37.5 44 -57.5c0 -13.333 -4.83301 -24.666 -14.5 -33.999s-27.167 -20 -52.5 -32
c-68.667 -32 -125.834 -56 -171.501 -72s-80.167 -24 -103.5 -24c-28.667 0 -50.834 10.5 -66.501 31.5s-23.5 51.5 -23.5 91.5c0 14 1.16699 30.667 3.5 50s5.83301 42 10.5 68l76 404c1.33301 7.33301 2.33301 14.5 3 21.5s1 16.833 1 29.5c0 34 -8.66699 61 -26 81
s-40.666 30 -69.999 30c-48 0 -92 -31.833 -132 -95.5s-69 -148.167 -87 -253.5l-68 -406c-2 -13.333 -7.16699 -23.333 -15.5 -30s-20.833 -10 -37.5 -10h-233c-14.667 0 -25.167 2.16699 -31.5 6.5s-9.5 11.833 -9.5 22.5c0 4.66699 1 12 3 22
c0 1.33301 0.333008 2.66602 1 3.99902l106 561c2.66699 10 4.66699 22.667 6 38s2 31.333 2 48c0 28.667 -6.83301 51.334 -20.5 68.001s-31.834 25 -54.501 25c-59.333 0 -109.666 -36.5 -150.999 -109.5s-73 -180.833 -95 -323.5l-51 -327c-2 -10 -6.5 -18.333 -13.5 -25
s-14.833 -10 -23.5 -10h-281z" />
    <glyph glyph-name="n" unicode="n" horiz-adv-x="1237" 
d="M350 0l-261.997 -0.000976562c-10.667 0 -18.167 2.66699 -22.5 8s-6.5 15 -6.5 29v12v6l105 510c5.33301 28 9.66602 53.667 12.999 77s5 39.333 5 48c0 30 -15.667 52.5 -47 67.5s-47 34.167 -47 57.5c0 35.333 37.667 70.5 113 105.5s147 52.5 215 52.5
c26 0 44 -5.5 54 -16.5s15 -32.833 15 -65.5c0 -21.333 -1.33301 -48 -4 -80s-6.66699 -67.333 -12 -106c46.667 86 102 152.167 166 198.5s133 69.5 207 69.5c85.333 0 155.166 -24.667 209.499 -74s81.5 -111.333 81.5 -186c0 -38.667 -4 -77.667 -12 -117l-1 -2l-59 -289
c-2 -10.667 -3.5 -20.5 -4.5 -29.5s-1.5 -16.833 -1.5 -23.5c0 -22.667 14.333 -43.167 43 -61.5s43 -34.833 43 -49.5c0 -14 -5.83301 -27 -17.5 -39s-34.5 -27 -68.5 -45c-52 -26 -102.333 -46.833 -151 -62.5s-84.334 -23.5 -107.001 -23.5
c-31.333 0 -55 9.83301 -71 29.5s-24 48.167 -24 85.5c0 12.667 1 26.667 3 42s6 36 12 62l90 418c2 8 3.83301 20 5.5 36s2.5 32.667 2.5 50c0 32 -7.16699 55.667 -21.5 71s-36.5 23 -66.5 23c-54.667 0 -104 -31 -148 -93s-78 -149.667 -102 -263l-86 -408
c-1.33301 -7.33301 -4.83301 -13.166 -10.5 -17.499s-12.5 -6.5 -20.5 -6.5h-10z" />
    <glyph glyph-name="o" unicode="o" horiz-adv-x="1251" 
d="M694 848c-40.667 0 -77.833 -12.167 -111.5 -36.5s-63.167 -60.833 -88.5 -109.5c-27.333 -50 -50 -110.5 -68 -181.5s-27 -135.167 -27 -192.5c0 -76 14.333 -133.333 43 -172s71 -58 127 -58c79.333 0 146.333 50.333 201 151s82 221.667 82 363
c0 82.667 -12.667 142.667 -38 180s-65.333 56 -120 56zM68.001 375c0 177.333 60.833 321.333 182.5 432s280.5 166 476.5 166c144 0 255.833 -36.167 335.5 -108.5s119.5 -174.166 119.5 -305.499c0 -172.667 -59.833 -313.834 -179.5 -423.501
s-275.5 -164.5 -467.5 -164.5c-148 0 -262.833 35.333 -344.5 106s-122.5 170 -122.5 298z" />
    <glyph glyph-name="p" unicode="p" horiz-adv-x="1247" 
d="M348 -391l-374.999 -0.00195312c-26 0 -45 4.33301 -57 13s-18 22 -18 40c0 22.667 19.167 44.834 57.5 66.501s61.5 54.834 69.5 99.501l147 807c0.666992 4.66699 1.83398 11.334 3.50098 20.001s2.5 15 2.5 19c0 32 -16.667 56.5 -50 73.5s-50 35.5 -50 55.5
c0 18 6 33.5 18 46.5s36 28.167 72 45.5c49.333 24 95.5 42.667 138.5 56s77.5 20 103.5 20c28 0 48.167 -5.5 60.5 -16.5s18.5 -28.833 18.5 -53.5c0 -10.667 -0.333008 -21 -1 -31c-0.666992 -2 -1 -3.33301 -1 -4l-24 -123c41.333 74.667 92.5 131.334 153.5 170.001
s128.5 58 202.5 58c111.333 0 199.666 -35.333 264.999 -106s98 -166.334 98 -287.001c0 -163.333 -58.333 -305 -175 -425s-256.334 -180 -419.001 -180c-57.333 0 -98.666 4.16699 -123.999 12.5s-38 22.166 -38 41.499c0 26.667 7.5 49.667 22.5 69s33.5 29 55.5 29
c6.66699 0 16.667 -1.33301 30 -4s24.333 -4 33 -4c72 0 135.833 53 191.5 159s83.5 225.667 83.5 359c0 56 -11.833 99 -35.5 129s-56.834 45 -99.501 45c-57.333 0 -109.5 -33.667 -156.5 -101s-79.5 -156.666 -97.5 -267.999l-103 -615c-2 -10 -3.5 -19.833 -4.5 -29.5
s-1.5 -17.167 -1.5 -22.5c0 -18 13.333 -34.333 40 -49s40 -33.334 40 -56.001c0 -18.667 -6.66699 -33.167 -20 -43.5s-32 -15.5 -56 -15.5z" />
    <glyph glyph-name="q" unicode="q" horiz-adv-x="1241" 
d="M684 850c-41.333 0 -78.168 -13.5 -110.501 -40.5s-60.5 -67.5 -84.5 -121.5c-23.333 -53.333 -41.666 -111.166 -54.999 -173.499s-20 -119.833 -20 -172.5c0 -62.667 13.5 -111.834 40.5 -147.501s63.833 -53.5 110.5 -53.5c38 0 72.667 12.5 104 37.5
s57.666 61.167 78.999 108.5c20 45.333 37.833 108.333 53.5 189s23.5 152.667 23.5 216c0 48.667 -12.667 87.167 -38 115.5s-59.666 42.5 -102.999 42.5zM1022 -391l-391.001 0.00195312c-18 0 -32.833 5.5 -44.5 16.5s-17.5 25.167 -17.5 42.5c0 32 21 57.333 63 76
c7.33301 3.33301 13 6 17 8c21.333 12 37 40.333 47 85v3l49 246c-40 -42.667 -87.5 -75.834 -142.5 -99.501s-111.167 -35.5 -168.5 -35.5c-110 0 -199.333 36.333 -268 109s-103 168 -103 286c0 169.333 59 316.166 177 440.499s258.667 186.5 422 186.5
c62.667 0 118.334 -10.333 167.001 -31s87.667 -50.667 117 -90v2c0 24 25 49.833 75 77.5s95.333 41.5 136 41.5c17.333 0 30.833 -4.16699 40.5 -12.5s14.5 -19.833 14.5 -34.5c0 -6.66699 -0.166992 -11.667 -0.5 -15s-0.833008 -6 -1.5 -8l-176 -1102
c-1.33301 -9.33301 -2 -16.666 -2 -21.999c0 -12.667 11.667 -27.834 35 -45.501s35 -37.5 35 -59.5c0 -19.333 -7.5 -35 -22.5 -47s-34.167 -18 -57.5 -18z" />
    <glyph glyph-name="r" unicode="r" horiz-adv-x="862" 
d="M334 2h-234c-9.33301 0 -17.333 3.5 -24 10.5s-10 15.833 -10 26.5c0 2 0.5 5.83301 1.5 11.5s1.83301 9.83398 2.5 12.501l116 625c0 1.33301 0.333008 3.33301 1 6s1 4.66699 1 6c0 20 -15.333 38.167 -46 54.5s-46 34.5 -46 54.5c0 12 5 24.167 15 36.5
s25 24.833 45 37.5c38.667 24 82.334 45 131.001 63s84 27 106 27c30 0 52.167 -9.16699 66.5 -27.5s21.5 -46.833 21.5 -85.5c0 -15.333 -1.5 -33.833 -4.5 -55.5s-8.16699 -51.5 -15.5 -89.5c54 95.333 104 162.166 150 200.499s97.667 57.5 155 57.5
c38.667 0 69.5 -10.667 92.5 -32s34.5 -49.666 34.5 -84.999c0 -50 -14 -96 -42 -138s-60.333 -63 -97 -63c-21.333 0 -44 14 -68 42s-44.333 42 -61 42c-33.333 0 -63.833 -28.333 -91.5 -85s-51.834 -139.334 -72.501 -248.001l-74 -379c-2 -8.66699 -7.33301 -15 -16 -19
s-21 -6 -37 -6z" />
    <glyph glyph-name="s" unicode="s" horiz-adv-x="1006" 
d="M530 313l-187.999 66.002c-86.667 30 -146.5 62.333 -179.5 97s-49.5 80 -49.5 136c0 100 45.833 185.167 137.5 255.5s204.834 105.5 339.501 105.5c113.333 0 204.166 -19 272.499 -57s102.5 -87.333 102.5 -148c0 -26.667 -10 -49.334 -30 -68.001
s-44.333 -28 -73 -28c-30 0 -53.5 5.66699 -70.5 17s-32.5 31.666 -46.5 60.999c-14 30.667 -32.667 53.667 -56 69s-51.666 23 -84.999 23c-39.333 0 -72 -9.66699 -98 -29s-39 -43.333 -39 -72c0 -18.667 6.5 -35.667 19.5 -51s31.167 -27 54.5 -35l211 -73
c62.667 -22 107.667 -49.833 135 -83.5s41 -79.167 41 -136.5c0 -108.667 -49.5 -201 -148.5 -277s-220.167 -114 -363.5 -114c-120.667 0 -220.834 23 -300.501 69s-119.5 101 -119.5 165c0 31.333 11.333 57.833 34 79.5s51 32.5 85 32.5c56 0 96.333 -35.333 121 -106
c1.33301 -4 2.66602 -7.66699 3.99902 -11c11.333 -28.667 32.833 -50.667 64.5 -66s72.167 -23 121.5 -23c48.667 0 88.5 11.333 119.5 34s46.5 52 46.5 88c0 19.333 -5.5 36 -16.5 50s-26.167 24 -45.5 30z" />
    <glyph glyph-name="t" unicode="t" horiz-adv-x="782" 
d="M221 799l-97.999 -0.00292969c-12.667 0 -21.334 2.5 -26.001 7.5s-7 14.167 -7 27.5c0 16 4.66699 34 14 54s19 33.333 29 40c8 4.66699 31.5 9.33398 70.5 14.001s68.833 18.334 89.5 41.001c26.667 30 52 79 76 147c10 28.667 18 50 24 64
c14 32.667 27.167 52.834 39.5 60.501s34.833 11.5 67.5 11.5c33.333 0 56 -3.66699 68 -11s18 -21 18 -41c0 -6 -0.5 -13.333 -1.5 -22s-2.5 -19.334 -4.5 -32.001l-37 -212h166c14.667 0 25.834 -3.16699 33.501 -9.5s11.5 -16.166 11.5 -29.499v-4l-6 -73
c-1.33301 -11.333 -7.5 -19.666 -18.5 -24.999s-27.5 -8 -49.5 -8h-154l-69 -485c-2.66699 -16 -4.33398 -27.167 -5.00098 -33.5s-1 -11.166 -1 -14.499c0 -17.333 2.16699 -28.833 6.5 -34.5s13.5 -8.5 27.5 -8.5c10 0 19.333 0.666992 28 2s15 2.66602 19 3.99902l141 43
c1.33301 0.666992 3 1.16699 5 1.5s4 0.5 6 0.5c15.333 0 28.333 -6.33301 39 -19s16 -28.667 16 -48c0 -36.667 -41.667 -72.334 -125 -107.001c-10 -4 -18 -7.33301 -24 -10l-33 -14c-168.667 -71.333 -284.667 -107 -348 -107c-39.333 0 -67.666 8.66699 -84.999 26
s-26 46.333 -26 87c0 11.333 2.66699 31.333 8 60c3.33301 16 5.66602 28 6.99902 36z" />
    <glyph glyph-name="u" unicode="u" horiz-adv-x="1237" 
d="M887 946l259.996 -0.00292969c11.333 0 19.333 -2.83301 24 -8.5s7 -15.167 7 -28.5c0 -4.66699 -0.166992 -8.16699 -0.5 -10.5s-1.16602 -5.16602 -2.49902 -8.49902l-102 -509c-5.33301 -28 -9.66602 -53.667 -12.999 -77s-5 -39.333 -5 -48
c0 -30 15.667 -52.5 47 -67.5s47 -34.167 47 -57.5c0 -34.667 -37.667 -69.667 -113 -105s-147 -53 -215 -53c-26.667 0 -45.167 5.66699 -55.5 17s-15.5 33 -15.5 65c0 21.333 1.33301 48 4 80s6.66699 67.667 12 107c-46.667 -87.333 -101.667 -154 -165 -200
s-132 -69 -206 -69c-85.333 0 -155.5 24.833 -210.5 74.5s-82.5 111.5 -82.5 185.5c0 34.667 4.33301 71.667 13 111c0.666992 3.33301 1.33398 6 2.00098 8l57 289c0.666992 3.33301 1.66699 8 3 14c3.33301 19.333 5 32.333 5 39c0 22.667 -14.333 43.167 -43 61.5
s-43 34.833 -43 49.5s5.83301 27.834 17.5 39.501s34.5 26.5 68.5 44.5c52 26 102.167 46.833 150.5 62.5s83.5 23.5 105.5 23.5c31.333 0 54.833 -9.66699 70.5 -29s23.5 -48 23.5 -86c0 -12.667 -1 -26.667 -3 -42s-5.66699 -36 -11 -62l-88 -418
c-2 -8 -3.83301 -20 -5.5 -36s-2.5 -32.667 -2.5 -50c0 -32 7 -55.667 21 -71s35.667 -23 65 -23c54.667 0 104.334 31.167 149.001 93.5s79 149.833 103 262.5l84 408c0.666992 6.66699 4.16699 12.334 10.5 17.001s13.833 7 22.5 7h10z" />
    <glyph glyph-name="v" unicode="v" horiz-adv-x="1028" 
d="M416 311c-1.33301 -6 -2.33398 -13.666 -3.00098 -22.999s-1 -19.333 -1 -30c0 -34 10.333 -60.5 31 -79.5s49.667 -28.5 87 -28.5c72.667 0 137 43.5 193 130.5s84 189.5 84 307.5c0 26.667 -3.83301 48.667 -11.5 66s-20.5 33 -38.5 47
c-3.33301 2.66699 -9.66602 7 -18.999 13c-52.667 34.667 -79 75.334 -79 122.001c0 39.333 12 72 36 98s55 39 93 39c57.333 0 100.833 -28.5 130.5 -85.5s44.5 -139.833 44.5 -248.5c0 -187.333 -53.167 -345.5 -159.5 -474.5s-236.833 -193.5 -391.5 -193.5
c-100 0 -180.333 24.833 -241 74.5s-91 113.834 -91 192.501c0 60.667 15 143.167 45 247.5s45 173.166 45 206.499c0 29.333 -16.333 53.833 -49 73.5s-49 36.834 -49 51.501c0 12 4.83301 23 14.5 33s29.834 23 60.501 39c49.333 25.333 98.666 45.666 147.999 60.999
s87 23 113 23c36.667 0 64.167 -11.667 82.5 -35s27.5 -58 27.5 -104c0 -12.667 -0.833008 -26.334 -2.5 -41.001s-4.16699 -30.334 -7.5 -47.001z" />
    <glyph glyph-name="w" unicode="w" horiz-adv-x="1575" 
d="M749 270c-38 -98 -89.334 -172.665 -154.001 -223.998s-139.334 -77 -224.001 -77c-80.667 0 -149 26 -205 78s-84 115.667 -84 191c0 54 12.333 131.833 37 233.5s37 174.5 37 218.5c0 30 -15.833 53.5 -47.5 70.5s-47.5 31.833 -47.5 44.5c0 13.333 7 26.5 21 39.5
s37.333 27.833 70 44.5c64.667 33.333 114.834 55.666 150.501 66.999s69.167 17 100.5 17c28.667 0 51 -10.833 67 -32.5s24 -51.167 24 -88.5c0 -81.333 -15.167 -188.333 -45.5 -321s-45.5 -216 -45.5 -250c0 -40.667 8.16699 -72 24.5 -94s39.833 -33 70.5 -33
c67.333 0 121.666 44.167 162.999 132.5s83.666 268.5 126.999 540.5l17 95c2 10 6 16.833 12 20.5s17.667 5.5 35 5.5h260c8.66699 0 15.334 -2.16699 20.001 -6.5s7 -10.166 7 -17.499c0 -3.33301 -0.166992 -6 -0.5 -8s-0.833008 -4 -1.5 -6l-95 -447
c-10 -49.333 -17.833 -93.333 -23.5 -132s-8.5 -66.334 -8.5 -83.001c0 -30 7.83301 -53.167 23.5 -69.5s37.834 -24.5 66.501 -24.5c68.667 0 130.834 47.5 186.501 142.5s83.5 203.833 83.5 326.5c0 20.667 -22.167 51.667 -66.5 93s-66.5 83.333 -66.5 126
c0 39.333 11.5 71 34.5 95s53.167 36 90.5 36c49.333 0 86.833 -25 112.5 -75s38.5 -123.333 38.5 -220c0 -198.667 -51.667 -366.5 -155 -503.5s-230.333 -205.5 -381 -205.5c-80.667 0 -139.5 18.167 -176.5 54.5s-55.5 94.166 -55.5 173.499c0 8 0.333008 17.167 1 27.5z
" />
    <glyph glyph-name="x" unicode="x" horiz-adv-x="1139" 
d="M420 446l-193.003 273c-12.667 18 -39.667 28.333 -81 31s-62 17 -62 43c0 34 38.5 72.167 115.5 114.5s147.167 63.5 210.5 63.5c20.667 0 38.5 -5.83301 53.5 -17.5s31.833 -33.167 50.5 -64.5l133 -230c64 104 127.667 182 191 234s126 78 188 78
c40.667 0 72.667 -10 96 -30s35 -47 35 -81c0 -38 -13.333 -67 -40 -87s-66 -30 -118 -30c-19.333 0 -38.666 2.5 -57.999 7.5s-30 7.5 -32 7.5c-20 0 -44.5 -15.333 -73.5 -46s-69.167 -85 -120.5 -163l186 -279c14 -20.667 28 -35 42 -43s35 -12 63 -12
c3.33301 0 10.333 0.333008 21 1s19.334 1 26.001 1c8.66699 0 16.5 -4.83301 23.5 -14.5s10.5 -21.167 10.5 -34.5s-4.66699 -26.166 -14 -38.499s-25.666 -26.833 -48.999 -43.5c-48.667 -35.333 -95.667 -63.333 -141 -84s-82.333 -31 -111 -31
c-20 0 -40.167 4.66699 -60.5 14s-33.5 19 -39.5 29l-191 322l-102 -162c-40 -64 -87.5 -113.833 -142.5 -149.5s-111.167 -53.5 -168.5 -53.5c-42 0 -74 9.16699 -96 27.5s-33 44.833 -33 79.5c0 37.333 11.5 67.166 34.5 89.499s53.833 33.5 92.5 33.5
c18 0 39.333 -4.16699 64 -12.5s40 -12.5 46 -12.5c18 0 40.167 11.333 66.5 34s52.833 53.667 79.5 93z" />
    <glyph glyph-name="y" unicode="y" horiz-adv-x="1010" 
d="M518 4c-19.333 -8.66699 -39.1689 -15.165 -59.502 -19.498s-41.5 -6.83301 -63.5 -7.5c-46.667 0 -84 9.33301 -112 28s-52.667 51 -74 97c-25.333 52 -45.333 116.833 -60 194.5s-22 159.167 -22 244.5c0 26.667 1 57.5 3 92.5s3 56.5 3 64.5c0 44 -16.667 74 -50 90
s-50 29.667 -50 41c0 16 5.5 29.167 16.5 39.5s38.167 25.166 81.5 44.499c38.667 17.333 83.334 31.666 134.001 42.999s90.667 17 120 17c24.667 0 42.834 -7 54.501 -21s17.5 -35.667 17.5 -65c0 -6.66699 -1.33301 -41.667 -4 -105s-4 -124 -4 -182
c0 -128.667 10.5 -233.167 31.5 -313.5s47.167 -120.5 78.5 -120.5c16 0 33 10.667 51 32s42 59.666 72 114.999c32 61.333 58.167 122.166 78.5 182.499s30.5 103.5 30.5 129.5c0 24.667 -17.5 54 -52.5 88s-52.5 71.333 -52.5 112c0 44 12.833 79.667 38.5 107
s58.5 41 98.5 41c50.667 0 89.334 -19 116.001 -57s40 -93.333 40 -166c0 -90 -29.667 -209.667 -89 -359s-134 -285.666 -224 -408.999c-88.667 -121.333 -177.334 -213.833 -266.001 -277.5s-173 -95.5 -253 -95.5c-48 0 -87.5 10.333 -118.5 31
s-46.5 46.334 -46.5 77.001c0 34 11.5 61 34.5 81s53.833 30 92.5 30c27.333 0 55.5 -5.5 84.5 -16.5s46.5 -16.5 52.5 -16.5c32.667 0 73 18.333 121 55s98.333 88 151 154z" />
    <glyph glyph-name="z" unicode="z" horiz-adv-x="1010" 
d="M664 0l-606.998 -0.00195312c-30 0 -52.167 6.33301 -66.5 19s-21.5 32.334 -21.5 59.001c0 22 7.5 44.833 22.5 68.5s51.167 64.167 108.5 121.5l527 537h-248c-18.667 0 -35 -5.33301 -49 -16s-26.333 -27.334 -37 -50.001l-4 -7c-32 -64.667 -71 -97 -117 -97
c-28.667 0 -50.834 9.33301 -66.501 28s-23.5 44.667 -23.5 78c0 60.667 25.667 110.334 77 149.001s119 58 203 58c16.667 0 49.834 -1.33301 99.501 -4s91.834 -4 126.501 -4c44 0 98.667 1.33301 164 4s109 4 131 4c44 0 75.5 -6.16699 94.5 -18.5
s28.5 -32.833 28.5 -61.5c0 -22 -6.16699 -44.833 -18.5 -68.5s-30.833 -48.5 -55.5 -74.5l-557 -582h184c55.333 0 94.666 4.66699 117.999 14s42.666 28 57.999 56c3.33301 5.33301 7.66602 13 12.999 23c30 54 68.667 81 116 81c27.333 0 49.833 -9 67.5 -27
s26.5 -41.667 26.5 -71c0 -67.333 -26 -120.666 -78 -159.999s-124 -59 -216 -59z" />
    <glyph glyph-name="braceleft" unicode="{" 
d="M852 1516v-61c-80.667 -2 -135.667 -20.333 -165 -55s-44 -104.667 -44 -210v-133c0 -150 -17.833 -252.333 -53.5 -307s-101.167 -93 -196.5 -115c95.333 -21.333 160.833 -59 196.5 -113s53.5 -156.333 53.5 -307v-135c0 -105.333 14.667 -175.333 44 -210
s84.333 -53 165 -55v-59c-156.667 0 -263.5 24.167 -320.5 72.5s-85.5 139.5 -85.5 273.5v193c0 110 -18.667 185.5 -56 226.5s-108 66.5 -212 76.5v76c104 10 174.667 35.5 212 76.5s56 116.5 56 226.5v192c0 134 28.5 225.333 85.5 274s163.833 73 320.5 73z" />
    <glyph glyph-name="bar" unicode="|" 
d="M410 1565h206v-2048h-206v2048z" />
    <glyph glyph-name="braceright" unicode="}" 
d="M172 1516c157.333 0 264.668 -24.332 322.001 -72.999s86 -140 86 -274v-192c0 -110 18.667 -185.5 56 -226.5s108 -66.5 212 -76.5v-76c-104 -10 -174.667 -35.5 -212 -76.5s-56 -116.5 -56 -226.5v-193c0 -132 -28.333 -222.667 -85 -272s-160.334 -74 -311.001 -74
h-12v59c79.333 1.33301 134 19.666 164 54.999s45 105.333 45 210v135c0 150.667 17.833 253 53.5 307s101.167 91.667 196.5 113c-95.333 22 -160.833 60.333 -196.5 115s-53.5 157 -53.5 307v133c0 104 -15 173.833 -45 209.5s-84.667 54.167 -164 55.5v61z" />
    <glyph glyph-name="asciitilde" unicode="~" horiz-adv-x="1706" 
d="M1530 803l0.00390625 -221c-69.333 -47.333 -134.833 -82.166 -196.5 -104.499s-122.5 -33.5 -182.5 -33.5c-30.667 0 -61.334 2.66699 -92.001 8s-61.334 13 -92.001 23c-16 5.33301 -39.667 13.666 -71 24.999c-146 50 -257 75 -333 75
c-56.667 0 -115.834 -12.5 -177.501 -37.5s-130.834 -64.833 -207.501 -119.5v221c71.333 48 139.333 83.833 204 107.5s125.667 35.5 183 35.5c78 0 175 -19.333 291 -58c2 -0.666992 3.33301 -1 4 -1l55 -19c103.333 -36.667 183.333 -55 240 -55s115 12.333 175 37
s126.667 63.667 200 117z" />
    <glyph glyph-name="nonbreakingspace" unicode="&#xa0;" horiz-adv-x="1290" 
 />
    <glyph glyph-name="exclamdown" unicode="&#xa1;" horiz-adv-x="682" 
d="M653 1384c0 -52.667 -23 -98.833 -69 -138.5s-100.667 -59.5 -164 -59.5c-44 0 -80 12.167 -108 36.5s-42 55.833 -42 94.5c0 56.667 22.833 104 68.5 142s104.167 57 175.5 57c40 0 73.167 -12.5 99.5 -37.5s39.5 -56.5 39.5 -94.5zM512 1049l-29 -818
c-3.33301 -86 -23.833 -150.833 -61.5 -194.5s-92.167 -65.5 -163.5 -65.5c-76.667 0 -130.667 9.66699 -162 29s-47 51.333 -47 96c0 14 1.16699 28.5 3.5 43.5s5.83301 31.167 10.5 48.5l265 867c7.33301 22.667 19 39.5 35 50.5s37 16.5 63 16.5c25.333 0 46 -4 62 -12
s24 -18.333 24 -31v-30z" />
    <glyph glyph-name="cent" unicode="&#xa2;" horiz-adv-x="1290" 
d="M608 25l-32.998 -289.998c-2 -14.667 -10.833 -26 -26.5 -34s-37.5 -12 -65.5 -12c-32.667 0 -55.834 4 -69.501 12s-20.5 21.667 -20.5 41v14l35 279c-104 14 -184.667 54.833 -242 122.5s-86 155.834 -86 264.501c0 152 45.167 283.167 135.5 393.5
s209.166 179.833 356.499 208.5l33 283c2.66699 22 11.167 38 25.5 48s37.166 15 68.499 15c34.667 0 59 -3.16699 73 -9.5s21 -17.5 21 -33.5v-8l-36 -287c96.667 -0.666992 173.667 -17.834 231 -51.501s86 -77.834 86 -132.501c0 -37.333 -12.333 -67.833 -37 -91.5
s-56.667 -35.5 -96 -35.5c-36 0 -65.667 8.16699 -89 24.5s-42.333 42.166 -57 77.499c0 0.666992 -0.333008 1.66699 -1 3c-18 44.667 -50.333 67 -97 67c-73.333 0 -137.166 -44.167 -191.499 -132.5s-81.5 -190.166 -81.5 -305.499c0 -82.667 21 -148.834 63 -198.501
s97 -74.5 165 -74.5c34 0 69.333 7.33301 106 22s70.334 34.667 101.001 60c8.66699 8 20.667 19.667 36 35c27.333 27.333 48.666 41 63.999 41c16.667 0 30.667 -5.5 42 -16.5s17 -24.5 17 -40.5c0 -48 -44.333 -103 -133 -165s-185 -93 -289 -93h-8z" />
    <glyph glyph-name="sterling" unicode="&#xa3;" horiz-adv-x="1290" 
d="M326 704l-209.006 0.999023c-22 0 -37.5 4.33301 -46.5 13s-13.5 23.334 -13.5 44.001c0 35.333 6.66699 61.5 20 78.5s33.333 25.5 60 25.5h170v62c0 172.667 53.333 312.334 160 419.001s247.334 160 422.001 160c135.333 0 242.166 -30 320.499 -90
s117.5 -142 117.5 -246c0 -60.667 -14.167 -109.167 -42.5 -145.5s-66.166 -54.5 -113.499 -54.5c-36 0 -64 8.16699 -84 24.5s-30 39.5 -30 69.5c0 14.667 4.66699 36.5 14 65.5s14 50.833 14 65.5c0 42.667 -16.333 78.667 -49 108s-73.667 44 -123 44
c-79.333 0 -142.833 -29.667 -190.5 -89s-71.5 -138.333 -71.5 -237v-23l4 -133h299c20.667 0 35.5 -4.66699 44.5 -14s13.5 -24.333 13.5 -45c0 -32.667 -5.16699 -57.834 -15.5 -75.501s-25.166 -26.5 -44.499 -26.5h-290v-46c0 -85.333 -24.5 -162.833 -73.5 -232.5
s-114.167 -118.834 -195.5 -147.501c28.667 6 54.334 10.5 77.001 13.5s44.334 4.5 65.001 4.5c54 0 121 -13.667 201 -41s131 -41 153 -41c30 0 66 10.167 108 30.5s69.333 30.5 82 30.5c13.333 0 24.5 -4.33301 33.5 -13s13.5 -19.334 13.5 -32.001
c0 -58.667 -39.667 -116.667 -119 -174s-166.666 -86 -261.999 -86c-61.333 0 -152 20.167 -272 60.5s-203.333 60.5 -250 60.5c-38 0 -91 -16.333 -159 -49s-117.333 -49 -148 -49c-22 0 -38.833 5.33301 -50.5 16s-17.5 26.334 -17.5 47.001c0 44.667 44 86 132 124
c34.667 14.667 60.334 26.667 77.001 36c86.667 47.333 153.5 108.833 200.5 184.5s70.5 159.5 70.5 251.5c0 14 -0.166992 24.333 -0.5 31s-0.833008 13.334 -1.5 20.001z" />
    <glyph glyph-name="currency" unicode="&#xa4;" horiz-adv-x="1241" 
d="M623 1161c-75.333 0 -140.333 -27.333 -195 -82s-82 -119.334 -82 -194.001c0 -76 27 -140.833 81 -194.5s119.333 -80.5 196 -80.5c75.333 0 140.166 26.833 194.499 80.5s81.5 118.5 81.5 194.5c0 74.667 -27.167 139.334 -81.5 194.001s-119.166 82 -194.499 82z
M172 1438l204.999 -203c36 26 74 45.5 114 58.5s83.333 19.5 130 19.5s90.5 -6.5 131.5 -19.5s79.5 -32.5 115.5 -58.5l203 203l105 -107l-203 -205c25.333 -35.333 44.333 -73.166 57 -113.499s19 -82.833 19 -127.5s-6.33301 -87 -19 -127s-31.667 -78.333 -57 -115
l203 -205l-105 -104l-203 203c-36 -26.667 -74.333 -46.334 -115 -59.001s-84 -19 -130 -19c-48 0 -92.167 6.33301 -132.5 19s-78.166 32.334 -113.499 59.001l-205 -203l-104 104l202 205c-25.333 36 -44.166 73.833 -56.499 113.5s-18.5 82.5 -18.5 128.5
c0 44.667 6.16699 87.167 18.5 127.5s31.166 78.166 56.499 113.499l-202 205z" />
    <glyph glyph-name="yen" unicode="&#xa5;" horiz-adv-x="1421" 
d="M1450 1485c24.667 0 42.8311 -5.16992 54.498 -15.5029s17.5 -26.5 17.5 -48.5c0 -30 -21 -59.667 -63 -89c-18 -12.667 -31.667 -23 -41 -31c-8 -6.66699 -41.167 -50.667 -99.5 -132s-118.166 -158.333 -179.499 -231h204c20 0 34 -2.16699 42 -6.5
s12 -11.833 12 -22.5c0 -28.667 -5.5 -49.167 -16.5 -61.5s-30.167 -18.5 -57.5 -18.5h-281l-145 -151h408c19.333 0 33 -2.16699 41 -6.5s12 -11.833 12 -22.5c0 -29.333 -5.5 -50 -16.5 -62s-30.167 -18 -57.5 -18h-434l-49 -323
c-1.33301 -7.33301 -2.33301 -14.166 -3 -20.499s-1 -11.833 -1 -16.5c0 -22 17.333 -41.5 52 -58.5s52 -38.5 52 -64.5c0 -26.667 -9.83301 -47.667 -29.5 -63s-46.5 -23 -80.5 -23h-400c-19.333 0 -35 5.66699 -47 17s-18 26 -18 44c0 18.667 4.16699 33.5 12.5 44.5
s28.5 24.833 60.5 41.5c27.333 14.667 46 29.834 56 45.501s17.333 40.834 22 75.501l43 301h-446c-19.333 0 -33.166 2.33301 -41.499 7s-12.5 12 -12.5 22c0 29.333 5.66699 50 17 62s30.333 18 57 18h381l-98 151h-262c-19.333 0 -33.166 2.33301 -41.499 7
s-12.5 12 -12.5 22c0 29.333 5.66699 50 17 62s30.333 18 57 18h184c-40 78.667 -77.5 158.5 -112.5 239.5s-53.167 122.5 -54.5 124.5c-7.33301 10.667 -26.333 24.667 -57 42s-46 39.666 -46 66.999c0 25.333 9 44 27 56s46 18 84 18h407c22.667 0 39.667 -5 51 -15
s17 -25 17 -45c0 -28.667 -16.667 -52.5 -50 -71.5s-50 -35.167 -50 -48.5c0 -15.333 12 -52.666 36 -111.999s54.333 -122.333 91 -189l114 -218l172 199c53.333 62 100.166 126 140.499 192s60.5 105.667 60.5 119c0 8 -15.667 21.833 -47 41.5s-47 42.167 -47 67.5
c0 24.667 8 44.167 24 58.5s38 21.5 66 21.5h305z" />
    <glyph glyph-name="brokenbar" unicode="&#xa6;" 
d="M410 408h206v-758h-206v758zM410 1432h206v-758h-206v758z" />
    <glyph glyph-name="section" unicode="&#xa7;" horiz-adv-x="1022" 
d="M627 401c29.333 0 53.3311 9.66699 71.998 29s28 44.666 28 75.999c0 26.667 -8.66699 58.667 -26 96s-42.666 79.666 -75.999 126.999c-40.667 56.667 -76.5 98.167 -107.5 124.5s-59.5 39.5 -85.5 39.5c-35.333 0 -63.333 -9.16699 -84 -27.5s-31 -43.166 -31 -74.499
c0 -28 8.83301 -60.5 26.5 -97.5s45.167 -80.5 82.5 -130.5c46 -63.333 83.333 -106.166 112 -128.499s58.334 -33.5 89.001 -33.5zM626.998 313c35.333 -41.333 62.168 -84.165 80.501 -128.498s27.5 -88.833 27.5 -133.5c0 -82.667 -32.167 -148.334 -96.5 -197.001
s-151.5 -73 -261.5 -73c-98.667 0 -176.334 19.5 -233.001 58.5s-85 92.5 -85 160.5c0 43.333 15 80.833 45 112.5s67 47.5 111 47.5c34.667 0 63.5 -10.167 86.5 -30.5s34.5 -45.166 34.5 -74.499c0 -24 -12 -50.333 -36 -79s-36 -48 -36 -58
c0 -18 9.16699 -32.333 27.5 -43s43.5 -16 75.5 -16c47.333 0 84 11.667 110 35s39 56.666 39 99.999c0 30 -10.167 65.167 -30.5 105.5s-50.5 84.833 -90.5 133.5l-153 191c-52 64 -88.333 118 -109 162s-31 87 -31 129c0 78 27.833 140.333 83.5 187
s133.834 73.667 234.501 81c-42.667 55.333 -73.5 103.166 -92.5 143.499s-28.5 77.833 -28.5 112.5c0 82 32.833 148.167 98.5 198.5s152.167 75.5 259.5 75.5c92.667 0 168.5 -19.5 227.5 -58.5s88.5 -88.167 88.5 -147.5c0 -48.667 -14.667 -88.834 -44 -120.501
s-66 -47.5 -110 -47.5c-34.667 0 -64.834 10.667 -90.501 32s-38.5 46.666 -38.5 75.999c0 27.333 10.667 53.833 32 79.5s32 42.167 32 49.5c0 16.667 -8.16699 29.334 -24.5 38.001s-39.833 13 -70.5 13c-44.667 0 -80.667 -11.5 -108 -34.5s-41 -53.833 -41 -92.5
c0 -28 12 -62.5 36 -103.5s73.333 -107.5 148 -199.5l103 -127c52 -64 88.5 -118.833 109.5 -164.5s31.5 -90.5 31.5 -134.5c0 -78 -27.833 -140.167 -83.5 -186.5s-131.5 -70.166 -227.5 -71.499z" />
    <glyph glyph-name="dieresis" unicode="&#xa8;" 
d="M719 1268c0 36.667 14.5 69.334 43.5 98.001s62.167 43 99.5 43c39.333 0 72.833 -13.833 100.5 -41.5s41.5 -60.834 41.5 -99.501c0 -42 -13.333 -76.167 -40 -102.5s-60.667 -39.5 -102 -39.5c-40 0 -73.833 13.667 -101.5 41s-41.5 61 -41.5 101zM332 1268
c0 37.333 14.166 70.168 42.499 98.501s61.166 42.5 98.499 42.5c38.667 0 71.834 -13.833 99.501 -41.5s41.5 -60.834 41.5 -99.501c0 -42 -13.167 -76.167 -39.5 -102.5s-60.166 -39.5 -101.499 -39.5c-40 0 -73.5 13.667 -100.5 41s-40.5 61 -40.5 101z" />
    <glyph glyph-name="copyright" unicode="&#xa9;" horiz-adv-x="1683" 
d="M1126 1102l44.9971 0.000976562v-326h-47c-20.667 87.333 -54 154.666 -100 201.999s-100.667 71 -164 71c-78.667 0 -137.167 -30.167 -175.5 -90.5s-57.5 -151.833 -57.5 -274.5c0 -123.333 20.833 -217 62.5 -281s102.5 -96 182.5 -96
c53.333 0 102.833 14.667 148.5 44s87.167 72.666 124.5 129.999l45 -28c-42 -71.333 -92.167 -125 -150.5 -161s-124.166 -54 -197.499 -54c-123.333 0 -226.166 40.833 -308.499 122.5s-123.5 182.834 -123.5 303.501c0 127.333 40.333 232.833 121 316.5
s182.334 125.5 305.001 125.5c52.667 0 103.667 -11 153 -33s76 -33 80 -33c16 0 28.5 5 37.5 15s15.5 25.667 19.5 47zM843.997 1309c-84.667 0 -165.168 -16.002 -241.501 -48.002s-144.166 -78.333 -203.499 -139c-59.333 -60 -104.5 -128 -135.5 -204
s-46.5 -156 -46.5 -240c0 -85.333 15.5 -166 46.5 -242s76.167 -143.667 135.5 -203c60 -59.333 127.333 -104.5 202 -135.5s155 -46.5 241 -46.5c84.667 0 164.667 15.667 240 47s142 76.333 200 135c59.333 60.667 104.833 129.334 136.5 206.001
s47.5 156.334 47.5 239.001c0 84.667 -15.833 166 -47.5 244s-76.5 145.333 -134.5 202c-58 58.667 -125.667 104.167 -203 136.5s-156.333 48.5 -237 48.5zM843.996 1413c94 0 185.833 -18.668 275.5 -56.001s169.167 -90.333 238.5 -159
c68 -68 121.167 -147.833 159.5 -239.5s57.5 -185.167 57.5 -280.5s-18.833 -187.833 -56.5 -277.5s-91.167 -169.834 -160.5 -240.501c-68 -69.333 -146.333 -122.166 -235 -158.499s-182.334 -54.5 -281.001 -54.5s-191.667 18 -279 54s-166.333 89 -237 159
c-70 69.333 -123.333 148.333 -160 237s-55 182.334 -55 281.001s18.167 192.5 54.5 281.5s89.166 167.833 158.499 236.5c68.667 69.333 148.334 122.833 239.001 160.5s184.334 56.5 281.001 56.5z" />
    <glyph glyph-name="ordfeminine" unicode="&#xaa;" horiz-adv-x="844" 
d="M457 1376c-50.667 0 -94.834 -35.833 -132.501 -107.5s-56.5 -157.167 -56.5 -256.5c0 -36.667 7.33301 -65 22 -85s35.334 -30 62.001 -30c50 0 93.333 37.5 130 112.5s55 163.833 55 266.5c0 32 -7 56.667 -21 74s-33.667 26 -59 26zM532 954
c-37.333 -60.667 -77.502 -105.167 -120.502 -133.5s-92.167 -42.5 -147.5 -42.5c-70 0 -124.667 22.167 -164 66.5s-59 106.166 -59 185.499c0 122 40.833 227.667 122.5 317s176.834 134 285.501 134c42 0 79.333 -8.16699 112 -24.5s59.334 -39.833 80.001 -70.5
c2.66699 22.667 19.167 43.5 49.5 62.5s57.5 28.5 81.5 28.5c12 0 21.167 -3.33301 27.5 -10s9.5 -15.667 9.5 -27v-13l-84 -407c-2 -10.667 -3.16699 -18.5 -3.5 -23.5s-0.5 -10.167 -0.5 -15.5c0 -18.667 10.5 -33.667 31.5 -45s31.5 -23.666 31.5 -36.999
c0 -23.333 -26.167 -49.333 -78.5 -78s-98.5 -43 -138.5 -43c-18 0 -31.667 5.5 -41 16.5s-14 27.5 -14 49.5c0 10 1.5 23.167 4.5 39.5s8.16699 39.833 15.5 70.5z" />
    <glyph glyph-name="guillemotleft" unicode="&#xab;" horiz-adv-x="920" 
d="M823 193c6.66699 -9.33301 11.167 -16.666 13.5 -21.999s3.5 -10.333 3.5 -15c0 -11.333 -4.5 -19.333 -13.5 -24s-28.5 -7 -58.5 -7h-18h-11c-37.333 0 -64.333 4.33301 -81 13s-32 23.334 -46 44.001l-155 244c-1.33301 2 -3.33301 4.66699 -6 8
c-11.333 16.667 -17 29 -17 37c0 7.33301 1.83301 14.666 5.5 21.999s9.5 15.666 17.5 24.999l221 242l5 5c32.667 36 76 54 130 54h18c32 0 52.333 -2.33301 61 -7s13 -13.334 13 -26.001c0 -5.33301 -1.33301 -11.166 -4 -17.499s-6.66699 -12.5 -12 -18.5l-248 -279z
M463 193c6.66699 -9.33301 11.001 -16.666 13.001 -21.999s3 -10.333 3 -15c0 -11.333 -4.33301 -19.333 -13 -24s-27.334 -7 -56.001 -7h-19h-12c-37.333 0 -64.333 4.33301 -81 13s-32 23.334 -46 44.001l-155 243l-6 9c-11.333 16.667 -17 29 -17 37
c0 7.33301 1.66699 14.666 5 21.999s9 15.666 17 24.999l221 241l6 7c32.667 35.333 76 53 130 53h18c32 0 52.333 -2.33301 61 -7s13 -13.334 13 -26.001c0 -5.33301 -1.33301 -11.166 -4 -17.499s-7 -12.5 -13 -18.5l-247 -279z" />
    <glyph glyph-name="logicalnot" unicode="&#xac;" horiz-adv-x="1706" 
d="M254 864h1198v-502h-199v306h-999v196z" />
    <glyph glyph-name="sfthyphen" unicode="&#xad;" horiz-adv-x="729" 
d="M578 600c42.667 0 68.667 -3.49902 78 -10.499s14 -20.5 14 -40.5c0 -0.666992 -0.666992 -3.66699 -2 -9s-2 -9.33301 -2 -12l-17 -94c-7.33301 -36.667 -17.833 -60.834 -31.5 -72.501s-37.834 -17.5 -72.501 -17.5h-404c-38 0 -61.5 3.5 -70.5 10.5
s-13.5 20.5 -13.5 40.5c0 2.66699 0.166992 5.5 0.5 8.5s0.833008 6.5 1.5 10.5l19 94c7.33301 37.333 17.833 62 31.5 74s37.834 18 72.501 18h396z" />
    <glyph glyph-name="registered" unicode="&#xae;" horiz-adv-x="1683" 
d="M760 723c4.66699 -0.666992 10 -1.16699 16 -1.5s15 -0.5 27 -0.5c64 0 112 15 144 45s48 75 48 135c0 40 -14.333 74.333 -43 103s-64 43 -106 43c-29.333 0 -51 -5.5 -65 -16.5s-21 -27.5 -21 -49.5v-258zM465 1098l403 -0.000976562c97.333 0 175.333 -18.5 234 -55.5
s88 -84.833 88 -143.5c0 -57.333 -21.5 -102.166 -64.5 -134.499s-114.5 -57.166 -214.5 -74.499c63.333 -14.667 113 -37.834 149 -69.501s59.333 -73.167 70 -124.5c4 -16.667 7.33301 -41.334 10 -74.001c3.33301 -56 18.666 -84 45.999 -84
c18.667 0 32.834 9.83301 42.501 29.5s14.5 48.834 14.5 87.501v12h51v-23c0 -58.667 -14.667 -103.334 -44 -134.001s-72 -46 -128 -46c-31.333 0 -58.833 4.66699 -82.5 14s-42.5 23 -56.5 41c-18.667 26.667 -29.667 71.334 -33 134.001
c-1.33301 30 -3.33301 52.333 -6 67c-9.33301 52.667 -27.333 91.5 -54 116.5s-64 37.5 -112 37.5h-18v-246c0 -30.667 6.66699 -52.334 20 -65.001s39.333 -21.667 78 -27v-51h-393v50c40.667 2.66699 68.5 10.667 83.5 24s22.5 36.333 22.5 69v522
c0 32.667 -7.5 55.834 -22.5 69.501s-42.833 22.167 -83.5 25.5v53zM844 1309c-84 0 -164.5 -16.1699 -241.5 -48.5029s-144.833 -78.5 -203.5 -138.5c-59.333 -60 -104.5 -128 -135.5 -204s-46.5 -156 -46.5 -240c0 -85.333 15.5 -166 46.5 -242
s76.167 -143.667 135.5 -203c60 -59.333 127.333 -104.5 202 -135.5s155 -46.5 241 -46.5c84.667 0 164.667 15.667 240 47s142 76.333 200 135c59.333 60.667 104.833 129.334 136.5 206.001s47.5 156.334 47.5 239.001c0 83.333 -16.167 164.333 -48.5 243
s-77.5 146.334 -135.5 203.001c-58.667 58.667 -126.167 104.167 -202.5 136.5s-154.833 48.5 -235.5 48.5zM844 1413c96.667 0 191.331 -19.8301 283.998 -59.4971s173.334 -94.834 242.001 -165.501c65.333 -67.333 115.5 -146.166 150.5 -236.499
s52.5 -185.5 52.5 -285.5c0 -92.667 -20.333 -185 -61 -277s-97.667 -173.333 -171 -244c-66 -64 -141.833 -113 -227.5 -147s-176.167 -51 -271.5 -51c-73.333 0 -143.833 10.167 -211.5 30.5s-131.167 50.5 -190.5 90.5c-104.667 69.333 -185.667 157.166 -243 263.499
s-86 221.833 -86 346.5c0 97.333 18.333 190.666 55 279.999s89.334 168.666 158.001 237.999c68 69.333 147.167 122.833 237.5 160.5s184.5 56.5 282.5 56.5z" />
    <glyph glyph-name="macron" unicode="&#xaf;" 
d="M342 1184l35 168h614l-35 -168h-614z" />
    <glyph glyph-name="degree" unicode="&#xb0;" horiz-adv-x="674" 
d="M338 1335c-48.667 0 -90.167 -17 -124.5 -51s-51.5 -75 -51.5 -123c0 -49.333 17 -91 51 -125s75.667 -51 125 -51c48 0 89 17.333 123 52s51 76 51 124s-17 89 -51 123s-75 51 -123 51zM338 1464c84 0 155.5 -29.835 214.5 -89.502s88.5 -131.5 88.5 -215.5
c0 -83.333 -29.667 -154.666 -89 -213.999s-131.333 -89 -216 -89c-84 0 -155.167 29.333 -213.5 88s-87.5 130.334 -87.5 215.001s29.5 156.667 88.5 216s130.5 89 214.5 89z" />
    <glyph glyph-name="plusminus" unicode="&#xb1;" horiz-adv-x="1706" 
d="M254 197h1198v-199h-1198v199zM752 1223h202v-326h498v-199h-498v-325h-202v325h-498v199h498v326z" />
    <glyph glyph-name="twosuperior" unicode="&#xb2;" horiz-adv-x="852" 
d="M10 590c-11.333 0 -20.334 3.66797 -27.001 11.001s-10 17.333 -10 30c0 22 11.333 47.833 34 77.5s58 64.5 106 104.5l293 246c50 41.333 87.333 81.666 112 120.999s37 78.666 37 117.999c0 30.667 -9.16699 53.834 -27.5 69.501s-45.5 23.5 -81.5 23.5
c-38 0 -71 -11.667 -99 -35s-42 -50 -42 -80c0 -8 3.83301 -19.833 11.5 -35.5s11.5 -28.5 11.5 -38.5c0 -24.667 -11.167 -44.5 -33.5 -59.5s-52.166 -22.5 -89.499 -22.5c-34.667 0 -62.167 9.5 -82.5 28.5s-30.5 44.5 -30.5 76.5c0 68.667 40 130.834 120 186.501
s174.667 83.5 284 83.5c90 0 163 -19.833 219 -59.5s84 -91.5 84 -155.5c0 -56 -23.5 -114.333 -70.5 -175s-117.833 -124.667 -212.5 -192l-225 -161h282c24.667 0 47.167 9.16699 67.5 27.5s37.5 27.5 51.5 27.5c11.333 0 20.333 -3 27 -9s10 -14 10 -24
c0 -4 -1 -9.33301 -3 -16s-4.33301 -12.334 -7 -17.001l-72 -135c-2 -5.33301 -5.83301 -9.33301 -11.5 -12s-14.167 -4 -25.5 -4h-600z" />
    <glyph glyph-name="threesuperior" unicode="&#xb3;" horiz-adv-x="852" 
d="M522 1069c67.333 -4 120.002 -24.1641 158.002 -60.4971s57 -84.5 57 -144.5c0 -88.667 -37 -159.334 -111 -212.001s-173.333 -79 -298 -79c-96.667 0 -174.834 18.167 -234.501 54.5s-89.5 82.5 -89.5 138.5c0 32.667 9.83301 58.834 29.5 78.501
s46.167 29.5 79.5 29.5c36 0 61.667 -6.83301 77 -20.5s23 -42.834 23 -87.501c1.33301 -34.667 9.5 -59.334 24.5 -74.001s39.5 -22 73.5 -22c52.667 0 93.5 18 122.5 54s43.5 87 43.5 153c0 50.667 -12.333 87.5 -37 110.5s-65 34.5 -121 34.5
c-42.667 0 -68.667 2.83301 -78 8.5s-14 16.5 -14 32.5c0 15.333 4.33301 27.666 13 36.999s20 14 34 14c91.333 0 154.166 14.167 188.499 42.5s51.5 76.166 51.5 143.499c0 39.333 -6.33301 67 -19 83s-33.667 24 -63 24c-28.667 0 -52.167 -7.33301 -70.5 -22
s-27.5 -32.667 -27.5 -54c0 -4.66699 1.66699 -12.167 5 -22.5s5 -18.5 5 -24.5c0 -23.333 -10.5 -42.166 -31.5 -56.499s-48.833 -21.5 -83.5 -21.5c-32.667 0 -58.167 7.5 -76.5 22.5s-27.5 36.167 -27.5 63.5c0 57.333 29.667 105.5 89 144.5s135.333 58.5 228 58.5
c100.667 0 178.5 -17.667 233.5 -53s82.5 -85.333 82.5 -150c0 -61.333 -20.167 -111 -60.5 -149s-98.833 -62.667 -175.5 -74z" />
    <glyph glyph-name="acute" unicode="&#xb4;" 
d="M557 1083l-121 -0.000976562l307 320c24 24 47 42 69 54s44.333 18 67 18c26 0 49.167 -10.833 69.5 -32.5s30.5 -46.5 30.5 -74.5c0 -21.333 -7 -41.166 -21 -59.499s-34.333 -34.5 -61 -48.5z" />
    <glyph glyph-name="mu" unicode="&#xb5;" horiz-adv-x="1202" 
d="M178 209c-8 -63.333 -17.6621 -147.332 -28.9951 -251.999c-26.667 -254 -78.334 -381 -155.001 -381c-36 0 -64.167 10.167 -84.5 30.5s-30.5 48.5 -30.5 84.5c0 31.333 22.667 122.666 68 273.999s80.666 287.333 105.999 408l109 512h256l-99 -459
c-7.33301 -35.333 -12.833 -65 -16.5 -89s-5.5 -43.333 -5.5 -58c0 -39.333 10.167 -70 30.5 -92s48.5 -33 84.5 -33c47.333 0 86 17.667 116 53s52.667 90.666 68 165.999l109 512h256l-115 -533c-6 -27.333 -10.333 -49.5 -13 -66.5s-4 -31.5 -4 -43.5
c0 -31.333 5.83301 -53.833 17.5 -67.5s30.5 -20.5 56.5 -20.5c26.667 0 48.667 6 66 18s32.333 31.667 45 59l21 50c18 46 36.333 69 55 69c10 0 17.833 -3.33301 23.5 -10s8.5 -16.334 8.5 -29.001c0 -22.667 -5.5 -52.167 -16.5 -88.5s-25.167 -70.166 -42.5 -101.499
c-27.333 -49.333 -60.333 -86 -99 -110s-84.334 -36 -137.001 -36c-56.667 0 -99.834 16 -129.501 48s-47.834 82.333 -54.501 151c-26.667 -70.667 -59.5 -121.5 -98.5 -152.5s-88.833 -46.5 -149.5 -46.5c-62 0 -111.833 20.333 -149.5 61s-60.167 98.334 -67.5 173.001z
" />
    <glyph glyph-name="paragraph" unicode="&#xb6;" 
d="M983 1479v-111h-113v-1368h-151v1368h-158v-1368h-153v784c-111.333 4 -200.333 37.667 -267 101s-100 145 -100 245c0 105.333 35.667 189.833 107 253.5s166 95.5 284 95.5h551z" />
    <glyph glyph-name="periodcentered" unicode="&#xb7;" horiz-adv-x="645" 
d="M156 727c0 46 16.332 85.167 48.999 117.5s72.334 48.5 119.001 48.5c46 0 85 -16 117 -48s48 -71.333 48 -118c0 -46 -16.333 -85.167 -49 -117.5s-72 -48.5 -118 -48.5c-46.667 0 -86 16.167 -118 48.5s-48 71.5 -48 117.5z" />
    <glyph glyph-name="cedilla" unicode="&#xb8;" 
d="M139 -377l49 101c43.333 -25.333 85.5 -44.333 126.5 -57s80.167 -19 117.5 -19c23.333 0 42.5 6.83301 57.5 20.5s22.5 32.167 22.5 55.5c0 26 -8 46 -24 60s-39.333 21 -70 21c-16 0 -46 -4.33301 -90 -13l-2 -1l67 209h86l-37 -115
c3.33301 0.666992 8.33301 1.33398 15 2.00098c33.333 4.66699 55 7 65 7c52.667 0 95.167 -16 127.5 -48s48.5 -73.667 48.5 -125c0 -56 -19.833 -101.333 -59.5 -136s-91.5 -52 -155.5 -52c-46.667 0 -94.667 6.16699 -144 18.5s-116 36.166 -200 71.499z" />
    <glyph glyph-name="onesuperior" unicode="&#xb9;" horiz-adv-x="852" 
d="M586 590l-449 0.00195312c-16 0 -28.833 3.33301 -38.5 10s-14.5 15.667 -14.5 27c0 15.333 6 27 18 35s32.667 13.333 62 16c38 3.33301 62.5 9.66602 73.5 18.999s19.167 27.666 24.5 54.999l96 522c0 0.666992 0.333008 2 1 4s1 3.33301 1 4
c0 11.333 -3.33301 19 -10 23s-21 6 -43 6h-24h-21c-23.333 0 -39.666 2.33301 -48.999 7s-14 13 -14 25c0 26 30.667 46 92 60c11.333 2.66699 20.333 4.66699 27 6c56 13.333 111.167 30.666 165.5 51.999s84.833 32 91.5 32c19.333 0 33.166 -2.5 41.499 -7.5
s12.5 -13.5 12.5 -25.5v-12l-123 -688c-0.666992 -4 -1.16699 -8.5 -1.5 -13.5s-0.5 -11.5 -0.5 -19.5c0 -16.667 4.33301 -28.667 13 -36s30 -13 64 -17c21.333 -2.66699 36 -7.16699 44 -13.5s12 -16.166 12 -29.499c0 -11.333 -5 -21 -15 -29s-22 -12 -36 -12z" />
    <glyph glyph-name="ordmasculine" unicode="&#xba;" horiz-adv-x="938" 
d="M520 1393c-30 0 -57.5 -8.5 -82.5 -25.5s-47.167 -42.833 -66.5 -77.5c-20.667 -36 -37.834 -78.833 -51.501 -128.5s-20.5 -94.167 -20.5 -133.5c0 -53.333 10.833 -93.333 32.5 -120s53.834 -40 96.501 -40c59.333 0 109.333 35 150 105s61 154.667 61 254
c0 58 -9.5 100.167 -28.5 126.5s-49.167 39.5 -90.5 39.5zM51 1061c0 124 45.5 225 136.5 303s210.167 117 357.5 117c108.667 0 192.834 -25.5 252.501 -76.5s89.5 -122.5 89.5 -214.5c0 -121.333 -44.833 -220.333 -134.5 -297s-206.834 -115 -351.501 -115
c-110.667 0 -196.667 24.833 -258 74.5s-92 119.167 -92 208.5z" />
    <glyph glyph-name="guillemotright" unicode="&#xbb;" horiz-adv-x="920" 
d="M100 750c-6 8.66699 -10.168 15.666 -12.501 20.999s-3.5 10.333 -3.5 15c0 12.667 5 21.334 15 26.001s35 7 75 7c43.333 0 73.5 -4.5 90.5 -13.5s32.5 -24.167 46.5 -45.5l156 -242c0.666992 -0.666992 1.33398 -1.66699 2.00098 -3
c13.333 -20.667 20 -35.334 20 -44.001c0 -6.66699 -1.5 -13.334 -4.5 -20.001s-8.83301 -15 -17.5 -25l-221 -243l-3 -4c-33.333 -36 -77.333 -54 -132 -54h-19c-32 0 -52.333 2.33301 -61 7s-13 13.334 -13 26.001c0 4.66699 1.33301 9.83398 4 15.501s7 12.167 13 19.5
l248 278zM460.999 749.999c-6.66699 8.66699 -11.168 15.666 -13.501 20.999s-3.5 10.333 -3.5 15c0 12.667 5.16699 21.334 15.5 26.001s35.5 7 75.5 7c42.667 0 72.5 -4.5 89.5 -13.5s32.833 -24.167 47.5 -45.5l155 -242c0.666992 -0.666992 1.66699 -2 3 -4
c13.333 -20 20 -34.333 20 -43c0 -6.66699 -1.66699 -13.334 -5 -20.001s-9.33301 -15 -18 -25l-221 -244l-2 -2c-33.333 -36.667 -77.666 -55 -132.999 -55h-18c-32 0 -52.333 2.33301 -61 7s-13 13.334 -13 26.001c0 5.33301 1.16699 10.5 3.5 15.5s6.5 11.5 12.5 19.5
l248 278z" />
    <glyph glyph-name="onequarter" unicode="&#xbc;" horiz-adv-x="1968" 
d="M1325 293l205 0.000976562l92 389c-64.667 -59.333 -122 -121.833 -172 -187.5s-91.667 -132.834 -125 -201.501zM1509 199.001l-285.998 0.00585938c-18 0 -31.167 3.16699 -39.5 9.5s-12.5 16.166 -12.5 29.499c0 29.333 26.5 84.166 79.5 164.499
s120.833 164.5 203.5 252.5c62 67.333 115.667 114.666 161 141.999s92.666 41 141.999 41c32 0 55 -4 69 -12s21 -20.667 21 -38c0 -6.66699 -0.333008 -13.834 -1 -21.501s-1.66699 -17.5 -3 -29.5l-76 -436h105c8 0 14.333 -3.66699 19 -11s7 -17.333 7 -30
c0 -20 -3.83301 -35.167 -11.5 -45.5s-18.834 -15.5 -33.501 -15.5h-104l-14 -86v-7c0 -10.667 8.83301 -20 26.5 -28s26.5 -19.667 26.5 -35c0 -13.333 -4.5 -23.833 -13.5 -31.5s-21.5 -11.5 -37.5 -11.5h-303c-10.667 0 -19.834 3.16699 -27.501 9.5
s-11.5 14.166 -11.5 23.499c0 12.667 4 23 12 31s20.333 14 37 18c3.33301 1.33301 8 2.66602 14 3.99902c16.667 4.66699 28.334 19.667 35.001 45zM1327 1438.01c20 34 35.1689 54.666 45.502 61.999s25.166 11 44.499 11c16 0 28.167 -2.66699 36.5 -8
s12.5 -13.333 12.5 -24c0 -5.33301 -2.33301 -13.5 -7 -24.5s-13 -27.5 -25 -49.5l-799 -1368c-21.333 -36 -37 -57.667 -47 -65s-24.333 -11 -43 -11c-16 0 -28.167 2.83301 -36.5 8.5s-12.5 13.834 -12.5 24.501c0 6.66699 2.66699 16.5 8 29.5s12.666 28.5 21.999 46.5z
M559.004 649.006l-427.999 -0.00195312c-14.667 0 -26.5 3.16699 -35.5 9.5s-13.5 14.833 -13.5 25.5c0 14.667 6.16699 25.834 18.5 33.501s31.166 12.167 56.499 13.5c37.333 4 61 10.167 71 18.5s17.333 25.5 22 51.5l94 487v6c0 10.667 -2.83301 17.834 -8.5 21.501
s-19.167 5.5 -40.5 5.5h-23h-23c-22.667 1.33301 -38.167 4.16602 -46.5 8.49902s-12.5 11.833 -12.5 22.5c0 24 29 42.333 87 55l26 6c54.667 12.667 107.834 29.167 159.501 49.5s81.167 30.5 88.5 30.5c17.333 0 30.166 -2.66699 38.499 -8s12.5 -13.666 12.5 -24.999
c0 -2 -0.166992 -3.83301 -0.5 -5.5s-0.833008 -3.16699 -1.5 -4.5l-117 -642c-0.666992 -4 -1.16699 -8.16699 -1.5 -12.5s-0.5 -10.166 -0.5 -17.499c0 -16 4.33301 -27.5 13 -34.5s29 -11.833 61 -14.5c22 -4 36.667 -8.83301 44 -14.5s11 -14.5 11 -26.5
c0 -10.667 -5 -19.834 -15 -27.501s-22 -11.5 -36 -11.5z" />
    <glyph glyph-name="onehalf" unicode="&#xbd;" horiz-adv-x="1968" 
d="M1163 0c-10 0 -18.3311 3.33105 -24.998 9.99805s-10 15.667 -10 27c0 21.333 10.833 45.833 32.5 73.5s56.167 60.5 103.5 98.5l278 227c48 39.333 84 77.5 108 114.5s36 74.167 36 111.5c0 28 -8.66699 49.333 -26 64s-43 22 -77 22c-38 0 -70.333 -10.833 -97 -32.5
s-40 -46.5 -40 -74.5c0 -8 3.33301 -19.333 10 -34s10 -26.667 10 -36c0 -22.667 -10.333 -40.834 -31 -54.501s-48.334 -20.5 -83.001 -20.5c-34 0 -60.667 8.5 -80 25.5s-29 40.5 -29 70.5c0 64.667 38 122.834 114 174.501s166.333 77.5 271 77.5
c86.667 0 156.5 -18.333 209.5 -55s79.5 -84.667 79.5 -144c0 -52 -22.167 -106.5 -66.5 -163.5s-111.5 -117.167 -201.5 -180.5l-217 -149h270c23.333 0 45 8.5 65 25.5s36.667 25.5 50 25.5c10 0 18.167 -2.83301 24.5 -8.5s9.5 -13.167 9.5 -22.5
c0 -3.33301 -1 -8.16602 -3 -14.499s-4.33301 -11.833 -7 -16.5l-67 -126c-3.33301 -5.33301 -7.83301 -9.16602 -13.5 -11.499s-12.834 -3.5 -21.501 -3.5h-576zM1327 1438c20 34 35.1689 54.666 45.502 61.999s25.166 11 44.499 11c16 0 28.167 -2.66699 36.5 -8
s12.5 -13.333 12.5 -24c0 -5.33301 -2.33301 -13.5 -7 -24.5s-13 -27.5 -25 -49.5l-799 -1368c-21.333 -36 -37 -57.667 -47 -65s-24.333 -11 -43 -11c-16 0 -28.167 2.83301 -36.5 8.5s-12.5 13.834 -12.5 24.501c0 6.66699 2.66699 16.5 8 29.5s12.666 28.5 21.999 46.5z
M559.004 648.997l-427.999 -0.00195312c-14.667 0 -26.5 3.16699 -35.5 9.5s-13.5 14.833 -13.5 25.5c0 14.667 6.16699 25.834 18.5 33.501s31.166 12.167 56.499 13.5c37.333 4 61 10.167 71 18.5s17.333 25.5 22 51.5l94 487v6c0 10.667 -2.83301 17.834 -8.5 21.501
s-19.167 5.5 -40.5 5.5h-23h-23c-22.667 1.33301 -38.167 4.16602 -46.5 8.49902s-12.5 11.833 -12.5 22.5c0 24 29 42.333 87 55l26 6c54.667 12.667 107.834 29.167 159.501 49.5s81.167 30.5 88.5 30.5c17.333 0 30.166 -2.66699 38.499 -8s12.5 -13.666 12.5 -24.999
c0 -2 -0.166992 -3.83301 -0.5 -5.5s-0.833008 -3.16699 -1.5 -4.5l-117 -642c-0.666992 -4 -1.16699 -8.16699 -1.5 -12.5s-0.5 -10.166 -0.5 -17.499c0 -16 4.33301 -27.5 13 -34.5s29 -11.833 61 -14.5c22 -4 36.667 -8.83301 44 -14.5s11 -14.5 11 -26.5
c0 -10.667 -5 -19.834 -15 -27.501s-22 -11.5 -36 -11.5z" />
    <glyph glyph-name="threequarters" unicode="&#xbe;" horiz-adv-x="1968" 
d="M1325 293l205 0.000976562l92 389c-64.667 -59.333 -122 -121.833 -172 -187.5s-91.667 -132.834 -125 -201.501zM1509 199.001l-285.998 0.00585938c-18 0 -31.167 3.16699 -39.5 9.5s-12.5 16.166 -12.5 29.499c0 29.333 26.5 84.166 79.5 164.499
s120.833 164.5 203.5 252.5c62 67.333 115.667 114.666 161 141.999s92.666 41 141.999 41c32 0 55 -4 69 -12s21 -20.667 21 -38c0 -6.66699 -0.333008 -13.834 -1 -21.501s-1.66699 -17.5 -3 -29.5l-76 -436h105c8 0 14.333 -3.66699 19 -11s7 -17.333 7 -30
c0 -20 -3.83301 -35.167 -11.5 -45.5s-18.834 -15.5 -33.501 -15.5h-104l-14 -86v-7c0 -10.667 8.83301 -20 26.5 -28s26.5 -19.667 26.5 -35c0 -13.333 -4.5 -23.833 -13.5 -31.5s-21.5 -11.5 -37.5 -11.5h-303c-10.667 0 -19.834 3.16699 -27.501 9.5
s-11.5 14.166 -11.5 23.499c0 12.667 4 23 12 31s20.333 14 37 18c3.33301 1.33301 8 2.66602 14 3.99902c16.667 4.66699 28.334 19.667 35.001 45zM1327 1438.01c20 34 35.1689 54.666 45.502 61.999s25.166 11 44.499 11c16 0 28.167 -2.66699 36.5 -8
s12.5 -13.333 12.5 -24c0 -5.33301 -2.33301 -13.5 -7 -24.5s-13 -27.5 -25 -49.5l-799 -1368c-21.333 -36 -37 -57.667 -47 -65s-24.333 -11 -43 -11c-16 0 -28.167 2.83301 -36.5 8.5s-12.5 13.834 -12.5 24.501c0 6.66699 2.66699 16.5 8 29.5s12.666 28.5 21.999 46.5z
M500.004 1096.01c63.333 -4 113.335 -22.9971 150.002 -56.9971s55 -78.667 55 -134c0 -82 -35.667 -147.833 -107 -197.5s-166.333 -74.5 -285 -74.5c-91.333 0 -165.666 17 -222.999 51s-86 77 -86 129c0 30.667 9.5 55 28.5 73s44.5 27 76.5 27
c33.333 0 57.333 -6 72 -18s22.667 -38.667 24 -80c0 -32 7.33301 -55.333 22 -70s38 -22 70 -22c50 0 88.833 17 116.5 51s41.5 82 41.5 144c0 47.333 -11.833 81.666 -35.5 102.999s-61.834 32 -114.501 32c-40.667 0 -65.5 2.66699 -74.5 8s-13.5 15.666 -13.5 30.999
c0 14 4.16699 25.333 12.5 34s19.166 13 32.499 13c87.333 0 147.5 13.167 180.5 39.5s49.5 71.166 49.5 134.499c0 36 -6 61.333 -18 76s-32 22 -60 22c-28.667 0 -51.667 -6.5 -69 -19.5s-26 -29.833 -26 -50.5c0 -4 1.83301 -11 5.5 -21s5.5 -18 5.5 -24
c0 -20.667 -10.333 -37.667 -31 -51s-47.334 -20 -80.001 -20c-32 0 -56.667 6.83301 -74 20.5s-26 33.5 -26 59.5c0 53.333 28.5 98.333 85.5 135s130.167 55 219.5 55c94.667 0 168.167 -16.667 220.5 -50s78.5 -80 78.5 -140c0 -58 -19.167 -104.833 -57.5 -140.5
s-93.5 -58.5 -165.5 -68.5z" />
    <glyph glyph-name="questiondown" unicode="&#xbf;" horiz-adv-x="1124" 
d="M784 1087c30 0 49.834 -4.33105 59.501 -12.998s14.5 -24.667 14.5 -48c0 -73.333 -8.83301 -138 -26.5 -194s-41.5 -95.667 -71.5 -119c-22 -17.333 -62 -39.166 -120 -65.499s-98.667 -48.166 -122 -65.499c-42.667 -34 -73.834 -75.833 -93.501 -125.5
s-29.5 -111.834 -29.5 -186.501c0 -54.667 10.833 -95.167 32.5 -121.5s55.167 -39.5 100.5 -39.5c77.333 0 120.666 48.333 129.999 145c0.666992 6.66699 1 11.334 1 14.001c4.66699 40.667 20.167 71.667 46.5 93s62.833 32 109.5 32c40 0 72.167 -10.167 96.5 -30.5
s36.5 -46.833 36.5 -79.5c0 -90.667 -44.333 -165.334 -133 -224.001s-202.667 -88 -342 -88c-130 0 -231.5 33.167 -304.5 99.5s-109.5 158.166 -109.5 275.499c0 87.333 20 164.166 60 230.499s99.333 121.833 178 166.5c61.333 36 132.833 67 214.5 93
s128.834 44.333 141.501 55c13.333 11.333 24 40.666 32 87.999l9 49c5.33301 24.667 13 40.667 23 48s32.333 11 67 11zM999.001 1382c0 -53.333 -23 -99.668 -69 -139.001s-100.667 -59 -164 -59c-44 0 -80 12.167 -108 36.5s-42 55.833 -42 94.5
c0 56.667 22.833 103.834 68.5 141.501s104.167 56.5 175.5 56.5c40 0 73.167 -12.333 99.5 -37s39.5 -56 39.5 -94z" />
    <glyph glyph-name="Agrave" unicode="&#xc0;" horiz-adv-x="1536" 
d="M492 664l404.998 0.000976562c-16 83.333 -34.667 166.666 -56 249.999s-45.666 167 -72.999 251l-144.5 -250c-46.333 -84 -90.166 -167.667 -131.499 -251zM-33.002 0.000976562c-17.333 0 -31.498 5.83496 -42.498 17.502s-16.5 26.834 -16.5 45.501
c0 26.667 17.667 52.334 53 77.001c14.667 10 25.667 18 33 24c36 29.333 98.667 135.666 188 318.999l99 199c73.333 144.667 146.666 278.667 219.999 402s142 227.666 206 312.999c37.333 49.333 68.833 81 94.5 95s59.5 21 101.5 21c48.667 0 83.5 -6.16699 104.5 -18.5
s39.5 -38.833 55.5 -79.5c42.667 -108 85 -238.833 127 -392.5s79.667 -316.167 113 -487.5c10.667 -60 23 -134 37 -222c14 -96 26 -149.667 36 -161c3.33301 -4 10 -9.66699 20 -17c26.667 -19.333 40 -42.333 40 -69c0 -20.667 -7.16699 -36.834 -21.5 -48.501
s-33.833 -17.5 -58.5 -17.5h-428c-18.667 0 -33.334 5.5 -44.001 16.5s-16 25.833 -16 44.5c0 30 16.5 53.667 49.5 71s49.5 39 49.5 65c0 29.333 -3.83301 68.5 -11.5 117.5s-18.167 103.833 -31.5 164.5h-525l-106 -221c-5.33301 -9.33301 -9.5 -19.5 -12.5 -30.5
s-4.5 -20.5 -4.5 -28.5c0 -16.667 12.667 -34.334 38 -53.001s38 -42 38 -70c0 -23.333 -7.83301 -41.833 -23.5 -55.5s-37.167 -20.5 -64.5 -20.5h-297zM881 1960l248 -318h-121l-275 179c-26.667 18 -46.167 35.5 -58.5 52.5s-18.5 34.833 -18.5 53.5
c0 31.333 9.5 57 28.5 77s43.5 30 73.5 30c22.667 0 44.167 -6.16699 64.5 -18.5s39.833 -30.833 58.5 -55.5z" />
    <glyph glyph-name="Aacute" unicode="&#xc1;" horiz-adv-x="1536" 
d="M492 664l404.998 0.000976562c-16 83.333 -34.667 166.666 -56 249.999s-45.666 167 -72.999 251l-144.5 -250c-46.333 -84 -90.166 -167.667 -131.499 -251zM-33.002 0.000976562c-17.333 0 -31.498 5.83496 -42.498 17.502s-16.5 26.834 -16.5 45.501
c0 26.667 17.667 52.334 53 77.001c14.667 10 25.667 18 33 24c36 29.333 98.667 135.666 188 318.999l99 199c73.333 144.667 146.666 278.667 219.999 402s142 227.666 206 312.999c37.333 49.333 68.833 81 94.5 95s59.5 21 101.5 21c48.667 0 83.5 -6.16699 104.5 -18.5
s39.5 -38.833 55.5 -79.5c42.667 -108 85 -238.833 127 -392.5s79.667 -316.167 113 -487.5c10.667 -60 23 -134 37 -222c14 -96 26 -149.667 36 -161c3.33301 -4 10 -9.66699 20 -17c26.667 -19.333 40 -42.333 40 -69c0 -20.667 -7.16699 -36.834 -21.5 -48.501
s-33.833 -17.5 -58.5 -17.5h-428c-18.667 0 -33.334 5.5 -44.001 16.5s-16 25.833 -16 44.5c0 30 16.5 53.667 49.5 71s49.5 39 49.5 65c0 29.333 -3.83301 68.5 -11.5 117.5s-18.167 103.833 -31.5 164.5h-525l-106 -221c-5.33301 -9.33301 -9.5 -19.5 -12.5 -30.5
s-4.5 -20.5 -4.5 -28.5c0 -16.667 12.667 -34.334 38 -53.001s38 -42 38 -70c0 -23.333 -7.83301 -41.833 -23.5 -55.5s-37.167 -20.5 -64.5 -20.5h-297zM846 1642l-121 -0.000976562l307 320c24 24 47 42 69 54s44.333 18 67 18c26 0 49.167 -10.833 69.5 -32.5
s30.5 -46.5 30.5 -74.5c0 -21.333 -7 -41.166 -21 -59.499s-34.333 -34.5 -61 -48.5z" />
    <glyph glyph-name="Acircumflex" unicode="&#xc2;" horiz-adv-x="1536" 
d="M492 664l404.998 0.000976562c-16 83.333 -34.667 166.666 -56 249.999s-45.666 167 -72.999 251l-144.5 -250c-46.333 -84 -90.166 -167.667 -131.499 -251zM-33.002 0.000976562c-17.333 0 -31.498 5.83496 -42.498 17.502s-16.5 26.834 -16.5 45.501
c0 26.667 17.667 52.334 53 77.001c14.667 10 25.667 18 33 24c36 29.333 98.667 135.666 188 318.999l99 199c73.333 144.667 146.666 278.667 219.999 402s142 227.666 206 312.999c37.333 49.333 68.833 81 94.5 95s59.5 21 101.5 21c48.667 0 83.5 -6.16699 104.5 -18.5
s39.5 -38.833 55.5 -79.5c42.667 -108 85 -238.833 127 -392.5s79.667 -316.167 113 -487.5c10.667 -60 23 -134 37 -222c14 -96 26 -149.667 36 -161c3.33301 -4 10 -9.66699 20 -17c26.667 -19.333 40 -42.333 40 -69c0 -20.667 -7.16699 -36.834 -21.5 -48.501
s-33.833 -17.5 -58.5 -17.5h-428c-18.667 0 -33.334 5.5 -44.001 16.5s-16 25.833 -16 44.5c0 30 16.5 53.667 49.5 71s49.5 39 49.5 65c0 29.333 -3.83301 68.5 -11.5 117.5s-18.167 103.833 -31.5 164.5h-525l-106 -221c-5.33301 -9.33301 -9.5 -19.5 -12.5 -30.5
s-4.5 -20.5 -4.5 -28.5c0 -16.667 12.667 -34.334 38 -53.001s38 -42 38 -70c0 -23.333 -7.83301 -41.833 -23.5 -55.5s-37.167 -20.5 -64.5 -20.5h-297zM1223 1640h-94l-174 172l-258 -172h-115l311 373h172z" />
    <glyph glyph-name="Atilde" unicode="&#xc3;" horiz-adv-x="1536" 
d="M492 664l404.998 0.000976562c-16 83.333 -34.667 166.666 -56 249.999s-45.666 167 -72.999 251l-144.5 -250c-46.333 -84 -90.166 -167.667 -131.499 -251zM-33.002 0.000976562c-17.333 0 -31.498 5.83496 -42.498 17.502s-16.5 26.834 -16.5 45.501
c0 26.667 17.667 52.334 53 77.001c14.667 10 25.667 18 33 24c36 29.333 98.667 135.666 188 318.999l99 199c73.333 144.667 146.666 278.667 219.999 402s142 227.666 206 312.999c37.333 49.333 68.833 81 94.5 95s59.5 21 101.5 21c48.667 0 83.5 -6.16699 104.5 -18.5
s39.5 -38.833 55.5 -79.5c42.667 -108 85 -238.833 127 -392.5s79.667 -316.167 113 -487.5c10.667 -60 23 -134 37 -222c14 -96 26 -149.667 36 -161c3.33301 -4 10 -9.66699 20 -17c26.667 -19.333 40 -42.333 40 -69c0 -20.667 -7.16699 -36.834 -21.5 -48.501
s-33.833 -17.5 -58.5 -17.5h-428c-18.667 0 -33.334 5.5 -44.001 16.5s-16 25.833 -16 44.5c0 30 16.5 53.667 49.5 71s49.5 39 49.5 65c0 29.333 -3.83301 68.5 -11.5 117.5s-18.167 103.833 -31.5 164.5h-525l-106 -221c-5.33301 -9.33301 -9.5 -19.5 -12.5 -30.5
s-4.5 -20.5 -4.5 -28.5c0 -16.667 12.667 -34.334 38 -53.001s38 -42 38 -70c0 -23.333 -7.83301 -41.833 -23.5 -55.5s-37.167 -20.5 -64.5 -20.5h-297zM1286 1980c-22.667 -92.667 -50.667 -159.169 -84 -199.502s-77 -60.5 -131 -60.5
c-11.333 0 -22.166 0.666992 -32.499 2s-21.166 3.33301 -32.499 6l-109 25c-2 0.666992 -4 1 -6 1c-38.667 8.66699 -62.667 13 -72 13c-28 0 -51.667 -7.66699 -71 -23s-35 -39.666 -47 -72.999h-76c23.333 93.333 51.833 161 85.5 203s75.5 63 125.5 63
c11.333 0 24.666 -1 39.999 -3s32 -5 50 -9l123 -29c8.66699 -2 16.834 -3.5 24.501 -4.5s15.167 -1.5 22.5 -1.5c29.333 0 53.666 7.33301 72.999 22s34.666 37.334 45.999 68.001h71z" />
    <glyph glyph-name="Adieresis" unicode="&#xc4;" horiz-adv-x="1536" 
d="M492 664l404.998 0.000976562c-16 83.333 -34.667 166.666 -56 249.999s-45.666 167 -72.999 251l-144.5 -250c-46.333 -84 -90.166 -167.667 -131.499 -251zM-33.002 0.000976562c-17.333 0 -31.498 5.83496 -42.498 17.502s-16.5 26.834 -16.5 45.501
c0 26.667 17.667 52.334 53 77.001c14.667 10 25.667 18 33 24c36 29.333 98.667 135.666 188 318.999l99 199c73.333 144.667 146.666 278.667 219.999 402s142 227.666 206 312.999c37.333 49.333 68.833 81 94.5 95s59.5 21 101.5 21c48.667 0 83.5 -6.16699 104.5 -18.5
s39.5 -38.833 55.5 -79.5c42.667 -108 85 -238.833 127 -392.5s79.667 -316.167 113 -487.5c10.667 -60 23 -134 37 -222c14 -96 26 -149.667 36 -161c3.33301 -4 10 -9.66699 20 -17c26.667 -19.333 40 -42.333 40 -69c0 -20.667 -7.16699 -36.834 -21.5 -48.501
s-33.833 -17.5 -58.5 -17.5h-428c-18.667 0 -33.334 5.5 -44.001 16.5s-16 25.833 -16 44.5c0 30 16.5 53.667 49.5 71s49.5 39 49.5 65c0 29.333 -3.83301 68.5 -11.5 117.5s-18.167 103.833 -31.5 164.5h-525l-106 -221c-5.33301 -9.33301 -9.5 -19.5 -12.5 -30.5
s-4.5 -20.5 -4.5 -28.5c0 -16.667 12.667 -34.334 38 -53.001s38 -42 38 -70c0 -23.333 -7.83301 -41.833 -23.5 -55.5s-37.167 -20.5 -64.5 -20.5h-297zM1008 1827c0 36.667 14.5 69.334 43.5 98.001s62.167 43 99.5 43c39.333 0 72.833 -13.833 100.5 -41.5
s41.5 -60.834 41.5 -99.501c0 -42 -13.333 -76.167 -40 -102.5s-60.667 -39.5 -102 -39.5c-40 0 -73.833 13.667 -101.5 41s-41.5 61 -41.5 101zM621 1827c0 37.333 14.166 70.168 42.499 98.501s61.166 42.5 98.499 42.5c38.667 0 71.834 -13.833 99.501 -41.5
s41.5 -60.834 41.5 -99.501c0 -42 -13.167 -76.167 -39.5 -102.5s-60.166 -39.5 -101.499 -39.5c-40 0 -73.5 13.667 -100.5 41s-40.5 61 -40.5 101z" />
    <glyph glyph-name="Aring" unicode="&#xc5;" horiz-adv-x="1536" 
d="M793 1729c0 -33.333 11 -60.833 33 -82.5s49.667 -32.5 83 -32.5c32 0 59.5 11.167 82.5 33.5s34.5 49.5 34.5 81.5c0 31.333 -11.5 58.833 -34.5 82.5s-50.5 35.5 -82.5 35.5c-32.667 0 -60.167 -11.5 -82.5 -34.5s-33.5 -50.833 -33.5 -83.5zM492 664
l404.998 0.000976562c-16 83.333 -34.667 166.666 -56 249.999s-45.666 167 -72.999 251l-144.5 -250c-46.333 -84 -90.166 -167.667 -131.499 -251zM-33.002 0.000976562c-17.333 0 -31.501 5.50098 -42.501 16.501s-16.5 25.167 -16.5 42.5c0 30 16 55.333 48 76
c9.33301 6 16.333 11 21 15c48 34 119.333 148 214 342l65 133c133.333 264.667 253.666 476.167 360.999 634.5s183 237.5 227 237.5c0.666992 0 2 -0.333008 4 -1s3.33301 -1 4 -1c-56 14.667 -100.333 43 -133 85s-49 92.333 -49 151c0 66.667 23.333 123.5 70 170.5
s103 70.5 169 70.5c68 0 125.333 -24 172 -72s70 -107.333 70 -178c0 -56 -15.667 -103.333 -47 -142s-77 -67.667 -137 -87c44.667 -2.66699 87.334 -63 128.001 -181c2.66699 -8 5 -14.667 7 -20c44.667 -130 85.5 -268.833 122.5 -416.5s70.5 -307.167 100.5 -478.5
c4.66699 -25.333 10 -59 16 -101c12 -88 27.333 -139.667 46 -155c2 -2 6 -5 12 -9c24.667 -18 37 -40 37 -66c0 -20.667 -7.16699 -36.834 -21.5 -48.501s-33.833 -17.5 -58.5 -17.5h-428c-19.333 0 -34.166 5.16699 -44.499 15.5s-15.5 24.833 -15.5 43.5
c0 30 16.5 53.333 49.5 70s49.5 38 49.5 64c0 30.667 -3.83301 71.167 -11.5 121.5s-18.167 103.833 -31.5 160.5h-525l-106 -219c-4.66699 -10 -8.5 -20.667 -11.5 -32s-4.83301 -20.333 -5.5 -27c0 -16.667 12.667 -34 38 -52s38 -41 38 -69
c0 -23.333 -7.83301 -41.833 -23.5 -55.5s-37.167 -20.5 -64.5 -20.5h-297z" />
    <glyph glyph-name="AE" unicode="&#xc6;" horiz-adv-x="2095" 
d="M1186 213l0.00292969 -10.002c0 -17.333 8.83301 -30.166 26.5 -38.499s44.834 -12.5 81.501 -12.5c129.333 0 228.5 5.66699 297.5 17s119.5 30 151.5 56l41 37c47.333 44 85.333 66 114 66c21.333 0 37.333 -4.66699 48 -14s16 -23.333 16 -42
c0 -25.333 -9.83301 -67.333 -29.5 -126s-36.5 -96.334 -50.5 -113.001c-8.66699 -11.333 -25.167 -19.666 -49.5 -24.999s-56.833 -8 -97.5 -8h-987c-18.667 0 -33 4.5 -43 13.5s-15 22.167 -15 39.5c0 28.667 19.667 53.667 59 75l28 16c21.333 13.333 38 31.5 50 54.5
s22.333 61.167 31 114.5l62 371h-459c-79.333 -126.667 -141.5 -236 -186.5 -328s-67.5 -154.667 -67.5 -188c0 -4.66699 10.833 -18 32.5 -40s32.5 -43.667 32.5 -65c0 -18.667 -5.66699 -33.834 -17 -45.501s-26 -17.5 -44 -17.5h-258c-16 0 -28.167 4.83301 -36.5 14.5
s-12.5 23.834 -12.5 42.501c0 22.667 19 51.334 57 86.001c22.667 20.667 39 37 49 49c7.33301 9.33301 23.333 40.333 48 93c100 216 213.667 414 341 594c86.667 121.333 179 234.5 277 339.5s177.667 179.5 239 223.5c19.333 13.333 39.166 22.833 59.499 28.5
s46.5 8.5 78.5 8.5h932c26.667 0 45.834 -8.16699 57.501 -24.5s17.5 -44.5 17.5 -84.5c0 -91.333 -7 -152 -21 -182s-39.667 -45 -77 -45c-22.667 0 -43.834 18.5 -63.501 55.5s-34.167 60.167 -43.5 69.5c-21.333 21.333 -49.833 36.166 -85.5 44.499
s-99.834 12.5 -192.501 12.5h-59h-23c-62.667 0 -101.5 -3.83301 -116.5 -11.5s-24.5 -23.5 -28.5 -47.5l-68 -412h266c78 0 139 15.333 183 46s68.333 46 73 46c16 0 29.333 -6.5 40 -19.5s16 -28.833 16 -47.5c0 -76.667 -11 -141 -33 -193s-50 -78 -84 -78
c-22.667 0 -41.334 11 -56.001 33c-4.66699 6.66699 -8.33398 11.334 -11.001 14.001c-12 10.667 -27.5 18.167 -46.5 22.5s-48.167 6.5 -87.5 6.5h-285zM946.003 853.998l72 488.999c-70.667 -50 -143 -116.667 -217 -200s-146.333 -179.666 -217 -288.999h362z" />
    <glyph glyph-name="Ccedilla" unicode="&#xc7;" horiz-adv-x="1587" 
d="M1520 1272l-0.000976562 -233.998c0 -32.667 -6.83301 -57.5 -20.5 -74.5s-33.5 -25.5 -59.5 -25.5c-34.667 0 -59.667 33 -75 99c-3.33301 13.333 -5.66602 23.333 -6.99902 30c-22.667 90.667 -62.834 158.334 -120.501 203.001s-133.5 67 -227.5 67
c-152 0 -278.167 -70.833 -378.5 -212.5s-150.5 -318.5 -150.5 -530.5c0 -140 33.667 -249 101 -327s161.333 -117 282 -117c61.333 0 122.333 11 183 33s119.334 54.667 176.001 98c14.667 11.333 33 27.666 55 48.999c36.667 35.333 66 53 88 53
c24 0 43.667 -7.33301 59 -22s23 -33.334 23 -56.001c0 -83.333 -66.667 -162.166 -200 -236.499s-292 -111.5 -476 -111.5c-212.667 0 -381.5 61.167 -506.5 183.5s-187.5 285.833 -187.5 490.5c0 130 28.667 256.667 86 380s134.333 224.666 231 303.999
c78 63.333 167 112.166 267 146.499s203.667 51.5 311 51.5c128 0 251.167 -26.667 369.5 -80s177.5 -107 177.5 -161zM462.999 -376.998l49 101c43.333 -25.333 85.5 -44.333 126.5 -57s80.167 -19 117.5 -19c23.333 0 42.5 6.83301 57.5 20.5s22.5 32.167 22.5 55.5
c0 26 -8 46 -24 60s-39.333 21 -70 21c-16 0 -46 -4.33301 -90 -13l-2 -1l67 209h86l-37 -115c3.33301 0.666992 8.33301 1.33398 15 2.00098c33.333 4.66699 55 7 65 7c52.667 0 95.167 -16 127.5 -48s48.5 -73.667 48.5 -125c0 -56 -19.833 -101.333 -59.5 -136
s-91.5 -52 -155.5 -52c-46.667 0 -94.667 6.16699 -144 18.5s-116 36.166 -200 71.499z" />
    <glyph glyph-name="Egrave" unicode="&#xc8;" horiz-adv-x="1366" 
d="M455 213l-0.000976562 -8.00098c0 -18 9 -31.333 27 -40s45.667 -13 83 -13c128.667 0 227.334 5.66699 296.001 17s119 30 151 56l39 35c49.333 45.333 88.666 68 117.999 68c21.333 0 37 -4.5 47 -13.5s15 -23.167 15 -42.5c0 -26 -9.66699 -68.167 -29 -126.5
s-35.666 -95.833 -48.999 -112.5c-8.66699 -11.333 -25.5 -19.666 -50.5 -24.999s-57.833 -8 -98.5 -8h-986c-18.667 0 -33.167 4.66699 -43.5 14s-15.5 22.333 -15.5 39c0 28.667 20 53.667 60 75c12 6 21.333 11 28 15c22 14 39 32.5 51 55.5s22.333 61.167 31 114.5
l150 945c0.666992 2.66699 1.16699 5.66699 1.5 9s0.5 7.66602 0.5 12.999c0 26.667 -13.667 49.334 -41 68.001s-41 38.334 -41 59.001c0 22 7.5 39.5 22.5 52.5s35.5 19.5 61.5 19.5h972c26.667 0 45.667 -8 57 -24s17 -44.333 17 -85
c0 -92.667 -6.83301 -153.667 -20.5 -183s-38.834 -44 -75.501 -44c-22.667 0 -43.834 18.5 -63.501 55.5s-34.167 60.167 -43.5 69.5c-21.333 21.333 -50.166 36.166 -86.499 44.499s-100.833 12.5 -193.5 12.5h-60h-22c-62 0 -100.333 -3.66699 -115 -11
s-24 -23.333 -28 -48l-68 -412h266c78 0 139 15.333 183 46s68.333 46 73 46c16 0 29.167 -6.5 39.5 -19.5s15.5 -28.833 15.5 -47.5c0 -76.667 -10.833 -141 -32.5 -193s-49.5 -78 -83.5 -78c-23.333 0 -42.666 11 -57.999 33c-5.33301 7.33301 -9 12 -11 14
c-12 10.667 -27.5 18.167 -46.5 22.5s-48.167 6.5 -87.5 6.5h-283zM800.999 1960l248 -318h-121l-275 179c-26.667 18 -46.167 35.5 -58.5 52.5s-18.5 34.833 -18.5 53.5c0 31.333 9.5 57 28.5 77s43.5 30 73.5 30c22.667 0 44.167 -6.16699 64.5 -18.5
s39.833 -30.833 58.5 -55.5z" />
    <glyph glyph-name="Eacute" unicode="&#xc9;" horiz-adv-x="1366" 
d="M455 213l-0.000976562 -8.00098c0 -18 9 -31.333 27 -40s45.667 -13 83 -13c128.667 0 227.334 5.66699 296.001 17s119 30 151 56l39 35c49.333 45.333 88.666 68 117.999 68c21.333 0 37 -4.5 47 -13.5s15 -23.167 15 -42.5c0 -26 -9.66699 -68.167 -29 -126.5
s-35.666 -95.833 -48.999 -112.5c-8.66699 -11.333 -25.5 -19.666 -50.5 -24.999s-57.833 -8 -98.5 -8h-986c-18.667 0 -33.167 4.66699 -43.5 14s-15.5 22.333 -15.5 39c0 28.667 20 53.667 60 75c12 6 21.333 11 28 15c22 14 39 32.5 51 55.5s22.333 61.167 31 114.5
l150 945c0.666992 2.66699 1.16699 5.66699 1.5 9s0.5 7.66602 0.5 12.999c0 26.667 -13.667 49.334 -41 68.001s-41 38.334 -41 59.001c0 22 7.5 39.5 22.5 52.5s35.5 19.5 61.5 19.5h972c26.667 0 45.667 -8 57 -24s17 -44.333 17 -85
c0 -92.667 -6.83301 -153.667 -20.5 -183s-38.834 -44 -75.501 -44c-22.667 0 -43.834 18.5 -63.501 55.5s-34.167 60.167 -43.5 69.5c-21.333 21.333 -50.166 36.166 -86.499 44.499s-100.833 12.5 -193.5 12.5h-60h-22c-62 0 -100.333 -3.66699 -115 -11
s-24 -23.333 -28 -48l-68 -412h266c78 0 139 15.333 183 46s68.333 46 73 46c16 0 29.167 -6.5 39.5 -19.5s15.5 -28.833 15.5 -47.5c0 -76.667 -10.833 -141 -32.5 -193s-49.5 -78 -83.5 -78c-23.333 0 -42.666 11 -57.999 33c-5.33301 7.33301 -9 12 -11 14
c-12 10.667 -27.5 18.167 -46.5 22.5s-48.167 6.5 -87.5 6.5h-283zM765.999 1642l-121 -0.000976562l307 320c24 24 47 42 69 54s44.333 18 67 18c26 0 49.167 -10.833 69.5 -32.5s30.5 -46.5 30.5 -74.5c0 -21.333 -7 -41.166 -21 -59.499s-34.333 -34.5 -61 -48.5z" />
    <glyph glyph-name="Ecircumflex" unicode="&#xca;" horiz-adv-x="1366" 
d="M455 213l-0.000976562 -8.00098c0 -18 9 -31.333 27 -40s45.667 -13 83 -13c128.667 0 227.334 5.66699 296.001 17s119 30 151 56l39 35c49.333 45.333 88.666 68 117.999 68c21.333 0 37 -4.5 47 -13.5s15 -23.167 15 -42.5c0 -26 -9.66699 -68.167 -29 -126.5
s-35.666 -95.833 -48.999 -112.5c-8.66699 -11.333 -25.5 -19.666 -50.5 -24.999s-57.833 -8 -98.5 -8h-986c-18.667 0 -33.167 4.66699 -43.5 14s-15.5 22.333 -15.5 39c0 28.667 20 53.667 60 75c12 6 21.333 11 28 15c22 14 39 32.5 51 55.5s22.333 61.167 31 114.5
l150 945c0.666992 2.66699 1.16699 5.66699 1.5 9s0.5 7.66602 0.5 12.999c0 26.667 -13.667 49.334 -41 68.001s-41 38.334 -41 59.001c0 22 7.5 39.5 22.5 52.5s35.5 19.5 61.5 19.5h972c26.667 0 45.667 -8 57 -24s17 -44.333 17 -85
c0 -92.667 -6.83301 -153.667 -20.5 -183s-38.834 -44 -75.501 -44c-22.667 0 -43.834 18.5 -63.501 55.5s-34.167 60.167 -43.5 69.5c-21.333 21.333 -50.166 36.166 -86.499 44.499s-100.833 12.5 -193.5 12.5h-60h-22c-62 0 -100.333 -3.66699 -115 -11
s-24 -23.333 -28 -48l-68 -412h266c78 0 139 15.333 183 46s68.333 46 73 46c16 0 29.167 -6.5 39.5 -19.5s15.5 -28.833 15.5 -47.5c0 -76.667 -10.833 -141 -32.5 -193s-49.5 -78 -83.5 -78c-23.333 0 -42.666 11 -57.999 33c-5.33301 7.33301 -9 12 -11 14
c-12 10.667 -27.5 18.167 -46.5 22.5s-48.167 6.5 -87.5 6.5h-283zM1143 1640h-94l-174 172l-258 -172h-115l311 373h172z" />
    <glyph glyph-name="Edieresis" unicode="&#xcb;" horiz-adv-x="1366" 
d="M455 213l-0.000976562 -8.00098c0 -18 9 -31.333 27 -40s45.667 -13 83 -13c128.667 0 227.334 5.66699 296.001 17s119 30 151 56l39 35c49.333 45.333 88.666 68 117.999 68c21.333 0 37 -4.5 47 -13.5s15 -23.167 15 -42.5c0 -26 -9.66699 -68.167 -29 -126.5
s-35.666 -95.833 -48.999 -112.5c-8.66699 -11.333 -25.5 -19.666 -50.5 -24.999s-57.833 -8 -98.5 -8h-986c-18.667 0 -33.167 4.66699 -43.5 14s-15.5 22.333 -15.5 39c0 28.667 20 53.667 60 75c12 6 21.333 11 28 15c22 14 39 32.5 51 55.5s22.333 61.167 31 114.5
l150 945c0.666992 2.66699 1.16699 5.66699 1.5 9s0.5 7.66602 0.5 12.999c0 26.667 -13.667 49.334 -41 68.001s-41 38.334 -41 59.001c0 22 7.5 39.5 22.5 52.5s35.5 19.5 61.5 19.5h972c26.667 0 45.667 -8 57 -24s17 -44.333 17 -85
c0 -92.667 -6.83301 -153.667 -20.5 -183s-38.834 -44 -75.501 -44c-22.667 0 -43.834 18.5 -63.501 55.5s-34.167 60.167 -43.5 69.5c-21.333 21.333 -50.166 36.166 -86.499 44.499s-100.833 12.5 -193.5 12.5h-60h-22c-62 0 -100.333 -3.66699 -115 -11
s-24 -23.333 -28 -48l-68 -412h266c78 0 139 15.333 183 46s68.333 46 73 46c16 0 29.167 -6.5 39.5 -19.5s15.5 -28.833 15.5 -47.5c0 -76.667 -10.833 -141 -32.5 -193s-49.5 -78 -83.5 -78c-23.333 0 -42.666 11 -57.999 33c-5.33301 7.33301 -9 12 -11 14
c-12 10.667 -27.5 18.167 -46.5 22.5s-48.167 6.5 -87.5 6.5h-283zM927.999 1827c0 36.667 14.5 69.334 43.5 98.001s62.167 43 99.5 43c39.333 0 72.833 -13.833 100.5 -41.5s41.5 -60.834 41.5 -99.501c0 -42 -13.333 -76.167 -40 -102.5s-60.667 -39.5 -102 -39.5
c-40 0 -73.833 13.667 -101.5 41s-41.5 61 -41.5 101zM540.999 1827c0 37.333 14.166 70.168 42.499 98.501s61.166 42.5 98.499 42.5c38.667 0 71.834 -13.833 99.501 -41.5s41.5 -60.834 41.5 -99.501c0 -42 -13.167 -76.167 -39.5 -102.5s-60.166 -39.5 -101.499 -39.5
c-40 0 -73.5 13.667 -100.5 41s-40.5 61 -40.5 101z" />
    <glyph glyph-name="Igrave" unicode="&#xcc;" horiz-adv-x="772" 
d="M49 0c-18.667 0 -32.8311 4.50391 -42.498 13.5039s-14.5 22.167 -14.5 39.5s4.16699 31.5 12.5 42.5s25.166 22.833 50.499 35.5c39.333 20 63.666 59 72.999 117l3 20l164 985c1.33301 7.33301 2.33301 13.833 3 19.5s1 11.5 1 17.5c0 17.333 -13 34.666 -39 51.999
s-39 37.666 -39 60.999c0 24 7.16699 42.667 21.5 56s34.5 20 60.5 20h404c22.667 0 40.834 -5.16699 54.501 -15.5s20.5 -23.833 20.5 -40.5c0 -16 -4.33301 -29.667 -13 -41s-26 -25 -52 -41c-36.667 -21.333 -59.334 -61.333 -68.001 -120
c-2 -10 -3.33301 -17.667 -4 -23l-164 -973c-1.33301 -6.66699 -2.33301 -12.834 -3 -18.501s-1 -11.834 -1 -18.501c0 -17.333 13 -34.5 39 -51.5s39 -37.167 39 -60.5c0 -24.667 -7 -43.5 -21 -56.5s-34.333 -19.5 -61 -19.5h-424zM504.003 1960l248 -318h-121l-275 179
c-26.667 18 -46.167 35.5 -58.5 52.5s-18.5 34.833 -18.5 53.5c0 31.333 9.5 57 28.5 77s43.5 30 73.5 30c22.667 0 44.167 -6.16699 64.5 -18.5s39.833 -30.833 58.5 -55.5z" />
    <glyph glyph-name="Iacute" unicode="&#xcd;" horiz-adv-x="772" 
d="M49 0c-18.667 0 -32.8311 4.50391 -42.498 13.5039s-14.5 22.167 -14.5 39.5s4.16699 31.5 12.5 42.5s25.166 22.833 50.499 35.5c39.333 20 63.666 59 72.999 117l3 20l164 985c1.33301 7.33301 2.33301 13.833 3 19.5s1 11.5 1 17.5c0 17.333 -13 34.666 -39 51.999
s-39 37.666 -39 60.999c0 24 7.16699 42.667 21.5 56s34.5 20 60.5 20h404c22.667 0 40.834 -5.16699 54.501 -15.5s20.5 -23.833 20.5 -40.5c0 -16 -4.33301 -29.667 -13 -41s-26 -25 -52 -41c-36.667 -21.333 -59.334 -61.333 -68.001 -120
c-2 -10 -3.33301 -17.667 -4 -23l-164 -973c-1.33301 -6.66699 -2.33301 -12.834 -3 -18.501s-1 -11.834 -1 -18.501c0 -17.333 13 -34.5 39 -51.5s39 -37.167 39 -60.5c0 -24.667 -7 -43.5 -21 -56.5s-34.333 -19.5 -61 -19.5h-424zM469.003 1642l-121 -0.000976562
l307 320c24 24 47 42 69 54s44.333 18 67 18c26 0 49.167 -10.833 69.5 -32.5s30.5 -46.5 30.5 -74.5c0 -21.333 -7 -41.166 -21 -59.499s-34.333 -34.5 -61 -48.5z" />
    <glyph glyph-name="Icircumflex" unicode="&#xce;" horiz-adv-x="772" 
d="M49 0c-18.667 0 -32.8311 4.50391 -42.498 13.5039s-14.5 22.167 -14.5 39.5s4.16699 31.5 12.5 42.5s25.166 22.833 50.499 35.5c39.333 20 63.666 59 72.999 117l3 20l164 985c1.33301 7.33301 2.33301 13.833 3 19.5s1 11.5 1 17.5c0 17.333 -13 34.666 -39 51.999
s-39 37.666 -39 60.999c0 24 7.16699 42.667 21.5 56s34.5 20 60.5 20h404c22.667 0 40.834 -5.16699 54.501 -15.5s20.5 -23.833 20.5 -40.5c0 -16 -4.33301 -29.667 -13 -41s-26 -25 -52 -41c-36.667 -21.333 -59.334 -61.333 -68.001 -120
c-2 -10 -3.33301 -17.667 -4 -23l-164 -973c-1.33301 -6.66699 -2.33301 -12.834 -3 -18.501s-1 -11.834 -1 -18.501c0 -17.333 13 -34.5 39 -51.5s39 -37.167 39 -60.5c0 -24.667 -7 -43.5 -21 -56.5s-34.333 -19.5 -61 -19.5h-424zM846.003 1640h-94l-174 172l-258 -172
h-115l311 373h172z" />
    <glyph glyph-name="Idieresis" unicode="&#xcf;" horiz-adv-x="772" 
d="M49 0c-18.667 0 -32.8311 4.50391 -42.498 13.5039s-14.5 22.167 -14.5 39.5s4.16699 31.5 12.5 42.5s25.166 22.833 50.499 35.5c39.333 20 63.666 59 72.999 117l3 20l164 985c1.33301 7.33301 2.33301 13.833 3 19.5s1 11.5 1 17.5c0 17.333 -13 34.666 -39 51.999
s-39 37.666 -39 60.999c0 24 7.16699 42.667 21.5 56s34.5 20 60.5 20h404c22.667 0 40.834 -5.16699 54.501 -15.5s20.5 -23.833 20.5 -40.5c0 -16 -4.33301 -29.667 -13 -41s-26 -25 -52 -41c-36.667 -21.333 -59.334 -61.333 -68.001 -120
c-2 -10 -3.33301 -17.667 -4 -23l-164 -973c-1.33301 -6.66699 -2.33301 -12.834 -3 -18.501s-1 -11.834 -1 -18.501c0 -17.333 13 -34.5 39 -51.5s39 -37.167 39 -60.5c0 -24.667 -7 -43.5 -21 -56.5s-34.333 -19.5 -61 -19.5h-424zM631.003 1827
c0 36.667 14.5 69.334 43.5 98.001s62.167 43 99.5 43c39.333 0 72.833 -13.833 100.5 -41.5s41.5 -60.834 41.5 -99.501c0 -42 -13.333 -76.167 -40 -102.5s-60.667 -39.5 -102 -39.5c-40 0 -73.833 13.667 -101.5 41s-41.5 61 -41.5 101zM244.003 1827
c0 37.333 14.166 70.168 42.499 98.501s61.166 42.5 98.499 42.5c38.667 0 71.834 -13.833 99.501 -41.5s41.5 -60.834 41.5 -99.501c0 -42 -13.167 -76.167 -39.5 -102.5s-60.166 -39.5 -101.499 -39.5c-40 0 -73.5 13.667 -100.5 41s-40.5 61 -40.5 101z" />
    <glyph glyph-name="Eth" unicode="&#xd0;" horiz-adv-x="1706" 
d="M496 264l-1 -2.99805c-0.666992 -11.333 -1 -23.333 -1 -36c0 -28.667 8.5 -49.167 25.5 -61.5s45.833 -18.5 86.5 -18.5c180 0 330.833 74.333 452.5 223s182.5 334 182.5 556c0 131.333 -34.833 234 -104.5 308s-165.834 111 -288.501 111
c-69.333 0 -118.166 -8.33301 -146.499 -25s-46.5 -50.334 -54.5 -101.001l-57 -357h268c15.333 0 27 -4.83301 35 -14.5s12 -23.834 12 -42.501c0 -26.667 -6.16699 -46.667 -18.5 -60s-30.833 -20 -55.5 -20h-264zM90 0.00195312
c-40.667 0 -66.8311 4.16992 -78.498 12.5029s-17.5 23.166 -17.5 44.499c0 18 4.16699 33 12.5 45s25.166 25 50.499 39c39.333 21.333 64.333 67 75 137l3 18l68 427h-162c-14.667 0 -26.167 4.83301 -34.5 14.5s-12.5 22.5 -12.5 38.5
c0 29.333 5.83301 50.666 17.5 63.999s30.5 20 56.5 20h157l58 369c1.33301 6.66699 2.33301 13.167 3 19.5s1 12.833 1 19.5c0 25.333 -15.333 47.166 -46 65.499s-46 38.833 -46 61.5c0 38.667 36.667 65 110 79s238.666 21 495.999 21
c270.667 0 475.5 -50.667 614.5 -152s208.5 -250.666 208.5 -447.999c0 -133.333 -25 -257.833 -75 -373.5s-122 -215.834 -216 -300.501c-82.667 -74 -179 -129.333 -289 -166s-236 -55 -378 -55h-576z" />
    <glyph glyph-name="Ntilde" unicode="&#xd1;" horiz-adv-x="1597" 
d="M336 248c-0.666992 -4.66699 -1.66602 -10.998 -2.99902 -18.998c-2 -13.333 -3 -20.666 -3 -21.999c0 -19.333 20.167 -37.333 60.5 -54s60.5 -40.334 60.5 -71.001c0 -26.667 -11 -47 -33 -61s-53.333 -21 -94 -21h-297c-26.667 0 -46.667 5 -60 15s-20 24.667 -20 44
c0 20 6 37.167 18 51.5s31.333 26.5 58 36.5c0.666992 0.666992 2 1.33398 4 2.00098c49.333 19.333 80 62.666 92 129.999l178 974l4 25.5c1.33301 8.33301 2 12.833 2 13.5c0 16 -18.333 32.167 -55 48.5s-55 36.5 -55 60.5s10.167 43 30.5 57s48.833 21 85.5 21h275
c30 0 54.667 -6.33301 74 -19s45.666 -41.334 78.999 -86.001c54.667 -70.667 120.667 -175.834 198 -315.501s154 -293.167 230 -460.5l105 655c1.33301 8 2.33301 15.5 3 22.5s1 12.5 1 16.5c0 15.333 -14.667 31.666 -44 48.999s-44 38 -44 62s8 42.667 24 56
s38.667 20 68 20h309c21.333 0 37.666 -5.16699 48.999 -15.5s17 -25.166 17 -44.499c0 -17.333 -4.5 -31.833 -13.5 -43.5s-28.5 -25.167 -58.5 -40.5c-44.667 -21.333 -71.667 -61.333 -81 -120c-2 -11.333 -3.66699 -20.333 -5 -27l-205 -1121
c-4.66699 -26 -17.5 -45.333 -38.5 -58s-50.5 -19 -88.5 -19c-37.333 0 -64.666 3.33301 -81.999 10s-31 19 -41 37l-565 1077zM1314 1980c-22.667 -92.667 -50.667 -159.169 -84 -199.502s-77 -60.5 -131 -60.5c-11.333 0 -22.166 0.666992 -32.499 2
s-21.166 3.33301 -32.499 6l-109 25c-2 0.666992 -4 1 -6 1c-38.667 8.66699 -62.667 13 -72 13c-28 0 -51.667 -7.66699 -71 -23s-35 -39.666 -47 -72.999h-76c23.333 93.333 51.833 161 85.5 203s75.5 63 125.5 63c11.333 0 24.666 -1 39.999 -3s32 -5 50 -9l123 -29
c8.66699 -2 16.834 -3.5 24.501 -4.5s15.167 -1.5 22.5 -1.5c29.333 0 53.666 7.33301 72.999 22s34.666 37.334 45.999 68.001h71z" />
    <glyph glyph-name="Ograve" unicode="&#xd2;" horiz-adv-x="1749" 
d="M975 1343c-144 0 -265.667 -76.833 -365 -230.5s-149 -347.834 -149 -582.501c0 -132 25 -232.833 75 -302.5s122.667 -104.5 218 -104.5c150 0 276.167 74.333 378.5 223s153.5 333 153.5 553c0 144.667 -26.5 254.834 -79.5 330.501s-130.167 113.5 -231.5 113.5z
M770 -43c-205.333 0 -372.668 63 -502.001 189s-194 289 -194 489c0 106.667 21.833 211.5 65.5 314.5s106.5 196.833 188.5 281.5c90.667 94 190.334 164.167 299.001 210.5s226.667 69.5 354 69.5c208.667 0 376.5 -60.333 503.5 -181s190.5 -279.334 190.5 -476.001
c0 -117.333 -21.667 -230.666 -65 -339.999s-104.333 -204.333 -183 -285c-82 -84 -181.5 -150.333 -298.5 -199s-236.5 -73 -358.5 -73zM1004 1960l248 -318h-121l-275 179c-26.667 18 -46.167 35.5 -58.5 52.5s-18.5 34.833 -18.5 53.5c0 31.333 9.5 57 28.5 77
s43.5 30 73.5 30c22.667 0 44.167 -6.16699 64.5 -18.5s39.833 -30.833 58.5 -55.5z" />
    <glyph glyph-name="Oacute" unicode="&#xd3;" horiz-adv-x="1749" 
d="M975 1343c-144 0 -265.667 -76.833 -365 -230.5s-149 -347.834 -149 -582.501c0 -132 25 -232.833 75 -302.5s122.667 -104.5 218 -104.5c150 0 276.167 74.333 378.5 223s153.5 333 153.5 553c0 144.667 -26.5 254.834 -79.5 330.501s-130.167 113.5 -231.5 113.5z
M770 -43c-205.333 0 -372.668 63 -502.001 189s-194 289 -194 489c0 106.667 21.833 211.5 65.5 314.5s106.5 196.833 188.5 281.5c90.667 94 190.334 164.167 299.001 210.5s226.667 69.5 354 69.5c208.667 0 376.5 -60.333 503.5 -181s190.5 -279.334 190.5 -476.001
c0 -117.333 -21.667 -230.666 -65 -339.999s-104.333 -204.333 -183 -285c-82 -84 -181.5 -150.333 -298.5 -199s-236.5 -73 -358.5 -73zM968.998 1642l-121 -0.000976562l307 320c24 24 47 42 69 54s44.333 18 67 18c26 0 49.167 -10.833 69.5 -32.5s30.5 -46.5 30.5 -74.5
c0 -21.333 -7 -41.166 -21 -59.499s-34.333 -34.5 -61 -48.5z" />
    <glyph glyph-name="Ocircumflex" unicode="&#xd4;" horiz-adv-x="1749" 
d="M975 1343c-144 0 -265.667 -76.833 -365 -230.5s-149 -347.834 -149 -582.501c0 -132 25 -232.833 75 -302.5s122.667 -104.5 218 -104.5c150 0 276.167 74.333 378.5 223s153.5 333 153.5 553c0 144.667 -26.5 254.834 -79.5 330.501s-130.167 113.5 -231.5 113.5z
M770 -43c-205.333 0 -372.668 63 -502.001 189s-194 289 -194 489c0 106.667 21.833 211.5 65.5 314.5s106.5 196.833 188.5 281.5c90.667 94 190.334 164.167 299.001 210.5s226.667 69.5 354 69.5c208.667 0 376.5 -60.333 503.5 -181s190.5 -279.334 190.5 -476.001
c0 -117.333 -21.667 -230.666 -65 -339.999s-104.333 -204.333 -183 -285c-82 -84 -181.5 -150.333 -298.5 -199s-236.5 -73 -358.5 -73zM1346 1640h-94l-174 172l-258 -172h-115l311 373h172z" />
    <glyph glyph-name="Otilde" unicode="&#xd5;" horiz-adv-x="1749" 
d="M975 1343c-144 0 -265.667 -76.833 -365 -230.5s-149 -347.834 -149 -582.501c0 -132 25 -232.833 75 -302.5s122.667 -104.5 218 -104.5c150 0 276.167 74.333 378.5 223s153.5 333 153.5 553c0 144.667 -26.5 254.834 -79.5 330.501s-130.167 113.5 -231.5 113.5z
M770 -43c-205.333 0 -372.668 63 -502.001 189s-194 289 -194 489c0 106.667 21.833 211.5 65.5 314.5s106.5 196.833 188.5 281.5c90.667 94 190.334 164.167 299.001 210.5s226.667 69.5 354 69.5c208.667 0 376.5 -60.333 503.5 -181s190.5 -279.334 190.5 -476.001
c0 -117.333 -21.667 -230.666 -65 -339.999s-104.333 -204.333 -183 -285c-82 -84 -181.5 -150.333 -298.5 -199s-236.5 -73 -358.5 -73zM1409 1980c-22.667 -92.667 -50.667 -159.169 -84 -199.502s-77 -60.5 -131 -60.5c-11.333 0 -22.166 0.666992 -32.499 2
s-21.166 3.33301 -32.499 6l-109 25c-2 0.666992 -4 1 -6 1c-38.667 8.66699 -62.667 13 -72 13c-28 0 -51.667 -7.66699 -71 -23s-35 -39.666 -47 -72.999h-76c23.333 93.333 51.833 161 85.5 203s75.5 63 125.5 63c11.333 0 24.666 -1 39.999 -3s32 -5 50 -9l123 -29
c8.66699 -2 16.834 -3.5 24.501 -4.5s15.167 -1.5 22.5 -1.5c29.333 0 53.666 7.33301 72.999 22s34.666 37.334 45.999 68.001h71z" />
    <glyph glyph-name="Odieresis" unicode="&#xd6;" horiz-adv-x="1749" 
d="M975 1343c-144 0 -265.667 -76.833 -365 -230.5s-149 -347.834 -149 -582.501c0 -132 25 -232.833 75 -302.5s122.667 -104.5 218 -104.5c150 0 276.167 74.333 378.5 223s153.5 333 153.5 553c0 144.667 -26.5 254.834 -79.5 330.501s-130.167 113.5 -231.5 113.5z
M770 -43c-205.333 0 -372.668 63 -502.001 189s-194 289 -194 489c0 106.667 21.833 211.5 65.5 314.5s106.5 196.833 188.5 281.5c90.667 94 190.334 164.167 299.001 210.5s226.667 69.5 354 69.5c208.667 0 376.5 -60.333 503.5 -181s190.5 -279.334 190.5 -476.001
c0 -117.333 -21.667 -230.666 -65 -339.999s-104.333 -204.333 -183 -285c-82 -84 -181.5 -150.333 -298.5 -199s-236.5 -73 -358.5 -73zM1131 1827c0 36.667 14.5 69.334 43.5 98.001s62.167 43 99.5 43c39.333 0 72.833 -13.833 100.5 -41.5s41.5 -60.834 41.5 -99.501
c0 -42 -13.333 -76.167 -40 -102.5s-60.667 -39.5 -102 -39.5c-40 0 -73.833 13.667 -101.5 41s-41.5 61 -41.5 101zM743.998 1827c0 37.333 14.166 70.168 42.499 98.501s61.166 42.5 98.499 42.5c38.667 0 71.834 -13.833 99.501 -41.5s41.5 -60.834 41.5 -99.501
c0 -42 -13.167 -76.167 -39.5 -102.5s-60.166 -39.5 -101.499 -39.5c-40 0 -73.5 13.667 -100.5 41s-40.5 61 -40.5 101z" />
    <glyph glyph-name="multiply" unicode="&#xd7;" horiz-adv-x="1706" 
d="M416 1202l450 -450l451 450l141 -139l-450 -453l450 -450l-141 -140l-451 451l-450 -451l-140 140l451 450l-451 453z" />
    <glyph glyph-name="Oslash" unicode="&#xd8;" horiz-adv-x="1749" 
d="M424 37c-114 58 -200.829 137.668 -260.496 239.001s-89.5 219 -89.5 353c0 126 28.167 246.667 84.5 362s137.166 217.666 242.499 306.999c84 72 175.167 125.833 273.5 161.5s203.833 53.5 316.5 53.5c37.333 0 74.166 -2.5 110.499 -7.5s73.166 -12.5 110.499 -22.5
l86 155c13.333 24 24.166 39 32.499 45s19.5 9 33.5 9c18.667 0 34.334 -4.83301 47.001 -14.5s19 -21.5 19 -35.5s-2 -27.5 -6 -40.5s-11 -28.167 -21 -45.5l-66 -122c110 -57.333 193.833 -135.833 251.5 -235.5s86.5 -215.167 86.5 -346.5
c0 -117.333 -21.667 -231 -65 -341s-104.333 -205.333 -183 -286c-81.333 -83.333 -181.833 -149.166 -301.5 -197.499s-242.834 -72.5 -369.501 -72.5c-31.333 0 -63.833 2.66699 -97.5 8s-70.834 13.666 -111.501 24.999l-123 -221c-12 -23.333 -22.667 -38.833 -32 -46.5
s-20.666 -11.5 -33.999 -11.5c-20 0 -36.167 5.66699 -48.5 17s-18.5 26.333 -18.5 45c0 8 2.16699 17.667 6.5 29s12.5 27.333 24.5 48zM528.004 233.001l592 1074c-21.333 12 -44.333 21 -69 27s-50 9 -76 9c-144.667 0 -266.5 -76.833 -365.5 -230.5
s-148.5 -347.834 -148.5 -582.501c0 -64 5.5 -119.667 16.5 -167s27.833 -90.666 50.5 -129.999zM1217 1214l-584.001 -1067c21.333 -8 42.833 -14 64.5 -18s43.167 -6 64.5 -6c145.333 0 269 74.667 371 224s153 332.666 153 549.999c0 73.333 -5.66699 135.5 -17 186.5
s-28.666 94.5 -51.999 130.5z" />
    <glyph glyph-name="Ugrave" unicode="&#xd9;" horiz-adv-x="1602" 
d="M1468 647c-9.33301 -105.333 -25.665 -191.499 -48.998 -258.499s-56.666 -126.833 -99.999 -179.5c-64.667 -80 -151.167 -142 -259.5 -186s-229.5 -66 -363.5 -66c-185.333 0 -329.5 39.667 -432.5 119s-154.5 190 -154.5 332c0 33.333 2.83301 72.333 8.5 117
s13.5 89.334 23.5 134.001l140 595l4.5 23c1 5.33301 1.5 9 1.5 11c0 18 -15 35.667 -45 53s-45 38 -45 62c0 23.333 8.33301 41.833 25 55.5s39.667 20.5 69 20.5h434c22.667 0 39.667 -5.16699 51 -15.5s17 -25.833 17 -46.5s-5.33301 -37.5 -16 -50.5
s-30.667 -26.167 -60 -39.5c-27.333 -12.667 -46.833 -28.667 -58.5 -48s-22.834 -52.333 -33.501 -99l-107 -432c-13.333 -57.333 -23.833 -113.333 -31.5 -168s-11.5 -101.334 -11.5 -140.001c0 -100 23.5 -174.5 70.5 -223.5s118.5 -73.5 214.5 -73.5
c107.333 0 195.666 23.5 264.999 70.5s119.666 117.167 150.999 210.5c13.333 41.333 25.666 91.333 36.999 150s23.333 137.667 36 237c14.667 109.333 24.5 192 29.5 248s7.5 105 7.5 147c0 47.333 -2.16699 78.166 -6.5 92.499s-12.166 25.833 -23.499 34.5
c-4.66699 3.33301 -12.667 7.66602 -24 12.999c-33.333 16.667 -50 36.334 -50 59.001c0 24 9.16699 42.333 27.5 55s44.5 19 78.5 19h303c22.667 0 40 -4.83301 52 -14.5s18 -23.5 18 -41.5c0 -26 -21.5 -50.167 -64.5 -72.5s-66.5 -55.5 -70.5 -99.5zM938.001 1960
l248 -318h-121l-275 179c-26.667 18 -46.167 35.5 -58.5 52.5s-18.5 34.833 -18.5 53.5c0 31.333 9.5 57 28.5 77s43.5 30 73.5 30c22.667 0 44.167 -6.16699 64.5 -18.5s39.833 -30.833 58.5 -55.5z" />
    <glyph glyph-name="Uacute" unicode="&#xda;" horiz-adv-x="1602" 
d="M1468 647c-9.33301 -105.333 -25.665 -191.499 -48.998 -258.499s-56.666 -126.833 -99.999 -179.5c-64.667 -80 -151.167 -142 -259.5 -186s-229.5 -66 -363.5 -66c-185.333 0 -329.5 39.667 -432.5 119s-154.5 190 -154.5 332c0 33.333 2.83301 72.333 8.5 117
s13.5 89.334 23.5 134.001l140 595l4.5 23c1 5.33301 1.5 9 1.5 11c0 18 -15 35.667 -45 53s-45 38 -45 62c0 23.333 8.33301 41.833 25 55.5s39.667 20.5 69 20.5h434c22.667 0 39.667 -5.16699 51 -15.5s17 -25.833 17 -46.5s-5.33301 -37.5 -16 -50.5
s-30.667 -26.167 -60 -39.5c-27.333 -12.667 -46.833 -28.667 -58.5 -48s-22.834 -52.333 -33.501 -99l-107 -432c-13.333 -57.333 -23.833 -113.333 -31.5 -168s-11.5 -101.334 -11.5 -140.001c0 -100 23.5 -174.5 70.5 -223.5s118.5 -73.5 214.5 -73.5
c107.333 0 195.666 23.5 264.999 70.5s119.666 117.167 150.999 210.5c13.333 41.333 25.666 91.333 36.999 150s23.333 137.667 36 237c14.667 109.333 24.5 192 29.5 248s7.5 105 7.5 147c0 47.333 -2.16699 78.166 -6.5 92.499s-12.166 25.833 -23.499 34.5
c-4.66699 3.33301 -12.667 7.66602 -24 12.999c-33.333 16.667 -50 36.334 -50 59.001c0 24 9.16699 42.333 27.5 55s44.5 19 78.5 19h303c22.667 0 40 -4.83301 52 -14.5s18 -23.5 18 -41.5c0 -26 -21.5 -50.167 -64.5 -72.5s-66.5 -55.5 -70.5 -99.5zM903.001 1642
l-121 -0.000976562l307 320c24 24 47 42 69 54s44.333 18 67 18c26 0 49.167 -10.833 69.5 -32.5s30.5 -46.5 30.5 -74.5c0 -21.333 -7 -41.166 -21 -59.499s-34.333 -34.5 -61 -48.5z" />
    <glyph glyph-name="Ucircumflex" unicode="&#xdb;" horiz-adv-x="1602" 
d="M1468 647c-9.33301 -105.333 -25.665 -191.499 -48.998 -258.499s-56.666 -126.833 -99.999 -179.5c-64.667 -80 -151.167 -142 -259.5 -186s-229.5 -66 -363.5 -66c-185.333 0 -329.5 39.667 -432.5 119s-154.5 190 -154.5 332c0 33.333 2.83301 72.333 8.5 117
s13.5 89.334 23.5 134.001l140 595l4.5 23c1 5.33301 1.5 9 1.5 11c0 18 -15 35.667 -45 53s-45 38 -45 62c0 23.333 8.33301 41.833 25 55.5s39.667 20.5 69 20.5h434c22.667 0 39.667 -5.16699 51 -15.5s17 -25.833 17 -46.5s-5.33301 -37.5 -16 -50.5
s-30.667 -26.167 -60 -39.5c-27.333 -12.667 -46.833 -28.667 -58.5 -48s-22.834 -52.333 -33.501 -99l-107 -432c-13.333 -57.333 -23.833 -113.333 -31.5 -168s-11.5 -101.334 -11.5 -140.001c0 -100 23.5 -174.5 70.5 -223.5s118.5 -73.5 214.5 -73.5
c107.333 0 195.666 23.5 264.999 70.5s119.666 117.167 150.999 210.5c13.333 41.333 25.666 91.333 36.999 150s23.333 137.667 36 237c14.667 109.333 24.5 192 29.5 248s7.5 105 7.5 147c0 47.333 -2.16699 78.166 -6.5 92.499s-12.166 25.833 -23.499 34.5
c-4.66699 3.33301 -12.667 7.66602 -24 12.999c-33.333 16.667 -50 36.334 -50 59.001c0 24 9.16699 42.333 27.5 55s44.5 19 78.5 19h303c22.667 0 40 -4.83301 52 -14.5s18 -23.5 18 -41.5c0 -26 -21.5 -50.167 -64.5 -72.5s-66.5 -55.5 -70.5 -99.5zM1280 1640h-94
l-174 172l-258 -172h-115l311 373h172z" />
    <glyph glyph-name="Udieresis" unicode="&#xdc;" horiz-adv-x="1602" 
d="M1468 647c-9.33301 -105.333 -25.665 -191.499 -48.998 -258.499s-56.666 -126.833 -99.999 -179.5c-64.667 -80 -151.167 -142 -259.5 -186s-229.5 -66 -363.5 -66c-185.333 0 -329.5 39.667 -432.5 119s-154.5 190 -154.5 332c0 33.333 2.83301 72.333 8.5 117
s13.5 89.334 23.5 134.001l140 595l4.5 23c1 5.33301 1.5 9 1.5 11c0 18 -15 35.667 -45 53s-45 38 -45 62c0 23.333 8.33301 41.833 25 55.5s39.667 20.5 69 20.5h434c22.667 0 39.667 -5.16699 51 -15.5s17 -25.833 17 -46.5s-5.33301 -37.5 -16 -50.5
s-30.667 -26.167 -60 -39.5c-27.333 -12.667 -46.833 -28.667 -58.5 -48s-22.834 -52.333 -33.501 -99l-107 -432c-13.333 -57.333 -23.833 -113.333 -31.5 -168s-11.5 -101.334 -11.5 -140.001c0 -100 23.5 -174.5 70.5 -223.5s118.5 -73.5 214.5 -73.5
c107.333 0 195.666 23.5 264.999 70.5s119.666 117.167 150.999 210.5c13.333 41.333 25.666 91.333 36.999 150s23.333 137.667 36 237c14.667 109.333 24.5 192 29.5 248s7.5 105 7.5 147c0 47.333 -2.16699 78.166 -6.5 92.499s-12.166 25.833 -23.499 34.5
c-4.66699 3.33301 -12.667 7.66602 -24 12.999c-33.333 16.667 -50 36.334 -50 59.001c0 24 9.16699 42.333 27.5 55s44.5 19 78.5 19h303c22.667 0 40 -4.83301 52 -14.5s18 -23.5 18 -41.5c0 -26 -21.5 -50.167 -64.5 -72.5s-66.5 -55.5 -70.5 -99.5zM1065 1827
c0 36.667 14.5 69.334 43.5 98.001s62.167 43 99.5 43c39.333 0 72.833 -13.833 100.5 -41.5s41.5 -60.834 41.5 -99.501c0 -42 -13.333 -76.167 -40 -102.5s-60.667 -39.5 -102 -39.5c-40 0 -73.833 13.667 -101.5 41s-41.5 61 -41.5 101zM678.001 1827
c0 37.333 14.166 70.168 42.499 98.501s61.166 42.5 98.499 42.5c38.667 0 71.834 -13.833 99.501 -41.5s41.5 -60.834 41.5 -99.501c0 -42 -13.167 -76.167 -39.5 -102.5s-60.166 -39.5 -101.499 -39.5c-40 0 -73.5 13.667 -100.5 41s-40.5 61 -40.5 101z" />
    <glyph glyph-name="Yacute" unicode="&#xdd;" horiz-adv-x="1360" 
d="M782 243c-1.33301 -7.33301 -2.33105 -14.0029 -2.99805 -20.0029s-1 -11.333 -1 -16c0 -22 17.5 -41.667 52.5 -59s52.5 -38.666 52.5 -63.999c0 -26 -9.83301 -46.5 -29.5 -61.5s-46.834 -22.5 -81.501 -22.5h-442c-20.667 0 -36.834 5.33301 -48.501 16
s-17.5 25 -17.5 43c0 18.667 4.66699 34 14 46s29.333 26 60 42c28.667 15.333 47.667 30.5 57 45.5s16.333 39.167 21 72.5l49 339c-66.667 92 -129.167 192 -187.5 300s-115.5 228.667 -171.5 362c-10.667 26.667 -33 50.167 -67 70.5s-51 43.833 -51 70.5
c0 21.333 8.16699 38.666 24.5 51.999s38.166 20 65.499 20h461c21.333 0 37.5 -5.16699 48.5 -15.5s16.5 -25.166 16.5 -44.499c0 -29.333 -16.333 -53.166 -49 -71.499s-49 -34.166 -49 -47.499s12.167 -48.833 36.5 -106.5s54.5 -118.834 90.5 -183.501l115 -207l172 190
c52.667 60 98.834 121.333 138.501 184s59.5 101 59.5 115c0 8 -15.333 21.5 -46 40.5s-46 41.167 -46 66.5c0 24.667 8 44.167 24 58.5s38 21.5 66 21.5h322c21.333 0 37.5 -5.5 48.5 -16.5s16.5 -26.833 16.5 -47.5c0 -29.333 -19 -57.333 -57 -84s-63.333 -49 -76 -67
c-88 -127.333 -173.5 -240.166 -256.5 -338.499s-173.5 -195.833 -271.5 -292.5zM762.002 1642l-121 -0.000976562l307 320c24 24 47 42 69 54s44.333 18 67 18c26 0 49.167 -10.833 69.5 -32.5s30.5 -46.5 30.5 -74.5c0 -21.333 -7 -41.166 -21 -59.499
s-34.333 -34.5 -61 -48.5z" />
    <glyph glyph-name="Thorn" unicode="&#xde;" horiz-adv-x="1470" 
d="M913 1235c154 0 273.836 -31.666 359.503 -94.999s128.5 -151 128.5 -263c0 -167.333 -78.5 -303.166 -235.5 -407.499s-360.5 -156.5 -610.5 -156.5h-23c-0.666992 0 -3 0.333008 -7 1c-13.333 0.666992 -26 1 -38 1l-10 -88
c-1.33301 -14.667 -2.66602 -27 -3.99902 -37c0 -18.667 16.333 -36 49 -52s49 -36 49 -60c0 -24.667 -8.83301 -43.834 -26.5 -57.501s-42.834 -20.5 -75.501 -20.5h-426c-19.333 0 -34 4.5 -44 13.5s-15 22.167 -15 39.5s4.33301 31.5 13 42.5s26 22.833 52 35.5
c25.333 12 43.166 25.833 53.499 41.5s19.166 46.167 26.499 91.5l152 969c2 12.667 3.5 22.5 4.5 29.5s1.5 11.5 1.5 13.5c0 16.667 -15.667 34.167 -47 52.5s-47 40.5 -47 66.5c0 27.333 8.33301 48.166 25 62.499s41 21.5 73 21.5h426c19.333 0 34 -4.5 44 -13.5
s15 -22.5 15 -40.5c0 -26 -22.833 -52 -68.5 -78s-69.834 -63.333 -72.501 -112h278zM512.003 471.001l14.001 -0.000976562c143.333 0 261.5 38 354.5 114s139.5 171.667 139.5 287c0 72.667 -24.333 126.334 -73 161.001s-123.334 52 -224.001 52
c-48.667 0 -80.5 -4.5 -95.5 -13.5s-24.167 -26.167 -27.5 -51.5z" />
    <glyph glyph-name="germandbls" unicode="&#xdf;" horiz-adv-x="1460" 
d="M420 224c-0.666992 -4 -1.16602 -8.16797 -1.49902 -12.501s-0.5 -10.5 -0.5 -18.5c0 -25.333 7.16699 -50 21.5 -74s21.5 -42.667 21.5 -56c0 -24 -7.83301 -40.5 -23.5 -49.5s-48.167 -13.5 -97.5 -13.5h-344c-20 0 -35.667 5.16699 -47 15.5s-17 24.833 -17 43.5
c0 23.333 6.83301 42.333 20.5 57s34.167 26 61.5 34c32.667 8 56.167 24.667 70.5 50s26.5 73.333 36.5 144l78 522c17.333 116 36.833 205.167 58.5 267.5s50.5 115.833 86.5 160.5c56.667 70 128.667 123.667 216 161s184.666 56 291.999 56
c143.333 0 259.666 -32.167 348.999 -96.5s134 -148.833 134 -253.5c0 -90.667 -27.167 -163.167 -81.5 -217.5s-138.5 -93.166 -252.5 -116.499c120 -10 210.833 -43.833 272.5 -101.5s92.5 -137.834 92.5 -240.501c0 -138.667 -52.167 -254.167 -156.5 -346.5
s-236.5 -138.5 -396.5 -138.5c-104.667 0 -185.167 22 -241.5 66s-84.5 107.333 -84.5 190c0 78.667 22.333 146.5 67 203.5s95 85.5 151 85.5c17.333 0 31.5 -5 42.5 -15s16.5 -22.667 16.5 -38c0 -16.667 -17.833 -42.667 -53.5 -78s-53.5 -77 -53.5 -125
c0 -30 12 -54.333 36 -73s55.667 -28 95 -28c72 0 131 30 177 90s69 135.333 69 226c0 87.333 -25.833 151.833 -77.5 193.5s-132.167 62.5 -241.5 62.5h-35c-28 0 -46.667 5.33301 -56 16s-14 28.334 -14 53.001c0 56 40.333 84.667 121 86c26 0.666992 46 1.66699 60 3
c74.667 5.33301 133.167 29 175.5 71s63.5 96 63.5 162c0 58.667 -16.5 105 -49.5 139s-77.833 51 -134.5 51c-93.333 0 -165.166 -38.667 -215.499 -116s-91.833 -222 -124.5 -434z" />
    <glyph glyph-name="agrave" unicode="&#xe0;" horiz-adv-x="1124" 
d="M608 825c-66 0 -124.501 -51.334 -175.501 -154.001s-76.5 -224.667 -76.5 -366c0 -52 10 -92.667 30 -122s47.667 -44 83 -44c66.667 0 124.334 53.833 173.001 161.5s73 234.834 73 381.501c0 45.333 -9.5 80.5 -28.5 105.5s-45.167 37.5 -78.5 37.5zM708.999 222.999
c-50.667 -87.333 -104.497 -151.165 -161.497 -191.498s-122.167 -60.5 -195.5 -60.5c-93.333 0 -166.5 31.667 -219.5 95s-79.5 151.333 -79.5 264c0 173.333 54.5 323.833 163.5 451.5s236.167 191.5 381.5 191.5c56.667 0 106.667 -11.333 150 -34
s78.666 -55.667 105.999 -99c4 31.333 26.333 60.666 67 87.999s77 41 109 41c15.333 0 27.333 -4.83301 36 -14.5s13 -22.834 13 -39.501c0 -2 -0.333008 -4.66699 -1 -8s-1 -6 -1 -8l-110 -583c-2.66699 -10.667 -4.33398 -20.167 -5.00098 -28.5s-1 -17.5 -1 -27.5
c0 -26.667 14.333 -48 43 -64s43 -33.667 43 -53c0 -33.333 -35.333 -70.333 -106 -111s-132.334 -61 -185.001 -61c-24.667 0 -43.167 7.83301 -55.5 23.5s-18.5 38.5 -18.5 68.5c0 15.333 2 35.333 6 60s11 58 21 100zM672.002 1401l248 -318h-121l-275 179
c-26.667 18 -46.167 35.5 -58.5 52.5s-18.5 34.833 -18.5 53.5c0 31.333 9.5 57 28.5 77s43.5 30 73.5 30c22.667 0 44.167 -6.16699 64.5 -18.5s39.833 -30.833 58.5 -55.5z" />
    <glyph glyph-name="aacute" unicode="&#xe1;" horiz-adv-x="1124" 
d="M608 825c-66 0 -124.501 -51.334 -175.501 -154.001s-76.5 -224.667 -76.5 -366c0 -52 10 -92.667 30 -122s47.667 -44 83 -44c66.667 0 124.334 53.833 173.001 161.5s73 234.834 73 381.501c0 45.333 -9.5 80.5 -28.5 105.5s-45.167 37.5 -78.5 37.5zM708.999 222.999
c-50.667 -87.333 -104.497 -151.165 -161.497 -191.498s-122.167 -60.5 -195.5 -60.5c-93.333 0 -166.5 31.667 -219.5 95s-79.5 151.333 -79.5 264c0 173.333 54.5 323.833 163.5 451.5s236.167 191.5 381.5 191.5c56.667 0 106.667 -11.333 150 -34
s78.666 -55.667 105.999 -99c4 31.333 26.333 60.666 67 87.999s77 41 109 41c15.333 0 27.333 -4.83301 36 -14.5s13 -22.834 13 -39.501c0 -2 -0.333008 -4.66699 -1 -8s-1 -6 -1 -8l-110 -583c-2.66699 -10.667 -4.33398 -20.167 -5.00098 -28.5s-1 -17.5 -1 -27.5
c0 -26.667 14.333 -48 43 -64s43 -33.667 43 -53c0 -33.333 -35.333 -70.333 -106 -111s-132.334 -61 -185.001 -61c-24.667 0 -43.167 7.83301 -55.5 23.5s-18.5 38.5 -18.5 68.5c0 15.333 2 35.333 6 60s11 58 21 100zM637.002 1083l-121 -0.000976562l307 320
c24 24 47 42 69 54s44.333 18 67 18c26 0 49.167 -10.833 69.5 -32.5s30.5 -46.5 30.5 -74.5c0 -21.333 -7 -41.166 -21 -59.499s-34.333 -34.5 -61 -48.5z" />
    <glyph glyph-name="acircumflex" unicode="&#xe2;" horiz-adv-x="1124" 
d="M608 825c-66 0 -124.501 -51.334 -175.501 -154.001s-76.5 -224.667 -76.5 -366c0 -52 10 -92.667 30 -122s47.667 -44 83 -44c66.667 0 124.334 53.833 173.001 161.5s73 234.834 73 381.501c0 45.333 -9.5 80.5 -28.5 105.5s-45.167 37.5 -78.5 37.5zM708.999 222.999
c-50.667 -87.333 -104.497 -151.165 -161.497 -191.498s-122.167 -60.5 -195.5 -60.5c-93.333 0 -166.5 31.667 -219.5 95s-79.5 151.333 -79.5 264c0 173.333 54.5 323.833 163.5 451.5s236.167 191.5 381.5 191.5c56.667 0 106.667 -11.333 150 -34
s78.666 -55.667 105.999 -99c4 31.333 26.333 60.666 67 87.999s77 41 109 41c15.333 0 27.333 -4.83301 36 -14.5s13 -22.834 13 -39.501c0 -2 -0.333008 -4.66699 -1 -8s-1 -6 -1 -8l-110 -583c-2.66699 -10.667 -4.33398 -20.167 -5.00098 -28.5s-1 -17.5 -1 -27.5
c0 -26.667 14.333 -48 43 -64s43 -33.667 43 -53c0 -33.333 -35.333 -70.333 -106 -111s-132.334 -61 -185.001 -61c-24.667 0 -43.167 7.83301 -55.5 23.5s-18.5 38.5 -18.5 68.5c0 15.333 2 35.333 6 60s11 58 21 100zM1014 1081h-94l-174 172l-258 -172h-115l311 373h172
z" />
    <glyph glyph-name="atilde" unicode="&#xe3;" horiz-adv-x="1124" 
d="M608 825c-66 0 -124.501 -51.334 -175.501 -154.001s-76.5 -224.667 -76.5 -366c0 -52 10 -92.667 30 -122s47.667 -44 83 -44c66.667 0 124.334 53.833 173.001 161.5s73 234.834 73 381.501c0 45.333 -9.5 80.5 -28.5 105.5s-45.167 37.5 -78.5 37.5zM708.999 222.999
c-50.667 -87.333 -104.497 -151.165 -161.497 -191.498s-122.167 -60.5 -195.5 -60.5c-93.333 0 -166.5 31.667 -219.5 95s-79.5 151.333 -79.5 264c0 173.333 54.5 323.833 163.5 451.5s236.167 191.5 381.5 191.5c56.667 0 106.667 -11.333 150 -34
s78.666 -55.667 105.999 -99c4 31.333 26.333 60.666 67 87.999s77 41 109 41c15.333 0 27.333 -4.83301 36 -14.5s13 -22.834 13 -39.501c0 -2 -0.333008 -4.66699 -1 -8s-1 -6 -1 -8l-110 -583c-2.66699 -10.667 -4.33398 -20.167 -5.00098 -28.5s-1 -17.5 -1 -27.5
c0 -26.667 14.333 -48 43 -64s43 -33.667 43 -53c0 -33.333 -35.333 -70.333 -106 -111s-132.334 -61 -185.001 -61c-24.667 0 -43.167 7.83301 -55.5 23.5s-18.5 38.5 -18.5 68.5c0 15.333 2 35.333 6 60s11 58 21 100zM1077 1421
c-22.667 -92.667 -50.667 -159.169 -84 -199.502s-77 -60.5 -131 -60.5c-11.333 0 -22.166 0.666992 -32.499 2s-21.166 3.33301 -32.499 6l-109 25c-2 0.666992 -4 1 -6 1c-38.667 8.66699 -62.667 13 -72 13c-28 0 -51.667 -7.66699 -71 -23s-35 -39.666 -47 -72.999h-76
c23.333 93.333 51.833 161 85.5 203s75.5 63 125.5 63c11.333 0 24.666 -1 39.999 -3s32 -5 50 -9l123 -29c8.66699 -2 16.834 -3.5 24.501 -4.5s15.167 -1.5 22.5 -1.5c29.333 0 53.666 7.33301 72.999 22s34.666 37.334 45.999 68.001h71z" />
    <glyph glyph-name="adieresis" unicode="&#xe4;" horiz-adv-x="1124" 
d="M608 825c-66 0 -124.501 -51.334 -175.501 -154.001s-76.5 -224.667 -76.5 -366c0 -52 10 -92.667 30 -122s47.667 -44 83 -44c66.667 0 124.334 53.833 173.001 161.5s73 234.834 73 381.501c0 45.333 -9.5 80.5 -28.5 105.5s-45.167 37.5 -78.5 37.5zM708.999 222.999
c-50.667 -87.333 -104.497 -151.165 -161.497 -191.498s-122.167 -60.5 -195.5 -60.5c-93.333 0 -166.5 31.667 -219.5 95s-79.5 151.333 -79.5 264c0 173.333 54.5 323.833 163.5 451.5s236.167 191.5 381.5 191.5c56.667 0 106.667 -11.333 150 -34
s78.666 -55.667 105.999 -99c4 31.333 26.333 60.666 67 87.999s77 41 109 41c15.333 0 27.333 -4.83301 36 -14.5s13 -22.834 13 -39.501c0 -2 -0.333008 -4.66699 -1 -8s-1 -6 -1 -8l-110 -583c-2.66699 -10.667 -4.33398 -20.167 -5.00098 -28.5s-1 -17.5 -1 -27.5
c0 -26.667 14.333 -48 43 -64s43 -33.667 43 -53c0 -33.333 -35.333 -70.333 -106 -111s-132.334 -61 -185.001 -61c-24.667 0 -43.167 7.83301 -55.5 23.5s-18.5 38.5 -18.5 68.5c0 15.333 2 35.333 6 60s11 58 21 100zM799.002 1268c0 36.667 14.5 69.334 43.5 98.001
s62.167 43 99.5 43c39.333 0 72.833 -13.833 100.5 -41.5s41.5 -60.834 41.5 -99.501c0 -42 -13.333 -76.167 -40 -102.5s-60.667 -39.5 -102 -39.5c-40 0 -73.833 13.667 -101.5 41s-41.5 61 -41.5 101zM412.002 1268c0 37.333 14.166 70.168 42.499 98.501
s61.166 42.5 98.499 42.5c38.667 0 71.834 -13.833 99.501 -41.5s41.5 -60.834 41.5 -99.501c0 -42 -13.167 -76.167 -39.5 -102.5s-60.166 -39.5 -101.499 -39.5c-40 0 -73.5 13.667 -100.5 41s-40.5 61 -40.5 101z" />
    <glyph glyph-name="aring" unicode="&#xe5;" horiz-adv-x="1124" 
d="M598 1303c0 -36.667 12.333 -67.333 37 -92s55.334 -37 92.001 -37c36 0 66.5 12.5 91.5 37.5s37.5 55.5 37.5 91.5c0 36.667 -12.5 67.667 -37.5 93s-55.5 38 -91.5 38c-36.667 0 -67.334 -12.667 -92.001 -38s-37 -56.333 -37 -93zM461 1305
c0 73.333 25.833 136 77.5 188s114.5 78 188.5 78s136.833 -26 188.5 -78s77.5 -114.667 77.5 -188c0 -74.667 -25.833 -137.834 -77.5 -189.501s-114.5 -77.5 -188.5 -77.5s-136.833 25.833 -188.5 77.5s-77.5 114.834 -77.5 189.501zM608 825.001
c-66 0 -124.501 -51.334 -175.501 -154.001s-76.5 -224.667 -76.5 -366c0 -52 10 -92.667 30 -122s47.667 -44 83 -44c66.667 0 124.334 53.833 173.001 161.5s73 234.834 73 381.501c0 45.333 -9.5 80.5 -28.5 105.5s-45.167 37.5 -78.5 37.5zM708.999 223
c-50.667 -87.333 -104.497 -151.165 -161.497 -191.498s-122.167 -60.5 -195.5 -60.5c-93.333 0 -166.5 31.667 -219.5 95s-79.5 151.333 -79.5 264c0 173.333 54.5 323.833 163.5 451.5s236.167 191.5 381.5 191.5c56.667 0 106.667 -11.333 150 -34
s78.666 -55.667 105.999 -99c4 31.333 26.333 60.666 67 87.999s77 41 109 41c15.333 0 27.333 -4.83301 36 -14.5s13 -22.834 13 -39.501c0 -2 -0.333008 -4.66699 -1 -8s-1 -6 -1 -8l-110 -583c-2.66699 -10.667 -4.33398 -20.167 -5.00098 -28.5s-1 -17.5 -1 -27.5
c0 -26.667 14.333 -48 43 -64s43 -33.667 43 -53c0 -33.333 -35.333 -70.333 -106 -111s-132.334 -61 -185.001 -61c-24.667 0 -43.167 7.83301 -55.5 23.5s-18.5 38.5 -18.5 68.5c0 15.333 2 35.333 6 60s11 58 21 100z" />
    <glyph glyph-name="ae" unicode="&#xe6;" horiz-adv-x="1763" 
d="M745 557l0.00390625 108.997c0 62.667 -12.167 108.334 -36.5 137.001s-63.166 43 -116.499 43c-54.667 0 -103.334 -27 -146.001 -81l-6 -8c-17.333 -21.333 -36.833 -36.833 -58.5 -46.5s-48.5 -14.5 -80.5 -14.5c-34.667 0 -62.167 9.16699 -82.5 27.5
s-30.5 43.5 -30.5 75.5c0 44.667 43.167 85.5 129.5 122.5s190.166 55.5 311.499 55.5c97.333 0 174.666 -12.5 231.999 -37.5s94 -61.833 110 -110.5c40.667 48 97 84.667 169 110s155 38 249 38c101.333 0 181.833 -21 241.5 -63s89.5 -98.333 89.5 -169
c0 -96.667 -57.5 -174.667 -172.5 -234s-281.167 -96.666 -498.5 -111.999c-0.666992 -2.66699 -1.33398 -6.33398 -2.00098 -11.001c-2 -19.333 -3 -32.666 -3 -39.999c0 -71.333 18.5 -125.333 55.5 -162s91.833 -55 164.5 -55c83.333 0 163.5 25 240.5 75
s118.833 75 125.5 75c14 0 26 -5.83301 36 -17.5s15 -24.5 15 -38.5c0 -54 -54.5 -109.833 -163.5 -167.5s-231.167 -86.5 -366.5 -86.5c-90 0 -163.167 13.5 -219.5 40.5s-100.5 69.5 -132.5 127.5c-68 -57.333 -136 -99.666 -204 -126.999s-139.333 -41 -214 -41
c-105.333 0 -188.333 22.833 -249 68.5s-91 107.5 -91 185.5c0 102 50.167 185.167 150.5 249.5s231.166 96.5 392.499 96.5c23.333 0 48.5 -1.16699 75.5 -3.5s55.5 -5.83301 85.5 -10.5zM729.004 425.997c-26 5.33301 -48 9 -66 11s-35 3 -51 3
c-79.333 0 -143.833 -19.5 -193.5 -58.5s-74.5 -90.5 -74.5 -154.5c0 -41.333 10.167 -72.833 30.5 -94.5s49.833 -32.5 88.5 -32.5c76.667 0 139.667 30.167 189 90.5s75 138.833 77 235.5zM1063 515.997c105.333 10 192.834 38.6699 262.501 86.0029
s104.5 98.666 104.5 153.999c0 29.333 -8.5 51.666 -25.5 66.999s-42.167 23 -75.5 23c-56.667 0 -108.834 -29.333 -156.501 -88s-84.167 -139.334 -109.5 -242.001z" />
    <glyph glyph-name="ccedilla" unicode="&#xe7;" horiz-adv-x="1118" 
d="M541 -29c-148.667 0 -263.998 35.668 -345.998 107.001s-123 171 -123 299c0 166 58.667 306.5 176 421.5s264 172.5 440 172.5c116 0 211.5 -22.667 286.5 -68s112.5 -100 112.5 -164c0 -36.667 -15.333 -67.334 -46 -92.001s-69.667 -37 -117 -37
c-46 0 -82.167 14.833 -108.5 44.5s-39.5 69.5 -39.5 119.5c0 12 -8.33301 24.167 -25 36.5s-36.334 18.5 -59.001 18.5c-66.667 0 -127.667 -46.667 -183 -140s-83 -196.666 -83 -309.999c0 -79.333 18.667 -139.833 56 -181.5s91.666 -62.5 162.999 -62.5
c81.333 0 157 25 227 75s109 75 117 75c15.333 0 27.333 -4.83301 36 -14.5s13 -22.834 13 -39.501c0 -56.667 -51.833 -114.167 -155.5 -172.5s-217.5 -87.5 -341.5 -87.5zM221.002 -376.999l49 101c43.333 -25.333 85.5 -44.333 126.5 -57s80.167 -19 117.5 -19
c23.333 0 42.5 6.83301 57.5 20.5s22.5 32.167 22.5 55.5c0 26 -8 46 -24 60s-39.333 21 -70 21c-16 0 -46 -4.33301 -90 -13l-2 -1l67 209h86l-37 -115c3.33301 0.666992 8.33301 1.33398 15 2.00098c33.333 4.66699 55 7 65 7c52.667 0 95.167 -16 127.5 -48
s48.5 -73.667 48.5 -125c0 -56 -19.833 -101.333 -59.5 -136s-91.5 -52 -155.5 -52c-46.667 0 -94.667 6.16699 -144 18.5s-116 36.166 -200 71.499z" />
    <glyph glyph-name="egrave" unicode="&#xe8;" horiz-adv-x="1124" 
d="M414 397c-2 -12 -3.16895 -22.001 -3.50195 -30.001s-0.5 -15.667 -0.5 -23c0 -66.667 18.833 -118.834 56.5 -156.501s89.834 -56.5 156.501 -56.5c80.667 0 159.834 24.667 237.501 74s120.5 74 128.5 74c14.667 0 27.167 -5.5 37.5 -16.5s15.5 -24.167 15.5 -39.5
c0 -53.333 -55.833 -108.666 -167.5 -165.999s-235.167 -86 -370.5 -86c-136 0 -242.667 36.5 -320 109.5s-116 173.167 -116 300.5c0 164.667 62 304.5 186 419.5s272 172.5 444 172.5c120.667 0 214.667 -20.667 282 -62s101 -98.666 101 -171.999
c0 -93.333 -57 -169.333 -171 -228s-279.333 -96.667 -496 -114zM415.998 527.999c105.333 10.667 192.668 38.668 262.001 84.001s104 94.666 104 147.999c0 28 -8.66699 49.667 -26 65s-42 23 -74 23c-56.667 0 -108.834 -28.5 -156.501 -85.5
s-84.167 -135.167 -109.5 -234.5zM680 1401l248 -318h-121l-275 179c-26.667 18 -46.167 35.5 -58.5 52.5s-18.5 34.833 -18.5 53.5c0 31.333 9.5 57 28.5 77s43.5 30 73.5 30c22.667 0 44.167 -6.16699 64.5 -18.5s39.833 -30.833 58.5 -55.5z" />
    <glyph glyph-name="eacute" unicode="&#xe9;" horiz-adv-x="1124" 
d="M414 397c-2 -12 -3.16895 -22.001 -3.50195 -30.001s-0.5 -15.667 -0.5 -23c0 -66.667 18.833 -118.834 56.5 -156.501s89.834 -56.5 156.501 -56.5c80.667 0 159.834 24.667 237.501 74s120.5 74 128.5 74c14.667 0 27.167 -5.5 37.5 -16.5s15.5 -24.167 15.5 -39.5
c0 -53.333 -55.833 -108.666 -167.5 -165.999s-235.167 -86 -370.5 -86c-136 0 -242.667 36.5 -320 109.5s-116 173.167 -116 300.5c0 164.667 62 304.5 186 419.5s272 172.5 444 172.5c120.667 0 214.667 -20.667 282 -62s101 -98.666 101 -171.999
c0 -93.333 -57 -169.333 -171 -228s-279.333 -96.667 -496 -114zM415.998 527.999c105.333 10.667 192.668 38.668 262.001 84.001s104 94.666 104 147.999c0 28 -8.66699 49.667 -26 65s-42 23 -74 23c-56.667 0 -108.834 -28.5 -156.501 -85.5
s-84.167 -135.167 -109.5 -234.5zM645 1083l-121 -0.000976562l307 320c24 24 47 42 69 54s44.333 18 67 18c26 0 49.167 -10.833 69.5 -32.5s30.5 -46.5 30.5 -74.5c0 -21.333 -7 -41.166 -21 -59.499s-34.333 -34.5 -61 -48.5z" />
    <glyph glyph-name="ecircumflex" unicode="&#xea;" horiz-adv-x="1124" 
d="M414 397c-2 -12 -3.16895 -22.001 -3.50195 -30.001s-0.5 -15.667 -0.5 -23c0 -66.667 18.833 -118.834 56.5 -156.501s89.834 -56.5 156.501 -56.5c80.667 0 159.834 24.667 237.501 74s120.5 74 128.5 74c14.667 0 27.167 -5.5 37.5 -16.5s15.5 -24.167 15.5 -39.5
c0 -53.333 -55.833 -108.666 -167.5 -165.999s-235.167 -86 -370.5 -86c-136 0 -242.667 36.5 -320 109.5s-116 173.167 -116 300.5c0 164.667 62 304.5 186 419.5s272 172.5 444 172.5c120.667 0 214.667 -20.667 282 -62s101 -98.666 101 -171.999
c0 -93.333 -57 -169.333 -171 -228s-279.333 -96.667 -496 -114zM415.998 527.999c105.333 10.667 192.668 38.668 262.001 84.001s104 94.666 104 147.999c0 28 -8.66699 49.667 -26 65s-42 23 -74 23c-56.667 0 -108.834 -28.5 -156.501 -85.5
s-84.167 -135.167 -109.5 -234.5zM1022 1081h-94l-174 172l-258 -172h-115l311 373h172z" />
    <glyph glyph-name="edieresis" unicode="&#xeb;" horiz-adv-x="1124" 
d="M414 397c-2 -12 -3.16895 -22.001 -3.50195 -30.001s-0.5 -15.667 -0.5 -23c0 -66.667 18.833 -118.834 56.5 -156.501s89.834 -56.5 156.501 -56.5c80.667 0 159.834 24.667 237.501 74s120.5 74 128.5 74c14.667 0 27.167 -5.5 37.5 -16.5s15.5 -24.167 15.5 -39.5
c0 -53.333 -55.833 -108.666 -167.5 -165.999s-235.167 -86 -370.5 -86c-136 0 -242.667 36.5 -320 109.5s-116 173.167 -116 300.5c0 164.667 62 304.5 186 419.5s272 172.5 444 172.5c120.667 0 214.667 -20.667 282 -62s101 -98.666 101 -171.999
c0 -93.333 -57 -169.333 -171 -228s-279.333 -96.667 -496 -114zM415.998 527.999c105.333 10.667 192.668 38.668 262.001 84.001s104 94.666 104 147.999c0 28 -8.66699 49.667 -26 65s-42 23 -74 23c-56.667 0 -108.834 -28.5 -156.501 -85.5
s-84.167 -135.167 -109.5 -234.5zM807 1268c0 36.667 14.5 69.334 43.5 98.001s62.167 43 99.5 43c39.333 0 72.833 -13.833 100.5 -41.5s41.5 -60.834 41.5 -99.501c0 -42 -13.333 -76.167 -40 -102.5s-60.667 -39.5 -102 -39.5c-40 0 -73.833 13.667 -101.5 41
s-41.5 61 -41.5 101zM420 1268c0 37.333 14.166 70.168 42.499 98.501s61.166 42.5 98.499 42.5c38.667 0 71.834 -13.833 99.501 -41.5s41.5 -60.834 41.5 -99.501c0 -42 -13.167 -76.167 -39.5 -102.5s-60.166 -39.5 -101.499 -39.5c-40 0 -73.5 13.667 -100.5 41
s-40.5 61 -40.5 101z" />
    <glyph glyph-name="igrave" unicode="&#xec;" horiz-adv-x="639" 
d="M102 198l95.001 470.001c2 8 3.5 15.833 4.5 23.5s1.5 14.834 1.5 21.501c0 24.667 -17.5 42.667 -52.5 54s-52.5 28.666 -52.5 51.999c0 16 4.5 30.167 13.5 42.5s22.5 22.833 40.5 31.5c48 22 105.167 40.833 171.5 56.5s118.166 23.5 155.499 23.5
c30.667 0 54 -5.66699 70 -17s24 -27.666 24 -48.999v-10.5c0 -2.33301 -0.666992 -5.16602 -2 -8.49902l-127 -600c-1.33301 -6 -2.33301 -11.5 -3 -16.5s-1 -10.167 -1 -15.5c0 -19.333 15.833 -37.833 47.5 -55.5s47.5 -36.834 47.5 -57.501
c0 -18.667 -6.33301 -34.334 -19 -47.001s-38.667 -27.667 -78 -45c-66.667 -30 -119 -50.833 -157 -62.5s-71.667 -17.5 -101 -17.5c-31.333 0 -55.166 8.5 -71.499 25.5s-24.5 42.167 -24.5 75.5c0 13.333 1.16699 28.666 3.5 45.999s7.16602 44 14.499 80zM399.001 1401
l248 -318h-121l-275 179c-26.667 18 -46.167 35.5 -58.5 52.5s-18.5 34.833 -18.5 53.5c0 31.333 9.5 57 28.5 77s43.5 30 73.5 30c22.667 0 44.167 -6.16699 64.5 -18.5s39.833 -30.833 58.5 -55.5z" />
    <glyph glyph-name="iacute" unicode="&#xed;" horiz-adv-x="639" 
d="M102 198l95.001 470.001c2 8 3.5 15.833 4.5 23.5s1.5 14.834 1.5 21.501c0 24.667 -17.5 42.667 -52.5 54s-52.5 28.666 -52.5 51.999c0 16 4.5 30.167 13.5 42.5s22.5 22.833 40.5 31.5c48 22 105.167 40.833 171.5 56.5s118.166 23.5 155.499 23.5
c30.667 0 54 -5.66699 70 -17s24 -27.666 24 -48.999v-10.5c0 -2.33301 -0.666992 -5.16602 -2 -8.49902l-127 -600c-1.33301 -6 -2.33301 -11.5 -3 -16.5s-1 -10.167 -1 -15.5c0 -19.333 15.833 -37.833 47.5 -55.5s47.5 -36.834 47.5 -57.501
c0 -18.667 -6.33301 -34.334 -19 -47.001s-38.667 -27.667 -78 -45c-66.667 -30 -119 -50.833 -157 -62.5s-71.667 -17.5 -101 -17.5c-31.333 0 -55.166 8.5 -71.499 25.5s-24.5 42.167 -24.5 75.5c0 13.333 1.16699 28.666 3.5 45.999s7.16602 44 14.499 80zM364.001 1083
l-121 -0.000976562l307 320c24 24 47 42 69 54s44.333 18 67 18c26 0 49.167 -10.833 69.5 -32.5s30.5 -46.5 30.5 -74.5c0 -21.333 -7 -41.166 -21 -59.499s-34.333 -34.5 -61 -48.5z" />
    <glyph glyph-name="icircumflex" unicode="&#xee;" horiz-adv-x="639" 
d="M102 198l95.001 470.001c2 8 3.5 15.833 4.5 23.5s1.5 14.834 1.5 21.501c0 24.667 -17.5 42.667 -52.5 54s-52.5 28.666 -52.5 51.999c0 16 4.5 30.167 13.5 42.5s22.5 22.833 40.5 31.5c48 22 105.167 40.833 171.5 56.5s118.166 23.5 155.499 23.5
c30.667 0 54 -5.66699 70 -17s24 -27.666 24 -48.999v-10.5c0 -2.33301 -0.666992 -5.16602 -2 -8.49902l-127 -600c-1.33301 -6 -2.33301 -11.5 -3 -16.5s-1 -10.167 -1 -15.5c0 -19.333 15.833 -37.833 47.5 -55.5s47.5 -36.834 47.5 -57.501
c0 -18.667 -6.33301 -34.334 -19 -47.001s-38.667 -27.667 -78 -45c-66.667 -30 -119 -50.833 -157 -62.5s-71.667 -17.5 -101 -17.5c-31.333 0 -55.166 8.5 -71.499 25.5s-24.5 42.167 -24.5 75.5c0 13.333 1.16699 28.666 3.5 45.999s7.16602 44 14.499 80zM741.001 1081
h-94l-174 172l-258 -172h-115l311 373h172z" />
    <glyph glyph-name="idieresis" unicode="&#xef;" horiz-adv-x="639" 
d="M102 198l95.001 470.001c2 8 3.5 15.833 4.5 23.5s1.5 14.834 1.5 21.501c0 24.667 -17.5 42.667 -52.5 54s-52.5 28.666 -52.5 51.999c0 16 4.5 30.167 13.5 42.5s22.5 22.833 40.5 31.5c48 22 105.167 40.833 171.5 56.5s118.166 23.5 155.499 23.5
c30.667 0 54 -5.66699 70 -17s24 -27.666 24 -48.999v-10.5c0 -2.33301 -0.666992 -5.16602 -2 -8.49902l-127 -600c-1.33301 -6 -2.33301 -11.5 -3 -16.5s-1 -10.167 -1 -15.5c0 -19.333 15.833 -37.833 47.5 -55.5s47.5 -36.834 47.5 -57.501
c0 -18.667 -6.33301 -34.334 -19 -47.001s-38.667 -27.667 -78 -45c-66.667 -30 -119 -50.833 -157 -62.5s-71.667 -17.5 -101 -17.5c-31.333 0 -55.166 8.5 -71.499 25.5s-24.5 42.167 -24.5 75.5c0 13.333 1.16699 28.666 3.5 45.999s7.16602 44 14.499 80zM526.001 1268
c0 36.667 14.5 69.334 43.5 98.001s62.167 43 99.5 43c39.333 0 72.833 -13.833 100.5 -41.5s41.5 -60.834 41.5 -99.501c0 -42 -13.333 -76.167 -40 -102.5s-60.667 -39.5 -102 -39.5c-40 0 -73.833 13.667 -101.5 41s-41.5 61 -41.5 101zM139.001 1268
c0 37.333 14.166 70.168 42.499 98.501s61.166 42.5 98.499 42.5c38.667 0 71.834 -13.833 99.501 -41.5s41.5 -60.834 41.5 -99.501c0 -42 -13.167 -76.167 -39.5 -102.5s-60.166 -39.5 -101.499 -39.5c-40 0 -73.5 13.667 -100.5 41s-40.5 61 -40.5 101z" />
    <glyph glyph-name="eth" unicode="&#xf0;" horiz-adv-x="1251" 
d="M733 969c-12.667 22.667 -27.833 46.832 -45.5 72.499s-39.834 56.167 -66.501 91.5l-191 -66c-1.33301 -0.666992 -4 -1.66699 -8 -3c-24 -8.66699 -44 -13 -60 -13c-14.667 0 -28.5 6.16699 -41.5 18.5s-19.5 25.833 -19.5 40.5c0 19.333 5.5 34.833 16.5 46.5
s30.833 22.167 59.5 31.5l172 57c-29.333 44.667 -65 91 -107 139s-63 78.333 -63 91c0 10.667 5.66699 19.334 17 26.001s26 10 44 10c42 0 119.667 -53.667 233 -161c20 -19.333 36 -34.333 48 -45l242 84c16 5.33301 29.5 9.33301 40.5 12s20.5 4 28.5 4
c20.667 0 37.834 -5.83301 51.501 -17.5s20.5 -26.5 20.5 -44.5c0 -15.333 -5.16699 -28.166 -15.5 -38.499s-31.833 -21.166 -64.5 -32.499l-213 -74c0.666992 -0.666992 2 -2.33398 4 -5.00098c244.667 -284 367 -504.333 367 -661c0 -158 -60.833 -291 -182.5 -399
s-276.5 -162 -464.5 -162c-148 0 -262.833 35.167 -344.5 105.5s-122.5 169.166 -122.5 296.499c0 175.333 59 318.5 177 429.5s271.333 166.5 460 166.5h28zM852.001 611.998c0 82 -12.835 141.831 -38.502 179.498s-66.167 56.5 -121.5 56.5
c-40 0 -76.667 -12.333 -110 -37s-62.666 -61 -87.999 -109c-27.333 -51.333 -50 -112.666 -68 -183.999s-27 -135.333 -27 -192c0 -76 14 -133 42 -171s70 -57 126 -57c41.333 0 78 11.5 110 34.5s60.333 58.167 85 105.5c26.667 52.667 48.334 113.334 65.001 182.001
s25 132.667 25 192z" />
    <glyph glyph-name="ntilde" unicode="&#xf1;" horiz-adv-x="1237" 
d="M350 0l-261.997 -0.000976562c-10.667 0 -18.167 2.66699 -22.5 8s-6.5 15 -6.5 29v12v6l105 510c5.33301 28 9.66602 53.667 12.999 77s5 39.333 5 48c0 30 -15.667 52.5 -47 67.5s-47 34.167 -47 57.5c0 35.333 37.667 70.5 113 105.5s147 52.5 215 52.5
c26 0 44 -5.5 54 -16.5s15 -32.833 15 -65.5c0 -21.333 -1.33301 -48 -4 -80s-6.66699 -67.333 -12 -106c46.667 86 102 152.167 166 198.5s133 69.5 207 69.5c85.333 0 155.166 -24.667 209.499 -74s81.5 -111.333 81.5 -186c0 -38.667 -4 -77.667 -12 -117l-1 -2l-59 -289
c-2 -10.667 -3.5 -20.5 -4.5 -29.5s-1.5 -16.833 -1.5 -23.5c0 -22.667 14.333 -43.167 43 -61.5s43 -34.833 43 -49.5c0 -14 -5.83301 -27 -17.5 -39s-34.5 -27 -68.5 -45c-52 -26 -102.333 -46.833 -151 -62.5s-84.334 -23.5 -107.001 -23.5
c-31.333 0 -55 9.83301 -71 29.5s-24 48.167 -24 85.5c0 12.667 1 26.667 3 42s6 36 12 62l90 418c2 8 3.83301 20 5.5 36s2.5 32.667 2.5 50c0 32 -7.16699 55.667 -21.5 71s-36.5 23 -66.5 23c-54.667 0 -104 -31 -148 -93s-78 -149.667 -102 -263l-86 -408
c-1.33301 -7.33301 -4.83301 -13.166 -10.5 -17.499s-12.5 -6.5 -20.5 -6.5h-10zM1087 1421c-22.667 -92.667 -50.667 -159.169 -84 -199.502s-77 -60.5 -131 -60.5c-11.333 0 -22.166 0.666992 -32.499 2s-21.166 3.33301 -32.499 6l-109 25c-2 0.666992 -4 1 -6 1
c-38.667 8.66699 -62.667 13 -72 13c-28 0 -51.667 -7.66699 -71 -23s-35 -39.666 -47 -72.999h-76c23.333 93.333 51.833 161 85.5 203s75.5 63 125.5 63c11.333 0 24.666 -1 39.999 -3s32 -5 50 -9l123 -29c8.66699 -2 16.834 -3.5 24.501 -4.5s15.167 -1.5 22.5 -1.5
c29.333 0 53.666 7.33301 72.999 22s34.666 37.334 45.999 68.001h71z" />
    <glyph glyph-name="ograve" unicode="&#xf2;" horiz-adv-x="1251" 
d="M694 848c-40.667 0 -77.833 -12.167 -111.5 -36.5s-63.167 -60.833 -88.5 -109.5c-27.333 -50 -50 -110.5 -68 -181.5s-27 -135.167 -27 -192.5c0 -76 14.333 -133.333 43 -172s71 -58 127 -58c79.333 0 146.333 50.333 201 151s82 221.667 82 363
c0 82.667 -12.667 142.667 -38 180s-65.333 56 -120 56zM68.001 375c0 177.333 60.833 321.333 182.5 432s280.5 166 476.5 166c144 0 255.833 -36.167 335.5 -108.5s119.5 -174.166 119.5 -305.499c0 -172.667 -59.833 -313.834 -179.5 -423.501
s-275.5 -164.5 -467.5 -164.5c-148 0 -262.833 35.333 -344.5 106s-122.5 170 -122.5 298zM707.001 1401l248 -318h-121l-275 179c-26.667 18 -46.167 35.5 -58.5 52.5s-18.5 34.833 -18.5 53.5c0 31.333 9.5 57 28.5 77s43.5 30 73.5 30
c22.667 0 44.167 -6.16699 64.5 -18.5s39.833 -30.833 58.5 -55.5z" />
    <glyph glyph-name="oacute" unicode="&#xf3;" horiz-adv-x="1251" 
d="M694 848c-40.667 0 -77.833 -12.167 -111.5 -36.5s-63.167 -60.833 -88.5 -109.5c-27.333 -50 -50 -110.5 -68 -181.5s-27 -135.167 -27 -192.5c0 -76 14.333 -133.333 43 -172s71 -58 127 -58c79.333 0 146.333 50.333 201 151s82 221.667 82 363
c0 82.667 -12.667 142.667 -38 180s-65.333 56 -120 56zM68.001 375c0 177.333 60.833 321.333 182.5 432s280.5 166 476.5 166c144 0 255.833 -36.167 335.5 -108.5s119.5 -174.166 119.5 -305.499c0 -172.667 -59.833 -313.834 -179.5 -423.501
s-275.5 -164.5 -467.5 -164.5c-148 0 -262.833 35.333 -344.5 106s-122.5 170 -122.5 298zM672.001 1083l-121 -0.000976562l307 320c24 24 47 42 69 54s44.333 18 67 18c26 0 49.167 -10.833 69.5 -32.5s30.5 -46.5 30.5 -74.5c0 -21.333 -7 -41.166 -21 -59.499
s-34.333 -34.5 -61 -48.5z" />
    <glyph glyph-name="ocircumflex" unicode="&#xf4;" horiz-adv-x="1251" 
d="M694 848c-40.667 0 -77.833 -12.167 -111.5 -36.5s-63.167 -60.833 -88.5 -109.5c-27.333 -50 -50 -110.5 -68 -181.5s-27 -135.167 -27 -192.5c0 -76 14.333 -133.333 43 -172s71 -58 127 -58c79.333 0 146.333 50.333 201 151s82 221.667 82 363
c0 82.667 -12.667 142.667 -38 180s-65.333 56 -120 56zM68.001 375c0 177.333 60.833 321.333 182.5 432s280.5 166 476.5 166c144 0 255.833 -36.167 335.5 -108.5s119.5 -174.166 119.5 -305.499c0 -172.667 -59.833 -313.834 -179.5 -423.501
s-275.5 -164.5 -467.5 -164.5c-148 0 -262.833 35.333 -344.5 106s-122.5 170 -122.5 298zM1049 1081h-94l-174 172l-258 -172h-115l311 373h172z" />
    <glyph glyph-name="otilde" unicode="&#xf5;" horiz-adv-x="1251" 
d="M694 848c-40.667 0 -77.833 -12.167 -111.5 -36.5s-63.167 -60.833 -88.5 -109.5c-27.333 -50 -50 -110.5 -68 -181.5s-27 -135.167 -27 -192.5c0 -76 14.333 -133.333 43 -172s71 -58 127 -58c79.333 0 146.333 50.333 201 151s82 221.667 82 363
c0 82.667 -12.667 142.667 -38 180s-65.333 56 -120 56zM68.001 375c0 177.333 60.833 321.333 182.5 432s280.5 166 476.5 166c144 0 255.833 -36.167 335.5 -108.5s119.5 -174.166 119.5 -305.499c0 -172.667 -59.833 -313.834 -179.5 -423.501
s-275.5 -164.5 -467.5 -164.5c-148 0 -262.833 35.333 -344.5 106s-122.5 170 -122.5 298zM1112 1421c-22.667 -92.667 -50.667 -159.169 -84 -199.502s-77 -60.5 -131 -60.5c-11.333 0 -22.166 0.666992 -32.499 2s-21.166 3.33301 -32.499 6l-109 25
c-2 0.666992 -4 1 -6 1c-38.667 8.66699 -62.667 13 -72 13c-28 0 -51.667 -7.66699 -71 -23s-35 -39.666 -47 -72.999h-76c23.333 93.333 51.833 161 85.5 203s75.5 63 125.5 63c11.333 0 24.666 -1 39.999 -3s32 -5 50 -9l123 -29c8.66699 -2 16.834 -3.5 24.501 -4.5
s15.167 -1.5 22.5 -1.5c29.333 0 53.666 7.33301 72.999 22s34.666 37.334 45.999 68.001h71z" />
    <glyph glyph-name="odieresis" unicode="&#xf6;" horiz-adv-x="1251" 
d="M694 848c-40.667 0 -77.833 -12.167 -111.5 -36.5s-63.167 -60.833 -88.5 -109.5c-27.333 -50 -50 -110.5 -68 -181.5s-27 -135.167 -27 -192.5c0 -76 14.333 -133.333 43 -172s71 -58 127 -58c79.333 0 146.333 50.333 201 151s82 221.667 82 363
c0 82.667 -12.667 142.667 -38 180s-65.333 56 -120 56zM68.001 375c0 177.333 60.833 321.333 182.5 432s280.5 166 476.5 166c144 0 255.833 -36.167 335.5 -108.5s119.5 -174.166 119.5 -305.499c0 -172.667 -59.833 -313.834 -179.5 -423.501
s-275.5 -164.5 -467.5 -164.5c-148 0 -262.833 35.333 -344.5 106s-122.5 170 -122.5 298zM834.001 1268c0 36.667 14.5 69.334 43.5 98.001s62.167 43 99.5 43c39.333 0 72.833 -13.833 100.5 -41.5s41.5 -60.834 41.5 -99.501c0 -42 -13.333 -76.167 -40 -102.5
s-60.667 -39.5 -102 -39.5c-40 0 -73.833 13.667 -101.5 41s-41.5 61 -41.5 101zM447.001 1268c0 37.333 14.166 70.168 42.499 98.501s61.166 42.5 98.499 42.5c38.667 0 71.834 -13.833 99.501 -41.5s41.5 -60.834 41.5 -99.501c0 -42 -13.167 -76.167 -39.5 -102.5
s-60.166 -39.5 -101.499 -39.5c-40 0 -73.5 13.667 -100.5 41s-40.5 61 -40.5 101z" />
    <glyph glyph-name="divide" unicode="&#xf7;" horiz-adv-x="1706" 
d="M854 369c41.333 0 77 -15 107 -45s45 -65.667 45 -107c0 -40.667 -15 -75.667 -45 -105s-65.667 -44 -107 -44c-42 0 -77.833 14.333 -107.5 43s-44.5 64 -44.5 106s14.833 77.833 44.5 107.5s65.5 44.5 107.5 44.5zM254 711h1198v-199h-1198v199zM854 1155
c41.333 0 77 -14.833 107 -44.5s45 -65.167 45 -106.5c0 -42 -14.833 -77.833 -44.5 -107.5s-65.5 -44.5 -107.5 -44.5s-77.833 14.833 -107.5 44.5s-44.5 65.5 -44.5 107.5s14.833 77.667 44.5 107s65.5 44 107.5 44z" />
    <glyph glyph-name="oslash" unicode="&#xf8;" horiz-adv-x="1251" 
d="M344 -4c-90.667 30 -159.335 76.834 -206.002 140.501s-70 142.5 -70 236.5c0 178.667 60.833 323.334 182.5 434.001s281.834 166 480.501 166c6 0 14.833 -0.333008 26.5 -1s20.5 -1 26.5 -1l78 155c4 8.66699 10.667 15.667 20 21s19 8 29 8
c21.333 0 37.666 -3 48.999 -9s17 -14.667 17 -26c0 -3.33301 -1.16699 -9.33301 -3.5 -18s-5.16602 -17.667 -8.49902 -27l-54 -127c88 -26.667 155.167 -73.334 201.5 -140.001s69.5 -149.667 69.5 -249c0 -170.667 -59.167 -311.334 -177.5 -422.001
s-270.166 -166 -455.499 -166c-12 0 -25 0.166992 -39 0.5s-29 0.833008 -45 1.5l-82 -172c-4.66699 -8.66699 -12 -15.5 -22 -20.5s-21.667 -7.5 -35 -7.5c-17.333 0 -31.333 3.66699 -42 11s-16 17.333 -16 30c0 4.66699 1 10.167 3 16.5s5.33301 14.5 10 24.5z
M818.999 782.001l-311 -676.001c4 -0.666992 9.33301 -1.66699 16 -3c20 -4.66699 35 -7 45 -7c78 0 144.667 51 200 153s83 223 83 363c0 39.333 -2.5 71.833 -7.5 97.5s-13.5 49.834 -25.5 72.501zM435.999 164l312.999 676c-16.667 3.33301 -29 5.5 -37 6.5
s-14.667 1.5 -20 1.5c-40 0 -76.667 -12.333 -110 -37s-62.666 -61 -87.999 -109c-28 -51.333 -50.833 -112.333 -68.5 -183s-26.5 -135.667 -26.5 -195c0 -34 3 -63.667 9 -89s15.333 -49 28 -71z" />
    <glyph glyph-name="ugrave" unicode="&#xf9;" horiz-adv-x="1237" 
d="M887 946l259.996 -0.00292969c11.333 0 19.333 -2.83301 24 -8.5s7 -15.167 7 -28.5c0 -4.66699 -0.166992 -8.16699 -0.5 -10.5s-1.16602 -5.16602 -2.49902 -8.49902l-102 -509c-5.33301 -28 -9.66602 -53.667 -12.999 -77s-5 -39.333 -5 -48
c0 -30 15.667 -52.5 47 -67.5s47 -34.167 47 -57.5c0 -34.667 -37.667 -69.667 -113 -105s-147 -53 -215 -53c-26.667 0 -45.167 5.66699 -55.5 17s-15.5 33 -15.5 65c0 21.333 1.33301 48 4 80s6.66699 67.667 12 107c-46.667 -87.333 -101.667 -154 -165 -200
s-132 -69 -206 -69c-85.333 0 -155.5 24.833 -210.5 74.5s-82.5 111.5 -82.5 185.5c0 34.667 4.33301 71.667 13 111c0.666992 3.33301 1.33398 6 2.00098 8l57 289c0.666992 3.33301 1.66699 8 3 14c3.33301 19.333 5 32.333 5 39c0 22.667 -14.333 43.167 -43 61.5
s-43 34.833 -43 49.5s5.83301 27.834 17.5 39.501s34.5 26.5 68.5 44.5c52 26 102.167 46.833 150.5 62.5s83.5 23.5 105.5 23.5c31.333 0 54.833 -9.66699 70.5 -29s23.5 -48 23.5 -86c0 -12.667 -1 -26.667 -3 -42s-5.66699 -36 -11 -62l-88 -418
c-2 -8 -3.83301 -20 -5.5 -36s-2.5 -32.667 -2.5 -50c0 -32 7 -55.667 21 -71s35.667 -23 65 -23c54.667 0 104.334 31.167 149.001 93.5s79 149.833 103 262.5l84 408c0.666992 6.66699 4.16699 12.334 10.5 17.001s13.833 7 22.5 7h10zM702.996 1401l248 -318h-121
l-275 179c-26.667 18 -46.167 35.5 -58.5 52.5s-18.5 34.833 -18.5 53.5c0 31.333 9.5 57 28.5 77s43.5 30 73.5 30c22.667 0 44.167 -6.16699 64.5 -18.5s39.833 -30.833 58.5 -55.5z" />
    <glyph glyph-name="uacute" unicode="&#xfa;" horiz-adv-x="1237" 
d="M887 946l259.996 -0.00292969c11.333 0 19.333 -2.83301 24 -8.5s7 -15.167 7 -28.5c0 -4.66699 -0.166992 -8.16699 -0.5 -10.5s-1.16602 -5.16602 -2.49902 -8.49902l-102 -509c-5.33301 -28 -9.66602 -53.667 -12.999 -77s-5 -39.333 -5 -48
c0 -30 15.667 -52.5 47 -67.5s47 -34.167 47 -57.5c0 -34.667 -37.667 -69.667 -113 -105s-147 -53 -215 -53c-26.667 0 -45.167 5.66699 -55.5 17s-15.5 33 -15.5 65c0 21.333 1.33301 48 4 80s6.66699 67.667 12 107c-46.667 -87.333 -101.667 -154 -165 -200
s-132 -69 -206 -69c-85.333 0 -155.5 24.833 -210.5 74.5s-82.5 111.5 -82.5 185.5c0 34.667 4.33301 71.667 13 111c0.666992 3.33301 1.33398 6 2.00098 8l57 289c0.666992 3.33301 1.66699 8 3 14c3.33301 19.333 5 32.333 5 39c0 22.667 -14.333 43.167 -43 61.5
s-43 34.833 -43 49.5s5.83301 27.834 17.5 39.501s34.5 26.5 68.5 44.5c52 26 102.167 46.833 150.5 62.5s83.5 23.5 105.5 23.5c31.333 0 54.833 -9.66699 70.5 -29s23.5 -48 23.5 -86c0 -12.667 -1 -26.667 -3 -42s-5.66699 -36 -11 -62l-88 -418
c-2 -8 -3.83301 -20 -5.5 -36s-2.5 -32.667 -2.5 -50c0 -32 7 -55.667 21 -71s35.667 -23 65 -23c54.667 0 104.334 31.167 149.001 93.5s79 149.833 103 262.5l84 408c0.666992 6.66699 4.16699 12.334 10.5 17.001s13.833 7 22.5 7h10zM667.996 1083l-121 -0.000976562
l307 320c24 24 47 42 69 54s44.333 18 67 18c26 0 49.167 -10.833 69.5 -32.5s30.5 -46.5 30.5 -74.5c0 -21.333 -7 -41.166 -21 -59.499s-34.333 -34.5 -61 -48.5z" />
    <glyph glyph-name="ucircumflex" unicode="&#xfb;" horiz-adv-x="1237" 
d="M887 946l259.996 -0.00292969c11.333 0 19.333 -2.83301 24 -8.5s7 -15.167 7 -28.5c0 -4.66699 -0.166992 -8.16699 -0.5 -10.5s-1.16602 -5.16602 -2.49902 -8.49902l-102 -509c-5.33301 -28 -9.66602 -53.667 -12.999 -77s-5 -39.333 -5 -48
c0 -30 15.667 -52.5 47 -67.5s47 -34.167 47 -57.5c0 -34.667 -37.667 -69.667 -113 -105s-147 -53 -215 -53c-26.667 0 -45.167 5.66699 -55.5 17s-15.5 33 -15.5 65c0 21.333 1.33301 48 4 80s6.66699 67.667 12 107c-46.667 -87.333 -101.667 -154 -165 -200
s-132 -69 -206 -69c-85.333 0 -155.5 24.833 -210.5 74.5s-82.5 111.5 -82.5 185.5c0 34.667 4.33301 71.667 13 111c0.666992 3.33301 1.33398 6 2.00098 8l57 289c0.666992 3.33301 1.66699 8 3 14c3.33301 19.333 5 32.333 5 39c0 22.667 -14.333 43.167 -43 61.5
s-43 34.833 -43 49.5s5.83301 27.834 17.5 39.501s34.5 26.5 68.5 44.5c52 26 102.167 46.833 150.5 62.5s83.5 23.5 105.5 23.5c31.333 0 54.833 -9.66699 70.5 -29s23.5 -48 23.5 -86c0 -12.667 -1 -26.667 -3 -42s-5.66699 -36 -11 -62l-88 -418
c-2 -8 -3.83301 -20 -5.5 -36s-2.5 -32.667 -2.5 -50c0 -32 7 -55.667 21 -71s35.667 -23 65 -23c54.667 0 104.334 31.167 149.001 93.5s79 149.833 103 262.5l84 408c0.666992 6.66699 4.16699 12.334 10.5 17.001s13.833 7 22.5 7h10zM1045 1081h-94l-174 172l-258 -172
h-115l311 373h172z" />
    <glyph glyph-name="udieresis" unicode="&#xfc;" horiz-adv-x="1237" 
d="M887 946l259.996 -0.00292969c11.333 0 19.333 -2.83301 24 -8.5s7 -15.167 7 -28.5c0 -4.66699 -0.166992 -8.16699 -0.5 -10.5s-1.16602 -5.16602 -2.49902 -8.49902l-102 -509c-5.33301 -28 -9.66602 -53.667 -12.999 -77s-5 -39.333 -5 -48
c0 -30 15.667 -52.5 47 -67.5s47 -34.167 47 -57.5c0 -34.667 -37.667 -69.667 -113 -105s-147 -53 -215 -53c-26.667 0 -45.167 5.66699 -55.5 17s-15.5 33 -15.5 65c0 21.333 1.33301 48 4 80s6.66699 67.667 12 107c-46.667 -87.333 -101.667 -154 -165 -200
s-132 -69 -206 -69c-85.333 0 -155.5 24.833 -210.5 74.5s-82.5 111.5 -82.5 185.5c0 34.667 4.33301 71.667 13 111c0.666992 3.33301 1.33398 6 2.00098 8l57 289c0.666992 3.33301 1.66699 8 3 14c3.33301 19.333 5 32.333 5 39c0 22.667 -14.333 43.167 -43 61.5
s-43 34.833 -43 49.5s5.83301 27.834 17.5 39.501s34.5 26.5 68.5 44.5c52 26 102.167 46.833 150.5 62.5s83.5 23.5 105.5 23.5c31.333 0 54.833 -9.66699 70.5 -29s23.5 -48 23.5 -86c0 -12.667 -1 -26.667 -3 -42s-5.66699 -36 -11 -62l-88 -418
c-2 -8 -3.83301 -20 -5.5 -36s-2.5 -32.667 -2.5 -50c0 -32 7 -55.667 21 -71s35.667 -23 65 -23c54.667 0 104.334 31.167 149.001 93.5s79 149.833 103 262.5l84 408c0.666992 6.66699 4.16699 12.334 10.5 17.001s13.833 7 22.5 7h10zM829.996 1268
c0 36.667 14.5 69.334 43.5 98.001s62.167 43 99.5 43c39.333 0 72.833 -13.833 100.5 -41.5s41.5 -60.834 41.5 -99.501c0 -42 -13.333 -76.167 -40 -102.5s-60.667 -39.5 -102 -39.5c-40 0 -73.833 13.667 -101.5 41s-41.5 61 -41.5 101zM442.996 1268
c0 37.333 14.166 70.168 42.499 98.501s61.166 42.5 98.499 42.5c38.667 0 71.834 -13.833 99.501 -41.5s41.5 -60.834 41.5 -99.501c0 -42 -13.167 -76.167 -39.5 -102.5s-60.166 -39.5 -101.499 -39.5c-40 0 -73.5 13.667 -100.5 41s-40.5 61 -40.5 101z" />
    <glyph glyph-name="yacute" unicode="&#xfd;" horiz-adv-x="1010" 
d="M518 4c-19.333 -8.66699 -39.1689 -15.165 -59.502 -19.498s-41.5 -6.83301 -63.5 -7.5c-46.667 0 -84 9.33301 -112 28s-52.667 51 -74 97c-25.333 52 -45.333 116.833 -60 194.5s-22 159.167 -22 244.5c0 26.667 1 57.5 3 92.5s3 56.5 3 64.5c0 44 -16.667 74 -50 90
s-50 29.667 -50 41c0 16 5.5 29.167 16.5 39.5s38.167 25.166 81.5 44.499c38.667 17.333 83.334 31.666 134.001 42.999s90.667 17 120 17c24.667 0 42.834 -7 54.501 -21s17.5 -35.667 17.5 -65c0 -6.66699 -1.33301 -41.667 -4 -105s-4 -124 -4 -182
c0 -128.667 10.5 -233.167 31.5 -313.5s47.167 -120.5 78.5 -120.5c16 0 33 10.667 51 32s42 59.666 72 114.999c32 61.333 58.167 122.166 78.5 182.499s30.5 103.5 30.5 129.5c0 24.667 -17.5 54 -52.5 88s-52.5 71.333 -52.5 112c0 44 12.833 79.667 38.5 107
s58.5 41 98.5 41c50.667 0 89.334 -19 116.001 -57s40 -93.333 40 -166c0 -90 -29.667 -209.667 -89 -359s-134 -285.666 -224 -408.999c-88.667 -121.333 -177.334 -213.833 -266.001 -277.5s-173 -95.5 -253 -95.5c-48 0 -87.5 10.333 -118.5 31
s-46.5 46.334 -46.5 77.001c0 34 11.5 61 34.5 81s53.833 30 92.5 30c27.333 0 55.5 -5.5 84.5 -16.5s46.5 -16.5 52.5 -16.5c32.667 0 73 18.333 121 55s98.333 88 151 154zM550.997 1083l-121 -0.000976562l307 320c24 24 47 42 69 54s44.333 18 67 18
c26 0 49.167 -10.833 69.5 -32.5s30.5 -46.5 30.5 -74.5c0 -21.333 -7 -41.166 -21 -59.499s-34.333 -34.5 -61 -48.5z" />
    <glyph glyph-name="thorn" unicode="&#xfe;" horiz-adv-x="1247" 
d="M348 -391l-374.998 -0.00488281c-26 0 -45 4.33301 -57 13s-18 22 -18 40c0 22.667 19.167 44.834 57.5 66.501s61.5 54.834 69.5 99.501l262 1432c0.666992 4 1.16699 7.83301 1.5 11.5s0.5 7.16699 0.5 10.5c0 17.333 -16.833 31 -50.5 41s-50.5 27 -50.5 51
c0 15.333 5.5 27.833 16.5 37.5s31.833 19.834 62.5 30.501c62 20.667 121.167 37.334 177.5 50.001s95.166 19 116.499 19c22.667 0 41 -5.66699 55 -17s21 -26.666 21 -45.999c0 -3.33301 -0.5 -8.16602 -1.5 -14.499s-2.5 -15.166 -4.5 -26.499l-107 -584
c35.333 48.667 77.666 85.5 126.999 110.5s104.666 37.5 165.999 37.5c111.333 0 200 -35.333 266 -106s99 -166.334 99 -287.001c0 -164 -58.167 -305.833 -174.5 -425.5s-256.166 -179.5 -419.499 -179.5c-57.333 0 -98.666 4.16699 -123.999 12.5s-38 22.166 -38 41.499
c0 26.667 7.5 49.667 22.5 69s33.5 29 55.5 29c5.33301 0 15 -1.33301 29 -4s25.333 -4 34 -4c72.667 0 136.667 52.833 192 158.5s83 225.5 83 359.5c0 56 -11.833 99 -35.5 129s-56.834 45 -99.501 45c-57.333 0 -109.5 -33.667 -156.5 -101
s-79.5 -156.666 -97.5 -267.999l-103 -615c-2 -10.667 -3.5 -20.5 -4.5 -29.5s-1.5 -16.5 -1.5 -22.5c0 -18 13.333 -34.333 40 -49s40 -33.334 40 -56.001c0 -18.667 -6.66699 -33.167 -20 -43.5s-32 -15.5 -56 -15.5z" />
    <glyph glyph-name="ydieresis" unicode="&#xff;" horiz-adv-x="1010" 
d="M518 4c-19.333 -8.66699 -39.1689 -15.165 -59.502 -19.498s-41.5 -6.83301 -63.5 -7.5c-46.667 0 -84 9.33301 -112 28s-52.667 51 -74 97c-25.333 52 -45.333 116.833 -60 194.5s-22 159.167 -22 244.5c0 26.667 1 57.5 3 92.5s3 56.5 3 64.5c0 44 -16.667 74 -50 90
s-50 29.667 -50 41c0 16 5.5 29.167 16.5 39.5s38.167 25.166 81.5 44.499c38.667 17.333 83.334 31.666 134.001 42.999s90.667 17 120 17c24.667 0 42.834 -7 54.501 -21s17.5 -35.667 17.5 -65c0 -6.66699 -1.33301 -41.667 -4 -105s-4 -124 -4 -182
c0 -128.667 10.5 -233.167 31.5 -313.5s47.167 -120.5 78.5 -120.5c16 0 33 10.667 51 32s42 59.666 72 114.999c32 61.333 58.167 122.166 78.5 182.499s30.5 103.5 30.5 129.5c0 24.667 -17.5 54 -52.5 88s-52.5 71.333 -52.5 112c0 44 12.833 79.667 38.5 107
s58.5 41 98.5 41c50.667 0 89.334 -19 116.001 -57s40 -93.333 40 -166c0 -90 -29.667 -209.667 -89 -359s-134 -285.666 -224 -408.999c-88.667 -121.333 -177.334 -213.833 -266.001 -277.5s-173 -95.5 -253 -95.5c-48 0 -87.5 10.333 -118.5 31
s-46.5 46.334 -46.5 77.001c0 34 11.5 61 34.5 81s53.833 30 92.5 30c27.333 0 55.5 -5.5 84.5 -16.5s46.5 -16.5 52.5 -16.5c32.667 0 73 18.333 121 55s98.333 88 151 154zM712.997 1268c0 36.667 14.5 69.334 43.5 98.001s62.167 43 99.5 43
c39.333 0 72.833 -13.833 100.5 -41.5s41.5 -60.834 41.5 -99.501c0 -42 -13.333 -76.167 -40 -102.5s-60.667 -39.5 -102 -39.5c-40 0 -73.833 13.667 -101.5 41s-41.5 61 -41.5 101zM325.997 1268c0 37.333 14.166 70.168 42.499 98.501s61.166 42.5 98.499 42.5
c38.667 0 71.834 -13.833 99.501 -41.5s41.5 -60.834 41.5 -99.501c0 -42 -13.167 -76.167 -39.5 -102.5s-60.166 -39.5 -101.499 -39.5c-40 0 -73.5 13.667 -100.5 41s-40.5 61 -40.5 101z" />
    <glyph glyph-name="Cacute" unicode="&#x106;" horiz-adv-x="1587" 
d="M1520 1272l-0.000976562 -233.998c0 -32.667 -6.83301 -57.5 -20.5 -74.5s-33.5 -25.5 -59.5 -25.5c-34.667 0 -59.667 33 -75 99c-3.33301 13.333 -5.66602 23.333 -6.99902 30c-22.667 90.667 -62.834 158.334 -120.501 203.001s-133.5 67 -227.5 67
c-152 0 -278.167 -70.833 -378.5 -212.5s-150.5 -318.5 -150.5 -530.5c0 -140 33.667 -249 101 -327s161.333 -117 282 -117c61.333 0 122.333 11 183 33s119.334 54.667 176.001 98c14.667 11.333 33 27.666 55 48.999c36.667 35.333 66 53 88 53
c24 0 43.667 -7.33301 59 -22s23 -33.334 23 -56.001c0 -83.333 -66.667 -162.166 -200 -236.499s-292 -111.5 -476 -111.5c-212.667 0 -381.5 61.167 -506.5 183.5s-187.5 285.833 -187.5 490.5c0 130 28.667 256.667 86 380s134.333 224.666 231 303.999
c78 63.333 167 112.166 267 146.499s203.667 51.5 311 51.5c128 0 251.167 -26.667 369.5 -80s177.5 -107 177.5 -161zM927.999 1642l-121 -0.000976562l307 320c24 24 47 42 69 54s44.333 18 67 18c26 0 49.167 -10.833 69.5 -32.5s30.5 -46.5 30.5 -74.5
c0 -21.333 -7 -41.166 -21 -59.499s-34.333 -34.5 -61 -48.5z" />
    <glyph glyph-name="cacute" unicode="&#x107;" horiz-adv-x="1118" 
d="M541 -29c-148.667 0 -263.998 35.668 -345.998 107.001s-123 171 -123 299c0 166 58.667 306.5 176 421.5s264 172.5 440 172.5c116 0 211.5 -22.667 286.5 -68s112.5 -100 112.5 -164c0 -36.667 -15.333 -67.334 -46 -92.001s-69.667 -37 -117 -37
c-46 0 -82.167 14.833 -108.5 44.5s-39.5 69.5 -39.5 119.5c0 12 -8.33301 24.167 -25 36.5s-36.334 18.5 -59.001 18.5c-66.667 0 -127.667 -46.667 -183 -140s-83 -196.666 -83 -309.999c0 -79.333 18.667 -139.833 56 -181.5s91.666 -62.5 162.999 -62.5
c81.333 0 157 25 227 75s109 75 117 75c15.333 0 27.333 -4.83301 36 -14.5s13 -22.834 13 -39.501c0 -56.667 -51.833 -114.167 -155.5 -172.5s-217.5 -87.5 -341.5 -87.5zM653.002 1083l-121 -0.000976562l307 320c24 24 47 42 69 54s44.333 18 67 18
c26 0 49.167 -10.833 69.5 -32.5s30.5 -46.5 30.5 -74.5c0 -21.333 -7 -41.166 -21 -59.499s-34.333 -34.5 -61 -48.5z" />
    <glyph glyph-name="Ccaron" unicode="&#x10c;" horiz-adv-x="1587" 
d="M1520 1272l-0.000976562 -233.998c0 -32.667 -6.83301 -57.5 -20.5 -74.5s-33.5 -25.5 -59.5 -25.5c-34.667 0 -59.667 33 -75 99c-3.33301 13.333 -5.66602 23.333 -6.99902 30c-22.667 90.667 -62.834 158.334 -120.501 203.001s-133.5 67 -227.5 67
c-152 0 -278.167 -70.833 -378.5 -212.5s-150.5 -318.5 -150.5 -530.5c0 -140 33.667 -249 101 -327s161.333 -117 282 -117c61.333 0 122.333 11 183 33s119.334 54.667 176.001 98c14.667 11.333 33 27.666 55 48.999c36.667 35.333 66 53 88 53
c24 0 43.667 -7.33301 59 -22s23 -33.334 23 -56.001c0 -83.333 -66.667 -162.166 -200 -236.499s-292 -111.5 -476 -111.5c-212.667 0 -381.5 61.167 -506.5 183.5s-187.5 285.833 -187.5 490.5c0 130 28.667 256.667 86 380s134.333 224.666 231 303.999
c78 63.333 167 112.166 267 146.499s203.667 51.5 311 51.5c128 0 251.167 -26.667 369.5 -80s177.5 -107 177.5 -161zM753.999 2013h94l174 -172l258 172h115l-311 -373h-172z" />
    </font>
</defs>
</svg>
