<?xml version="1.0" standalone="no"?>
<!DOCTYPE svg PUBLIC "-//W3C//DTD SVG 1.1//EN" "http://www.w3.org/Graphics/SVG/1.1/DTD/svg11.dtd" >
<svg>
<metadata>
Created by FontForge 20090914 at Sun Jun 30 18:31:04 2013
 By www-data
Copyright 1990-1993 Bitstream Inc.  All rights reserved.
</metadata>
<defs>
<font id="SouvenirITCbyBT-LightItalic" horiz-adv-x="1024" >
  <font-face 
    font-family="Souvenir Lt BT"
    font-weight="400"
    font-style="italic"
    font-stretch="normal"
    units-per-em="2048"
    panose-1="2 8 5 3 4 5 5 9 3 3"
    ascent="1638"
    descent="-410"
    x-height="948"
    cap-height="1479"
    bbox="-342 -483 2509 1983"
    underline-thickness="123"
    underline-position="-134"
    slope="-9.29999"
    unicode-range="U+0020-U+F002"
  />
<missing-glyph horiz-adv-x="1229" 
d="M102 -362v1806h1024v-1806h-1024zM217 -248h795v1577h-795v-1577z" />
    <glyph glyph-name=".notdef" horiz-adv-x="1229" 
d="M102 -362v1806h1024v-1806h-1024zM217 -248h795v1577h-795v-1577z" />
    <glyph glyph-name="space" unicode=" " horiz-adv-x="561" 
 />
    <glyph glyph-name="exclam" unicode="!" horiz-adv-x="561" 
d="M201 490l62.999 771.999c8.66699 108.667 23.834 177.667 45.501 207s59.167 44 112.5 44c26 0 45.5 -7.66699 58.5 -23s19.5 -38.333 19.5 -69c0 -13.333 -1.5 -29.833 -4.5 -49.5s-7.83301 -44.167 -14.5 -73.5l-180 -825
c-0.666992 -3.33301 -1.66699 -8.66602 -3 -15.999c-12.667 -60 -32.667 -90 -60 -90c-12 0 -21.5 4.33301 -28.5 13s-10.5 20.667 -10.5 36c0 20 0.166992 35.167 0.5 45.5s0.833008 19.833 1.5 28.5zM89.999 62.999c0 38.667 10.333 71 31 97s46.667 39 78 39
c24.667 0 46.5 -9.16699 65.5 -27.5s28.5 -39.166 28.5 -62.499c0 -42 -10.167 -76.167 -30.5 -102.5s-46.5 -39.5 -78.5 -39.5c-26.667 0 -49 9.16699 -67 27.5s-27 41.166 -27 68.499z" />
    <glyph glyph-name="quotedbl" unicode="&#x22;" horiz-adv-x="678" 
d="M518 864l-31.001 -0.000976562l-65 457c0 1.33301 -0.333008 3.33301 -1 6c-2 14.667 -3 25.667 -3 33c0 32.667 7.5 57.834 22.5 75.501s36.167 26.5 63.5 26.5c26.667 0 47.334 -8.66699 62.001 -26s22 -42 22 -74c0 -9.33301 -0.166992 -17 -0.5 -23
s-0.833008 -12 -1.5 -18zM189.999 863.999l-32.001 -0.000976562l-64 457l-3 26c-0.666992 6 -1 11 -1 15c0 32 7.33301 56.667 22 74s35.334 26 62.001 26c27.333 0 48.5 -8.66699 63.5 -26s22.5 -42 22.5 -74c0 -6 -1 -17.333 -3 -34
c-0.666992 -3.33301 -1 -5.66602 -1 -6.99902z" />
    <glyph glyph-name="numbersign" unicode="#" horiz-adv-x="1575" 
d="M700 868l-100 -286h289l102 286h-291zM778 1456h133l-168 -471h287l168 471h131l-166 -471h307l-40 -117h-310l-100 -286h332l-43 -115h-330l-166 -469h-133l166 469h-287l-166 -469h-131l166 469h-324l43 115h322l100 286h-348l43 117h348z" />
    <glyph glyph-name="dollar" unicode="$" horiz-adv-x="1124" 
d="M502 84c88.667 2 161.333 31.5 218 88.5s85 129.167 85 216.5c0 58.667 -17 109.167 -51 151.5s-89.333 81.833 -166 118.5zM515.999 891l74 501.998c-83.333 -8 -151.333 -37.667 -204 -89s-79 -112.666 -79 -183.999c0 -47.333 17.5 -90.166 52.5 -128.499
s87.167 -71.833 156.5 -100.5zM382.999 -23.002c-110 6 -199 37.166 -267 93.499s-102 125.833 -102 208.5c0 32 6.5 56 19.5 72s32.5 24 58.5 24c22.667 0 39.667 -7.5 51 -22.5s17 -37.5 17 -67.5c0 -65.333 18.333 -113.666 55 -144.999s97.334 -50.666 182.001 -57.999
l90 616c-119.333 56 -206.833 114 -262.5 174s-83.5 126.333 -83.5 199c0 117.333 41.5 214.166 124.5 290.499s196.5 122.166 340.5 137.499l15 97c3.33301 20 9 33.167 17 39.5s22 9.5 42 9.5c17.333 -0.666992 29.5 -3.5 36.5 -8.5s10.5 -13.167 10.5 -24.5
c0 -5.33301 -0.166992 -9.16602 -0.5 -11.499s-0.833008 -4.83301 -1.5 -7.5l-14 -96c91.333 -14 163 -43.5 215 -88.5s78 -100.167 78 -165.5c0 -39.333 -7.16699 -68.333 -21.5 -87s-36.833 -28 -67.5 -28c-22.667 0 -40.167 7 -52.5 21s-18.5 33.667 -18.5 59
c0 7.33301 1.33301 18.666 4 33.999s4 27.333 4 36c0 30.667 -14.333 56.667 -43 78s-66.334 33.333 -113.001 36l-82 -552c120.667 -49.333 209.667 -106.333 267 -171s86 -141 86 -229c0 -126 -45.333 -233.167 -136 -321.5s-206 -135.5 -346 -141.5l-30 -224
c-2.66699 -19.333 -7.66699 -31.833 -15 -37.5s-20.333 -8.5 -39 -8.5s-32.167 2.66699 -40.5 8s-12.5 14.333 -12.5 27c0 6.66699 0.166992 11.834 0.5 15.501s0.833008 7.16699 1.5 10.5z" />
    <glyph glyph-name="percent" unicode="%" horiz-adv-x="1788" 
d="M1073 260c0 -68.667 14.6689 -121.667 44.002 -159s70.666 -56 123.999 -56c72 0 133.667 36.167 185 108.5s77 161.166 77 266.499c0 63.333 -14.833 113 -44.5 149s-70.834 54 -123.501 54c-68.667 0 -129.5 -36.167 -182.5 -108.5s-79.5 -157.166 -79.5 -254.499z
M922.002 266c0 121.333 40.665 224 121.998 308s182 126 302 126c94.667 0 170.167 -27.167 226.5 -81.5s84.5 -127.5 84.5 -219.5c0 -120 -40.667 -222 -122 -306s-180.666 -126 -297.999 -126c-97.333 0 -174.166 26.833 -230.499 80.5s-84.5 126.5 -84.5 218.5zM256 1069
c0 -68.667 14.6689 -121.667 44.002 -159s70.666 -56 123.999 -56c72 0 133.667 36.167 185 108.5s77 161.166 77 266.499c0 62.667 -14.833 111.834 -44.5 147.501s-70.834 53.5 -123.501 53.5c-68.667 0 -129.5 -35.833 -182.5 -107.5s-79.5 -156.167 -79.5 -253.5z
M430.002 20l759.998 1346c-30 -18.667 -64.667 -32.834 -104 -42.501s-82.666 -14.5 -129.999 -14.5c-25.333 0 -49.833 2.16699 -73.5 6.5s-46.834 10.833 -69.501 19.5c8.66699 -22 15.334 -43.833 20.001 -65.5s7 -42.834 7 -63.501
c0 -119.333 -40.833 -220.833 -122.5 -304.5s-181.5 -125.5 -299.5 -125.5c-97.333 0 -174.333 26.5 -231 79.5s-85 124.833 -85 215.5c0 122.667 41.167 226 123.5 310s183.833 126 304.5 126c58 0 119 -16.333 183 -49c12.667 -6.66699 22 -11.334 28 -14.001
c43.333 -20.667 82.666 -35 117.999 -43s72 -12 110 -12c42 0 83.833 7.16699 125.5 21.5s82.5 35.833 122.5 64.5c6.66699 4.66699 16.334 12.667 29.001 24c29.333 26 54.333 39 75 39c8 0 15.167 -3 21.5 -9s9.5 -13.333 9.5 -22c0 -4.66699 -0.833008 -9.66699 -2.5 -15
s-4.5 -11.666 -8.5 -18.999l-825 -1471c-8.66699 -16 -17.5 -27.5 -26.5 -34.5s-19.833 -10.5 -32.5 -10.5c-11.333 0 -20.666 2.5 -27.999 7.5s-11 11.5 -11 19.5s3.33301 19 10 33z" />
    <glyph glyph-name="ampersand" unicode="&#x26;" horiz-adv-x="1579" 
d="M625 879c108.667 52 192.168 109.5 250.501 172.5s87.5 126.833 87.5 191.5c0 50.667 -17.333 91.667 -52 123s-80.334 47 -137.001 47c-75.333 0 -135.833 -23.167 -181.5 -69.5s-68.5 -107.833 -68.5 -184.5c0 -37.333 7.5 -77.333 22.5 -120s41.167 -96 78.5 -160z
M813.001 211c-49.333 62.667 -101.501 137.668 -156.501 225.001s-111.5 184.333 -169.5 291c-98 -64 -170.833 -129.333 -218.5 -196s-71.5 -136.334 -71.5 -209.001c0 -74 25 -133.833 75 -179.5s115.667 -68.5 197 -68.5c53.333 0 109.333 11.667 168 35
s117.334 57.333 176.001 102zM877 131.001c-75.333 -56 -153.168 -98.3311 -233.501 -126.998s-162.5 -43 -246.5 -43c-116.667 0 -210.334 30.667 -281.001 92s-106 142.666 -106 243.999c0 98 36.833 192.833 110.5 284.5s178.167 172.167 313.5 241.5
c-28.667 54 -50.167 105.833 -64.5 155.5s-21.5 98.167 -21.5 145.5c0 111.333 40.833 203 122.5 275s186.834 108 315.501 108c97.333 0 177 -24.5 239 -73.5s93 -111.167 93 -186.5c0 -88 -37.833 -171.167 -113.5 -249.5s-186.5 -148.833 -332.5 -211.5
c60.667 -109.333 116.167 -203.666 166.5 -282.999s89.5 -135.666 117.5 -168.999c71.333 76 127.166 144.667 167.499 206s60.5 106.666 60.5 135.999c0 15.333 -3.5 27.666 -10.5 36.999s-23.167 20.666 -48.5 33.999c-4.66699 2.66699 -11 6 -19 10
c-23.333 10.667 -35 22.667 -35 36c0 14 5.66699 25.333 17 34s26.333 13 45 13h346c24 0 42.167 -4.83301 54.5 -14.5s18.5 -23.5 18.5 -41.5c0 -25.333 -22.333 -46 -67 -62l-2 -1c-2 -0.666992 -6 -1.66699 -12 -3c-48 -12.667 -94.667 -44.667 -140 -96
c-7.33301 -8 -22.666 -27 -45.999 -57c-91.333 -118 -180.333 -221.667 -267 -311c42 -54 87.167 -94.833 135.5 -122.5s99.5 -41.5 153.5 -41.5c20 0 44.667 4.5 74 13.5s48.333 13.5 57 13.5c10.667 0 19.834 -3.5 27.501 -10.5s11.5 -15.167 11.5 -24.5
c0 -33.333 -21.833 -60.5 -65.5 -81.5s-101.167 -31.5 -172.5 -31.5c-82 0 -153 13.5 -213 40.5s-109.667 67.5 -149 121.5z" />
    <glyph glyph-name="quotesingle" unicode="'" horiz-adv-x="348" 
d="M190 864l-31.999 0.000976562l-66 457c-0.666992 5.33301 -1.16699 10.666 -1.5 15.999s-0.5 13 -0.5 23c0 33.333 7.16699 58.666 21.5 75.999s35.166 26 62.499 26s48.5 -8.66699 63.5 -26s22.5 -42 22.5 -74c0 -6 -1 -17.333 -3 -34
c-0.666992 -3.33301 -1 -5.66602 -1 -6.99902z" />
    <glyph glyph-name="parenleft" unicode="(" horiz-adv-x="674" 
d="M141 354c0 148.667 20.667 296.333 62 443s102 289.334 182 428.001c46.667 79.333 94.667 147.166 144 203.499s82 84.5 98 84.5c8 0 14.667 -3 20 -9s8 -13.667 8 -23c0 -16 -13.667 -48.333 -41 -97s-49 -90 -65 -124c-92.667 -199.333 -158.5 -373.833 -197.5 -523.5
s-58.5 -296.834 -58.5 -441.501c0 -172 17 -344.333 51 -517c6.66699 -33.333 10 -53.666 10 -60.999c0 -14 -4.5 -26.667 -13.5 -38s-18.167 -17 -27.5 -17c-35.333 0 -72.833 70.667 -112.5 212s-59.5 301.333 -59.5 480z" />
    <glyph glyph-name="parenright" unicode=")" horiz-adv-x="674" 
d="M492 819c0 -147.333 -20.832 -294.333 -62.499 -441s-102.834 -289.667 -183.501 -429c-46 -78.667 -93.5 -146.167 -142.5 -202.5s-81.5 -84.5 -97.5 -84.5c-8 0 -14.833 2.83301 -20.5 8.5s-8.5 13.167 -8.5 22.5c0 15.333 14 47.833 42 97.5s49.667 91.5 65 125.5
c92.667 198.667 158.5 373 197.5 523s58.5 297.333 58.5 442c0 171.333 -17 343.333 -51 516c-6.66699 34 -10 54.333 -10 61c0 14 4 26.333 12 37s16.667 16 26 16c36 0 74.167 -70.5 114.5 -211.5s60.5 -301.167 60.5 -480.5z" />
    <glyph glyph-name="asterisk" unicode="*" 
d="M571 1069l0.000976562 -13.9961c0 -51.333 12.667 -107 38 -167s38 -98 38 -114c0 -28 -8 -50.333 -24 -67s-38 -25 -66 -25c-28.667 0 -51.167 7.83301 -67.5 23.5s-24.5 37.167 -24.5 64.5c0 18.667 12.333 57.167 37 115.5s37 112.833 37 163.5v24
c-55.333 -32 -99.333 -72 -132 -120l-3 -4l-1 -2c-52 -70 -96.333 -105 -133 -105c-24 0 -45 9 -63 27s-27 39.667 -27 65c0 31.333 12 55.166 36 71.499s62.333 26.5 115 30.5c46 3.33301 84.167 10 114.5 20s55.833 24 76.5 42c-45.333 32 -111.333 52 -198 60l-29 3
c-35.333 3.33301 -63.333 14 -84 32s-31 41 -31 69c0 24 8.83301 45.333 26.5 64s38.167 28 61.5 28c37.333 0 76.333 -28.667 117 -86l16 -23c18.667 -26 39.667 -48.833 63 -68.5s49.666 -37.167 78.999 -52.5v11c0 50 -13 106 -39 168s-39 102.667 -39 122
c0 26 8.5 46.833 25.5 62.5s39.167 23.5 66.5 23.5c29.333 0 51.666 -7.33301 66.999 -22s23 -36 23 -64c0 -17.333 -12.333 -56.333 -37 -117s-37 -116.334 -37 -167.001v-21c36.667 22.667 64.5 43.167 83.5 61.5s37.167 39.833 54.5 64.5l1 1
c48.667 70 93.334 105 134.001 105c21.333 0 41 -9.5 59 -28.5s27 -40.167 27 -63.5c0 -24.667 -10.333 -46.334 -31 -65.001s-45.334 -29.334 -74.001 -32.001c-71.333 -6 -122.833 -14.167 -154.5 -24.5s-59.167 -25.166 -82.5 -44.499
c48.667 -32.667 114.667 -51.667 198 -57c14.667 -1.33301 25.334 -2.33301 32.001 -3c33.333 -2.66699 60.333 -13.5 81 -32.5s31 -42.833 31 -71.5c0 -22.667 -9.33301 -43.334 -28 -62.001s-39.334 -28 -62.001 -28c-36 0 -77.333 32.667 -124 98l-8 11
c-20.667 28.667 -42.167 52.5 -64.5 71.5s-47.166 35.167 -74.499 48.5z" />
    <glyph glyph-name="plus" unicode="+" horiz-adv-x="1706" 
d="M795 1221h118v-551h539v-117h-539v-553h-118v553h-541v117h541v551z" />
    <glyph glyph-name="comma" unicode="," horiz-adv-x="561" 
d="M68 53c0 37.333 12.666 67.4971 37.999 90.4971s59 34.5 101 34.5c30.667 0 55.334 -11.333 74.001 -34s28 -53 28 -91c0 -47.333 -9.66699 -96.833 -29 -148.5s-45.666 -98.5 -78.999 -140.5c-28.667 -34.667 -59.834 -63.667 -93.501 -87s-58.5 -35 -74.5 -35
c-7.33301 0 -13.333 2.83301 -18 8.5s-7 12.834 -7 21.501c0 10 13.833 24.333 41.5 43s48.834 35 63.501 49c25.333 26 46 55.333 62 88s24 61 24 85c0 22.667 -12.333 34.667 -37 36c-10.667 0.666992 -19.334 1.33398 -26.001 2.00098c-21.333 4 -38 12.833 -50 26.5
s-18 30.834 -18 51.501z" />
    <glyph glyph-name="hyphen" unicode="-" horiz-adv-x="678" 
d="M127 408c-21.333 0 -34.167 1.5 -38.5 4.5s-6.5 8.83301 -6.5 17.5c0 0.666992 0.333008 2.33398 1 5.00098s1 5 1 7l8 47c3.33301 18 8.83301 30.5 16.5 37.5s19.834 10.5 36.501 10.5h396c18.667 0 31.167 -2 37.5 -6s9.5 -10.333 9.5 -19
c0 -1.33301 -0.333008 -3.33301 -1 -6s-1 -4.66699 -1 -6l-8 -47c-4.66699 -18.667 -10.334 -30.834 -17.001 -36.501s-19 -8.5 -37 -8.5h-397z" />
    <glyph glyph-name="period" unicode="." horiz-adv-x="561" 
d="M92 63c0 38.667 10.668 71 32.001 97s47.666 39 78.999 39c25.333 0 47.333 -9.16699 66 -27.5s28 -39.166 28 -62.499c0 -42 -10.5 -76.167 -31.5 -102.5s-47.5 -39.5 -79.5 -39.5c-26.667 0 -49 9.16699 -67 27.5s-27 41.166 -27 68.499z" />
    <glyph glyph-name="slash" unicode="/" horiz-adv-x="551" 
d="M59 -139c-4.66699 -16.667 -11.667 -29.334 -21 -38.001s-20 -13 -32 -13c-10.667 0 -19.167 3.5 -25.5 10.5s-9.5 16.167 -9.5 27.5c0 6 0.166992 10.333 0.5 13s0.833008 5 1.5 7l498 1594c5.33301 16 12.5 28.167 21.5 36.5s19.5 12.5 31.5 12.5
c10.667 0 19.5 -3.66699 26.5 -11s10.5 -16.333 10.5 -27c0 -2.66699 -0.166992 -5.16699 -0.5 -7.5s-1.5 -6.16602 -3.5 -11.499z" />
    <glyph glyph-name="zero" unicode="0" horiz-adv-x="1124" 
d="M633 1397c-59.333 0 -112.667 -22.832 -160 -68.499s-89.666 -114.5 -126.999 -206.5c-38.667 -96 -68.834 -201.667 -90.501 -317s-32.5 -230 -32.5 -344c0 -128 19.5 -222.833 58.5 -284.5s98.833 -92.5 179.5 -92.5c62 0 116.333 19.167 163 57.5
s86.334 96.166 119.001 173.499c41.333 96 72.833 200.333 94.5 313s32.5 227.667 32.5 345c0 152 -18.333 260.667 -55 326s-97.334 98 -182.001 98zM34.999 537.001c0 127.333 17.832 253.5 53.499 378.5s85.5 236.167 149.5 333.5
c56.667 86.667 120.5 151.334 191.5 194.001s149.833 64 236.5 64c124 0 220.833 -49 290.5 -147s104.5 -234.667 104.5 -410c0 -124.667 -12.167 -240.334 -36.5 -347.001s-61.5 -208.667 -111.5 -306c-56 -108.667 -124.167 -190.5 -204.5 -245.5
s-171.166 -82.5 -272.499 -82.5c-128 0 -226.833 49.333 -296.5 148s-104.5 238.667 -104.5 420z" />
    <glyph glyph-name="one" unicode="1" horiz-adv-x="1124" 
d="M121 0c-19.333 0 -33.832 3.00098 -43.499 9.00098s-14.5 15.333 -14.5 28c0 35.333 40.667 54 122 56c32 1.33301 56.333 3 73 5c85.333 12 142.333 109.667 171 293l3 22l105 662c4 24.667 7 46.167 9 64.5s3 33.166 3 44.499c0 26.667 -8.33301 45.167 -25 55.5
s-48.667 15.5 -96 15.5c-16 0 -39 -0.666992 -69 -2s-52 -2 -66 -2c-22 0 -39.5 4.16699 -52.5 12.5s-19.5 19.166 -19.5 32.499c0 24.667 35.667 43.667 107 57c53.333 9.33301 97 19 131 29c54.667 16.667 110 40.667 166 72s88.667 47 98 47
c15.333 0 26.333 -3.66699 33 -11s10 -19.333 10 -36c0 -7.33301 -2 -22.666 -6 -45.999c-0.666992 -5.33301 -1.33398 -9.66602 -2.00098 -12.999l-170 -1091c-3.33301 -20 -5.83301 -38.667 -7.5 -56s-2.5 -32.333 -2.5 -45c0 -33.333 8.83301 -58.333 26.5 -75
s46.5 -26.667 86.5 -30c9.33301 -0.666992 22.333 -1.33398 39 -2.00098c67.333 -3.33301 101 -19 101 -47c0 -14.667 -5.5 -26.5 -16.5 -35.5s-25.833 -13.5 -44.5 -13.5h-649z" />
    <glyph glyph-name="two" unicode="2" horiz-adv-x="1124" 
d="M684 0h-634.999c-44 0 -72.333 3.5 -85 10.5s-19 19.167 -19 36.5c0 33.333 36.5 95.5 109.5 186.5s170.833 194.833 293.5 311.5c34.667 32.667 98.667 90 192 172s159.666 146 198.999 192c48 56 82.5 106.5 103.5 151.5s31.5 90.167 31.5 135.5
c0 64.667 -20.333 116.334 -61 155.001s-95.334 58 -164.001 58c-87.333 0 -164.166 -26.833 -230.499 -80.5s-99.5 -113.5 -99.5 -179.5c0 -13.333 5.83301 -32.5 17.5 -57.5s17.5 -43.5 17.5 -55.5c0 -36.667 -10.333 -65.5 -31 -86.5s-49 -31.5 -85 -31.5
c-32.667 0 -59.334 12.5 -80.001 37.5s-31 57.5 -31 97.5c0 40.667 10.333 84.5 31 131.5s49.334 91.833 86.001 134.5c53.333 62 117.5 109.167 192.5 141.5s156.833 48.5 245.5 48.5c114.667 0 206.5 -29.833 275.5 -89.5s103.5 -138.834 103.5 -237.501
c0 -80.667 -25.667 -162.5 -77 -245.5s-123.333 -158.833 -216 -227.5l-47 -35c-294.667 -220 -481.667 -395.333 -561 -526c24.667 -2.66699 48.167 -4.5 70.5 -5.5s43.166 -1.5 62.499 -1.5c114.667 0 209.334 2.16699 284.001 6.5s122.667 10.5 144 18.5
c26 9.33301 57.667 33.833 95 73.5s65.666 59.5 84.999 59.5c13.333 0 23.166 -4 29.499 -12s9.5 -20.333 9.5 -37c0 -12 -12 -42.667 -36 -92c-5.33301 -10.667 -9 -18.334 -11 -23.001c-3.33301 -5.33301 -7.66602 -13.666 -12.999 -24.999
c-22.667 -46 -43.667 -76 -63 -90c-10.667 -6.66699 -26.167 -11.667 -46.5 -15s-49.166 -5 -86.499 -5z" />
    <glyph glyph-name="three" unicode="3" horiz-adv-x="1124" 
d="M651 797c108.667 -8.66699 192.166 -41.666 250.499 -98.999s87.5 -135.666 87.5 -234.999c0 -141.333 -55.5 -259 -166.5 -353s-252.167 -141 -423.5 -141c-133.333 0 -240 26.833 -320 80.5s-120 124.5 -120 212.5c0 42 10 75.667 30 101s46.333 38 79 38
c28 0 50 -8.16699 66 -24.5s24 -39.5 24 -69.5c0 -8 -1.33301 -20.167 -4 -36.5s-4 -28.833 -4 -37.5c0 -48 23.667 -86.5 71 -115.5s111 -43.5 191 -43.5c114.667 0 205.667 35.667 273 107s101 167.333 101 288c0 82 -26.167 146.5 -78.5 193.5
s-125.166 70.5 -218.499 70.5c-4 0 -16 -0.333008 -36 -1s-37.333 -1 -52 -1c-16.667 0 -30.667 4.5 -42 13.5s-17 20.167 -17 33.5c0 34.667 38.667 56 116 64c26.667 2.66699 48 5.33398 64 8.00098c110.667 15.333 195.667 51.833 255 109.5s89 132.5 89 224.5
c0 67.333 -19.667 119.666 -59 156.999s-94.666 56 -165.999 56c-65.333 0 -120.833 -15.333 -166.5 -46s-68.5 -66.667 -68.5 -108c0 -6.66699 0.666992 -15.334 2 -26.001s2 -18.334 2 -23.001c0 -32 -10.333 -57.833 -31 -77.5s-47.334 -29.5 -80.001 -29.5
c-33.333 0 -60.833 10.667 -82.5 32s-32.5 48.333 -32.5 81c0 74 49.333 143.333 148 208s212 97 340 97c120 0 215.167 -28 285.5 -84s105.5 -131.667 105.5 -227c0 -100 -35.833 -184.667 -107.5 -254s-173.167 -117 -304.5 -143z" />
    <glyph glyph-name="four" unicode="4" horiz-adv-x="1124" 
d="M635 512l139 823c-154 -134 -285.167 -269.167 -393.5 -405.5s-195.5 -275.5 -261.5 -417.5h516zM614 391l-583.001 0.00390625c-22 0 -38.833 4.5 -50.5 13.5s-17.5 21.5 -17.5 37.5c0 47.333 37.333 134 112 260s169 253 283 381s218.833 230.667 314.5 308
s163.834 116 204.501 116c20.667 0 37.667 -6.33301 51 -19s20 -28.667 20 -48c0 -10 -0.666992 -22.5 -2 -37.5s-3.33301 -31.167 -6 -48.5l-141 -842h178c30 0 49.5 -3.33301 58.5 -10s13.5 -19.667 13.5 -39c0 -30 -5.33301 -50.833 -16 -62.5s-30 -17.5 -58 -17.5h-6
c-30 1.33301 -62.667 2.66602 -98 3.99902l-93 4l-35 -201c-0.666992 -2.66699 -1.16699 -5.83398 -1.5 -9.50098s-0.5 -8.5 -0.5 -14.5c0 -13.333 1.83301 -25 5.5 -35s9.16699 -18 16.5 -24c6 -4.66699 20.667 -11.834 44 -21.501s35 -23.167 35 -40.5
c0 -13.333 -6.33301 -24.166 -19 -32.499s-29.667 -12.5 -51 -12.5h-313c-15.333 0 -27.333 3.66699 -36 11s-13 17.333 -13 30c0 22.667 21.667 41 65 55c8 2.66699 14.333 4.66699 19 6c32 11.333 54.167 26.166 66.5 44.499s22.833 54.166 31.5 107.499z" />
    <glyph glyph-name="five" unicode="5" horiz-adv-x="1124" 
d="M160 811l111.996 522c3.33301 15.333 7.66602 36.666 12.999 63.999c11.333 61.333 27 92 47 92c3.33301 0 13.333 -1 30 -3c66.667 -8.66699 129.667 -13 189 -13c80.667 0 166.834 5.33301 258.501 16s142.834 16 153.501 16c12 0 21.333 -3.16699 28 -9.5
s10 -15.5 10 -27.5c0 -44.667 -44.5 -83.834 -133.5 -117.501s-198.5 -50.5 -328.5 -50.5c-30 0 -58.333 1.5 -85 4.5s-52.334 7.16699 -77.001 12.5l-105 -502c52.667 43.333 107.5 75.666 164.5 96.999s116.833 32 179.5 32c117.333 0 209.166 -36.667 275.499 -110
s99.5 -174.666 99.5 -303.999c0 -164.667 -55.167 -299 -165.5 -403s-253.833 -156 -430.5 -156c-120.667 0 -216.667 23.167 -288 69.5s-107 107.833 -107 184.5c0 44 11.5 80 34.5 108s52.5 42 88.5 42c26.667 0 49 -8.33301 67 -25s27 -37 27 -61
c0 -12 -5.16699 -31.167 -15.5 -57.5s-15.5 -48.166 -15.5 -65.499c0 -30 16.833 -54.167 50.5 -72.5s78.5 -27.5 134.5 -27.5c132.667 0 237.834 43 315.501 129s116.5 202.667 116.5 350c0 91.333 -21 161.833 -63 211.5s-101.667 74.5 -179 74.5
c-47.333 0 -92.166 -8.66699 -134.499 -26s-84.166 -44.666 -125.499 -81.999c-6 -5.33301 -13.667 -13 -23 -23c-32 -32.667 -63.333 -49 -94 -49c-17.333 0 -29.166 2.66699 -35.499 8s-9.5 15 -9.5 29c0 8.66699 1.33301 21.167 4 37.5s8.33398 44.833 17.001 85.5z" />
    <glyph glyph-name="six" unicode="6" horiz-adv-x="1124" 
d="M844 545c0 85.333 -21.6689 151.999 -65.002 199.999s-103.666 72 -180.999 72c-109.333 0 -199.833 -42 -271.5 -126s-107.5 -190.667 -107.5 -320c0 -92.667 22 -165 66 -217s104.667 -78 182 -78c40.667 0 80.334 8.33301 119.001 25s74 40.334 106 71.001
c46.667 46 83.667 102.333 111 169s41 134.667 41 204zM263.998 765.999c43.333 55.333 96.335 96.501 159.002 123.501s136 40.5 220 40.5c118 0 211.667 -35.5 281 -106.5s104 -167.167 104 -288.5c0 -63.333 -11 -124.5 -33 -183.5s-54.667 -115.5 -98 -169.5
c-55.333 -68 -120.833 -120.167 -196.5 -156.5s-156.167 -54.5 -241.5 -54.5c-134 0 -239.167 42.5 -315.5 127.5s-114.5 202.5 -114.5 352.5c0 135.333 29.333 274 88 416s135.667 261.333 231 358c86 86 186.167 154.167 300.5 204.5s225.166 75.5 332.499 75.5
c28.667 0 48.5 -3.33301 59.5 -10s16.5 -18.334 16.5 -35.001c0 -25.333 -38.167 -44.5 -114.5 -57.5s-141.166 -30.5 -194.499 -52.5c-116.667 -48.667 -215.834 -122.167 -297.501 -220.5s-143.834 -219.5 -186.501 -363.5z" />
    <glyph glyph-name="seven" unicode="7" horiz-adv-x="1124" 
d="M954 1331h-471.001c-59.333 0 -101.666 -5 -126.999 -15s-43.666 -28 -54.999 -54c-3.33301 -8.66699 -8 -21.667 -14 -39c-18.667 -56 -44.667 -84 -78 -84c-11.333 0 -20.333 5.16699 -27 15.5s-10 24.166 -10 41.499c0 48.667 6.66699 99.834 20 153.501
s25.666 87.834 36.999 102.501c9.33301 12 20.333 20.5 33 25.5s34.667 7.5 66 7.5h34h682c30 0 50.167 -3.16699 60.5 -9.5s15.5 -17.5 15.5 -33.5c0 -16.667 -52.5 -122.334 -157.5 -317.001s-200.5 -382 -286.5 -562l-169 -367c-53.333 -120 -80.333 -180.667 -81 -182
c-8 -14 -21 -25 -39 -33s-39 -12 -63 -12c-48 0 -78.833 3.33301 -92.5 10s-20.5 19 -20.5 37c0 26.667 58.333 143.167 175 349.5z" />
    <glyph glyph-name="eight" unicode="8" horiz-adv-x="1124" 
d="M505 710c-123.333 -48 -219.167 -108 -287.5 -180s-102.5 -148.333 -102.5 -229c0 -70.667 27.333 -127.167 82 -169.5s128.334 -63.5 221.001 -63.5c123.333 0 219.666 29.667 288.999 89s104 141.333 104 246c0 90 -89.667 185.667 -269 287
c-16 9.33301 -28.333 16 -37 20zM617.999 854c108 48 188.999 101.668 242.999 161.001s81 124.333 81 195c0 61.333 -22.333 110.166 -67 146.499s-105 54.5 -181 54.5c-97.333 0 -177.333 -26 -240 -78s-94 -118 -94 -198c0 -52.667 17.833 -99 53.5 -139
s103.834 -87.333 204.501 -142zM407.998 774.001c-78 44.667 -134.167 91.1689 -168.5 139.502s-51.5 104.166 -51.5 167.499c0 120 50.167 221.333 150.5 304s225.833 124 376.5 124c116.667 0 211.334 -27.667 284.001 -83s109 -126 109 -212
c0 -87.333 -32.333 -165.333 -97 -234s-163.334 -130.334 -296.001 -185.001c97.333 -45.333 166 -95.666 206 -150.999s60 -125.333 60 -210c0 -132.667 -53.167 -243.334 -159.5 -332.001s-241.5 -133 -405.5 -133c-143.333 0 -253.333 27.5 -330 82.5
s-115 134.167 -115 237.5c0 98 35.333 186.333 106 265s181 152 331 220z" />
    <glyph glyph-name="nine" unicode="9" horiz-adv-x="1124" 
d="M258 932c0 -85.333 22.001 -152.164 66.001 -200.497s104.667 -72.5 182 -72.5c109.333 0 199.833 42 271.5 126s107.5 191 107.5 321c0 92 -22 164.167 -66 216.5s-104.667 78.5 -182 78.5c-40.667 0 -80.334 -8.33301 -119.001 -25s-74 -40.334 -106 -71.001
c-47.333 -46.667 -84.833 -103.334 -112.5 -170.001s-41.5 -134.334 -41.5 -203.001zM840.001 711.002c-45.333 -56 -99.335 -97.666 -162.002 -124.999s-135 -41 -217 -41c-117.333 0 -210.833 35.667 -280.5 107s-104.5 167.333 -104.5 288c0 63.333 11 124.833 33 184.5
s54.667 116.167 98 169.5c55.333 68 120.833 120.167 196.5 156.5s156.167 54.5 241.5 54.5c134 0 239.167 -42.5 315.5 -127.5s114.5 -202.167 114.5 -351.5c0 -156.667 -37.5 -314 -112.5 -472s-173.167 -286 -294.5 -384c-72 -58 -160.667 -105.667 -266 -143
s-202.333 -56 -291 -56c-20.667 0 -36.5 4 -47.5 12s-16.5 19 -16.5 33c0 26 33.667 44.667 101 56c46 7.33301 83.333 14.666 112 21.999c140.667 36.667 259.334 106.5 356.001 209.5s171.334 238.833 224.001 407.5z" />
    <glyph glyph-name="colon" unicode=":" horiz-adv-x="561" 
d="M215 842c0 38 10.668 70 32.001 96s47.666 39 78.999 39c24.667 0 46.5 -9 65.5 -27s28.5 -39 28.5 -63c0 -41.333 -10.5 -75.333 -31.5 -102s-47.5 -40 -79.5 -40c-26.667 0 -49 9.16699 -67 27.5s-27 41.5 -27 69.5zM92.001 63c0 38.667 10.668 71 32.001 97
s47.666 39 78.999 39c25.333 0 47.333 -9.16699 66 -27.5s28 -39.166 28 -62.499c0 -42 -10.5 -76.167 -31.5 -102.5s-47.5 -39.5 -79.5 -39.5c-26.667 0 -49 9.16699 -67 27.5s-27 41.166 -27 68.499z" />
    <glyph glyph-name="semicolon" unicode=";" horiz-adv-x="561" 
d="M72 53c0 37.333 12.665 67.499 37.998 90.499s59 34.5 101 34.5c30.667 0 55.334 -11.333 74.001 -34s28 -53 28 -91c0 -47.333 -9.66699 -96.833 -29 -148.5s-45.666 -98.5 -78.999 -140.5c-28 -34.667 -59 -63.667 -93 -87s-59 -35 -75 -35
c-7.33301 0 -13.166 2.66699 -17.499 8s-6.83301 12.666 -7.5 21.999c0 10 13.5 24.333 40.5 43s47.833 35 62.5 49c25.333 26 46.333 55.333 63 88s25 61 25 85c0 22.667 -12.333 34.667 -37 36c-10.667 0.666992 -19.334 1.33398 -26.001 2.00098
c-21.333 4 -38 12.833 -50 26.5s-18 30.834 -18 51.501zM214.998 841.999c0 38 10.668 70 32.001 96s47.666 39 78.999 39c24.667 0 46.5 -9 65.5 -27s28.5 -39 28.5 -63c0 -41.333 -10.5 -75.333 -31.5 -102s-47.5 -40 -79.5 -40c-26.667 0 -49 9.16699 -67 27.5
s-27 41.5 -27 69.5z" />
    <glyph glyph-name="less" unicode="&#x3c;" horiz-adv-x="1706" 
d="M1442 1145v-127l-1000 -408l1000 -405v-129l-1178 483v103z" />
    <glyph glyph-name="equal" unicode="=" horiz-adv-x="1706" 
d="M254 477h1198v-117h-1198v117zM254 860h1198v-117h-1198v117z" />
    <glyph glyph-name="greater" unicode="&#x3e;" horiz-adv-x="1706" 
d="M264 1145l1178 -483v-103l-1178 -483v129l1000 405l-1000 408v127z" />
    <glyph glyph-name="question" unicode="?" horiz-adv-x="1014" 
d="M182 63c0 38.667 10.668 71 32.001 97s47.666 39 78.999 39c25.333 0 47.333 -9.16699 66 -27.5s28 -39.166 28 -62.499c0 -42 -10.5 -76.167 -31.5 -102.5s-47.5 -39.5 -79.5 -39.5c-26.667 0 -49 9.16699 -67 27.5s-27 41.166 -27 68.499zM272.001 473l35.001 197.001
c7.33301 42 32 70 74 84c20.667 6.66699 37.667 12.667 51 18c120 52.667 210.833 115.334 272.5 188.001s92.5 153.334 92.5 242.001c0 68 -19.833 121.5 -59.5 160.5s-93.834 58.5 -162.501 58.5c-60.667 0 -112.667 -12.833 -156 -38.5s-65.666 -53.834 -66.999 -84.501
c-1.33301 -55.333 -9.5 -94 -24.5 -116s-39.5 -33 -73.5 -33c-29.333 0 -51.333 6.83301 -66 20.5s-22 34.167 -22 61.5c0 72 41.667 137 125 195s182.333 87 297 87c115.333 0 206.333 -30.167 273 -90.5s100 -142.5 100 -246.5c0 -78.667 -20.667 -151 -62 -217
s-104.666 -128.333 -189.999 -187c-50.667 -34.667 -108.334 -65.834 -173.001 -93.501s-100 -43.5 -106 -47.5c-14.667 -10.667 -26.334 -39.334 -35.001 -86.001l-8 -41l-6 -29c-14.667 -72 -38 -108 -70 -108c-14 0 -25 4 -33 12s-12 19.667 -12 35c0 6 0.5 14 1.5 24
s2.5 21.667 4.5 35z" />
    <glyph glyph-name="at" unicode="@" horiz-adv-x="2019" 
d="M1190 336c-41.333 -70.667 -87.667 -123.501 -139 -158.501s-108 -52.5 -170 -52.5c-83.333 0 -150.333 30.667 -201 92s-76 142.666 -76 243.999c0 72 16.333 144 49 216s78.667 136.333 138 193c43.333 42.667 91.333 76 144 100s104.334 36 155.001 36
c58 0 105.667 -16.5 143 -49.5s63.333 -81.5 78 -145.5l53 180h143l-170 -610c0 -1.33301 -0.333008 -3 -1 -5c-11.333 -39.333 -17 -74 -17 -104c0 -31.333 8.5 -56.166 25.5 -74.499s39.833 -27.5 68.5 -27.5c22.667 0 49 5.83301 79 17.5s58.333 27.834 85 48.501
c81.333 60 143.666 137 186.999 231s65 199 65 315c0 93.333 -16.667 177.333 -50 252s-84.333 142.334 -153 203.001c-60 52.667 -132 93.5 -216 122.5s-173 43.5 -267 43.5c-124.667 0 -238.5 -19.5 -341.5 -58.5s-194.833 -97.5 -275.5 -175.5
c-86.667 -84 -152.334 -181.833 -197.001 -293.5s-67 -234.834 -67 -369.501c0 -116.667 19 -218.167 57 -304.5s98.333 -164.5 181 -234.5c76 -64.667 163 -113.5 261 -146.5s204.667 -49.5 320 -49.5c108.667 0 214.5 17.333 317.5 52s201.5 86 295.5 154l30 -36
c-98.667 -73.333 -203 -128.666 -313 -165.999s-224 -56 -342 -56c-124.667 0 -238.667 15.5 -342 46.5s-194.666 77.167 -273.999 138.5c-100.667 75.333 -177.167 166.833 -229.5 274.5s-78.5 227.167 -78.5 358.5c0 136 28.667 263 86 381s140.666 222.333 249.999 313
c87.333 73.333 184.333 128.5 291 165.5s221.334 55.5 344.001 55.5c231.333 0 415.833 -62.333 553.5 -187s206.5 -291 206.5 -499c0 -104.667 -19.333 -203.667 -58 -297s-93 -172 -163 -236c-38 -34.667 -79.167 -61.334 -123.5 -80.001s-89.166 -28 -134.499 -28
c-64.667 0 -114.334 17.5 -149.001 52.5s-54 87.833 -58 158.5zM1098 964.999c-36 0 -68.999 -10.332 -98.999 -30.999s-60.667 -54 -92 -100c-48 -72 -86.167 -150 -114.5 -234s-42.5 -159 -42.5 -225c0 -62 13.5 -111 40.5 -147s63.167 -54 108.5 -54
c44 0 86 14.833 126 44.5s78.667 74.167 116 133.5c38 62.667 68.333 130.167 91 202.5s34 138.166 34 197.499c0 62 -15.833 113 -47.5 153s-71.834 60 -120.501 60z" />
    <glyph glyph-name="A" unicode="A" horiz-adv-x="1341" 
d="M360 623h564c-21.333 99.333 -47 202.166 -77 308.499s-65.333 218.5 -106 336.5c-68.667 -95.333 -134 -195.666 -196 -300.999s-123.667 -220 -185 -344zM-72 0c-14.667 0 -26.167 3.83691 -34.5 11.5039s-12.5 18.167 -12.5 31.5c0 18 14.5 34.333 43.5 49
s48.833 28.667 59.5 42c8.66699 10 27.834 51.667 57.501 125s58.167 138.666 85.5 195.999c61.333 126.667 129.666 255.167 204.999 385.5s157.333 261.166 246 392.499l29 43c110.667 164 176.667 246 198 246c20.667 0 55 -69.667 103 -209l20 -58
c36 -100 70.333 -209.5 103 -328.5s63 -244.167 91 -375.5c18 -83.333 33.667 -169.833 47 -259.5s21 -138.5 23 -146.5c4 -15.333 18.333 -30.833 43 -46.5s37 -31.5 37 -47.5c0 -18.667 -6.66699 -31.834 -20 -39.501s-36 -11.5 -68 -11.5h-256
c-15.333 0 -27 3.83301 -35 11.5s-12 18.167 -12 31.5c0 19.333 16.667 36.666 50 51.999l12 6h1c36.667 16.667 55 41 55 73c0 24.667 -4.83301 67.167 -14.5 127.5s-23.167 128.5 -40.5 204.5h-643c-44.667 -89.333 -80 -165.833 -106 -229.5s-39 -105.167 -39 -124.5
c0 -20 14.667 -38.833 44 -56.5s44 -35.167 44 -52.5c0 -12.667 -5 -23 -15 -31s-23 -12 -39 -12h-262z" />
    <glyph glyph-name="B" unicode="B" horiz-adv-x="1341" 
d="M369 764c225.333 33.333 397.001 86 515.001 158s177 160 177 264c0 65.333 -25 112 -75 140s-135.667 42 -257 42h-43c-58.667 0 -101 -1.83301 -127 -5.5s-47 -10.167 -63 -19.5c-15.333 -8.66699 -27.333 -22.667 -36 -42s-17.334 -58.333 -26.001 -117zM352.001 665
l-66.999 -408c-2 -16 -3.5 -29 -4.5 -39s-1.5 -17.667 -1.5 -23c0 -32.667 15.333 -55.667 46 -69s89.667 -20 177 -20c170.667 0 302.334 29.833 395.001 89.5s139 144.167 139 253.5c0 71.333 -27.833 134.166 -83.5 188.499s-130.834 91.166 -225.501 110.499
c-76 -23.333 -144.833 -41.666 -206.5 -54.999s-117.834 -22.666 -168.501 -27.999zM12.002 0c-14.667 0 -25.8291 3.66699 -33.4961 11s-11.5 18 -11.5 32c0 20 17.667 37.667 53 53c18.667 8 32.667 15 42 21c11.333 7.33301 20.166 19.166 26.499 35.499
s13.166 46.833 20.499 91.5l159 989c2.66699 16 4.66699 30.833 6 44.5s2 25.5 2 35.5c0 26 -11.667 46 -35 60c-7.33301 4.66699 -13.333 8.33398 -18 11.001v1c-24.667 17.333 -37 34.333 -37 51c0 12.667 5 23 15 31s23 12 39 12h573c155.333 0 267.166 -22 335.499 -66
s102.5 -115 102.5 -213c0 -90.667 -34.333 -170.167 -103 -238.5s-167.334 -120.5 -296.001 -156.5c122.667 -17.333 217.167 -57 283.5 -119s99.5 -141 99.5 -237c0 -132 -52.667 -239.833 -158 -323.5s-243 -125.5 -413 -125.5h-652z" />
    <glyph glyph-name="C" unicode="C" horiz-adv-x="1464" 
d="M1401 1110c-4 -33.333 -10.1689 -54.668 -18.502 -64.001s-22.166 -14 -41.499 -14c-24.667 0 -43.334 25.667 -56.001 77c-6.66699 28.667 -13 51.334 -19 68.001c-27.333 72.667 -71.166 128.5 -131.499 167.5s-133.5 58.5 -219.5 58.5
c-80.667 0 -156.167 -17.5 -226.5 -52.5s-133.166 -86.5 -188.499 -154.5c-66.667 -80.667 -118.5 -174.5 -155.5 -281.5s-55.5 -215.833 -55.5 -326.5c0 -154 39.667 -277.167 119 -369.5s185 -138.5 317 -138.5c73.333 0 145.333 14.167 216 42.5s136.667 69.5 198 123.5
c16 14.667 36.333 35.334 61 62.001c36.667 40.667 66 61 88 61c14.667 0 27.5 -6.83301 38.5 -20.5s16.5 -29.5 16.5 -47.5c0 -13.333 -7.33301 -30.333 -22 -51s-36.667 -44.667 -66 -72c-78 -72 -163.167 -126.833 -255.5 -164.5s-187.833 -56.5 -286.5 -56.5
c-189.333 0 -342.833 58.167 -460.5 174.5s-176.5 268.5 -176.5 456.5c0 108 18.333 214.667 55 320s88 198.666 154 279.999c85.333 106 183.833 186.333 295.5 241s232.834 82 363.501 82c121.333 0 231.166 -24.5 329.499 -73.5s147.5 -98.167 147.5 -147.5v-4z" />
    <glyph glyph-name="D" unicode="D" horiz-adv-x="1464" 
d="M434 1229l-145.001 -893.001c-4 -24 -7 -46.5 -9 -67.5s-3.33301 -37.5 -4 -49.5c0 -43.333 12.333 -73.333 37 -90s71.334 -25 140.001 -25c118 0 219.833 16 305.5 48s161.167 82.333 226.5 151c69.333 72.667 122.5 157.5 159.5 254.5s55.5 200.5 55.5 310.5
c0 172 -45.167 300.667 -135.5 386s-226.833 128 -409.5 128c-80 0 -134.333 -10.167 -163 -30.5s-48 -61.166 -58 -122.499zM-2.00098 -0.000976562c-14.667 0 -25.834 3.66797 -33.501 11.001s-11.5 18 -11.5 32c0 20 17.333 37.667 52 53c18.667 8 32.667 15 42 21
c11.333 7.33301 20.333 19.166 27 35.499s13.334 46.833 20.001 91.5l160 989c2.66699 16 4.66699 30.833 6 44.5s2 25.5 2 35.5c0 26 -11.667 46 -35 60c-8 4.66699 -14 8.33398 -18 11.001c0 0.666992 -0.333008 1 -1 1c-24 17.333 -36 34.333 -36 51
c0 12.667 4.83301 23 14.5 31s22.5 12 38.5 12h422c116.667 0 202.5 -4.83301 257.5 -14.5s105.833 -25.5 152.5 -47.5c106.667 -49.333 189.334 -123 248.001 -221s88 -212 88 -342c0 -144 -31.833 -279.333 -95.5 -406s-150.834 -229 -261.501 -307
c-70 -48.667 -148.833 -84.334 -236.5 -107.001s-192.5 -34 -314.5 -34h-487z" />
    <glyph glyph-name="E" unicode="E" horiz-adv-x="1280" 
d="M-2 0c-15.333 0 -26.9971 3.83789 -34.9971 11.5049s-12 18.167 -12 31.5c0 19.333 17.667 36.666 53 51.999c19.333 8.66699 33.666 16 42.999 22c11.333 7.33301 20.333 19.166 27 35.499s13.334 46.833 20.001 91.5l160 989c2.66699 16 4.66699 30.833 6 44.5
s2 25.5 2 35.5c0 26 -11.667 46 -35 60c-8 4.66699 -14 8.33398 -18 11.001c-0.666992 0.666992 -2.33398 2 -5.00098 4c-22.667 16.667 -34 32.667 -34 48c0 12.667 4.83301 23 14.5 31s22.5 12 38.5 12h963c28 0 45.5 -3.5 52.5 -10.5s10.5 -19.833 10.5 -38.5
c0 -92.667 -3 -149.334 -9 -170.001s-17.333 -31 -34 -31s-33.834 12.667 -51.501 38s-31.834 42.666 -42.501 51.999c-23.333 20 -62.166 34.5 -116.499 43.5s-134.166 13.5 -239.499 13.5c-80 0 -137.5 -2 -172.5 -6s-62.833 -10.667 -83.5 -20
c-35.333 -16.667 -60.666 -71.334 -75.999 -164.001v-2l-51 -320h422c34.667 0 59 0.833008 73 2.5s26 4.5 36 8.5c4.66699 2 17.5 12 38.5 30s40.5 27 58.5 27c12 0 20.833 -3.16699 26.5 -9.5s8.5 -15.5 8.5 -27.5c0 -4 -0.166992 -7.33301 -0.5 -10s-0.833008 -5 -1.5 -7
l-24 -157c-2.66699 -13.333 -8.33398 -23.5 -17.001 -30.5s-20.334 -10.5 -35.001 -10.5c-14 0 -29.833 8 -47.5 24s-29.5 25.667 -35.5 29c-10 6 -28.167 10.667 -54.5 14s-58.833 5 -97.5 5h-369l-80 -501c-2 -14.667 -3.83301 -28.834 -5.5 -42.501
s-2.5 -24.5 -2.5 -32.5c0 -28.667 11.833 -48.167 35.5 -58.5s78.834 -15.5 165.501 -15.5h125c107.333 0 187 4.33301 239 13s96.667 23 134 43c23.333 12 52.833 33.667 88.5 65s63.5 47 83.5 47c8 0 15 -3 21 -9s9 -13 9 -21c0 -8.66699 -0.833008 -17 -2.5 -25
s-4.16699 -16.333 -7.5 -25l-49 -135c-8.66699 -21.333 -18.334 -35.833 -29.001 -43.5s-32.334 -11.5 -65.001 -11.5h-1016z" />
    <glyph glyph-name="F" unicode="F" horiz-adv-x="1171" 
d="M285 246c-2.66699 -16 -4.8291 -30.832 -6.49609 -44.499s-2.5 -24.834 -2.5 -33.501c0 -26.667 12.667 -47.667 38 -63l16 -11v0c24.667 -18 37 -35 37 -51c0 -12.667 -5 -23 -15 -31s-23 -12 -39 -12h-307c-14.667 -0 -26.167 3.83301 -34.5 11.5
s-12.5 18.167 -12.5 31.5c0 19.333 17.667 36.666 53 51.999c19.333 8.66699 34 16 44 22c10.667 7.33301 19.334 19.166 26.001 35.499s13.334 46.833 20.001 91.5l160 989c2.66699 16 4.66699 30.833 6 44.5s2 25.5 2 35.5c0 26 -11.667 46 -35 60
c-7.33301 4.66699 -13.333 8.33398 -18 11.001c-1.33301 1.33301 -2.66602 2.33301 -3.99902 3c-23.333 17.333 -35 33.666 -35 48.999c0 12.667 5 23 15 31s22.667 12 38 12h875c33.333 0 58.5 -1.66699 75.5 -5s28.5 -8.33301 34.5 -15
c5.33301 -6 9.16602 -18.167 11.499 -36.5s3.5 -50.166 3.5 -95.499v-61c0 -16.667 -3.16699 -29 -9.5 -37s-15.5 -12 -27.5 -12c-19.333 0 -43.333 15 -72 45c-18.667 20.667 -34.334 35.667 -47.001 45c-27.333 20 -76.333 35.167 -147 45.5s-160.334 15.5 -269.001 15.5
c-46.667 0 -81.334 -1.5 -104.001 -4.5s-41.667 -8.16699 -57 -15.5c-26 -12.667 -45.333 -58 -58 -136c-1.33301 -10 -2.66602 -18.333 -3.99902 -25l-61 -382h98c97.333 0 175 1.5 233 4.5s104.333 7.5 139 13.5c19.333 3.33301 43.166 10.333 71.499 21
s47.166 16 56.499 16c15.333 0 26.666 -4.16699 33.999 -12.5s11 -21.166 11 -38.499c0 -60 -6.5 -106.833 -19.5 -140.5s-31.167 -50.5 -54.5 -50.5c-9.33301 0 -29.333 10 -60 30s-58.334 32 -83.001 36c-30.667 4.66699 -118 7 -262 7c-76 0.666992 -137 1 -183 1z" />
    <glyph glyph-name="G" unicode="G" horiz-adv-x="1579" 
d="M70 604c0 128 27.998 253.5 83.998 376.5s134.333 229.5 235 319.5c75.333 68.667 160.5 120.667 255.5 156s196.167 53 303.5 53c78.667 0 155.667 -10.333 231 -31s152.666 -52.667 231.999 -96c32 -17.333 53.667 -33.833 65 -49.5s17 -35.834 17 -60.501
c0 -77.333 -6.33301 -135.333 -19 -174s-31.667 -58 -57 -58c-31.333 0 -55 31.333 -71 94l-9 32c-20.667 70.667 -64.167 126.5 -130.5 167.5s-146.833 61.5 -241.5 61.5c-84 0 -163.333 -15.667 -238 -47s-141.667 -77.333 -201 -138
c-75.333 -76.667 -134.666 -170 -177.999 -280s-65 -222.667 -65 -338c0 -157.333 44.833 -283 134.5 -377s209.834 -141 360.501 -141c82.667 0 163.334 13.333 242.001 40s134 57.667 166 93c10 12 19.5 30 28.5 54s17.833 53.667 26.5 89
c10.667 46 18.167 82.333 22.5 109s6.5 47.667 6.5 63c0 33.333 -8.33301 56.833 -25 70.5s-47 21.5 -91 23.5c-14 0.666992 -33.333 1.33398 -58 2.00098c-94.667 3.33301 -142 21.333 -142 54c0 24.667 6.16699 42.667 18.5 54s31.5 17 57.5 17
c2.66699 0 37.667 -2.33301 105 -7s133.333 -7 198 -7c15.333 0 32.333 0.333008 51 1s29.667 1 33 1c26 0 45.167 -3.16699 57.5 -9.5s18.5 -16.166 18.5 -29.499c0 -2.66699 -2.66699 -16.334 -8 -41.001c-29.333 -134 -55.333 -278 -78 -432
c-4 -30.667 -9.5 -51.5 -16.5 -62.5s-17.833 -20.833 -32.5 -29.5c-96.667 -56.667 -195.667 -99.167 -297 -127.5s-204.333 -42.5 -309 -42.5c-215.333 0 -382.833 56.833 -502.5 170.5s-179.5 272.5 -179.5 476.5z" />
    <glyph glyph-name="H" unicode="H" horiz-adv-x="1569" 
d="M367 750l-81.9951 -504c-2.66699 -16.667 -4.83398 -31.5 -6.50098 -44.5s-2.5 -24.167 -2.5 -33.5c0 -26.667 12.667 -47.667 38 -63l16 -11c0.666992 -0.666992 2 -1.66699 4 -3c23.333 -16.667 35 -32.667 35 -48c0 -12.667 -5 -23 -15 -31s-23 -12 -39 -12h-307
c-14.667 0 -25.834 3.66699 -33.501 11s-11.5 18 -11.5 32c0 20 17.667 37.667 53 53c18 8 32 15 42 21c10.667 7.33301 19.334 19.166 26.001 35.499s13.334 46.833 20.001 91.5l160 989c2.66699 16 4.66699 30.833 6 44.5s2 25.5 2 35.5c0 26 -11.667 46 -35 60
c-7.33301 4.66699 -13.333 8.33398 -18 11.001v1c-24.667 17.333 -37 34.333 -37 51c0 12.667 5 23 15 31s23 12 39 12h290c22 0 38.167 -3.33301 48.5 -10s15.5 -17 15.5 -31c0 -21.333 -18.333 -40 -55 -56c-18 -7.33301 -31.667 -14 -41 -20
c-12.667 -7.33301 -22.334 -19.166 -29.001 -35.499s-13.667 -46.833 -21 -91.5l-59 -373h850l59 371c2.66699 15.333 4.83398 29.666 6.50098 42.999s2.5 25.666 2.5 36.999c0 26 -12 46 -36 60c-7.33301 4.66699 -13.333 8.33398 -18 11.001v1
c-24.667 17.333 -37 34.333 -37 51c0 12.667 5 23 15 31s23 12 39 12h290c22 0 38.167 -3.33301 48.5 -10s15.5 -17 15.5 -31c0 -21.333 -18.333 -40 -55 -56c-18 -7.33301 -31.667 -14 -41 -20c-12.667 -7.33301 -22.334 -19.166 -29.001 -35.499
s-13.334 -46.833 -20.001 -91.5l-160 -989c-2.66699 -16.667 -4.66699 -31.5 -6 -44.5s-2 -24.167 -2 -33.5c0 -26.667 12.333 -47.667 37 -63l16 -11c0.666992 -0.666992 1.66699 -1.33398 3 -2.00098c24 -17.333 36 -33.666 36 -48.999c0 -12.667 -5 -23 -15 -31
s-22.667 -12 -38 -12h-308c-14.667 0 -25.834 3.66699 -33.501 11s-11.5 18 -11.5 32c0 20 17.667 37.667 53 53c18.667 8 32.667 15 42 21c11.333 7.33301 20.166 19.166 26.499 35.499s13.166 46.833 20.499 91.5l82 506h-850z" />
    <glyph glyph-name="I" unicode="I" horiz-adv-x="563" 
d="M299 246c-2.66699 -16 -4.66699 -31.333 -6 -46s-2 -26 -2 -34c0 -27.333 12.333 -47.666 37 -60.999c8 -4 14.667 -7.66699 20 -11c14 -8 24 -16 30 -24s9 -17 9 -27c0 -12.667 -4.83301 -23 -14.5 -31s-22.5 -12 -38.5 -12h-334c-14.667 0 -26.167 3.83301 -34.5 11.5
s-12.5 18.167 -12.5 31.5c0 22 23 41.667 69 59c20 7.33301 35.333 13.666 46 18.999c17.333 8 32 47.333 44 118l1 5l159 989c2.66699 16.667 4.83398 32 6.50098 46s2.5 25.333 2.5 34c0 26.667 -12.667 46 -38 58l-26 13c-13.333 8 -22.833 16 -28.5 24
s-8.5 17.333 -8.5 28c0 12.667 5 23 15 31s22.667 12 38 12h340c15.333 0 26.666 -3.5 33.999 -10.5s11 -17.167 11 -30.5c0 -23.333 -24 -44.333 -72 -63l-42 -17c-17.333 -8 -32 -47.667 -44 -119l-1 -4z" />
    <glyph glyph-name="J" unicode="J" horiz-adv-x="948" 
d="M973 1479c15.333 0 27.002 -3.49707 35.002 -10.4971s12 -17.167 12 -30.5c0 -22 -21 -41.667 -63 -59c-18.667 -7.33301 -33 -13.666 -43 -18.999c-12 -6 -21.333 -17.833 -28 -35.5s-13.334 -47.834 -20.001 -90.501l-127 -816c-15.333 -99.333 -33.333 -172 -54 -218
s-49 -85.333 -85 -118c-44 -40 -96.667 -70.833 -158 -92.5s-126 -32.5 -194 -32.5c-102.667 0 -184.334 25.167 -245.001 75.5s-91 117.166 -91 200.499c0 80 27.333 151.333 82 214s114.667 94 180 94c26.667 0 47.667 -6.66699 63 -20s23 -31.333 23 -54
c0 -21.333 -5.66699 -38.833 -17 -52.5s-30.333 -25.5 -57 -35.5c-4.66699 -2 -11.667 -4.66699 -21 -8c-77.333 -26.667 -116 -74.667 -116 -144c0 -45.333 18.333 -82.833 55 -112.5s83.334 -44.5 140.001 -44.5c92 0 161.667 27.667 209 83
s82.666 156.666 105.999 303.999l123 776c2.66699 16 4.66699 30.833 6 44.5s2 25.5 2 35.5c0 27.333 -12.667 46.666 -38 57.999c-12.667 4.66699 -22.334 9 -29.001 13c-13.333 8 -23.166 16.167 -29.499 24.5s-9.5 17.5 -9.5 27.5c0 12.667 4.83301 23 14.5 31
s22.5 12 38.5 12h336z" />
    <glyph glyph-name="K" unicode="K" horiz-adv-x="1401" 
d="M365 680c242.667 195.333 418.995 344.165 528.995 446.498s165 168.5 165 198.5c0 18 -14 36.667 -42 56s-42 37.666 -42 54.999c0 15.333 4.83301 26.333 14.5 33s27.167 10 52.5 10h336c24.667 0 41.834 -3.16699 51.501 -9.5s14.5 -16.833 14.5 -31.5
c0 -18 -25.167 -40.333 -75.5 -67s-92.166 -55 -125.499 -85c-4 -3.33301 -59 -55.333 -165 -156s-208 -190.667 -306 -270c132.667 -158 254.334 -354 365.001 -588c14.667 -31.333 25.667 -54 33 -68c0.666992 -1.33301 1.66699 -3.66602 3 -6.99902
c24 -47.333 49.333 -77.666 76 -90.999c19.333 -9.33301 32 -18 38 -26s9 -18.333 9 -31c0 -15.333 -6.66699 -27.333 -20 -36s-31.666 -13 -54.999 -13h-256c-32.667 0 -54.167 3 -64.5 9s-15.5 17.333 -15.5 34c0 18.667 15.667 36.334 47 53.001l23 13
c12 6.66699 19.667 12.5 23 17.5s5 11.167 5 18.5c0 38 -31.5 115.833 -94.5 233.5s-143.5 242.834 -241.5 375.501c-38.667 -34 -83.167 -70.833 -133.5 -110.5l-175.5 -133.5l-43 -264c-2.66699 -16.667 -4.66699 -31.5 -6 -44.5s-2 -24.167 -2 -33.5
c0 -26.667 12.333 -47.667 37 -63l16 -11v0c24.667 -18 37 -35 37 -51c0 -12.667 -5 -23 -15 -31s-22.667 -12 -38 -12h-306c-14.667 0 -26.167 3.83301 -34.5 11.5s-12.5 18.167 -12.5 31.5c0 20 17.667 37.667 53 53c18.667 8 32.667 15 42 21
c12 7.33301 21.5 19.833 28.5 37.5s13.833 47.5 20.5 89.5l159 988c2.66699 13.333 4.5 26.166 5.5 38.499s1.5 26.5 1.5 42.5c0 26.667 -11.667 47 -35 61c-7.33301 4 -13 7.33301 -17 10l-3 3c-24 17.333 -36 33.666 -36 48.999c0 12.667 5 23 15 31s23 12 39 12h307
c14.667 0 25.834 -3.5 33.501 -10.5s11.5 -17.167 11.5 -30.5c0 -20 -18 -38.333 -54 -55c-17.333 -8 -30.666 -15 -39.999 -21c-11.333 -7.33301 -20.333 -19.166 -27 -35.499s-13.334 -46.833 -20.001 -91.5z" />
    <glyph glyph-name="L" unicode="L" horiz-adv-x="1241" 
d="M18 0c-14.667 0 -25.8359 3.66699 -33.5029 11s-11.5 18 -11.5 32c0 20 17.667 37.667 53 53c18.667 8 32.667 15 42 21c11.333 7.33301 20.333 19.166 27 35.499s13.334 46.833 20.001 91.5l159 989c2.66699 16 4.83398 30.833 6.50098 44.5s2.5 25.5 2.5 35.5
c0 26 -12 46 -36 60c-7.33301 4.66699 -13.333 8.33398 -18 11.001v1c-24 17.333 -36 34.333 -36 51c0 12.667 4.83301 23 14.5 31s22.5 12 38.5 12h305c15.333 0 27 -3.5 35 -10.5s12 -17.167 12 -30.5c0 -20 -18 -38.333 -54 -55c-17.333 -8 -30.666 -15 -39.999 -21
c-12 -8 -21.667 -20.833 -29 -38.5s-14 -47.167 -20 -88.5l-142 -897c-4.66699 -32 -8.5 -60.5 -11.5 -85.5s-4.5 -43.5 -4.5 -55.5c0 -35.333 13.167 -59.666 39.5 -72.999s83.5 -20 171.5 -20c114.667 0 202.834 4.5 264.501 13.5s115.5 23.833 161.5 44.5
c34 15.333 69.333 35.5 106 60.5s59.334 37.5 68.001 37.5c10 0 18 -3.33301 24 -10s9 -16.334 9 -29.001c0 -9.33301 -2.83301 -22.833 -8.5 -40.5s-15.834 -44.5 -30.501 -80.5c-9.33301 -23.333 -17 -41 -23 -53s-11.333 -20 -16 -24
c-8.66699 -8.66699 -21.834 -14.667 -39.501 -18s-49.5 -5 -95.5 -5h-910z" />
    <glyph glyph-name="M" unicode="M" horiz-adv-x="1774" 
d="M272 246c-2.66699 -16.667 -4.66895 -31.502 -6.00195 -44.502s-2 -24.167 -2 -33.5c0 -26.667 12.333 -47.667 37 -63c7.33301 -4.66699 12.666 -8.33398 15.999 -11.001h1c24 -18 36 -35 36 -51c0 -12.667 -4.83301 -23 -14.5 -31s-22.5 -12 -38.5 -12h-289
c-16 0 -28.833 3.83301 -38.5 11.5s-14.5 18.167 -14.5 31.5c0 20.667 19.667 38.334 59 53.001c21.333 8 37.333 15 48 21c12 6.66699 21.667 17.834 29 33.501s15.333 46.834 24 93.501l176 989c2.66699 14.667 4.66699 28.667 6 42s2 26 2 38
c0 18 -3.16699 31.167 -9.5 39.5s-24.166 17.5 -53.499 27.5c-26 8.66699 -44.167 17.334 -54.5 26.001s-15.5 19.334 -15.5 32.001c0 12 4.83301 21.833 14.5 29.5s22.5 11.5 38.5 11.5h275c30.667 0 51.167 -4.33301 61.5 -13s19.166 -27 26.499 -55l36 -138
c74.667 -294 149.334 -561.333 224.001 -802l245 376l32 50c126.667 195.333 235.667 374.333 327 537c10 18 19.333 30 28 36s23.334 9 44.001 9h282c15.333 0 26.666 -3.5 33.999 -10.5s11 -17.167 11 -30.5c0 -24 -23 -43 -69 -57l-33 -11
c-39.333 -12.667 -63.666 -51 -72.999 -115c-1.33301 -8.66699 -2.33301 -15.667 -3 -21l-162 -989c-2 -12.667 -3.5 -24.834 -4.5 -36.501s-1.5 -25.167 -1.5 -40.5c0 -27.333 12 -48.666 36 -63.999c6.66699 -4 11.667 -7.33301 15 -10c1.33301 -0.666992 3 -1.66699 5 -3
c22.667 -16.667 34 -32.667 34 -48c0 -12.667 -4.83301 -23 -14.5 -31s-22.5 -12 -38.5 -12h-305c-15.333 0 -27 3.83301 -35 11.5s-12 18.167 -12 31.5c0 20 17.333 37.667 52 53c18.667 8 32.667 15 42 21c11.333 7.33301 20.333 19.166 27 35.499
s13.334 46.833 20.001 91.5l168 1028l-659 -1045c-10 -14.667 -18.333 -24.834 -25 -30.501s-12.667 -8.5 -18 -8.5c-40.667 0 -124 232.333 -250 697l-107 391z" />
    <glyph glyph-name="N" unicode="N" horiz-adv-x="1464" 
d="M107 351l123.999 731.997c8.66699 45.333 15 83.833 19 115.5s6 56.834 6 75.501c0 26.667 -5.5 47.334 -16.5 62.001s-31.5 28 -61.5 40c-26 10.667 -43 20.167 -51 28.5s-12 18.833 -12 31.5s4.83301 23 14.5 31s22.5 12 38.5 12h250c42.667 0 131 -102 265 -306
s283 -468 447 -792l125 851l5 32c2.66699 19.333 4 31.333 4 36c0 33.333 -15 58.333 -45 75c-7.33301 4 -12.666 7 -15.999 9c-16 10.667 -26.5 19.5 -31.5 26.5s-7.83301 15.5 -8.5 25.5c0 12.667 5 23 15 31s23 12 39 12h272c15.333 0 27 -3.5 35 -10.5
s12 -17.167 12 -30.5c0 -20.667 -18 -39 -54 -55c-16.667 -7.33301 -29.334 -13.666 -38.001 -18.999c-17.333 -10.667 -30.5 -25 -39.5 -43s-16.5 -46.667 -22.5 -86l-178 -1153c-5.33301 -38 -11.5 -62.167 -18.5 -72.5s-17.167 -15.5 -30.5 -15.5
c-36.667 0 -74 46.667 -112 140c-13.333 34 -24.333 61 -33 81c-87.333 196.667 -183.666 383.5 -288.999 560.5s-218 341.833 -338 494.5l-143 -901c-10.667 -61.333 -17.5 -105 -20.5 -131s-4.5 -47.333 -4.5 -64c0 -18 5.16699 -32.833 15.5 -44.5
s27.166 -21.5 50.499 -29.5c20.667 -6.66699 35.334 -14.5 44.001 -23.5s13 -20.167 13 -33.5c0 -12.667 -5 -23 -15 -31s-22.667 -12 -38 -12h-330c-15.333 -0 -27 3.83301 -35 11.5s-12 18.167 -12 31.5c0 26 24.333 46 73 60c16 4.66699 27.667 8.66699 35 12
c36 14.667 64 79.667 84 195c2.66699 17.333 5 31 7 41z" />
    <glyph glyph-name="O" unicode="O" horiz-adv-x="1583" 
d="M905 1397c-96 0 -183.668 -22.498 -263.001 -67.498s-148 -111.5 -206 -199.5c-50.667 -76.667 -90.667 -165.667 -120 -267s-44 -201.333 -44 -300c0 -148 39.333 -265.833 118 -353.5s184.334 -131.5 317.001 -131.5c94.667 0 182 22.5 262 67.5
s147.333 109.833 202 194.5c46 69.333 82.167 153.666 108.5 252.999s39.5 200.666 39.5 303.999c0 155.333 -37 277.5 -111 366.5s-175 133.5 -303 133.5zM69.999 602.002c0 118 20 232.333 60 343s96.333 208 169 292c78 91.333 167.167 159.833 267.5 205.5
s211.833 68.5 334.5 68.5c188 0 338.5 -59.333 451.5 -178s169.5 -277 169.5 -475c0 -124 -20 -242.167 -60 -354.5s-96.667 -209.166 -170 -290.499c-76 -85.333 -163 -149.333 -261 -192s-206.667 -64 -326 -64c-192.667 0 -346.667 58.667 -462 176
s-173 273.666 -173 468.999z" />
    <glyph glyph-name="P" unicode="P" horiz-adv-x="1233" 
d="M354 674c218 6.66699 391.666 50.501 520.999 131.501s194 184.5 194 310.5c0 81.333 -33.667 144.666 -101 189.999s-161.333 68 -282 68c-86 0 -146.167 -13.5 -180.5 -40.5s-58.166 -83.167 -71.499 -168.5zM284.999 246.001
c-2.66699 -16 -4.83398 -30.3271 -6.50098 -42.9941s-2.5 -24.334 -2.5 -35.001c0 -26.667 12.667 -47.667 38 -63l16 -11c0.666992 -0.666992 2 -1.66699 4 -3c23.333 -16.667 35 -32.667 35 -48c0 -12.667 -5 -23 -15 -31s-23 -12 -39 -12h-307
c-14.667 0 -25.834 3.66699 -33.501 11s-11.5 18 -11.5 32c0 20 17.667 37.667 53 53c18 8 32 15 42 21c10.667 7.33301 19.334 19.166 26.001 35.499s13.334 46.833 20.001 91.5l160 988c2.66699 16 4.66699 31.167 6 45.5s2 26.166 2 35.499c0 26 -11.667 46.333 -35 61
c-6.66699 4.66699 -12 8 -16 10v1c-26 16 -39 33 -39 51c0 12.667 5 23 15 31s23 12 39 12h454c197.333 0 342.333 -27.833 435 -83.5s139 -141.834 139 -258.501c0 -162.667 -85.333 -298.334 -256 -407.001s-394.667 -166.334 -672 -173.001z" />
    <glyph glyph-name="Q" unicode="Q" horiz-adv-x="1583" 
d="M684 74c-3.33301 24.667 -5.83301 45.832 -7.5 63.499s-2.5 33.167 -2.5 46.5c0 52.667 6 93.167 18 121.5s29 42.5 51 42.5c24 0 37.333 -32.333 40 -97s10 -121 22 -169c157.333 28.667 282.333 116.334 375 263.001s139 330 139 550c0 156 -37 279 -111 369
s-175 135 -303 135c-95.333 0 -182.666 -22.833 -261.999 -68.5s-148.333 -112.5 -207 -200.5c-50.667 -76.667 -91 -166.5 -121 -269.5s-45 -204.833 -45 -305.5c0 -140.667 37.167 -254 111.5 -340s175.166 -133 302.499 -141zM723 -43.002l-3.99512 -0.000976562
c-200 0 -358.5 57.833 -475.5 173.5s-175.5 272.167 -175.5 469.5c0 116.667 20.167 230.834 60.5 342.501s97.166 209.834 170.499 294.501c79.333 91.333 169.166 159.833 269.499 205.5s211.166 68.5 332.499 68.5c188 0 338.5 -59.333 451.5 -178s169.5 -277 169.5 -475
c0 -228.667 -60.5 -424.334 -181.5 -587.001s-279.833 -262 -476.5 -298c33.333 -43.333 76.666 -75.666 129.999 -96.999s118 -32 194 -32h39c42 0 69.167 -4.83301 81.5 -14.5s18.5 -27.834 18.5 -54.501c0 -32 -12 -55.333 -36 -70s-62.333 -22 -115 -22
c-108 0 -199.833 22.833 -275.5 68.5s-134.834 114.167 -177.501 205.5z" />
    <glyph glyph-name="R" unicode="R" horiz-adv-x="1341" 
d="M385 760c227.333 20 403.669 65.5 529.002 136.5s188 160.5 188 268.5c0 74 -29.833 128.333 -89.5 163s-153.5 52 -281.5 52c-104.667 0 -172.334 -9.33301 -203.001 -28s-52.334 -66 -65.001 -142zM303.003 246c-2.66699 -16.667 -4.66699 -31.5 -6 -44.5
s-2 -24.167 -2 -33.5c0 -27.333 12 -48.666 36 -63.999c6.66699 -4 11.667 -7.33301 15 -10c1.33301 -0.666992 2.66602 -1.66699 3.99902 -3c23.333 -16.667 35 -32.667 35 -48c0 -12.667 -4.83301 -23 -14.5 -31s-22.5 -12 -38.5 -12h-305c-15.333 0 -27 3.83301 -35 11.5
s-12 18.167 -12 31.5c0 20 17.333 37.667 52 53c18.667 8 32.667 15 42 21c11.333 7.33301 20.333 19.166 27 35.499s13.334 46.833 20.001 91.5l160 989c2.66699 16 4.66699 30.833 6 44.5s2 25.5 2 35.5c0 26.667 -11.667 47 -35 61c-6.66699 4 -12 7.33301 -16 10
c-0.666992 0.666992 -2 1.66699 -4 3c-23.333 17.333 -35 33.666 -35 48.999c0 12.667 4.83301 23 14.5 31s22.5 12 38.5 12h643c135.333 0 236.333 -23.667 303 -71s100 -118.666 100 -213.999c0 -97.333 -37 -184.833 -111 -262.5s-179.667 -139.834 -317 -186.501
c78 -99.333 144 -258 198 -476l19 -78c1.33301 -4 2.66602 -9 3.99902 -15c8.66699 -33.333 28.667 -58.666 60 -75.999c3.33301 -1.33301 8 -3.66602 14 -6.99902c28.667 -14 43 -31.333 43 -52c0 -12.667 -3.83301 -22.667 -11.5 -30s-18.167 -11 -31.5 -11h-311
c-24 0 -41.667 3.33301 -53 10s-17 17 -17 31c0 11.333 4 20.666 12 27.999s24 15 48 23c26 8.66699 42.333 17.167 49 25.5s10 21.166 10 38.499c0 66.667 -17.667 149.334 -53 248.001s-83.666 196 -144.999 292c-48 -14 -99.667 -26 -155 -36s-116.333 -18.333 -183 -25z
" />
    <glyph glyph-name="S" unicode="S" horiz-adv-x="1290" 
d="M567 -45c-163.333 0 -296.002 32.8301 -398.002 98.4971s-153 149.5 -153 251.5c0 55.333 13.333 99.5 40 132.5s62 49.5 106 49.5c30.667 0 55 -8 73 -24s27 -38 27 -66c0 -26.667 -8.83301 -56.667 -26.5 -90s-26.5 -55 -26.5 -65c0 -48 34.167 -89 102.5 -123
s153.5 -51 255.5 -51c128 0 230.667 31.333 308 94s116 145.334 116 248.001c0 22.667 -4.5 44.667 -13.5 66s-21.5 39.333 -37.5 54c-47.333 42.667 -138.666 90.667 -273.999 144c-60.667 24 -107.334 43 -140.001 57c-111.333 49.333 -191.666 102.333 -240.999 159
s-74 123.334 -74 200.001c0 124 50.333 226 151 306s231.334 120 392.001 120c71.333 0 141.5 -10 210.5 -30s137.833 -50.333 206.5 -91c10.667 -6.66699 17.834 -13.834 21.501 -21.501s5.5 -23.834 5.5 -48.501c0 -108 -4.16699 -175.333 -12.5 -202
s-23.833 -40 -46.5 -40c-28 0 -50.333 29.667 -67 89c-8.66699 30.667 -16.334 54.334 -23.001 71.001c-22 54.667 -57.5 95 -106.5 121s-113.833 39 -194.5 39c-101.333 0 -183.333 -25.167 -246 -75.5s-94 -114.5 -94 -192.5c0 -35.333 6.5 -66.666 19.5 -93.999
s32.167 -50 57.5 -68c47.333 -34 128.666 -74 243.999 -120c58 -22.667 101.667 -40.667 131 -54c120.667 -53.333 203.5 -106.666 248.5 -159.999s67.5 -121 67.5 -203c0 -141.333 -56.167 -256.833 -168.5 -346.5s-259.166 -134.5 -440.499 -134.5z" />
    <glyph glyph-name="T" unicode="T" horiz-adv-x="1233" 
d="M633 246c-2.66699 -16.667 -4.66113 -31.4971 -5.99414 -44.4971s-2 -24.167 -2 -33.5c0 -26.667 12.333 -47.667 37 -63l16 -11c0.666992 -0.666992 1.66699 -1.33398 3 -2.00098c24 -17.333 36 -33.666 36 -48.999c0 -12.667 -5 -23 -15 -31s-22.667 -12 -38 -12h-310
c-14.667 0 -26.167 3.83301 -34.5 11.5s-12.5 18.167 -12.5 31.5c0 19.333 18 36.666 54 51.999c19.333 8.66699 33.666 16 42.999 22c11.333 7.33301 20.166 19.166 26.499 35.499s13.166 46.833 20.499 91.5l167 1038c1.33301 6.66699 2.5 13.834 3.5 21.501
s1.5 15.5 1.5 23.5c0 18.667 -6.5 31.5 -19.5 38.5s-36.833 10.5 -71.5 10.5c-63.333 0 -118.5 -6.5 -165.5 -19.5s-88.5 -33.167 -124.5 -60.5c-14.667 -10.667 -33.667 -26.667 -57 -48c-34.667 -32 -61 -48 -79 -48c-10 0 -17.167 2.5 -21.5 7.5s-6.5 14.167 -6.5 27.5
c0 9.33301 1.16699 20.166 3.5 32.499s6.5 29.166 12.5 50.499c14 46.667 24.667 79.167 32 97.5s14.666 32.833 21.999 43.5c4.66699 6.66699 13.167 11.667 25.5 15s39.166 5 80.499 5h952c37.333 0 61 -3.5 71 -10.5s15 -19.167 15 -36.5l-2 -187
c0 -13.333 -2.83301 -23.833 -8.5 -31.5s-13.834 -11.5 -24.501 -11.5c-20 0 -42.667 17.667 -68 53c-13.333 17.333 -24 30.333 -32 39c-26 28.667 -59.5 49.5 -100.5 62.5s-92.167 19.5 -153.5 19.5c-34.667 0 -58.5 -5.16699 -71.5 -15.5s-21.833 -31.833 -26.5 -64.5z
" />
    <glyph glyph-name="U" unicode="U" horiz-adv-x="1460" 
d="M530 1479c30 0 49.502 -3.00684 58.502 -9.00684s13.5 -17.333 13.5 -34c0 -24 -17.667 -45.333 -53 -64l-4 -2c-4 -2 -9.33301 -4.33301 -16 -7c-36 -16 -61.333 -42 -76 -78c-8 -18.667 -17.167 -48.834 -27.5 -90.501s-26.5 -115.5 -48.5 -221.5
c-34 -161.333 -58.167 -286.666 -72.5 -375.999s-21.5 -158 -21.5 -206c0 -105.333 31.5 -185.166 94.5 -239.499s154.833 -81.5 275.5 -81.5c143.333 0 255.833 38.667 337.5 116s137.834 199 168.501 365c24 126 42.333 252.833 55 380.5s19 245.834 19 354.501
c0 19.333 -2.33301 35.5 -7 48.5s-12 22.833 -22 29.5c-6.66699 4.66699 -17.334 11 -32.001 19c-33.333 18.667 -50 36.334 -50 53.001c0 14.667 6 25.5 18 32.5s30.667 10.5 56 10.5h256c26 0 42.667 -2.66699 50 -8s11 -14.333 11 -27c0 -22 -18 -42.333 -54 -61
s-59.333 -34.667 -70 -48c-12.667 -13.333 -22 -68.666 -28 -165.999c-2.66699 -43.333 -5 -78 -7 -104c-17.333 -213.333 -36.5 -380 -57.5 -500s-46.833 -214.667 -77.5 -284c-46.667 -105.333 -119.834 -185.333 -219.501 -240s-221.834 -82 -366.501 -82
c-170 0 -302 35 -396 105s-141 168 -141 294c0 59.333 5.5 126.333 16.5 201s30.833 176.334 59.5 305.001c13.333 62.667 31.333 141.334 54 236.001c25.333 107.333 38 171.333 38 192c0 32.667 -13.333 58.334 -40 77.001c-2 1.33301 -3.66699 2.33301 -5 3
c-2.66699 2 -6 4.33301 -10 7c-22 14 -33 29.333 -33 46c0 18 6.16699 31.5 18.5 40.5s30.833 13.5 55.5 13.5h280z" />
    <glyph glyph-name="V" unicode="V" horiz-adv-x="1237" 
d="M567 166c63.333 88 125.998 188.504 187.998 301.504s121.667 235.167 179 366.5c52 117.333 93.667 219.333 125 306s47 141 47 163c0 20.667 -13.667 40.667 -41 60l-12 9l-3 2c-32.667 24 -49 47.333 -49 70c0 12 4.5 20.833 13.5 26.5s22.5 8.5 40.5 8.5h274
c13.333 0 24.166 -3.33301 32.499 -10s12.5 -15 12.5 -25c0 -24.667 -13 -47.334 -39 -68.001s-41 -33.667 -45 -39c-15.333 -21.333 -49.333 -96.333 -102 -225s-100.667 -240 -144 -334c-108 -236.667 -212.833 -433.334 -314.5 -590.001s-171.5 -235 -209.5 -235
c-18.667 0 -34 4.16699 -46 12.5s-25.333 25.833 -40 52.5c-36.667 71.333 -73.167 160.666 -109.5 267.999s-70.166 227 -101.499 359c-40.667 169.333 -71.667 357.666 -93 564.999c-4 40.667 -7 68.667 -9 84c-2 14.667 -4.66699 27 -8 37s-7 17 -11 21
s-11 9.66699 -21 17c-24 16.667 -36 34 -36 52c0 20 7 34.667 21 44s36.333 14 67 14h277c12 0 21 -3.66699 27 -11s9 -18 9 -32c0 -21.333 -12 -38.333 -36 -51c-5.33301 -2.66699 -9.66602 -5 -12.999 -7c-36 -20 -58.667 -40.167 -68 -60.5s-14 -54.833 -14 -103.5
c0 -121.333 22.333 -276.5 67 -465.5s106.334 -383.167 185.001 -582.5z" />
    <glyph glyph-name="W" unicode="W" horiz-adv-x="1796" 
d="M934 918c-110.667 -300.667 -210.835 -535.997 -300.502 -705.997s-158.167 -255 -205.5 -255c-26 0 -48 39.667 -66 119c-2 6.66699 -3.33301 11.667 -4 15c-22 98.667 -40.5 202 -55.5 310s-26.5 218 -34.5 330c-12.667 174.667 -20.334 341.334 -23.001 500.001
c-0.666992 24 -1 37.667 -1 41c-0.666992 4 -1.33398 9.66699 -2.00098 17c-2 33.333 -15 61 -39 83c-0.666992 0.666992 -2.33398 2 -5.00098 4c-21.333 19.333 -32 38 -32 56c0 14 5.5 25.333 16.5 34s25.833 13 44.5 13h273c18 0 31.667 -3.5 41 -10.5
s14 -17.167 14 -30.5c0 -18 -15 -33.667 -45 -47c-12.667 -6 -22.334 -11 -29.001 -15c-21.333 -12.667 -36.166 -28.5 -44.499 -47.5s-12.5 -55.5 -12.5 -109.5v-148c0 -124 6.33301 -256 19 -396s31.667 -286.333 57 -439c125.333 245.333 229 474.666 311 687.999
s123 345.666 123 396.999c0 10 -1.5 19 -4.5 27s-6.16699 13.333 -9.5 16c-6.66699 5.33301 -16 11.666 -28 18.999c-25.333 15.333 -38 31.666 -38 48.999c0 16 5.5 27.833 16.5 35.5s28.167 11.5 51.5 11.5h258c16 0 27.833 -3.16699 35.5 -9.5s11.5 -16.166 11.5 -29.499
c0 -22.667 -20.667 -44.667 -62 -66c-18.667 -10 -32 -18 -40 -24c-17.333 -13.333 -29.666 -30.5 -36.999 -51.5s-11 -50.5 -11 -88.5c0 -97.333 13 -232.333 39 -405s62.333 -360.334 109 -563.001c50.667 90.667 98.834 187.334 144.501 290.001
s88.167 210.667 127.5 324c38 108 69.333 207 94 297s37 144.667 37 164s-17.333 38.333 -52 57c-2 0.666992 -3.66699 1.33398 -5 2.00098s-3.66602 2 -6.99902 4c-32 16.667 -48 36 -48 58c0 12 3.5 21.833 10.5 29.5s16.167 11.5 27.5 11.5h258
c19.333 0 33.833 -3.33301 43.5 -10s14.5 -16.334 14.5 -29.001s-15.833 -32.667 -47.5 -60s-52.834 -56.666 -63.501 -87.999c-2.66699 -8.66699 -21.167 -73.5 -55.5 -194.5s-71.166 -236.833 -110.499 -347.5c-36.667 -102 -77.167 -202.333 -121.5 -301
s-97.166 -205.334 -158.499 -320.001c-41.333 -74.667 -70 -121.334 -86 -140.001s-31.667 -28 -47 -28c-38 0 -74.667 66.5 -110 199.5s-80.666 385.5 -135.999 757.5z" />
    <glyph glyph-name="X" unicode="X" horiz-adv-x="1346" 
d="M666 645c-168.667 -185.333 -279.168 -311.659 -331.501 -378.992s-78.5 -113.666 -78.5 -138.999c0 -15.333 12.667 -30.5 38 -45.5s38 -29.833 38 -44.5c0 -12.667 -4.5 -22 -13.5 -28s-23.833 -9 -44.5 -9h-315c-18 0 -31.333 2.33301 -40 7s-13 12 -13 22
c0 20 20.333 39.667 61 59c26 12.667 45.333 23.667 58 33c25.333 19.333 100.166 100.666 224.499 243.999l334.5 374c-122.667 145.333 -225.667 316 -309 512l-17 39c-15.333 34 -42 62.667 -80 86s-57 43.333 -57 60c0 12.667 4.83301 23 14.5 31s22.5 12 38.5 12h313
c18 0 31.833 -3.66699 41.5 -11s14.5 -17.333 14.5 -30c0 -22 -16 -40.333 -48 -55l-6 -3l-6 -3c-31.333 -14 -47 -30 -47 -48c0 -27.333 25.5 -87.166 76.5 -179.499s114.167 -184.833 189.5 -277.5c132.667 130 229.667 232.333 291 307s92 126.667 92 156
c0 18 -13.333 34 -40 48l-6 3c-2 1.33301 -4.33301 2.66602 -7 3.99902c-27.333 15.333 -41 32.666 -41 51.999c0 12 4.33301 21.167 13 27.5s20.667 9.5 36 9.5h318c15.333 0 27 -3.5 35 -10.5s12 -17.167 12 -30.5c0 -18.667 -14.333 -35.334 -43 -50.001
c-8 -4 -14.333 -7.33301 -19 -10c-14 -7.33301 -28.333 -17.833 -43 -31.5s-35 -36.5 -61 -68.5l-13 -17c-122 -154 -268.667 -313 -440 -477c120 -132.667 234.333 -312.334 343 -539.001l6 -12l15 -32c24 -52.667 52.333 -86.334 85 -101.001
c24.667 -10 40.334 -18.833 47.001 -26.5s10 -17.834 10 -30.501s-4.83301 -23 -14.5 -31s-22.5 -12 -38.5 -12h-311c-19.333 0 -33.5 3.5 -42.5 10.5s-13.5 17.833 -13.5 32.5c0 10 3.66699 18.5 11 25.5s20.333 14.167 39 21.5s31.834 14.666 39.501 21.999
s11.5 16.333 11.5 27c0 37.333 -29.167 106.666 -87.5 207.999s-131.5 200.666 -219.5 297.999z" />
    <glyph glyph-name="Y" unicode="Y" horiz-adv-x="1341" 
d="M680 246c-2.66699 -18.667 -4.66406 -34.8291 -5.99707 -48.4961s-2 -23.5 -2 -29.5c0 -28 13.667 -49.667 41 -65c7.33301 -4 12.666 -7 15.999 -9c0.666992 0 1 -0.333008 1 -1c28 -16 42 -32.667 42 -50c0 -12.667 -4.83301 -23 -14.5 -31s-22.5 -12 -38.5 -12h-334
c-14.667 0 -25.834 3.66699 -33.501 11s-11.5 18 -11.5 32c0 22 20 39.667 60 53c22 8 39 15 51 21c12 6.66699 21.5 18.167 28.5 34.5s13.833 47.166 20.5 92.499l51 350c-70.667 99.333 -134.834 200.166 -192.501 302.499s-110.167 208.166 -157.5 317.499
c-3.33301 7.33301 -7.33301 17.666 -12 30.999c-21.333 56 -48 97.667 -80 125c-2.66699 2 -5.33398 4.33301 -8.00098 7c-23.333 20.667 -35 39 -35 55c0 12.667 5.16699 23.667 15.5 33s22.833 14 37.5 14h270c23.333 0 40.5 -3.33301 51.5 -10s16.5 -17 16.5 -31
c0 -18.667 -13.667 -35 -41 -49c-3.33301 -2 -6.33301 -3.66699 -9 -5l-4 -2c-38 -20 -57 -39.667 -57 -59c0 -36.667 30.5 -113.167 91.5 -229.5s140.5 -246.833 238.5 -391.5c147.333 148.667 267.833 281.5 361.5 398.5s140.5 191.167 140.5 222.5
c0 19.333 -16.833 38.666 -50.5 57.999s-50.5 38.333 -50.5 57c0 11.333 4.83301 21 14.5 29s21.834 12 36.501 12h275c12.667 0 22.667 -3.5 30 -10.5s11 -16.5 11 -28.5c0 -16 -13.667 -34.667 -41 -56l-23 -18c-18 -16 -49.333 -56 -94 -120
c-14.667 -22 -26.334 -38.667 -35.001 -50c-78 -109.333 -159.667 -213.666 -245 -312.999s-175.666 -195 -270.999 -287z" />
    <glyph glyph-name="Z" unicode="Z" horiz-adv-x="1143" 
d="M63 0c-48 0 -79.002 3.83496 -93.002 11.502s-21 21.5 -21 41.5c0 34.667 29 94.167 87 178.5s139 183.166 243 296.499c302.667 334 491.5 546.667 566.5 638s112.5 147.666 112.5 168.999c0 15.333 -7.16699 25.666 -21.5 30.999s-48.5 8 -102.5 8h-27
c-101.333 0 -180.833 -3.5 -238.5 -10.5s-105.167 -18.5 -142.5 -34.5c-27.333 -11.333 -57.666 -34.666 -90.999 -69.999s-57.666 -53 -72.999 -53c-11.333 0 -20.333 3.5 -27 10.5s-10 16.5 -10 28.5c0 13.333 3.66699 35.333 11 66s17.333 66 30 106
c8.66699 25.333 17.667 42 27 50s24.333 12 45 12h780c24.667 0 44.834 -4.5 60.501 -13.5s23.5 -20.167 23.5 -33.5c0 -48 -35.333 -121.167 -106 -219.5s-223 -279.166 -457 -542.499c-186.667 -208.667 -303.334 -343.167 -350.001 -403.5s-70 -100.833 -70 -121.5
c0 -13.333 6.5 -23.166 19.5 -29.499s33.167 -9.5 60.5 -9.5h104c115.333 0 199.166 3.16699 251.499 9.5s96.833 16.833 133.5 31.5c38.667 15.333 79.834 42.5 123.501 81.5s72.834 58.5 87.501 58.5c9.33301 0 16.833 -3.33301 22.5 -10s8.5 -15 8.5 -25
c0 -12 -5.66699 -37.333 -17 -76s-26 -81.334 -44 -128.001c-7.33301 -18.667 -15.333 -31.334 -24 -38.001s-27.334 -10 -56.001 -10h-826z" />
    <glyph glyph-name="bracketleft" unicode="[" horiz-adv-x="674" 
d="M557 1360c-39.333 0 -63.001 -3.5 -71.001 -10.5s-14.333 -24.167 -19 -51.5l-217 -1413c-0.666992 -4.66699 -1.16699 -9.5 -1.5 -14.5s-0.5 -10.167 -0.5 -15.5c0 -16 4 -26.833 12 -32.5s23 -8.5 45 -8.5h107c16.667 0 28.667 -3 36 -9s11 -16 11 -30
c0 -25.333 -5.33301 -44.666 -16 -57.999s-26 -20 -46 -20h-250c-19.333 0 -32.666 2.66699 -39.999 8s-11 15 -11 29c0 3.33301 1 11.666 3 24.999c0.666992 5.33301 1 9.33301 1 12l250 1646c4.66699 26.667 11.167 43.667 19.5 51s32.5 11 72.5 11h226
c16.667 0 28.667 -3 36 -9s11 -16 11 -30c0 -25.333 -5.33301 -45 -16 -59s-26 -21 -46 -21h-96z" />
    <glyph glyph-name="backslash" unicode="\" horiz-adv-x="551" 
d="M186 1461l217 -1594v-8c0 -13.333 -4.16699 -24.833 -12.5 -34.5s-18.5 -14.5 -30.5 -14.5c-12.667 0 -22.667 4 -30 12s-12.333 20.333 -15 37l-217 1593v8c0 14.667 4.5 26.834 13.5 36.501s19.5 14.5 31.5 14.5s21.667 -4.33301 29 -13s12 -21 14 -37z" />
    <glyph glyph-name="bracketright" unicode="]" horiz-adv-x="674" 
d="M82 -186c38 0 61.333 3.50293 70 10.5029s15.334 24.5 20.001 52.5l217 1413c0.666992 5.33301 1.16699 10.5 1.5 15.5s0.5 10.167 0.5 15.5c0 15.333 -3.83301 25.666 -11.5 30.999s-22.834 8 -45.501 8h-107c-16 0 -27.833 3.16699 -35.5 9.5s-11.5 16.833 -11.5 31.5
c0 25.333 5.33301 44.666 16 57.999s26 20 46 20h250c18.667 0 31.834 -3 39.501 -9s11.5 -16 11.5 -30c0 -4 -0.666992 -10.667 -2 -20c-1.33301 -6.66699 -2 -11.667 -2 -15l-250 -1646c-4.66699 -28 -11.334 -45.667 -20.001 -53s-32 -11 -70 -11h-228
c-16 0 -27.833 3.16699 -35.5 9.5s-11.5 16.833 -11.5 31.5c0 25.333 5.33301 44.666 16 57.999s26 20 46 20h96z" />
    <glyph glyph-name="asciicircum" unicode="^" horiz-adv-x="2048" 
d="M934 1462h178l520 -565h-92l-518 436l-520 -436h-90z" />
    <glyph glyph-name="underscore" unicode="_" 
d="M0 -365h1024v-118h-1024v118z" />
    <glyph glyph-name="grave" unicode="`" 
d="M756 1083h-67.999l-244 203c-22.667 18.667 -37.834 34.167 -45.501 46.5s-11.5 25.5 -11.5 39.5c0 18.667 6.66699 35 20 49s29.333 21 48 21c14 0 29 -5.16699 45 -15.5s30.333 -24.5 43 -42.5z" />
    <glyph glyph-name="a" unicode="a" horiz-adv-x="1010" 
d="M557 858c-42.667 0 -83.167 -11.667 -121.5 -35s-74.833 -58.666 -109.5 -105.999c-37.333 -49.333 -65.833 -104 -85.5 -164s-29.5 -121.333 -29.5 -184c0 -84 18.667 -151.167 56 -201.5s86.333 -75.5 147 -75.5c40 0 78.833 12 116.5 36s70.5 57.667 98.5 101
c34.667 54.667 62 118.167 82 190.5s30 144.166 30 215.499s-16 126.333 -48 165s-77.333 58 -136 58zM711 227c-25.333 -80 -67.834 -142.33 -127.501 -186.997s-130.5 -67 -212.5 -67c-98 0 -175.5 35 -232.5 105s-85.5 165.667 -85.5 287
c0 78.667 14.667 156.167 44 232.5s70.666 144.833 123.999 205.5c48.667 56 102.667 98.333 162 127s122 43 188 43c48.667 0 90.834 -8.33301 126.501 -25s64.5 -42 86.5 -76c26.667 29.333 50.667 51.5 72 66.5s40.333 22.5 57 22.5c9.33301 0 16.833 -3 22.5 -9
s8.5 -14 8.5 -24c0 -6 -4 -31.5 -12 -76.5l-21 -118.5l-41 -256c-7.33301 -47.333 -12.833 -92.333 -16.5 -135s-5.5 -80.334 -5.5 -113.001c0 -18 1.5 -33.333 4.5 -46s6.83301 -20.334 11.5 -23.001c11.333 -7.33301 28.5 -14.333 51.5 -21s34.5 -16 34.5 -28
c0 -9.33301 -3 -19 -9 -29s-13.667 -18.333 -23 -25c-31.333 -21.333 -62.166 -38.5 -92.499 -51.5s-53.5 -19.5 -69.5 -19.5c-18.667 0 -32.334 8.5 -41.001 25.5s-13 44.5 -13 82.5c0 15.333 0.833008 34.666 2.5 57.999s3.83398 48.333 6.50098 75z" />
    <glyph glyph-name="b" unicode="b" horiz-adv-x="1118" 
d="M653 844c-52.667 0 -102.169 -15.832 -148.502 -47.499s-86.833 -77.5 -121.5 -137.5c-27.333 -46 -49.166 -100 -65.499 -162s-24.5 -122 -24.5 -180c0 -80.667 17.833 -141.334 53.5 -182.001s88.834 -61 159.501 -61c102 0 187.167 45.5 255.5 136.5
s102.5 205.833 102.5 344.5c0 90.667 -18.5 161.5 -55.5 212.5s-88.833 76.5 -155.5 76.5zM249.998 74.001c-30 -32.667 -55.168 -56.9971 -75.501 -72.9971s-36.833 -24 -49.5 -24c-10.667 0 -19.5 3.16699 -26.5 9.5s-10.5 14.166 -10.5 23.499c0 8 1.66699 22.333 5 43
c1.33301 7.33301 2.33301 13 3 17l181 1141c2 14.667 3.83301 28.834 5.5 42.501s2.5 24.5 2.5 32.5c0 22.667 -13 42.667 -39 60s-39 31.666 -39 42.999c0 8.66699 3.5 17 10.5 25s19.167 16.667 36.5 26c50.667 26.667 90.167 46 118.5 58s49.5 18 63.5 18
c15.333 0 27.333 -4.83301 36 -14.5s13 -22.834 13 -39.501c0 -12.667 -2.66699 -34.334 -8 -65.001c-2 -9.33301 -3.33301 -16.333 -4 -21l-117 -596c53.333 66.667 107.333 115.5 162 146.5s114.667 46.5 180 46.5c101.333 0 183.333 -36.833 246 -110.5
s94 -170.167 94 -289.5c0 -76.667 -14.5 -153.5 -43.5 -230.5s-69.167 -144.167 -120.5 -201.5c-48.667 -55.333 -105 -97.5 -169 -126.5s-132.333 -43.5 -205 -43.5c-56.667 0 -105.667 8.5 -147 25.5s-75.666 42.833 -102.999 77.5z" />
    <glyph glyph-name="c" unicode="c" horiz-adv-x="895" 
d="M422 -29c-118.667 0 -211.498 35.1621 -278.498 105.495s-100.5 167.833 -100.5 292.5c0 65.333 11.667 130 35 194s58 126.333 104 187c56.667 73.333 120.834 129.5 192.501 168.5s147.5 58.5 227.5 58.5c82 0 149.333 -18 202 -54s79 -81 79 -135
c0 -28 -8 -50.667 -24 -68s-37.333 -26 -64 -26c-22.667 0 -40.834 5.83301 -54.501 17.5s-25.5 31.834 -35.5 60.501c-12 30.667 -27.667 52.334 -47 65.001s-46 19 -80 19c-38.667 0 -76.5 -10.333 -113.5 -31s-71.833 -50.667 -104.5 -90
c-42.667 -52.667 -75.834 -112.667 -99.501 -180s-35.5 -135.666 -35.5 -204.999c0 -83.333 23.167 -149.166 69.5 -197.499s109.166 -72.5 188.499 -72.5c43.333 0 84.333 8.16699 123 24.5s74.334 40.833 107.001 73.5c7.33301 7.33301 17 18.333 29 33
c22.667 27.333 41 41 55 41c10 0 18.667 -4.16699 26 -12.5s11 -18.5 11 -30.5c0 -18 -10 -40.167 -30 -66.5s-46.333 -51.166 -79 -74.499c-44 -31.333 -91.833 -55.333 -143.5 -72s-104.834 -25 -159.501 -25z" />
    <glyph glyph-name="d" unicode="d" horiz-adv-x="1128" 
d="M608 854c-101.333 0 -191.167 -47.5 -269.5 -142.5s-117.5 -206.5 -117.5 -334.5c0 -87.333 21 -157 63 -209s97.667 -78 167 -78c58 0 109.333 15.833 154 47.5s85.334 81.5 122.001 149.5c26 49.333 47.167 105.833 63.5 169.5s24.5 122.5 24.5 176.5
c0 68.667 -18.333 122.667 -55 162s-87.334 59 -152.001 59zM802.999 242c-44.667 -89.333 -99.6689 -157.173 -165.002 -203.506s-138.666 -69.5 -219.999 -69.5c-112 0 -202.5 36 -271.5 108s-103.5 166.333 -103.5 283c0 80.667 18.167 160.834 54.5 240.501
s87.166 149.834 152.499 210.501c54.667 51.333 112.5 90.166 173.5 116.499s124.5 39.5 190.5 39.5c60 0 110.833 -12.167 152.5 -36.5s76.167 -61.5 103.5 -111.5l54 339c4 25.333 7.33301 48.833 10 70.5s4 38.167 4 49.5c0 16 -1.83301 27 -5.5 33
s-13.5 11.333 -29.5 16c-4 1.33301 -10.333 3.33301 -19 6c-29.333 8.66699 -44 22.334 -44 41.001c0 14 4 26.167 12 36.5s23.667 21.5 47 33.5c55.333 29.333 93 47.833 113 55.5s36.333 11.5 49 11.5c17.333 0 29.833 -4.83301 37.5 -14.5s11.5 -25.167 11.5 -46.5
c0 -45.333 -7 -113 -21 -203c-3.33301 -23.333 -6 -41.333 -8 -54l-143 -929c-2 -12 -3.5 -23.167 -4.5 -33.5s-1.5 -20.166 -1.5 -29.499c0 -17.333 3.16699 -30.666 9.5 -39.999s16.833 -16.666 31.5 -21.999c6.66699 -2 15.334 -4 26.001 -6c32 -6.66699 48 -21 48 -43
c0 -8.66699 -4.5 -17.667 -13.5 -27s-22.5 -18.666 -40.5 -27.999c-32 -17.333 -63.667 -31.333 -95 -42s-56.333 -16 -75 -16c-16 0 -27.833 6.16699 -35.5 18.5s-11.5 31.5 -11.5 57.5c0 20.667 2.33301 46.667 7 78s11.334 68.333 20.001 111z" />
    <glyph glyph-name="e" unicode="e" horiz-adv-x="1010" 
d="M238 489c178.667 15.333 317.167 45.333 415.5 90s147.5 100 147.5 166c0 36 -14.667 65.167 -44 87.5s-68 33.5 -116 33.5c-90 0 -172.333 -34.5 -247 -103.5s-126.667 -160.167 -156 -273.5zM226 391c-1.33301 -5.33301 -2.16504 -10.665 -2.49805 -15.998
s-0.5 -13 -0.5 -23c0 -78.667 24.333 -141 73 -187s114.667 -69 198 -69c44.667 0 89.167 6.66699 133.5 20s88.5 33.333 132.5 60c13.333 8.66699 31 21 53 37c37.333 27.333 64 41 80 41c11.333 0 20.666 -4.16699 27.999 -12.5s11 -18.5 11 -30.5
c0 -16 -7.5 -32.5 -22.5 -49.5s-41.167 -38.167 -78.5 -63.5c-64 -43.333 -128 -75.333 -192 -96s-130.333 -31 -199 -31c-117.333 0 -212.5 35.667 -285.5 107s-109.5 164.666 -109.5 279.999c0 68.667 12.667 135.5 38 200.5s62.666 125.833 111.999 182.5
c64.667 75.333 137.5 132.833 218.5 172.5s166.5 59.5 256.5 59.5c91.333 0 164.333 -19.5 219 -58.5s82 -90.5 82 -154.5c0 -100.667 -66.833 -184.334 -200.5 -251.001s-315.167 -106 -544.5 -118z" />
    <glyph glyph-name="f" unicode="f" horiz-adv-x="555" 
d="M219 840l-113.003 -0.000976562c-12 0 -20.667 3 -26 9s-8 16 -8 30c0 20.667 3.5 37.334 10.5 50.001s16.5 19 28.5 19h131c18 172 59.833 308.833 125.5 410.5s143.167 152.5 232.5 152.5c36.667 0 64.667 -7.16699 84 -21.5s29 -35.166 29 -62.499
c0 -24.667 -7.16699 -44.834 -21.5 -60.501s-32.5 -23.5 -54.5 -23.5c-14.667 0 -31.167 6.5 -49.5 19.5s-29.166 19.5 -32.499 19.5c-33.333 0 -63.666 -38 -90.999 -114s-48.333 -182.667 -63 -320h158c13.333 0 22.833 -3.33301 28.5 -10s8.5 -18.334 8.5 -35.001
c0 -23.333 -4.16699 -39.666 -12.5 -48.999s-23.166 -14 -44.499 -14h-152c-46 -349.333 -82.667 -593.833 -110 -733.5s-55.333 -238.5 -84 -296.5c-30.667 -61.333 -73 -111.5 -127 -150.5s-106 -58.5 -156 -58.5c-27.333 0 -49.833 7 -67.5 21s-26.5 31.333 -26.5 52
c0 24.667 9 45.167 27 61.5s40.333 24.5 67 24.5c9.33301 0 23.666 -1.66699 42.999 -5s33.666 -5 42.999 -5c32.667 0 59.834 34 81.501 102s44.834 202 69.501 402z" />
    <glyph glyph-name="g" unicode="g" horiz-adv-x="1010" 
d="M557 881c-88 0 -163.5 -43.666 -226.5 -130.999s-94.5 -193.333 -94.5 -318c0 -84 18.667 -149 56 -195s90.333 -69 159 -69c86.667 0 161.167 44.167 223.5 132.5s93.5 195.166 93.5 320.499c0 82 -18.5 145.833 -55.5 191.5s-88.833 68.5 -155.5 68.5zM688 152.001
c59.333 -15.333 106.334 -43.8311 141.001 -85.498s52 -90.5 52 -146.5c0 -95.333 -47.333 -172.666 -142 -231.999s-220.334 -89 -377.001 -89c-117.333 0 -211.833 14.5 -283.5 43.5s-107.5 66.167 -107.5 111.5c0 37.333 14.5 74.666 43.5 111.999s58.167 56 87.5 56
c10 0 17.333 -2.33301 22 -7s7 -11.667 7 -21s-2.66699 -22 -8 -38s-8 -28 -8 -36c0 -32 22 -56 66 -72s110 -24 198 -24c110 0 194.833 17.667 254.5 53s89.5 85.666 89.5 150.999c0 39.333 -13.667 70.833 -41 94.5s-75 44.167 -143 61.5
c-30 -6 -55.5 -10.167 -76.5 -12.5s-39.167 -3.5 -54.5 -3.5c-106 0 -189.167 32.333 -249.5 97s-90.5 153.667 -90.5 267c0 69.333 12.167 135.666 36.5 198.999s60.5 122 108.5 176c47.333 53.333 99.833 93.666 157.5 120.999s119.167 41 184.5 41
c20.667 0 61 -2.5 121 -7.5s109 -7.5 147 -7.5c12 0 33.667 0.333008 65 1s57 1 77 1c23.333 0 41.333 -4.5 54 -13.5s19 -22.167 19 -39.5c0 -24.667 -7.16699 -42 -21.5 -52s-39.833 -15 -76.5 -15c-14 0 -41.333 0.666992 -82 2c-14 0.666992 -25 1.33398 -33 2.00098
c35.333 -32 62.333 -71 81 -117s28 -96.667 28 -152c0 -84 -21 -161.833 -63 -233.5s-103 -133.5 -183 -185.5z" />
    <glyph glyph-name="h" unicode="h" horiz-adv-x="1118" 
d="M109 0c-10.667 0 -18.4961 1.66113 -23.4961 4.99414s-7.5 8.33301 -7.5 15c1.33301 6 2.66602 15 3.99902 27l176 1028c10.667 57.333 18.167 101.333 22.5 132s6.5 53 6.5 67c0 31.333 -14.667 56 -44 74s-44 30.667 -44 38c0 6.66699 2.33301 13.334 7 20.001
s12 13.334 22 20.001c37.333 24.667 77.5 45.334 120.5 62.001s74.833 25 95.5 25c14.667 0 25.5 -4.66699 32.5 -14s10.5 -23.666 10.5 -42.999c0 -8.66699 -0.666992 -18.667 -2 -30s-3.33301 -23 -6 -35l-139 -693c48 88.667 103.333 155 166 199s133 66 211 66
c84 0 150 -24 198 -72s72 -113.667 72 -197c0 -14 -1.66699 -35 -5 -63s-8.33301 -61.667 -15 -101l-45 -272l-8.5 -57c-1.66699 -11.333 -2.5 -19.666 -2.5 -24.999c0 -24.667 11.667 -39.667 35 -45c3.33301 -0.666992 6 -1.33398 8 -2.00098c1.33301 0 3 -0.333008 5 -1
c26.667 -6 40 -18 40 -36c0 -23.333 -22.833 -47.166 -68.5 -71.499s-93.834 -36.5 -144.501 -36.5c-17.333 0 -30.5 4.83301 -39.5 14.5s-13.5 24.5 -13.5 44.5c0 6 0.166992 10.833 0.5 14.5s0.833008 6.83398 1.5 9.50098l86 525c2.66699 18 4.66699 34.167 6 48.5
s2 25.5 2 33.5c0 56.667 -12.833 100.167 -38.5 130.5s-62.5 45.5 -110.5 45.5c-82.667 0 -154.334 -40.167 -215.001 -120.5s-112 -202.833 -154 -367.5c-16.667 -66 -31.334 -143.667 -44.001 -233c-12 -86 -32.667 -129 -62 -129h-96z" />
    <glyph glyph-name="i" unicode="i" horiz-adv-x="492" 
d="M213 1217c0 35.333 12.501 65.668 37.501 91.001s55.5 38 91.5 38c25.333 0 46.666 -9.83301 63.999 -29.5s26 -43.5 26 -71.5c0 -36.667 -12.333 -68.334 -37 -95.001s-54 -40 -88 -40c-28.667 0 -51.5 9.66699 -68.5 29s-25.5 45.333 -25.5 78zM113.001 135.002
l94 580.003c1.33301 9.33301 2.33301 16.666 3 21.999s1 9.66602 1 12.999c0 12 -2.33301 21.833 -7 29.5s-12 13.5 -22 17.5c-6.66699 2 -16.334 4.66699 -29.001 8c-32.667 7.33301 -49 22.333 -49 45c0 8.66699 4 17.167 12 25.5s20 16.833 36 25.5
c32 18.667 65.833 33.667 101.5 45s63.834 17 84.501 17c16 0 27.833 -4.5 35.5 -13.5s11.5 -23.167 11.5 -42.5c0 -12 -1.66699 -31.667 -5 -59s-9.33301 -66.333 -18 -117l-83 -520c-0.666992 -4 -1.33398 -9.33301 -2.00098 -16c-2 -12 -3 -19.667 -3 -23
c0.666992 -16 4.66699 -27.667 12 -35s21 -12.666 41 -15.999c3.33301 -0.666992 7.33301 -1.33398 12 -2.00098c30.667 -4.66699 46 -15 46 -31c0 -24 -21.833 -47 -65.5 -69s-92.167 -33 -145.5 -33c-25.333 0 -43.333 5.16699 -54 15.5s-16 28.166 -16 53.499
c0 12 0.833008 24.667 2.5 38s3.83398 27.333 6.50098 42z" />
    <glyph glyph-name="j" unicode="j" horiz-adv-x="473" 
d="M215 1217c0 35.333 12.501 65.668 37.501 91.001s55.5 38 91.5 38c25.333 0 46.666 -9.83301 63.999 -29.5s26 -43.5 26 -71.5c0 -36.667 -12.333 -68.334 -37 -95.001s-54 -40 -88 -40c-28.667 0 -51.5 9.66699 -68.5 29s-25.5 45.333 -25.5 78zM199.001 692.002
c0 2.66699 0.338867 6.66699 1.00586 12c2 16 3 27 3 33c0 11.333 -2.33301 20.333 -7 27s-11.667 12.667 -21 18c-8.66699 4 -20.334 8 -35.001 12c-26.667 7.33301 -40 17.666 -40 30.999c0 14 5.66699 27.5 17 40.5s27.666 24.833 48.999 35.5c34 18 66.333 32 97 42
s55.667 15 75 15c15.333 0 26.666 -4 33.999 -12s11 -20.333 11 -37c0 -14.667 -5 -65 -15 -151s-22.667 -181 -38 -285c-22.667 -148 -44.334 -269.167 -65.001 -363.5s-42.667 -173.166 -66 -236.499c-32 -86 -79.5 -156.667 -142.5 -212s-126.167 -83 -189.5 -83
c-26 0 -45.833 6.16699 -59.5 18.5s-20.5 30.166 -20.5 53.499s9.33301 43.833 28 61.5s40.667 26.5 66 26.5c7.33301 0 20.666 -2 39.999 -6s34.666 -6 45.999 -6c38.667 0 71 41.833 97 125.5s59.333 275.834 100 576.501z" />
    <glyph glyph-name="k" unicode="k" horiz-adv-x="1014" 
d="M463 561c-56 -64.667 -100.67 -130.666 -134.003 -197.999s-55 -135 -65 -203l-16 -114c-3.33301 -22 -7.66602 -35.167 -12.999 -39.5s-18 -6.5 -38 -6.5h-78c-8 0 -14.167 3 -18.5 9s-6.5 14.667 -6.5 26c0 8.66699 0.166992 15.5 0.5 20.5s0.833008 9.5 1.5 13.5
l174 1076c1.33301 8.66699 3.66602 22.334 6.99902 41.001c6.66699 38.667 10 68 10 88c0 15.333 -2.5 27.166 -7.5 35.499s-15.5 16.166 -31.5 23.499l-4 2c-28.667 13.333 -43 30.333 -43 51c0 9.33301 3.33301 18.333 10 27s16.334 17 29.001 25
c36.667 23.333 71.334 41.666 104.001 54.999s58 20 76 20c16 0 28.167 -4.66699 36.5 -14s12.5 -23 12.5 -41c0 -7.33301 -0.666992 -16.333 -2 -27s-3.33301 -22.667 -6 -36l-150 -885c94 140 194.5 251.167 301.5 333.5s202.5 123.5 286.5 123.5
c36.667 0 66.334 -9 89.001 -27s34 -41.333 34 -70c0 -23.333 -7.16699 -41.666 -21.5 -54.999s-33.833 -20 -58.5 -20c-13.333 0 -34.333 3.33301 -63 10s-50.667 10 -66 10c-26 0 -59.5 -12.167 -100.5 -36.5s-83.833 -57.833 -128.5 -100.5
c63.333 -202 115.666 -344.333 156.999 -427s80.333 -124 117 -124c8 0 19.333 1 34 3s25.334 3 32.001 3c15.333 0 26.333 -3 33 -9s10 -16 10 -30c0 -22.667 -19.833 -44.667 -59.5 -66s-84.167 -32 -133.5 -32c-48.667 0 -95.5 40.167 -140.5 120.5
s-101.833 228.5 -170.5 444.5z" />
    <glyph glyph-name="l" unicode="l" horiz-adv-x="494" 
d="M102 106l189.001 1058c4.66699 26 8.16699 48.5 10.5 67.5s3.5 33.833 3.5 44.5c0 28 -12.333 46.333 -37 55h-2c-19.333 7.33301 -32 14 -38 20s-9 13.667 -9 23s3.5 18.666 10.5 27.999s17.833 19.333 32.5 30c32.667 22.667 69.667 41.834 111 57.501
s71.333 23.5 90 23.5c11.333 0 20 -3.5 26 -10.5s9 -16.833 9 -29.5c0 -6.66699 -2 -21 -6 -43c-2.66699 -15.333 -5 -28 -7 -38l-198 -1116c-4.66699 -24.667 -8.33398 -46.667 -11.001 -66s-4 -33.333 -4 -42c0 -24 12 -41.833 36 -53.5s36 -23.167 36 -34.5
c0 -21.333 -23 -43.833 -69 -67.5s-92 -35.5 -138 -35.5c-16 0 -27.5 3.5 -34.5 10.5s-10.5 19.5 -10.5 37.5c0 6.66699 0.833008 16.5 2.5 29.5s4.16699 30.167 7.5 51.5z" />
    <glyph glyph-name="m" unicode="m" horiz-adv-x="1702" 
d="M348 695c45.333 88.667 99.168 156.164 161.501 202.497s130.833 69.5 205.5 69.5c72 0 129.5 -22.167 172.5 -66.5s64.5 -103.5 64.5 -177.5c0 -10.667 -0.166992 -19 -0.5 -25s-0.833008 -11.333 -1.5 -16c44 89.333 97.167 159.166 159.5 209.499
s126.833 75.5 193.5 75.5c85.333 0 152 -23 200 -69s72 -109.667 72 -191c0 -35.333 -7.66699 -93.666 -23 -174.999l-6 -34l-49 -271c-0.666992 -2.66699 -1.33398 -6 -2.00098 -10c-4 -19.333 -6 -33 -6 -41c0 -7.33301 1.5 -13.5 4.5 -18.5s7.5 -9.16699 13.5 -12.5
c6 -2.66699 15.667 -5.66699 29 -9c27.333 -6.66699 41 -18 41 -34c0 -20 -23.5 -42 -70.5 -66s-93.833 -36 -140.5 -36c-21.333 0 -36.166 4.16699 -44.499 12.5s-12.5 23.166 -12.5 44.499c0 13.333 3.33301 38.333 10 75c2.66699 14.667 4.66699 26 6 34l76 412
c0.666992 2.66699 1.33398 6.33398 2.00098 11.001c9.33301 52 14 89.667 14 113c0 50 -11.167 87.5 -33.5 112.5s-56.166 37.5 -101.499 37.5c-90 0 -168.167 -56.167 -234.5 -168.5s-116.5 -273.166 -150.5 -482.499l-27 -158c-2.66699 -20 -7.66699 -32.167 -15 -36.5
s-20 -6.5 -38 -6.5h-88c-10.667 0 -18.5 2.33301 -23.5 7s-7.5 12 -7.5 22c0 1.33301 1 5.33301 3 12c0.666992 2.66699 1 4.66699 1 6l31 148c25.333 124 43.666 223 54.999 297s17 133.333 17 178c0 62 -10.333 107.833 -31 137.5s-52.667 44.5 -96 44.5
c-95.333 0 -175.833 -56.167 -241.5 -168.5s-118.167 -283.5 -157.5 -513.5l-23 -131c-2.66699 -16 -6 -26.5 -10 -31.5s-10.333 -7.5 -19 -7.5h-106c-8 0 -14.833 3.16699 -20.5 9.5s-8.5 14.166 -8.5 23.499c0 2.66699 0.166992 6 0.5 10s0.833008 8 1.5 12l99 576
c2.66699 14.667 4.66699 28.334 6 41.001s2 24.334 2 35.001c0 17.333 -2 31.833 -6 43.5s-9.66699 19.5 -17 23.5c-8 4.66699 -18 10 -30 16c-24.667 13.333 -37 24.333 -37 33c0 8 4 17.5 12 28.5s19.667 22.167 35 33.5c31.333 24 57.666 41.5 78.999 52.5
s38.666 16.5 51.999 16.5c24 0 40.833 -9.16699 50.5 -27.5s14.5 -52.166 14.5 -101.499c0 -16 -0.5 -34.833 -1.5 -56.5s-2.5 -46.167 -4.5 -73.5z" />
    <glyph glyph-name="n" unicode="n" horiz-adv-x="1128" 
d="M340 684c44 91.333 98.499 160.665 163.499 207.998s138.167 71 219.5 71c84 0 150.333 -24 199 -72s73 -113.667 73 -197c0 -17.333 -1.5 -40.166 -4.5 -68.499s-7.5 -59.833 -13.5 -94.5l-45 -272c-4.66699 -28 -7.5 -46.667 -8.5 -56s-1.5 -17.666 -1.5 -24.999
c0 -26.667 14.667 -43.667 44 -51h1c2 -0.666992 4.66699 -1.33398 8 -2.00098c22.667 -4.66699 34.334 -15.667 35.001 -33c0 -23.333 -23 -47.166 -69 -71.499s-94 -36.5 -144 -36.5c-18 0 -31.5 4.83301 -40.5 14.5s-13.5 24.5 -13.5 44.5c0 6 0.166992 10.833 0.5 14.5
s0.833008 6.83398 1.5 9.50098l86 525c2.66699 18 4.83398 34.167 6.50098 48.5s2.5 25.5 2.5 33.5c0 56.667 -13 100.167 -39 130.5s-63 45.5 -111 45.5c-92 0 -169.833 -48.667 -233.5 -146s-116.834 -249.333 -159.501 -456l-43 -211
c-2.66699 -15.333 -6.66699 -25.333 -12 -30s-15.666 -7 -30.999 -7h-94c-9.33301 0 -16.833 2.66699 -22.5 8s-8.5 12.333 -8.5 21c0 4 0.166992 7.83301 0.5 11.5s0.833008 7.16699 1.5 10.5l59 314c20.667 108 33.834 183 39.501 225s8.5 76.667 8.5 104
c-0.666992 21.333 -2.83398 39.5 -6.50098 54.5s-8.5 24.833 -14.5 29.5c-8.66699 6.66699 -23.5 14 -44.5 22s-31.5 17.667 -31.5 29c0 8.66699 3 17.334 9 26.001s14 16.667 24 24c34 24 64.167 42.5 90.5 55.5s46.833 19.5 61.5 19.5
c23.333 0 40.666 -8.33301 51.999 -25s17 -42.334 17 -77.001c0 -8.66699 -1.5 -32.334 -4.5 -71.001z" />
    <glyph glyph-name="o" unicode="o" horiz-adv-x="1118" 
d="M236 387c0 -100.667 23.168 -178.666 69.501 -233.999s111.166 -83 194.499 -83c108.667 0 199.667 47 273 141s110 212 110 354c0 93.333 -23 167.166 -69 221.499s-108.333 81.5 -187 81.5c-60.667 0 -114.167 -12.833 -160.5 -38.5s-89.833 -66.5 -130.5 -122.5
c-32 -44.667 -56.667 -95 -74 -151s-26 -112.333 -26 -169zM55.001 383.001c0 70 14 141.168 42 213.501s66 134.833 114 187.5c56.667 63.333 120.5 110.666 191.5 141.999s149.167 47 234.5 47c130.667 0 234.334 -37.167 311.001 -111.5s115 -174.5 115 -300.5
c0 -78 -14.5 -153 -43.5 -225s-71.167 -137.667 -126.5 -197c-52.667 -56.667 -113.334 -99.5 -182.001 -128.5s-144 -43.5 -226 -43.5c-135.333 0 -240.833 36.5 -316.5 109.5s-113.5 175.167 -113.5 306.5z" />
    <glyph glyph-name="p" unicode="p" horiz-adv-x="1124" 
d="M342 721c42 84 92.502 146.671 151.502 188.004s127.167 62 204.5 62c106.667 0 194.167 -36.333 262.5 -109s102.5 -166.667 102.5 -282c0 -83.333 -15.333 -163.833 -46 -241.5s-74 -146.167 -130 -205.5c-52 -54.667 -111 -96.334 -177 -125.001
s-136.667 -43 -212 -43c-62.667 0 -110.167 7.83301 -142.5 23.5s-48.5 38.5 -48.5 68.5c0 19.333 5 34.166 15 44.499s24.333 15.5 43 15.5c5.33301 0 24.833 -5.83301 58.5 -17.5s64.5 -17.5 92.5 -17.5c100.667 0 187 45.667 259 137s108 202 108 332
c0 88 -20.5 158.167 -61.5 210.5s-95.833 78.5 -164.5 78.5c-104 0 -184.167 -47.833 -240.5 -143.5s-106.5 -286.834 -150.5 -573.501l-43 -277c-2.66699 -15.333 -4.66699 -30 -6 -44s-2 -27.333 -2 -40c0 -12 1.83301 -21.167 5.5 -27.5s13.5 -14.166 29.5 -23.499l16 -8
c18 -8.66699 27 -23.667 27 -45c0 -17.333 -4.83301 -29.833 -14.5 -37.5s-26.167 -11.5 -49.5 -11.5h-256c-24.667 0 -40.667 3.16699 -48 9.5s-11 18.166 -11 35.499c0 22.667 17.333 42 52 58c3.33301 1.33301 5.66602 2.33301 6.99902 3
c30 15.333 49.333 31.166 58 47.499s16.667 45.5 24 87.5l70 412c20 116 35.833 217.167 47.5 303.5s17.5 140.833 17.5 163.5c0 16.667 -2.66699 29.834 -8 39.501s-14 17.167 -26 22.5l-28 8c-32 9.33301 -48 23 -48 41c0 8 2.33301 15.5 7 22.5s12 13.833 22 20.5
c38 25.333 75.667 45.666 113 60.999s67 23 89 23s37.167 -5 45.5 -15s12.5 -28.333 12.5 -55c0 -12 -1.83301 -29.667 -5.5 -53s-10.834 -64.333 -21.501 -123z" />
    <glyph glyph-name="q" unicode="q" horiz-adv-x="1124" 
d="M627 868c-51.333 0 -99.333 -12.1641 -144 -36.4971s-87.667 -61.833 -129 -112.5c-37.333 -46.667 -66 -99.334 -86 -158.001s-30 -118.667 -30 -180c0 -84.667 20.333 -152 61 -202s95.334 -75 164.001 -75c54.667 0 105.667 16.833 153 50.5s88.333 82.5 123 146.5
c28 51.333 50.333 109.166 67 173.499s25 124.5 25 180.5c0 67.333 -17.833 119.666 -53.5 156.999s-85.834 56 -150.501 56zM774 193.003c-42.667 -68.667 -94.168 -121.003 -154.501 -157.003s-126.166 -54 -197.499 -54c-110.667 0 -200.167 35.333 -268.5 106
s-102.5 163.667 -102.5 279c0 66.667 13.5 134.834 40.5 204.501s64.833 133.834 113.5 192.501c58 68.667 123.667 121 197 157s150.333 54 231 54c56 0 105 -9 147 -27s77.667 -45.333 107 -82c28.667 29.333 53.334 51 74.001 65s37.667 21 51 21c10 0 17.5 -3 22.5 -9
s7.5 -15.333 7.5 -28c0 -10 -0.5 -20 -1.5 -30s-2.5 -20.333 -4.5 -31l-162 -994c-2.66699 -18 -5 -35 -7 -51s-3 -28.667 -3 -38c0 -23.333 12.667 -43.166 38 -59.499s38 -32.166 38 -47.499c0 -19.333 -7 -33.333 -21 -42s-36.333 -13 -67 -13h-240
c-12.667 0 -22.667 3.16699 -30 9.5s-11 14.833 -11 25.5c0 18.667 4.33301 33.5 13 44.5s25 21.167 49 30.5c1.33301 0.666992 3.66602 1.66699 6.99902 3c42 15.333 67 48.666 75 99.999z" />
    <glyph glyph-name="r" unicode="r" horiz-adv-x="735" 
d="M162 420c16 79.333 27.499 141.501 34.499 186.501s10.5 77.833 10.5 98.5c0 24 -3.33301 42 -10 54s-19.334 23.333 -38.001 34l-22 12c-31.333 16.667 -47 33 -47 49c0 18.667 22.5 42.167 67.5 70.5s86.833 42.5 125.5 42.5c27.333 0 47.333 -10.667 60 -32
s19 -55 19 -101c0 -8 -1 -28.5 -3 -61.5s-3.66699 -58.833 -5 -77.5c40 87.333 86.833 153.5 140.5 198.5s112.834 67.5 177.501 67.5c35.333 0 58.833 -6.33301 70.5 -19s17.5 -41.334 17.5 -86.001c0 -30 -5.83301 -53.167 -17.5 -69.5s-28.5 -24.5 -50.5 -24.5
c-8.66699 0 -24.167 5.16699 -46.5 15.5s-40.833 15.5 -55.5 15.5c-60.667 0 -115.5 -42 -164.5 -126s-88.5 -204 -118.5 -360l-47 -246c0 -1.33301 -0.333008 -3.33301 -1 -6c-7.33301 -36.667 -20.666 -55 -39.999 -55h-94c-14.667 -0 -24.5 2.33301 -29.5 7
s-7.5 13.334 -7.5 26.001c0 4.66699 0.166992 8.66699 0.5 12s0.833008 6.66602 1.5 9.99902z" />
    <glyph glyph-name="s" unicode="s" horiz-adv-x="786" 
d="M-14 193c0 29.333 7.33105 53.001 21.998 71.001s34 27 58 27c25.333 0 46.833 -6.66699 64.5 -20s32.167 -34 43.5 -62c2.66699 -6.66699 5.66699 -15.667 9 -27c10.667 -34 24 -57 40 -69c18 -12.667 37.833 -22 59.5 -28s46.167 -9 73.5 -9
c60.667 0 108.667 13.833 144 41.5s53 64.834 53 111.501c0 63.333 -69 124.666 -207 183.999l-67 29c-63.333 27.333 -108.666 59.666 -135.999 96.999s-41 85 -41 143c0 82 32.333 150.667 97 206s146.334 83 245.001 83c86.667 0 160.667 -21 222 -63s92 -90 92 -144
c0 -20.667 -8.16699 -38.5 -24.5 -53.5s-35.5 -22.5 -57.5 -22.5c-26 0 -48.5 11.833 -67.5 35.5s-28.5 50.167 -28.5 79.5c0 14 -13 29 -39 45s-54.667 24 -86 24c-55.333 0 -100.666 -13.667 -135.999 -41s-53 -62 -53 -104c0 -32.667 10.667 -60.167 32 -82.5
s70.666 -50.833 147.999 -85.5c116.667 -52.667 191.667 -98 225 -136s50 -86 50 -144c0 -87.333 -36.833 -160.833 -110.5 -220.5s-166.5 -89.5 -278.5 -89.5c-96.667 0 -178.5 22.333 -245.5 67s-100.5 97 -100.5 157z" />
    <glyph glyph-name="t" unicode="t" horiz-adv-x="555" 
d="M176 842h-77.998c-22 0 -37 2.66699 -45 8s-12 15.666 -12 30.999c0 42 29 66.333 87 73c26.667 2.66699 46 6.33398 58 11.001c19.333 6.66699 41.666 49 66.999 127l19 56c3.33301 8.66699 7.33301 20.667 12 36c29.333 86 56.333 129 81 129
c14 0 23.833 -3.83301 29.5 -11.5s8.5 -20.167 8.5 -37.5c0 -14 -1 -30.167 -3 -48.5s-5 -38.5 -9 -60.5l-35 -207h179c13.333 0 23 -3.16699 29 -9.5s9 -16.833 9 -31.5c0 -24.667 -5.5 -42.334 -16.5 -53.001s-29.833 -16 -56.5 -16h-164l-88 -566
c-0.666992 -3.33301 -1.66699 -9 -3 -17c-4.66699 -24.667 -7 -44 -7 -58c0 -18.667 3.16699 -32 9.5 -40s17.5 -12 33.5 -12c23.333 0 57.333 15.5 102 46.5s74.667 46.5 90 46.5c13.333 0 24.166 -4.33301 32.499 -13s12.5 -19.334 12.5 -32.001
c0 -18 -7.5 -34.667 -22.5 -50s-44.167 -34.333 -87.5 -57c-61.333 -32.667 -119.166 -58.5 -173.499 -77.5s-94.833 -28.5 -121.5 -28.5c-18.667 0 -32.667 6 -42 18s-14 29.667 -14 53c0 14.667 3 42.334 9 83.001c1.33301 10.667 2.66602 19.334 3.99902 26.001z" />
    <glyph glyph-name="u" unicode="u" horiz-adv-x="1128" 
d="M786 262c-43.333 -90 -97.502 -158.502 -162.502 -205.502s-138.5 -70.5 -220.5 -70.5c-84 0 -150.333 24 -199 72s-73 113.333 -73 196c0 14 1.66699 35 5 63s8.66602 61.667 15.999 101l45 273c4 26 6.66699 44 8 54s2 18.333 2 25c0 27.333 -14.667 44.333 -44 51h-1
c-2 0.666992 -4.66699 1.33398 -8 2.00098c-23.333 5.33301 -35 16.333 -35 33c0 23.333 22 47.333 66 72s89.667 37 137 37c18.667 0 32.834 -6.16699 42.501 -18.5s14.5 -30.833 14.5 -55.5c0 -16.667 -5 -53.334 -15 -110.001
c-1.33301 -8.66699 -2.66602 -16 -3.99902 -22l-63 -403c-2.66699 -14.667 -4.66699 -28.667 -6 -42s-2 -26.666 -2 -39.999c0 -56 12.833 -99.333 38.5 -130s62.5 -46 110.5 -46c92.667 0 170.834 48.833 234.501 146.5s116.5 249.5 158.5 455.5l41 211
c3.33301 14.667 7.66602 24.5 12.999 29.5s16.333 7.5 33 7.5h94c8.66699 0 15.834 -2.66699 21.501 -8s8.5 -12 8.5 -20c0 -2.66699 -0.666992 -7.66699 -2 -15c-0.666992 -3.33301 -1.33398 -6 -2.00098 -8l-59 -313c-17.333 -94.667 -29.166 -165.5 -35.499 -212.5
s-9.5 -86.167 -9.5 -117.5c0 -20.667 1.83301 -38.5 5.5 -53.5s8.5 -25.167 14.5 -30.5c8 -6 22.667 -13.167 44 -21.5s32 -18.166 32 -29.499c0 -8.66699 -3 -17.334 -9 -26.001s-14.667 -17 -26 -25c-32 -24 -63 -43 -93 -57s-52.667 -21 -68 -21
c-20.667 0 -35.5 8.83301 -44.5 26.5s-13.5 46.834 -13.5 87.501c0 19.333 0.833008 42.5 2.5 69.5s4.16699 56.5 7.5 88.5z" />
    <glyph glyph-name="v" unicode="v" horiz-adv-x="1010" 
d="M201 684c2.66699 14 4.66406 26.833 5.99707 38.5s2 20.834 2 27.501c0 18.667 -2.16699 33 -6.5 43s-11.833 17.333 -22.5 22c-5.33301 2.66699 -13.666 5.33398 -24.999 8.00098c-25.333 6.66699 -38 17.667 -38 33c0 21.333 25.833 45.833 77.5 73.5
s102.834 41.5 153.501 41.5c20 0 33.833 -5.83301 41.5 -17.5s11.5 -31.834 11.5 -60.501c0 -30.667 -7.66699 -86.334 -23 -167.001l-3 -15l-33 -167c-32.667 -161.333 -49 -262 -49 -302c0 -52.667 11.833 -93.5 35.5 -122.5s56.834 -43.5 99.501 -43.5
c40 0 80 12.333 120 37s75.667 59.334 107 104.001c42 59.333 74.667 123.833 98 193.5s35 137.5 35 203.5c0 28 -1.83301 51.167 -5.5 69.5s-9.83398 33.5 -18.501 45.5c-6 8 -15.333 19.667 -28 35c-34.667 42.667 -52 78 -52 106c0 31.333 10.333 56.666 31 75.999
s47.334 29 80.001 29c38.667 0 69.167 -20.667 91.5 -62s33.5 -99.333 33.5 -174c0 -117.333 -14.833 -224 -44.5 -320s-74.5 -183 -134.5 -261c-46.667 -61.333 -99.5 -107.833 -158.5 -139.5s-122.167 -47.5 -189.5 -47.5c-86 0 -153.5 22.667 -202.5 68
s-73.5 107.333 -73.5 186c0 17.333 1.33301 36.5 4 57.5s6.66699 45.5 12 73.5z" />
    <glyph glyph-name="w" unicode="w" horiz-adv-x="1464" 
d="M725 291c-34 -98.667 -82.9951 -176.001 -146.995 -232.001s-135 -84 -213 -84c-73.333 0 -131.333 23.833 -174 71.5s-64 112.834 -64 195.501c0 20.667 1.5 44.167 4.5 70.5s8.16699 59.166 15.5 98.499l52 280c2 11.333 3.5 21.333 4.5 30s1.5 16 1.5 22
c0 16.667 -2.66699 30.167 -8 40.5s-13 17.5 -23 21.5l-18 6c-24.667 7.33301 -37 19 -37 35c0 19.333 25.5 42.833 76.5 70.5s98.5 41.5 142.5 41.5c15.333 0 27.666 -6.83301 36.999 -20.5s14 -31.834 14 -54.501c0 -15.333 -1.83301 -36.666 -5.5 -63.999
s-9.16699 -63.333 -16.5 -108c-5.33301 -31.333 -13.333 -75 -24 -131c-29.333 -162 -44 -269.333 -44 -322c0 -53.333 9.66699 -94.666 29 -123.999s46.666 -44 81.999 -44c76.667 0 144.334 51.667 203.001 155s105 252.333 139 447c8 48 15.667 98.333 23 151
s11.666 81.334 12.999 86.001c2.66699 6.66699 8 11.5 16 14.5s19.333 4.5 34 4.5h73c9.33301 0 16.5 -3 21.5 -9s7.5 -14.667 7.5 -26c0 -6.66699 -3 -28.334 -9 -65.001l-5 -33c-20.667 -139.333 -36.5 -255 -47.5 -347s-16.5 -156.667 -16.5 -194
c0 -56.667 9.66699 -99.167 29 -127.5s48.666 -42.5 87.999 -42.5c33.333 0 64.666 10.5 93.999 31.5s56.666 52.167 81.999 93.5c30.667 50 56.167 112.5 76.5 187.5s30.5 145.833 30.5 212.5c0 20.667 -2.83301 39 -8.5 55s-17.834 35.667 -36.501 59
c-18 22.667 -29.667 41.334 -35 56.001s-8 31 -8 49c0 33.333 7.83301 60.5 23.5 81.5s35.5 31.5 59.5 31.5c38.667 0 67.834 -21.5 87.501 -64.5s29.5 -105.5 29.5 -187.5c0 -76.667 -8.83301 -155.667 -26.5 -237s-42.167 -156 -73.5 -224
c-40 -88 -86.667 -153.667 -140 -197s-114 -65 -182 -65c-75.333 0 -132 23.167 -170 69.5s-57 115.166 -57 206.499v29z" />
    <glyph glyph-name="x" unicode="x" horiz-adv-x="1016" 
d="M442 385l-70.999 -104.002l-17 -25c-126 -187.333 -223 -281 -291 -281c-35.333 0 -63.5 7.5 -84.5 22.5s-31.5 34.833 -31.5 59.5c0 24 7.66699 43 23 57s36.333 21 63 21c8 0 18.833 -1.66699 32.5 -5s23.167 -5 28.5 -5c25.333 0 53.833 16.167 85.5 48.5
s72.834 87.833 123.501 166.5l86 133l-57 111c-0.666992 0.666992 -1.33398 1.66699 -2.00098 3c-72.667 141.333 -119.334 218 -140.001 230c-8.66699 5.33301 -27.5 9.83301 -56.5 13.5s-43.5 14.834 -43.5 33.501s22.333 40.5 67 65.5s88 37.5 130 37.5
c20.667 0 54.667 -50.667 102 -152c38 -82.667 71.333 -151 100 -205c98 142 177 238 237 288s121 75 183 75c40 0 70.833 -8.5 92.5 -25.5s32.5 -41.5 32.5 -73.5c0 -16 -5.5 -29.167 -16.5 -39.5s-25.167 -15.5 -42.5 -15.5c-16.667 0 -38.667 4.16699 -66 12.5
s-46.333 12.5 -57 12.5c-26.667 0 -67 -27.5 -121 -82.5s-118.667 -134.167 -194 -237.5c84 -156 150.333 -267.667 199 -335s86.667 -101 114 -101c8.66699 0 20.5 1.66699 35.5 5s25.833 5 32.5 5c10 0 17.5 -2.66699 22.5 -8s7.5 -13.333 7.5 -24
c0 -19.333 -20.833 -40.666 -62.5 -63.999s-82.167 -35 -121.5 -35c-30 0 -60.5 16.667 -91.5 50s-83.833 114.333 -158.5 243z" />
    <glyph glyph-name="y" unicode="y" horiz-adv-x="1010" 
d="M534 22c-18.667 -7.33301 -36.6631 -12.833 -53.9961 -16.5s-34 -5.5 -50 -5.5c-87.333 -0 -154.833 43.333 -202.5 130s-71.5 210 -71.5 370c0 54 1.66699 111.667 5 173s5 96.333 5 105c0 12 -1.83301 22.333 -5.5 31s-7.83398 14 -12.501 16
c-5.33301 2 -12.333 4 -21 6c-22 5.33301 -33 15 -33 29c0 24.667 24.333 49.334 73 74.001s98.667 37 150 37c18.667 0 32.334 -4.33301 41.001 -13s13 -22 13 -40c0 -2.66699 -6.16699 -45.834 -18.5 -129.501s-18.5 -166.167 -18.5 -247.5
c0 -145.333 14.833 -255.166 44.5 -329.499s73.5 -111.5 131.5 -111.5c30 0 58.667 12.167 86 36.5s56.666 64.166 87.999 119.499c41.333 74.667 75.166 151 101.499 229s39.5 135.333 39.5 172c0 30 -13.333 66.167 -40 108.5s-40 74.5 -40 96.5c0 30.667 9 56.5 27 77.5
s40 31.5 66 31.5c33.333 0 59.666 -15.833 78.999 -47.5s29 -75.167 29 -130.5c0 -106 -21.333 -222.5 -64 -349.5s-101 -246.833 -175 -359.5c-97.333 -148 -198 -265.5 -302 -352.5s-194 -130.5 -270 -130.5c-38 0 -67 7 -87 21s-30 34.333 -30 61
c0 28 7.83301 49.667 23.5 65s38.167 23 67.5 23c14 0 33.167 -3.5 57.5 -10.5s41.166 -10.5 50.499 -10.5c32 0 70 18.333 114 55s111.667 109 203 217z" />
    <glyph glyph-name="z" unicode="z" horiz-adv-x="877" 
d="M188 92c5.33301 0 13.332 -0.333008 23.999 -1c60 -2 102.667 -3 128 -3c104 0 176.833 7.83301 218.5 23.5s62.5 41.834 62.5 78.501c0 8 -1.16699 18.5 -3.5 31.5s-3.5 22.5 -3.5 28.5c0 24.667 8.16699 43.834 24.5 57.501s39.833 20.5 70.5 20.5
c26 0 46.5 -9 61.5 -27s22.5 -42.667 22.5 -74c0 -71.333 -31.167 -127 -93.5 -167s-149.5 -60 -261.5 -60h-391c-20.667 0 -36 4.16699 -46 12.5s-15 20.5 -15 36.5c0 19.333 10 47 30 83s49.333 78.667 88 128c56 72 148.667 172.667 278 302s223.333 228.666 282 297.999
c-24 -0.666992 -56.667 -1.33398 -98 -2.00098c-191.333 -3.33301 -287 -24.333 -287 -63c0 -8.66699 0.666992 -18.667 2 -30s2 -19.333 2 -24c0 -23.333 -7.83301 -42.833 -23.5 -58.5s-35.167 -23.5 -58.5 -23.5c-28.667 0 -51.667 9.33301 -69 28s-26 43 -26 73
c0 62.667 24.833 109.667 74.5 141s124.834 47 225.501 47h221h131c40 0 66.667 -4.5 80 -13.5s20 -26.167 20 -51.5c0 -36.667 -49.667 -107 -149 -211l-2 -2l-169 -169c-190 -186.667 -306.667 -323 -350 -409z" />
    <glyph glyph-name="braceleft" unicode="{" 
d="M846 1516l0.00195312 -51c-94.667 -1.33301 -159.334 -19.833 -194.001 -55.5s-52 -105.5 -52 -209.5v-143c0 -150.667 -20.333 -253.5 -61 -308.5s-116 -92.833 -226 -113.5c110 -20.667 185.333 -58.5 226 -113.5s61 -157.833 61 -308.5v-143
c0 -104 17.167 -173.5 51.5 -208.5s99.166 -53.167 194.499 -54.5v-51h-10c-144.667 0 -244 24.5 -298 73.5s-81 139.833 -81 272.5v213c0 105.333 -19.667 178 -59 218s-113.333 64.333 -222 73v60c110 10 184.333 34.667 223 74s58 111.333 58 216v213
c0 133.333 27 224.5 81 273.5s153.333 73.5 298 73.5h10z" />
    <glyph glyph-name="bar" unicode="|" 
d="M449 1565h126v-2048h-126v2048z" />
    <glyph glyph-name="braceright" unicode="}" 
d="M178 1516h10.002c144 0 243.167 -24.667 297.5 -74s81.5 -140.333 81.5 -273v-213c0 -104.667 19.333 -176.667 58 -216s113 -64 223 -74v-60c-108.667 -8.66699 -182.667 -33 -222 -73s-59 -112.667 -59 -218v-213c0 -132 -27.167 -222.667 -81.5 -272
s-153.5 -74 -297.5 -74h-10v51c95.333 1.33301 160.166 19.5 194.499 54.5s51.5 104.5 51.5 208.5v143c0 150.667 20.333 253.5 61 308.5s116 92.833 226 113.5c-110 20.667 -185.333 58.5 -226 113.5s-61 157.833 -61 308.5v143c0 104 -17.333 173.833 -52 209.5
s-99.334 54.167 -194.001 55.5v51z" />
    <glyph glyph-name="asciitilde" unicode="~" horiz-adv-x="1706" 
d="M1530 758l-0.00195312 -130.999c-67.333 -48 -133.166 -84 -197.499 -108s-127.5 -36 -189.5 -36c-28.667 0 -58.834 3 -90.501 9s-65.167 14.667 -100.5 26c-20 6.66699 -49 17 -87 31c-134.667 48 -235.334 72 -302.001 72c-55.333 0 -113.166 -12.5 -173.499 -37.5
s-130.833 -65.833 -211.5 -122.5v133c70 48.667 137.333 85 202 109s126.334 36 185.001 36c37.333 0 76.166 -4.16699 116.499 -12.5s98.5 -25.833 174.5 -52.5c8 -2.66699 19.667 -7 35 -13c109.333 -39.333 194 -59 254 -59c56.667 0 115.334 12.167 176.001 36.5
s130.334 64.166 209.001 119.499z" />
    <glyph glyph-name="nonbreakingspace" unicode="&#xa0;" horiz-adv-x="1124" 
 />
    <glyph glyph-name="exclamdown" unicode="&#xa1;" horiz-adv-x="561" 
d="M367 979l-62 -772.002c-8.66699 -106.667 -23.834 -175 -45.501 -205s-59.834 -45 -114.501 -45c-25.333 0 -44.166 7.66699 -56.499 23s-18.5 38.333 -18.5 69c0 14 1.33301 30.833 4 50.5s7.33398 43.834 14.001 72.501l178 825
c0.666992 2.66699 1.33398 5.66699 2.00098 9c14 65.333 35.333 98 64 98c11.333 0 20.666 -4.5 27.999 -13.5s11 -20.833 11 -35.5c0 -9.33301 -0.333008 -19.666 -1 -30.999s-1.66699 -26.333 -3 -45zM479 1405c0 -38.667 -10.332 -70.499 -30.999 -95.499
s-46.334 -37.5 -77.001 -37.5c-25.333 0 -47.833 9 -67.5 27s-29.5 39 -29.5 63c0 41.333 10.5 75.166 31.5 101.499s47.5 39.5 79.5 39.5c26.667 0 49 -9.5 67 -28.5s27 -42.167 27 -69.5z" />
    <glyph glyph-name="cent" unicode="&#xa2;" horiz-adv-x="1124" 
d="M471 -23c-125.333 0 -222.831 33.8311 -292.498 101.498s-104.5 162.167 -104.5 283.5c0 80.667 17.167 159.834 51.5 237.501s83.833 148.834 148.5 213.501c52.667 52 110.167 92.333 172.5 121s124.5 43 186.5 43h6l22 202c2.66699 22 8.5 37.833 17.5 47.5
s22.5 14.5 40.5 14.5c20 0 33.833 -2.83301 41.5 -8.5s11.5 -16.5 11.5 -32.5v-14l-27 -217c75.333 -10 133.166 -29.5 173.499 -58.5s60.5 -65.5 60.5 -109.5c0 -28 -9.5 -51.833 -28.5 -71.5s-42.167 -29.5 -69.5 -29.5c-38 0 -71.333 24.333 -100 73
c0 0.666992 -0.333008 1 -1 1c-0.666992 1.33301 -2.33398 4.33301 -5.00098 9c-32 52.667 -78 79 -138 79c-100.667 0 -189.667 -49 -267 -147s-116 -213.333 -116 -346c0 -88 22.333 -156.167 67 -204.5s107.667 -72.5 189 -72.5c36.667 0 74.167 5.16699 112.5 15.5
s75.833 25.833 112.5 46.5c24 12.667 52.333 32.834 85 60.501s55.667 41.5 69 41.5c10 0 18.667 -4.33301 26 -13s11 -19.334 11 -32.001c0 -36 -35.333 -77.833 -106 -125.5s-153.667 -80.167 -249 -97.5l-24 -193c0 -1.33301 -0.333008 -3.33301 -1 -6
c-6 -47.333 -25 -71.333 -57 -72c-15.333 0 -26.666 3.33301 -33.999 10s-11 17.667 -11 33c0 9.33301 0.166992 16.333 0.5 21s1.16602 9.66699 2.49902 15z" />
    <glyph glyph-name="sterling" unicode="&#xa3;" horiz-adv-x="1124" 
d="M256 719l-172.002 -0.00195312c-29.333 0 -50 3.5 -62 10.5s-18 18.5 -18 34.5c0 24 7 41.167 21 51.5s37 15.5 69 15.5h162c-0.666992 7.33301 -1.16699 15.166 -1.5 23.499s-0.5 20.5 -0.5 36.5c0 182.667 48.5 329.667 145.5 441s223.833 167 380.5 167
c112.667 0 204.334 -31.167 275.001 -93.5s106 -143.166 106 -242.499c0 -55.333 -11.333 -99.5 -34 -132.5s-53 -49.5 -91 -49.5c-23.333 0 -41.333 6.33301 -54 19s-19 30.334 -19 53.001c0 12.667 8.16699 33.334 24.5 62.001s24.5 54.334 24.5 77.001
c0 61.333 -22.167 111.833 -66.5 151.5s-101.5 59.5 -171.5 59.5c-99.333 0 -179.166 -45.667 -239.499 -137s-90.5 -213.666 -90.5 -366.999c0 -17.333 0.166992 -30.5 0.5 -39.5s0.833008 -17.5 1.5 -25.5h271c30 0 51.833 -3.66699 65.5 -11s20.5 -19 20.5 -35
c0 -22.667 -7.5 -39.167 -22.5 -49.5s-39.5 -15.5 -73.5 -15.5h-256v-21c0 -115.333 -25.333 -217.833 -76 -307.5s-128.667 -169.167 -234 -238.5c42 21.333 83 37.166 123 47.499s79.667 15.5 119 15.5c40 0 103.833 -13.667 191.5 -41s156.834 -41 207.501 -41
c42 0 79.5 12.667 112.5 38s50.833 38 53.5 38c8.66699 0 15.667 -2.83301 21 -8.5s8 -13.167 8 -22.5c0 -14.667 -9.5 -34.334 -28.5 -59.001s-43.833 -48.667 -74.5 -72c-36.667 -28 -71.667 -48 -105 -60s-70 -18 -110 -18c-54.667 0 -134.667 17.833 -240 53.5
s-185.666 53.5 -240.999 53.5c-72.667 0 -145.334 -16.333 -218.001 -49s-110 -49 -112 -49c-8 0 -14.333 3.83301 -19 11.5s-7 18.167 -7 31.5c0 28.667 31.167 58.667 93.5 90s110.166 60 143.499 86c72 56 123.5 117 154.5 183s46.5 147 46.5 243
c0 18 -1.33301 46.667 -4 86v6z" />
    <glyph glyph-name="currency" unicode="&#xa4;" horiz-adv-x="1241" 
d="M623 1200c-86.667 0 -160.667 -30.667 -222 -92s-92 -135 -92 -221c0 -87.333 30.5 -161.833 91.5 -223.5s135.167 -92.5 222.5 -92.5c86 0 159.667 31 221 93s92 136.333 92 223c0 86 -30.5 159.667 -91.5 221s-134.833 92 -221.5 92zM158 1419l207 -207.002
c40 30.667 80.833 53.5 122.5 68.5s86.167 22.5 133.5 22.5s92.5 -7.5 135.5 -22.5s84.5 -37.833 124.5 -68.5l204 207l72 -73l-205 -205c28.667 -38 50.167 -78.333 64.5 -121s21.5 -87.667 21.5 -135s-7.16699 -92.5 -21.5 -135.5s-35.833 -83.167 -64.5 -120.5l205 -205
l-72 -74l-204 207c-38 -29.333 -78.5 -51.333 -121.5 -66s-89.167 -22 -138.5 -22s-94.833 7.16699 -136.5 21.5s-81.5 36.5 -119.5 66.5l-207 -207l-72 74l207 205c-29.333 38.667 -51.333 79.334 -66 122.001s-22 87.334 -22 134.001c0 46 7.33301 90.5 22 133.5
s36.667 83.833 66 122.5l-207 205z" />
    <glyph glyph-name="yen" unicode="&#xa5;" horiz-adv-x="1341" 
d="M1395 1485c12 0 21.834 -3.83594 29.501 -11.5029s11.5 -17.5 11.5 -29.5c0 -15.333 -12.833 -33.166 -38.5 -53.499s-44.167 -37.833 -55.5 -52.5c-2.66699 -3.33301 -32.5 -44.666 -89.5 -123.999l-173.5 -231h201c10 0 18 -3 24 -9s9 -14 9 -24
c0 -12 -3.83301 -22.167 -11.5 -30.5s-16.834 -12.5 -27.501 -12.5h-258l-131 -145l-84 -88h430c10 0 18 -3 24 -9s9 -14 9 -24c0 -12.667 -3.5 -23 -10.5 -31s-15.833 -12 -26.5 -12h-500l-53 -352c-2.66699 -18 -4.66699 -34 -6 -48s-2 -24 -2 -30
c0 -28 13.667 -49.667 41 -65c7.33301 -4 12.666 -7 15.999 -9l1 -1c28 -16 42 -32.667 42 -50c0 -12.667 -4.83301 -23 -14.5 -31s-22.5 -12 -38.5 -12h-316c-14.667 0 -26.167 3.83301 -34.5 11.5s-12.5 18.167 -12.5 31.5c0 22 20 39.667 60 53c22.667 8 39.667 15 51 21
c13.333 6.66699 23.666 18.834 30.999 36.501s14 47.834 20 90.501l49 354h-516c-10 0 -18 2.83301 -24 8.5s-9 13.167 -9 22.5c0 12.667 3.83301 23.334 11.5 32.001s16.834 13 27.501 13h459l-66.5 105.5l-76.5 127.5h-273c-10 0 -18 2.83301 -24 8.5s-9 13.167 -9 22.5
c0 12.667 3.66699 23.334 11 32.001s16 13 26 13h226c-35.333 70.667 -69.833 144.167 -103.5 220.5s-52.5 118.166 -56.5 125.499c-7.33301 12 -23.5 28.5 -48.5 49.5s-37.5 40.167 -37.5 57.5c0 13.333 5.33301 24.833 16 34.5s23 14.5 37 14.5h254
c23.333 0 40.833 -3.66699 52.5 -11s17.5 -18 17.5 -32c0 -18.667 -13.667 -35 -41 -49c-3.33301 -2 -6 -3.33301 -8 -4c-2.66699 -1.33301 -5.66699 -3 -9 -5c-36.667 -19.333 -55 -38.333 -55 -57c0 -34.667 30.167 -109.334 90.5 -224.001
s140.833 -247.334 241.5 -398.001c148 147.333 269 280 363 398s141 192.667 141 224c0 19.333 -16.833 39 -50.5 59s-50.5 39.333 -50.5 58c0 11.333 4.83301 21 14.5 29s21.834 12 36.501 12h267z" />
    <glyph glyph-name="brokenbar" unicode="&#xa6;" 
d="M449 408h126v-758h-126v758zM449 1432h126v-758h-126v758z" />
    <glyph glyph-name="section" unicode="&#xa7;" 
d="M266 788c0 -22.667 5.83398 -48.3311 17.501 -76.998s29.834 -61.667 54.501 -99c49.333 -78 92.166 -132.333 128.499 -163s74.166 -46 113.499 -46c45.333 0 82.833 14.167 112.5 42.5s44.5 63.5 44.5 105.5c0 20.667 -4.83301 43.167 -14.5 67.5
s-30.834 61.166 -63.501 110.499c-58 89.333 -102.5 146.166 -133.5 170.499s-65.5 36.5 -103.5 36.5c-43.333 0 -80.166 -14.333 -110.499 -43s-45.5 -63.667 -45.5 -105zM532.001 365.003c45.333 -50.667 79.6689 -100.668 103.002 -150.001s35 -97 35 -143
c0 -74.667 -29.167 -136 -87.5 -184s-133.166 -72 -224.499 -72c-80.667 0 -147.167 20.667 -199.5 62s-78.5 93 -78.5 155c0 32 10.167 58.667 30.5 80s46.166 32 77.499 32c24 0 44.667 -8.5 62 -25.5s26 -37.167 26 -60.5c0 -21.333 -11.5 -46 -34.5 -74
s-34.5 -47 -34.5 -57c0 -19.333 12.667 -35.666 38 -48.999s57.666 -20 96.999 -20c59.333 0 107.666 16.5 144.999 49.5s56 75.833 56 128.5c0 56.667 -42.333 137.667 -127 243l-29 35l-102 127c-51.333 63.333 -87.5 117.333 -108.5 162s-31.5 88.334 -31.5 131.001
c0 72.667 24 132.167 72 178.5s110 69.5 186 69.5c11.333 0 22.666 -0.5 33.999 -1.5s22.666 -2.5 33.999 -4.5c-46 51.333 -80 99.5 -102 144.5s-33 88.833 -33 131.5c0 76 29.833 138 89.5 186s136.834 72 231.501 72c69.333 0 128 -19.167 176 -57.5s72 -84.5 72 -138.5
c0 -34.667 -9.33301 -62.5 -28 -83.5s-43.334 -31.5 -74.001 -31.5c-26.667 0 -48.667 8 -66 24s-26 36 -26 60c0 22 10.5 45.667 31.5 71s31.5 42 31.5 50c0 15.333 -12.667 29.666 -38 42.999s-55.666 20 -90.999 20c-54 0 -98.833 -15.5 -134.5 -46.5
s-53.5 -69.833 -53.5 -116.5c0 -55.333 50.667 -146.333 152 -273c1.33301 -1.33301 2.33301 -2.66602 3 -3.99902l103 -127c52.667 -64.667 89.667 -119.834 111 -165.501s32 -90.167 32 -133.5c0 -71.333 -23.667 -130.166 -71 -176.499s-107.666 -69.5 -180.999 -69.5
c-12.667 0 -25.167 0.666992 -37.5 2s-24.5 3.66602 -36.5 6.99902z" />
    <glyph glyph-name="dieresis" unicode="&#xa8;" 
d="M700 1233c0 25.333 10.001 48 30.001 68s43 30 69 30c26.667 0 50 -9.83301 70 -29.5s30 -42.5 30 -68.5c0 -28.667 -9.5 -52.5 -28.5 -71.5s-42.833 -28.5 -71.5 -28.5c-26.667 0 -49.834 9.83301 -69.501 29.5s-29.5 43.167 -29.5 70.5zM352.001 1233
c0 25.333 9.99902 48 29.999 68s43 30 69 30s48.833 -9.66699 68.5 -29s29.5 -42.333 29.5 -69c0 -29.333 -9.33301 -53.333 -28 -72s-42 -28 -70 -28c-27.333 0 -50.666 9.83301 -69.999 29.5s-29 43.167 -29 70.5z" />
    <glyph glyph-name="copyright" unicode="&#xa9;" horiz-adv-x="1683" 
d="M1120 1096l35.0049 -0.000976562l2 -314h-41c-22.667 91.333 -57.334 160 -104.001 206s-105.334 69 -176.001 69c-82 0 -143.833 -31.5 -185.5 -94.5s-62.5 -155.833 -62.5 -278.5c0 -126 22.333 -221 67 -285s111 -96 199 -96c57.333 0 109.333 14.333 156 43
s89 72.334 127 131.001l34 -24c-38.667 -70 -86.334 -122.333 -143.001 -157s-123 -52 -199 -52c-111.333 0 -206.333 41 -285 123s-118 181 -118 297c0 124 38.667 228 116 312s172.333 126 285 126c49.333 0 98.666 -11.333 147.999 -34s76.666 -34 81.999 -34
c18 0 32 4.83301 42 14.5s17 25.5 21 47.5zM844.005 1303c-82 0 -161.169 -16.167 -237.502 -48.5s-143.166 -77.833 -200.499 -136.5c-58.667 -59.333 -103.5 -126.833 -134.5 -202.5s-46.5 -154.834 -46.5 -237.501c0 -83.333 15.667 -162.833 47 -238.5
s76.666 -142.834 135.999 -201.501c58.667 -59.333 124.834 -104.333 198.501 -135s152.167 -46 235.5 -46c84 0 162.833 15.333 236.5 46s139.5 75.667 197.5 135c58.667 60 103.667 127.667 135 203s47 154.333 47 237s-15.833 162.834 -47.5 240.501
s-75.834 144.834 -132.501 201.501c-57.333 58 -124.166 103 -200.499 135s-154.166 48 -233.499 48zM844.003 1382c91.333 0 180.165 -17.833 266.498 -53.5s161.833 -85.834 226.5 -150.501c65.333 -64.667 116.166 -140.834 152.499 -228.501s54.5 -178.167 54.5 -271.5
s-17.667 -182.666 -53 -267.999s-86.666 -162 -153.999 -230c-65.333 -66.667 -140.333 -117.5 -225 -152.5s-174.667 -52.5 -270 -52.5s-185 17.5 -269 52.5s-159.667 85.833 -227 152.5s-118.666 142.334 -153.999 227.001s-53 175 -53 271
c0 93.333 17.667 182.833 53 268.5s86 162.167 152 229.5c65.333 66 141.333 116.833 228 152.5s177.334 53.5 272.001 53.5z" />
    <glyph glyph-name="ordfeminine" unicode="&#xaa;" horiz-adv-x="758" 
d="M418 1399c-32 0 -62.3311 -8.16797 -90.998 -24.501s-56.334 -41.166 -83.001 -74.499c-28 -34.667 -49.333 -73 -64 -115s-22 -84.667 -22 -128c0 -58.667 14.167 -105.5 42.5 -140.5s65.166 -52.5 110.499 -52.5c30 0 59 8.33301 87 25s52.333 39.667 73 69
c26.667 39.333 47.667 84.333 63 135s23 100.667 23 150c0 50 -12.167 88.5 -36.5 115.5s-58.5 40.5 -102.5 40.5zM532.002 957.999c-18 -56 -49.332 -99.6631 -93.999 -130.996s-97.667 -47 -159 -47c-73.333 0 -131.333 24.5 -174 73.5s-64 116.167 -64 201.5
c0 55.333 10.833 109.5 32.5 162.5s52.5 100.5 92.5 142.5c36.667 39.333 77.167 69.333 121.5 90s91.166 31 140.499 31c36.667 0 68.334 -6 95.001 -18s48.334 -30 65.001 -54c19.333 20 37.166 35.167 53.499 45.5s31.166 15.5 44.499 15.5c6.66699 0 12.167 -2 16.5 -6
s6.5 -9.33301 6.5 -16c0 -4.66699 -3.66699 -25.334 -11 -62.001c-6 -30 -10.667 -54.333 -14 -73l-31 -180c-5.33301 -32.667 -9.33301 -63.834 -12 -93.501s-4 -56.834 -4 -81.501c0 -12.667 1.16699 -23.334 3.5 -32.001s5.5 -13.667 9.5 -15
c7.33301 -4.66699 19.666 -9.5 36.999 -14.5s26 -11.5 26 -19.5c0 -6.66699 -2.16699 -13.334 -6.5 -20.001s-10.5 -12.334 -18.5 -17.001c-23.333 -15.333 -46.166 -27.833 -68.499 -37.5s-39.833 -14.5 -52.5 -14.5c-14 0 -24.333 6.16699 -31 18.5s-10 31.5 -10 57.5
c0 8.66699 0.5 20.834 1.5 36.501s2.5 34.834 4.5 57.501z" />
    <glyph glyph-name="guillemotleft" unicode="&#xab;" horiz-adv-x="801" 
d="M735 805c14.667 0 25.499 -2.66699 32.499 -8s10.5 -13.666 10.5 -24.999c0 -6.66699 -1.5 -13.167 -4.5 -19.5s-7.5 -12.833 -13.5 -19.5l-250 -262l178 -274c2.66699 -4 4.66699 -8.33301 6 -13s2 -10 2 -16c0 -9.33301 -3.83301 -16.833 -11.5 -22.5
s-18.167 -8.5 -31.5 -8.5h-26c-14 0 -25 2 -33 6s-15.667 11 -23 21l-178 266c-6.66699 10 -11 17.833 -13 23.5s-3 11.5 -3 17.5c0 6.66699 1.66699 13.5 5 20.5s8.33301 13.833 15 20.5l252 266c8 9.33301 16.833 16.166 26.5 20.499s20.834 6.5 33.501 6.5h26z
M421.999 805c14.667 0 25.499 -2.66699 32.499 -8s10.5 -13.666 10.5 -24.999c0 -6.66699 -1.5 -13.167 -4.5 -19.5s-7.83301 -12.833 -14.5 -19.5l-249 -262l178 -275c2.66699 -3.33301 4.66699 -7.33301 6 -12s2 -10 2 -16c0 -9.33301 -3.83301 -16.833 -11.5 -22.5
s-18.167 -8.5 -31.5 -8.5h-27c-13.333 0 -24.166 2 -32.499 6s-15.833 11 -22.5 21l-176 266c-0.666992 1.33301 -2 3.33301 -4 6c-10 14 -15 25.667 -15 35c0 6 2 12.5 6 19.5s9.66699 14.167 17 21.5l250 266c8 9.33301 16.833 16.166 26.5 20.499s20.5 6.5 32.5 6.5h27z
" />
    <glyph glyph-name="logicalnot" unicode="&#xac;" horiz-adv-x="1706" 
d="M254 858h1198v-502h-115v385h-1083v117z" />
    <glyph glyph-name="sfthyphen" unicode="&#xad;" horiz-adv-x="678" 
d="M127 408c-21.333 0 -34.167 1.5 -38.5 4.5s-6.5 8.83301 -6.5 17.5c0 0.666992 0.333008 2.33398 1 5.00098s1 5 1 7l8 47c3.33301 18 8.83301 30.5 16.5 37.5s19.834 10.5 36.501 10.5h396c18.667 0 31.167 -2 37.5 -6s9.5 -10.333 9.5 -19
c0 -1.33301 -0.333008 -3.33301 -1 -6s-1 -4.66699 -1 -6l-8 -47c-4.66699 -18.667 -10.334 -30.834 -17.001 -36.501s-19 -8.5 -37 -8.5h-397z" />
    <glyph glyph-name="registered" unicode="&#xae;" horiz-adv-x="1683" 
d="M729 719c10.667 -0.666992 21.334 -1.16797 32.001 -1.50098s22 -0.5 34 -0.5c74.667 0 132.5 15.167 173.5 45.5s61.5 73.166 61.5 128.499c0 48.667 -17.667 87.834 -53 117.501s-83 44.5 -143 44.5c-34.667 0 -60.834 -6.16699 -78.501 -18.5
s-26.5 -30.166 -26.5 -53.499v-262zM469 1092l393 -0.000976562c98 0 175.5 -18.167 232.5 -54.5s85.5 -85.166 85.5 -146.499c0 -50.667 -23.167 -92 -69.5 -124s-118.833 -57 -217.5 -75c62 -19.333 109.333 -45.166 142 -77.499s56.334 -76.833 71.001 -133.5
c4 -14.667 7.66699 -35.667 11 -63c8.66699 -58.667 28.334 -88 59.001 -88c21.333 0 37.833 11.333 49.5 34s17.5 55.667 17.5 99h43v-12c0 -58.667 -13.5 -103.167 -40.5 -133.5s-66.833 -45.5 -119.5 -45.5c-30.667 0 -56.834 5.66699 -78.501 17
s-37.834 27.666 -48.501 48.999c-12 26.667 -19 64.5 -21 113.5s-5 80.833 -9 95.5c-13.333 45.333 -36.833 78.833 -70.5 100.5s-79.167 32.5 -136.5 32.5h-33v-248c0 -36 8.83301 -61.167 26.5 -75.5s50.5 -22.833 98.5 -25.5v-40h-385v40c48 2 81.167 10.167 99.5 24.5
s27.5 39.833 27.5 76.5v516c0 36.667 -8.66699 62 -26 76s-51 22.333 -101 25v43zM844 1303c-81.333 0 -160.002 -15.9971 -236.002 -47.9971s-143.333 -77.667 -202 -137s-103.5 -126.833 -134.5 -202.5s-46.5 -154.834 -46.5 -237.501
c0 -84.667 15.5 -164.334 46.5 -239.001s76.5 -141.667 136.5 -201c58.667 -59.333 124.834 -104.333 198.501 -135s152.167 -46 235.5 -46c84 0 162.833 15.333 236.5 46s139.5 75.667 197.5 135c58.667 60 103.667 127.667 135 203s47 154.333 47 237
s-15.833 163.167 -47.5 241.5s-75.834 145.166 -132.501 200.499c-57.333 58 -124.166 103 -200.499 135s-154.166 48 -233.499 48zM843.998 1382c92 0 181.499 -18.001 268.499 -54.001s163.167 -86.667 228.5 -152c64.667 -64.667 114.667 -140.667 150 -228
s53 -178 53 -272c0 -91.333 -18.5 -180.5 -55.5 -267.5s-89.5 -164.5 -157.5 -232.5c-66 -66 -140.833 -116 -224.5 -150s-173.834 -51 -270.501 -51c-91.333 0 -179 17.5 -263 52.5s-159.667 85.833 -227 152.5s-118.666 142.334 -153.999 227.001s-53 175 -53 271
c0 93.333 17.667 182.833 53 268.5s86 162.167 152 229.5c65.333 66 141.333 116.833 228 152.5s177.334 53.5 272.001 53.5z" />
    <glyph glyph-name="macron" unicode="&#xaf;" 
d="M354 1169l27 125h516l-27 -125h-516z" />
    <glyph glyph-name="degree" unicode="&#xb0;" horiz-adv-x="674" 
d="M338 1372c-56 0 -103.833 -19.5 -143.5 -58.5s-59.5 -86.5 -59.5 -142.5s19.833 -103.667 59.5 -143s87.5 -59 143.5 -59s103.5 19.667 142.5 59s58.5 87 58.5 143s-19.5 103.5 -58.5 142.5s-86.5 58.5 -142.5 58.5zM338 1454c78 0 144.668 -27.6689 200.001 -83.002
s83 -122 83 -200c0 -77.333 -27.833 -143.666 -83.5 -198.999s-122.834 -83 -201.501 -83s-145.167 27.333 -199.5 82s-81.5 121.334 -81.5 200.001c0 79.333 27.5 146.333 82.5 201s121.833 82 200.5 82z" />
    <glyph glyph-name="plusminus" unicode="&#xb1;" horiz-adv-x="1706" 
d="M254 158h1198v-117h-1198v117zM795 1180h118v-344h539v-117h-539v-344h-118v344h-541v117h541v344z" />
    <glyph glyph-name="twosuperior" unicode="&#xb2;" horiz-adv-x="741" 
d="M451 594l-418.001 -0.00195312c-28.667 0 -47.5 2.16699 -56.5 6.5s-13.5 11.833 -13.5 22.5c0 19.333 24.167 56.5 72.5 111.5s112.833 117.5 193.5 187.5c22.667 19.333 65 53.333 127 102s105.667 87 131 115c31.333 32 54.333 61.833 69 89.5s22 55.167 22 82.5
c0 38.667 -13.667 69.834 -41 93.501s-63.666 35.5 -108.999 35.5c-57.333 0 -107.833 -16.167 -151.5 -48.5s-65.5 -68.166 -65.5 -107.499c0 -8.66699 3.66699 -20.5 11 -35.5s11 -25.5 11 -31.5c0 -22.667 -6.66699 -40.334 -20 -53.001s-31.666 -19 -54.999 -19
c-22 0 -39.833 7.33301 -53.5 22s-20.5 34 -20.5 58c0 25.333 6.83301 52 20.5 80s32.834 54.333 57.501 79c35.333 37.333 77.666 65.833 126.999 85.5s103.333 29.5 162 29.5c75.333 0 135.666 -18 180.999 -54s68 -83.333 68 -142c0 -48.667 -16.833 -97.667 -50.5 -147
s-80.834 -94.666 -141.501 -135.999l-26 -18c-198.667 -134 -324.667 -240.667 -378 -320h7c38.667 -2.66699 66 -4 82 -4c78.667 0 142.167 1.33301 190.5 4s78.833 6.66699 91.5 12c18 5.33301 39.167 20 63.5 44s42.833 36 55.5 36c8.66699 0 15.334 -2.5 20.001 -7.5
s7 -12.833 7 -23.5c0 -6.66699 -7.66699 -24 -23 -52c-3.33301 -6 -6 -11 -8 -15c-2 -3.33301 -5 -8.66602 -9 -15.999c-15.333 -28 -29.333 -46 -42 -54c-7.33301 -4.66699 -17.333 -7.83398 -30 -9.50098s-32 -2.5 -58 -2.5z" />
    <glyph glyph-name="threesuperior" unicode="&#xb3;" horiz-adv-x="741" 
d="M430 1071c71.333 -4 126.334 -23.1621 165.001 -57.4951s58 -81.5 58 -141.5c0 -84.667 -36.5 -155.334 -109.5 -212.001s-166.167 -85 -279.5 -85c-88 0 -158.5 16.167 -211.5 48.5s-79.5 75.166 -79.5 128.499c0 25.333 6.66699 45.666 20 60.999s30.666 23 51.999 23
c18 0 32.333 -5.16699 43 -15.5s16 -24.5 16 -42.5c0 -4.66699 -1 -11.834 -3 -21.501s-3 -17.5 -3 -23.5c0 -28.667 15.667 -51.5 47 -68.5s73.666 -25.5 126.999 -25.5c75.333 0 135.166 21.167 179.499 63.5s66.5 99.5 66.5 171.5c0 50 -17.167 89.167 -51.5 117.5
s-81.833 42.5 -142.5 42.5c-3.33301 0 -11.666 -0.333008 -24.999 -1s-25 -1 -35 -1c-11.333 0 -20.666 2.83301 -27.999 8.5s-11 12.5 -11 20.5c0 20 25.333 32.667 76 38c18.667 2 33.334 3.66699 44.001 5c72.667 9.33301 128.5 31.166 167.5 65.499
s58.5 79.5 58.5 135.5c0 40 -12.833 71.167 -38.5 93.5s-61.834 33.5 -108.501 33.5c-44 0 -81 -9.16699 -111 -27.5s-45 -40.166 -45 -65.499c0 -3.33301 0.333008 -8.16602 1 -14.499s1 -10.833 1 -13.5c0 -19.333 -6.66699 -34.833 -20 -46.5s-31 -17.5 -53 -17.5
c-22.667 0 -41 6.33301 -55 19s-21 29 -21 49c0 44 32.5 85.333 97.5 124s139.5 58 223.5 58c80 0 143.333 -16.833 190 -50.5s70 -78.834 70 -135.501c0 -60.667 -23.5 -111.834 -70.5 -153.501s-114.167 -70.5 -201.5 -86.5z" />
    <glyph glyph-name="acute" unicode="&#xb4;" 
d="M512 1083l-70 -0.000976562l297 314c12.667 12.667 26.5 23 41.5 31s28.5 12 40.5 12c18.667 0 34.667 -7 48 -21s20 -30.333 20 -49c0 -14 -5.16699 -27.167 -15.5 -39.5s-28.5 -27.166 -54.5 -44.499z" />
    <glyph glyph-name="mu" unicode="&#xb5;" horiz-adv-x="1120" 
d="M164 193c-18 -90.667 -35.3301 -203.666 -51.9971 -338.999c-22.667 -181.333 -60 -272 -112 -272c-24.667 0 -44.167 7.83301 -58.5 23.5s-21.5 37.167 -21.5 64.5c0 26.667 21.5 117.834 64.5 273.501s78.167 298.167 105.5 427.5l109 514h147l-104 -492
c-4 -20 -7.16699 -39.5 -9.5 -58.5s-3.5 -36.833 -3.5 -53.5c0 -55.333 14 -98.333 42 -129s67.333 -46 118 -46c65.333 0 119.833 22.833 163.5 68.5s75.167 112.5 94.5 200.5l111 510h149l-114 -531c-8.66699 -39.333 -14.334 -68.5 -17.001 -87.5s-4 -35.5 -4 -49.5
c0 -32 8.66699 -58 26 -78s39.333 -30 66 -30c23.333 0 45.166 6 65.499 18s37.5 29 51.5 51s27.667 53.167 41 93.5s26.333 60.5 39 60.5c8 0 14.333 -3.33301 19 -10s7 -15.667 7 -27c0 -16.667 -3.66699 -38.834 -11 -66.501s-17 -55.5 -29 -83.5
c-25.333 -54.667 -57 -95.5 -95 -122.5s-83 -40.5 -135 -40.5c-45.333 0 -81.5 17 -108.5 51s-40.5 80.333 -40.5 139v23c-30.667 -73.333 -69.334 -128 -116.001 -164s-101.667 -54 -165 -54c-64 0 -114.833 18.167 -152.5 54.5s-61.167 90.166 -70.5 161.499z" />
    <glyph glyph-name="paragraph" unicode="&#xb6;" 
d="M948 1479l-0.00195312 -78h-125v-1401h-94v1401h-182v-1401h-96v782c-115.333 5.33301 -206.666 39.5 -273.999 102.5s-101 144.833 -101 245.5c0 104.667 35.833 189 107.5 253s166.834 96 285.501 96h479z" />
    <glyph glyph-name="periodcentered" unicode="&#xb7;" horiz-adv-x="561" 
d="M172 774c0 31.333 10.5 57.668 31.5 79.001s46.833 32 77.5 32s56.667 -10.833 78 -32.5s32 -47.834 32 -78.501s-10.667 -56.334 -32 -77.001s-47.333 -31 -78 -31c-31.333 0 -57.333 10.333 -78 31s-31 46.334 -31 77.001z" />
    <glyph glyph-name="cedilla" unicode="&#xb8;" 
d="M188 -373l33.001 80.002c41.333 -22.667 81.666 -40.334 120.999 -53.001s74 -19 104 -19c42 0 72.667 7.5 92 22.5s29 38.5 29 70.5c0 27.333 -9.83301 49.166 -29.5 65.499s-46.5 24.5 -80.5 24.5c-10.667 0 -23.667 -1 -39 -3s-33 -5.33301 -53 -10l63 195h64
l-37 -112l32.5 4c11 1.33301 21.167 2 30.5 2c56 0 100.333 -14.833 133 -44.5s49 -69.5 49 -119.5c0 -54.667 -19.833 -97.667 -59.5 -129s-94.167 -47 -163.5 -47c-36 0 -77.333 5.83301 -124 17.5s-101.667 30.167 -165 55.5z" />
    <glyph glyph-name="onesuperior" unicode="&#xb9;" horiz-adv-x="741" 
d="M80 594c-12 0 -21.1719 1.99805 -27.5049 5.99805s-9.5 9.33301 -9.5 16c0 20.667 26 32 78 34c22.667 0.666992 39.667 1.66699 51 3c55.333 6.66699 93 65.334 113 176.001l2 13l67 397c2.66699 12.667 4.66699 24.667 6 36s2 21.333 2 30
c0 15.333 -5.66699 26.333 -17 33s-32 10 -62 10c-10.667 0 -25.667 -0.333008 -45 -1s-33.666 -1 -42.999 -1c-15.333 0 -27.166 2.33301 -35.499 7s-12.5 11 -12.5 19c0 14.667 22.333 25.667 67 33c36.667 6 66.334 12 89.001 18c36.667 10 73.5 24.5 110.5 43.5
s58.167 28.5 63.5 28.5c10.667 0 18.167 -2.16699 22.5 -6.5s6.5 -11.833 6.5 -22.5c0 -4 -1 -13 -3 -27c-0.666992 -3.33301 -1 -5.66602 -1 -6.99902l-113 -656c-2 -10.667 -3.5 -20.667 -4.5 -30s-1.5 -19.666 -1.5 -30.999c0 -19.333 6 -34 18 -44s30.667 -16 56 -18
c5.33301 0 13.333 -0.333008 24 -1c44.667 -2.66699 67.334 -12.334 68.001 -29.001c0 -8.66699 -3.66699 -15.667 -11 -21s-16.666 -8 -27.999 -8h-430z" />
    <glyph glyph-name="ordmasculine" unicode="&#xba;" horiz-adv-x="840" 
d="M176 1069c0 -70 17.5 -124.333 52.5 -163s83.833 -58 146.5 -58c81.333 0 149.5 32.833 204.5 98.5s82.5 148.167 82.5 247.5c0 66 -17.167 118 -51.5 156s-80.833 57 -139.5 57c-45.333 0 -85.5 -9 -120.5 -27s-67.833 -46.667 -98.5 -86
c-24 -32.667 -42.667 -68.667 -56 -108s-20 -78.333 -20 -117zM41 1067c0 49.333 10.5 99.168 31.5 149.501s49.5 94.166 85.5 131.499c43.333 44.667 91.5 78 144.5 100s111.167 33 174.5 33c98 0 175.833 -26 233.5 -78s86.5 -122.333 86.5 -211
c0 -54.667 -10.833 -107.167 -32.5 -157.5s-53.167 -96.166 -94.5 -137.499c-38.667 -40 -83.834 -70.167 -135.501 -90.5s-108.167 -30.5 -169.5 -30.5c-101.333 0 -180.666 25.667 -237.999 77s-86 122.666 -86 213.999z" />
    <glyph glyph-name="guillemotright" unicode="&#xbb;" horiz-adv-x="801" 
d="M379 137c-14.667 0 -25.5 2.66699 -32.5 8s-10.5 13.666 -10.5 24.999c0 6.66699 1.5 13.167 4.5 19.5s7.5 12.833 13.5 19.5l250 262l-178 275c-2.66699 3.33301 -4.66699 7.33301 -6 12s-2 10 -2 16c0 9.33301 3.83301 16.833 11.5 22.5s18.167 8.5 31.5 8.5h26
c14 0 25 -2 33 -6s15.667 -11 23 -21l178 -266c6.66699 -10 11 -17.833 13 -23.5s3 -11.5 3 -17.5c0 -6.66699 -1.66699 -13.5 -5 -20.5s-8.33301 -13.833 -15 -20.5l-252 -266c-8 -9.33301 -16.833 -16.166 -26.5 -20.499s-20.5 -6.5 -32.5 -6.5h-27zM66 137
c-14.667 0 -25.166 2.66797 -31.499 8.00098s-9.5 13.666 -9.5 24.999c0 6.66699 1.5 13.167 4.5 19.5s7.5 12.833 13.5 19.5l250 262l-180 274c-2 2.66699 -3.5 6 -4.5 10s-1.83301 10.333 -2.5 19c0 9.33301 3.66699 16.833 11 22.5s17.333 8.5 30 8.5h27
c14 0 25 -2 33 -6s15.333 -11 22 -21l179 -266c6.66699 -10.667 11 -18.834 13 -24.501s3 -11.167 3 -16.5c0 -6.66699 -1.83301 -13.5 -5.5 -20.5s-8.83398 -13.833 -15.501 -20.5l-251 -266c-8.66699 -9.33301 -17.667 -16.166 -27 -20.499s-20.333 -6.5 -33 -6.5h-26z
" />
    <glyph glyph-name="onequarter" unicode="&#xbc;" horiz-adv-x="1757" 
d="M1450 287l88 461c-98 -76 -181 -152.167 -249 -228.5s-122.333 -153.833 -163 -232.5h324zM1438 219l-369.001 0.00195312c-13.333 0 -23.5 2.5 -30.5 7.5s-10.5 12.167 -10.5 21.5c0 26.667 23.333 75.167 70 145.5s106 141.166 178 212.499
c71.333 72 137.333 129.667 198 173s104 65 130 65c12.667 0 23.334 -3.5 32.001 -10.5s13 -15.833 13 -26.5c0 -4.66699 -0.5 -11.167 -1.5 -19.5s-2.83301 -18.5 -5.5 -30.5l-88 -470h113c18 0 30 -2 36 -6s9 -11 9 -21c0 -16.667 -3.33301 -28.334 -10 -35.001
s-19 -10 -37 -10c-6.66699 0 -15.667 0.166992 -27 0.5s-24.333 0.833008 -39 1.5l-59 2l-20 -112c-0.666992 -1.33301 -1.16699 -3.16602 -1.5 -5.49902s-0.5 -5.5 -0.5 -9.5c0 -6.66699 1.16699 -12.834 3.5 -18.501s5.5 -10.167 9.5 -13.5
c3.33301 -2.66699 12.5 -6.66699 27.5 -12s22.5 -13 22.5 -23c0 -7.33301 -4 -13.333 -12 -18s-18.333 -7 -31 -7h-199c-9.33301 0 -16.666 2 -21.999 6s-8 9.66699 -8 17c0 13.333 15.667 24.333 47 33c2.66699 0.666992 4.66699 1 6 1c20.667 6 34.667 14 42 24
s13.666 30 18.999 60zM1307 1473c6.66699 11.333 14.666 19.832 23.999 25.499s19 8.5 29 8.5c9.33301 0 16.833 -3.16699 22.5 -9.5s8.5 -14.5 8.5 -24.5c0 -5.33301 -0.666992 -10.166 -2 -14.499s-3.66602 -9.5 -6.99902 -15.5l-931 -1436
c-8 -12.667 -16 -21.667 -24 -27s-17.333 -8.33301 -28 -9c-9.33301 0 -17 3.33301 -23 10s-9 15 -9 25c0 4 0.666992 8.16699 2 12.5s4 9.83301 8 16.5zM75.998 653.001c-12.667 0 -21.668 1.66992 -27.001 5.00293s-8 8.66602 -8 15.999c0 20 26 30.667 78 32
c19.333 0.666992 34.333 1.66699 45 3c53.333 6 88.666 59.333 105.999 160c0.666992 6.66699 1.33398 12 2.00098 16l66 370c2.66699 12 4.66699 23.333 6 34s2 20 2 28c0 14.667 -5.16699 24.834 -15.5 30.501s-30.5 8.5 -60.5 8.5c-10 0 -24.5 -0.333008 -43.5 -1
s-33.167 -1 -42.5 -1c-13.333 0 -24.166 2.16699 -32.499 6.5s-12.5 10.166 -12.5 17.499c0 14 22 24.667 66 32c34.667 6 62.334 11.667 83.001 17c35.333 9.33301 70.833 22.666 106.5 39.999s56.5 26 62.5 26c9.33301 0 16 -1.83301 20 -5.5s6 -10.167 6 -19.5
c0 -4 -0.5 -9 -1.5 -15s-2.5 -12.667 -4.5 -20l-106 -609c-2 -10 -3.5 -19.333 -4.5 -28s-1.5 -18.667 -1.5 -30c0 -18 5.5 -31.5 16.5 -40.5s29.167 -14.5 54.5 -16.5c5.33301 -0.666992 13.666 -1.33398 24.999 -2.00098c42 -2.66699 63 -11.667 63 -27
c0 -8 -3.5 -14.5 -10.5 -19.5s-16.5 -7.5 -28.5 -7.5h-409z" />
    <glyph glyph-name="onehalf" unicode="&#xbd;" horiz-adv-x="1757" 
d="M1481 0l-399.999 0.000976562c-26 0 -43.333 2 -52 6s-13 11 -13 21c0 18 23 52.5 69 103.5s107.667 109.167 185 174.5c22 18.667 62.333 51 121 97s100.334 82 125.001 108c30.667 30.667 52.667 58.5 66 83.5s20 50.5 20 76.5c0 36 -13 64.667 -39 86
s-60.333 32 -103 32c-55.333 0 -104 -14.833 -146 -44.5s-63 -63.167 -63 -100.5c0 -6.66699 3.83301 -17.167 11.5 -31.5s11.5 -24.833 11.5 -31.5c0 -20.667 -6.66699 -36.834 -20 -48.501s-31.333 -17.5 -54 -17.5c-20 0 -36.667 7 -50 21s-20 32.333 -20 55
s6.5 47.167 19.5 73.5s31.167 51.5 54.5 75.5c34.667 34.667 75.667 61.167 123 79.5s98.666 27.5 153.999 27.5c72 0 129.5 -16.833 172.5 -50.5s64.5 -78.167 64.5 -133.5c0 -45.333 -16.167 -91.166 -48.5 -137.499s-77.5 -88.833 -135.5 -127.5l-16 -10
c-193.333 -128 -315.666 -229.667 -366.999 -305c10 -0.666992 21.167 -1.16699 33.5 -1.5s29.166 -0.5 50.499 -0.5c78 0 139.5 1 184.5 3s73.5 5 85.5 9c16 5.33301 35.833 19.333 59.5 42s41.5 34 53.5 34c8 0 14 -2.5 18 -7.5s6 -12.167 6 -21.5
c0 -4 -2 -10.833 -6 -20.5s-11.333 -23.834 -22 -42.501l-10 -16c-14 -25.333 -27.333 -41.333 -40 -48c-5.33301 -4 -14.333 -7 -27 -9s-31.334 -3 -56.001 -3zM1307 1473c6.66699 11.333 14.666 19.832 23.999 25.499s19 8.5 29 8.5c9.33301 0 16.833 -3.16699 22.5 -9.5
s8.5 -14.5 8.5 -24.5c0 -5.33301 -0.666992 -10.166 -2 -14.499s-3.66602 -9.5 -6.99902 -15.5l-931 -1436c-8 -12.667 -16 -21.667 -24 -27s-17.333 -8.33301 -28 -9c-9.33301 0 -17 3.33301 -23 10s-9 15 -9 25c0 4 0.666992 8.16699 2 12.5s4 9.83301 8 16.5zM76 653
c-12.667 0 -21.668 1.66992 -27.001 5.00293s-8 8.66602 -8 15.999c0 20 26 30.667 78 32c19.333 0.666992 34.333 1.66699 45 3c53.333 6 88.666 59.333 105.999 160c0.666992 6.66699 1.33398 12 2.00098 16l66 370c2.66699 12 4.66699 23.333 6 34s2 20 2 28
c0 14.667 -5.16699 24.834 -15.5 30.501s-30.5 8.5 -60.5 8.5c-10 0 -24.5 -0.333008 -43.5 -1s-33.167 -1 -42.5 -1c-13.333 0 -24.166 2.16699 -32.499 6.5s-12.5 10.166 -12.5 17.499c0 14 22 24.667 66 32c34.667 6 62.334 11.667 83.001 17
c35.333 9.33301 70.833 22.666 106.5 39.999s56.5 26 62.5 26c9.33301 0 16 -1.83301 20 -5.5s6 -10.167 6 -19.5c0 -4 -0.5 -9 -1.5 -15s-2.5 -12.667 -4.5 -20l-106 -609c-2 -10 -3.5 -19.333 -4.5 -28s-1.5 -18.667 -1.5 -30c0 -18 5.5 -31.5 16.5 -40.5
s29.167 -14.5 54.5 -16.5c5.33301 -0.666992 13.666 -1.33398 24.999 -2.00098c42 -2.66699 63 -11.667 63 -27c0 -8 -3.5 -14.5 -10.5 -19.5s-16.5 -7.5 -28.5 -7.5h-409z" />
    <glyph glyph-name="threequarters" unicode="&#xbe;" horiz-adv-x="1759" 
d="M1450 287l88 461c-98 -76 -181 -152.167 -249 -228.5s-122.333 -153.833 -163 -232.5h324zM1438 219l-369.001 0.00195312c-13.333 0 -23.5 2.5 -30.5 7.5s-10.5 12.167 -10.5 21.5c0 26.667 23.333 75.167 70 145.5s106 141.166 178 212.499
c71.333 72 137.333 129.667 198 173s104 65 130 65c12.667 0 23.334 -3.5 32.001 -10.5s13 -15.833 13 -26.5c0 -4.66699 -0.5 -11.167 -1.5 -19.5s-2.83301 -18.5 -5.5 -30.5l-88 -470h113c18 0 30 -2 36 -6s9 -11 9 -21c0 -16.667 -3.33301 -28.334 -10 -35.001
s-19 -10 -37 -10c-6.66699 0 -15.667 0.166992 -27 0.5s-24.333 0.833008 -39 1.5l-59 2l-20 -112c-0.666992 -1.33301 -1.16699 -3.16602 -1.5 -5.49902s-0.5 -5.5 -0.5 -9.5c0 -6.66699 1.16699 -12.834 3.5 -18.501s5.5 -10.167 9.5 -13.5
c3.33301 -2.66699 12.5 -6.66699 27.5 -12s22.5 -13 22.5 -23c0 -7.33301 -4 -13.333 -12 -18s-18.333 -7 -31 -7h-199c-9.33301 0 -16.666 2 -21.999 6s-8 9.66699 -8 17c0 13.333 15.667 24.333 47 33c2.66699 0.666992 4.66699 1 6 1c20.667 6 34.667 14 42 24
s13.666 30 18.999 60zM1307 1473c6.66699 11.333 14.666 19.832 23.999 25.499s19 8.5 29 8.5c9.33301 0 16.833 -3.16699 22.5 -9.5s8.5 -14.5 8.5 -24.5c0 -5.33301 -0.666992 -10.166 -2 -14.499s-3.66602 -9.5 -6.99902 -15.5l-931 -1436
c-8 -12.667 -16 -21.667 -24 -27s-17.333 -8.33301 -28 -9c-9.33301 0 -17 3.33301 -23 10s-9 15 -9 25c0 4 0.666992 8.16699 2 12.5s4 9.83301 8 16.5zM409.998 1100c68.667 -5.33301 121.336 -23.9951 158.003 -55.9951s55 -75.667 55 -131
c0 -78.667 -35 -144.334 -105 -197.001s-158.667 -79 -266 -79c-84.667 0 -152.334 15 -203.001 45s-76 69.667 -76 119c0 23.333 6.5 42.166 19.5 56.499s29.833 21.5 50.5 21.5c17.333 0 31.166 -4.83301 41.499 -14.5s15.5 -22.834 15.5 -39.501
c0 -4.66699 -1 -11.334 -3 -20.001s-3 -15.667 -3 -21c0 -26.667 15.167 -48.334 45.5 -65.001s70.5 -25 120.5 -25c72 0 129.333 20 172 60s64 93.667 64 161c0 46.667 -16.5 83 -49.5 109s-78.833 39 -137.5 39h-57c-10 0 -18.667 2.66699 -26 8s-11 11.666 -11 18.999
c0 19.333 24.667 31 74 35l40 3c70 9.33301 123.5 30.333 160.5 63s55.5 74.667 55.5 126c0 38 -12.333 67.333 -37 88s-59.667 31 -105 31c-40.667 0 -75.334 -8.66699 -104.001 -26s-43 -37.333 -43 -60c0 -4 0.333008 -9.16699 1 -15.5s1 -10.833 1 -13.5
c0 -17.333 -6.5 -31.5 -19.5 -42.5s-29.833 -16.5 -50.5 -16.5s-37.667 5.83301 -51 17.5s-20 26.834 -20 45.501c0 42 30.833 81.167 92.5 117.5s133.167 54.5 214.5 54.5c76 0 136 -15.833 180 -47.5s66 -74.5 66 -128.5c0 -55.333 -22.833 -102.5 -68.5 -141.5
s-109.5 -65.5 -191.5 -79.5z" />
    <glyph glyph-name="questiondown" unicode="&#xbf;" horiz-adv-x="1014" 
d="M834 1405c0 -38 -10.668 -69.666 -32.001 -94.999s-47.666 -38 -78.999 -38c-25.333 0 -47.333 9 -66 27s-28 39 -28 63c0 41.333 10.333 75.166 31 101.499s47 39.5 79 39.5c26.667 0 49.167 -9.5 67.5 -28.5s27.5 -42.167 27.5 -69.5zM742.999 995.001l-34 -196.003
c-7.33301 -42 -31.333 -69.333 -72 -82c-21.333 -6.66699 -39 -13 -53 -19c-120 -52.667 -210.833 -115.5 -272.5 -188.5s-92.5 -154.167 -92.5 -243.5c0 -68 19.667 -121.167 59 -159.5s93.333 -57.5 162 -57.5c61.333 0 113.5 12.667 156.5 38s65.5 54 67.5 86
c0.666992 54 8.66699 92.333 24 115s40 34 74 34c28.667 0 50.5 -7.16699 65.5 -21.5s22.5 -35.166 22.5 -62.499c0 -72.667 -41.667 -137.667 -125 -195s-182.333 -86 -297 -86c-115.333 0 -206.333 30.167 -273 90.5s-100 142.833 -100 247.5c0 78 20.667 150 62 216
s104.666 128.333 189.999 187c50.667 34.667 108.334 65.834 173.001 93.501s100 43.834 106 48.501c14.667 10 26 38 34 84c3.33301 18 6.33301 32.333 9 43l6 29c14.667 72 38 108 70 108c14 0 25 -4 33 -12s12 -19.667 12 -35c0 -6.66699 -0.666992 -15.5 -2 -26.5
s-3 -22.833 -5 -35.5z" />
    <glyph glyph-name="Agrave" unicode="&#xc0;" horiz-adv-x="1341" 
d="M360 623h564c-21.333 99.333 -47 202.166 -77 308.499s-65.333 218.5 -106 336.5c-68.667 -95.333 -134 -195.666 -196 -300.999s-123.667 -220 -185 -344zM-72 0c-14.667 0 -26.167 3.83691 -34.5 11.5039s-12.5 18.167 -12.5 31.5c0 18 14.5 34.333 43.5 49
s48.833 28.667 59.5 42c8.66699 10 27.834 51.667 57.501 125s58.167 138.666 85.5 195.999c61.333 126.667 129.666 255.167 204.999 385.5s157.333 261.166 246 392.499l29 43c110.667 164 176.667 246 198 246c20.667 0 55 -69.667 103 -209l20 -58
c36 -100 70.333 -209.5 103 -328.5s63 -244.167 91 -375.5c18 -83.333 33.667 -169.833 47 -259.5s21 -138.5 23 -146.5c4 -15.333 18.333 -30.833 43 -46.5s37 -31.5 37 -47.5c0 -18.667 -6.66699 -31.834 -20 -39.501s-36 -11.5 -68 -11.5h-256
c-15.333 0 -27 3.83301 -35 11.5s-12 18.167 -12 31.5c0 19.333 16.667 36.666 50 51.999l12 6h1c36.667 16.667 55 41 55 73c0 24.667 -4.83301 67.167 -14.5 127.5s-23.167 128.5 -40.5 204.5h-643c-44.667 -89.333 -80 -165.833 -106 -229.5s-39 -105.167 -39 -124.5
c0 -20 14.667 -38.833 44 -56.5s44 -35.167 44 -52.5c0 -12.667 -5 -23 -15 -31s-23 -12 -39 -12h-262zM963 1624h-67.999l-244 203c-22.667 18.667 -37.834 34.167 -45.501 46.5s-11.5 25.5 -11.5 39.5c0 18.667 6.66699 35 20 49s29.333 21 48 21
c14 0 29 -5.16699 45 -15.5s30.333 -24.5 43 -42.5z" />
    <glyph glyph-name="Aacute" unicode="&#xc1;" horiz-adv-x="1341" 
d="M360 623h564c-21.333 99.333 -47 202.166 -77 308.499s-65.333 218.5 -106 336.5c-68.667 -95.333 -134 -195.666 -196 -300.999s-123.667 -220 -185 -344zM-72 0c-14.667 0 -26.167 3.83691 -34.5 11.5039s-12.5 18.167 -12.5 31.5c0 18 14.5 34.333 43.5 49
s48.833 28.667 59.5 42c8.66699 10 27.834 51.667 57.501 125s58.167 138.666 85.5 195.999c61.333 126.667 129.666 255.167 204.999 385.5s157.333 261.166 246 392.499l29 43c110.667 164 176.667 246 198 246c20.667 0 55 -69.667 103 -209l20 -58
c36 -100 70.333 -209.5 103 -328.5s63 -244.167 91 -375.5c18 -83.333 33.667 -169.833 47 -259.5s21 -138.5 23 -146.5c4 -15.333 18.333 -30.833 43 -46.5s37 -31.5 37 -47.5c0 -18.667 -6.66699 -31.834 -20 -39.501s-36 -11.5 -68 -11.5h-256
c-15.333 0 -27 3.83301 -35 11.5s-12 18.167 -12 31.5c0 19.333 16.667 36.666 50 51.999l12 6h1c36.667 16.667 55 41 55 73c0 24.667 -4.83301 67.167 -14.5 127.5s-23.167 128.5 -40.5 204.5h-643c-44.667 -89.333 -80 -165.833 -106 -229.5s-39 -105.167 -39 -124.5
c0 -20 14.667 -38.833 44 -56.5s44 -35.167 44 -52.5c0 -12.667 -5 -23 -15 -31s-23 -12 -39 -12h-262zM719 1624l-70 -0.000976562l297 314c12.667 12.667 26.5 23 41.5 31s28.5 12 40.5 12c18.667 0 34.667 -7 48 -21s20 -30.333 20 -49
c0 -14 -5.16699 -27.167 -15.5 -39.5s-28.5 -27.166 -54.5 -44.499z" />
    <glyph glyph-name="Acircumflex" unicode="&#xc2;" horiz-adv-x="1341" 
d="M360 623h564c-21.333 99.333 -47 202.166 -77 308.499s-65.333 218.5 -106 336.5c-68.667 -95.333 -134 -195.666 -196 -300.999s-123.667 -220 -185 -344zM-72 0c-14.667 0 -26.167 3.83691 -34.5 11.5039s-12.5 18.167 -12.5 31.5c0 18 14.5 34.333 43.5 49
s48.833 28.667 59.5 42c8.66699 10 27.834 51.667 57.501 125s58.167 138.666 85.5 195.999c61.333 126.667 129.666 255.167 204.999 385.5s157.333 261.166 246 392.499l29 43c110.667 164 176.667 246 198 246c20.667 0 55 -69.667 103 -209l20 -58
c36 -100 70.333 -209.5 103 -328.5s63 -244.167 91 -375.5c18 -83.333 33.667 -169.833 47 -259.5s21 -138.5 23 -146.5c4 -15.333 18.333 -30.833 43 -46.5s37 -31.5 37 -47.5c0 -18.667 -6.66699 -31.834 -20 -39.501s-36 -11.5 -68 -11.5h-256
c-15.333 0 -27 3.83301 -35 11.5s-12 18.167 -12 31.5c0 19.333 16.667 36.666 50 51.999l12 6h1c36.667 16.667 55 41 55 73c0 24.667 -4.83301 67.167 -14.5 127.5s-23.167 128.5 -40.5 204.5h-643c-44.667 -89.333 -80 -165.833 -106 -229.5s-39 -105.167 -39 -124.5
c0 -20 14.667 -38.833 44 -56.5s44 -35.167 44 -52.5c0 -12.667 -5 -23 -15 -31s-23 -12 -39 -12h-262zM1079 1624h-55l-178 207l-274 -207h-68l309 349h105z" />
    <glyph glyph-name="Atilde" unicode="&#xc3;" horiz-adv-x="1341" 
d="M360 623h564c-21.333 99.333 -47 202.166 -77 308.499s-65.333 218.5 -106 336.5c-68.667 -95.333 -134 -195.666 -196 -300.999s-123.667 -220 -185 -344zM-72 0c-14.667 0 -26.167 3.83691 -34.5 11.5039s-12.5 18.167 -12.5 31.5c0 18 14.5 34.333 43.5 49
s48.833 28.667 59.5 42c8.66699 10 27.834 51.667 57.501 125s58.167 138.666 85.5 195.999c61.333 126.667 129.666 255.167 204.999 385.5s157.333 261.166 246 392.499l29 43c110.667 164 176.667 246 198 246c20.667 0 55 -69.667 103 -209l20 -58
c36 -100 70.333 -209.5 103 -328.5s63 -244.167 91 -375.5c18 -83.333 33.667 -169.833 47 -259.5s21 -138.5 23 -146.5c4 -15.333 18.333 -30.833 43 -46.5s37 -31.5 37 -47.5c0 -18.667 -6.66699 -31.834 -20 -39.501s-36 -11.5 -68 -11.5h-256
c-15.333 0 -27 3.83301 -35 11.5s-12 18.167 -12 31.5c0 19.333 16.667 36.666 50 51.999l12 6h1c36.667 16.667 55 41 55 73c0 24.667 -4.83301 67.167 -14.5 127.5s-23.167 128.5 -40.5 204.5h-643c-44.667 -89.333 -80 -165.833 -106 -229.5s-39 -105.167 -39 -124.5
c0 -20 14.667 -38.833 44 -56.5s44 -35.167 44 -52.5c0 -12.667 -5 -23 -15 -31s-23 -12 -39 -12h-262zM1129 1895c-12.667 -66 -34.0039 -115.001 -64.0039 -147.001s-69.667 -48 -119 -48c-11.333 0 -22 0.666992 -32 2s-19.667 3.33301 -29 6l-131 37
c-17.333 4 -30.833 6.66699 -40.5 8s-18.834 2 -27.501 2c-26 0 -46.833 -6.16699 -62.5 -18.5s-26.167 -30.5 -31.5 -54.5h-49c10 61.333 29.5 107.333 58.5 138s67.5 46 115.5 46c14.667 0 27.834 -0.833008 39.501 -2.5s22.834 -4.16699 33.501 -7.5l132 -37
c14.667 -3.33301 25.834 -5.5 33.501 -6.5s14.834 -1.5 21.501 -1.5c28 0 50.333 6.83301 67 20.5s28.334 34.834 35.001 63.501h50z" />
    <glyph glyph-name="Adieresis" unicode="&#xc4;" horiz-adv-x="1341" 
d="M360 623h564c-21.333 99.333 -47 202.166 -77 308.499s-65.333 218.5 -106 336.5c-68.667 -95.333 -134 -195.666 -196 -300.999s-123.667 -220 -185 -344zM-72 0c-14.667 0 -26.167 3.83691 -34.5 11.5039s-12.5 18.167 -12.5 31.5c0 18 14.5 34.333 43.5 49
s48.833 28.667 59.5 42c8.66699 10 27.834 51.667 57.501 125s58.167 138.666 85.5 195.999c61.333 126.667 129.666 255.167 204.999 385.5s157.333 261.166 246 392.499l29 43c110.667 164 176.667 246 198 246c20.667 0 55 -69.667 103 -209l20 -58
c36 -100 70.333 -209.5 103 -328.5s63 -244.167 91 -375.5c18 -83.333 33.667 -169.833 47 -259.5s21 -138.5 23 -146.5c4 -15.333 18.333 -30.833 43 -46.5s37 -31.5 37 -47.5c0 -18.667 -6.66699 -31.834 -20 -39.501s-36 -11.5 -68 -11.5h-256
c-15.333 0 -27 3.83301 -35 11.5s-12 18.167 -12 31.5c0 19.333 16.667 36.666 50 51.999l12 6h1c36.667 16.667 55 41 55 73c0 24.667 -4.83301 67.167 -14.5 127.5s-23.167 128.5 -40.5 204.5h-643c-44.667 -89.333 -80 -165.833 -106 -229.5s-39 -105.167 -39 -124.5
c0 -20 14.667 -38.833 44 -56.5s44 -35.167 44 -52.5c0 -12.667 -5 -23 -15 -31s-23 -12 -39 -12h-262zM907 1774c0 25.333 10.001 48 30.001 68s43 30 69 30c26.667 0 50 -9.83301 70 -29.5s30 -42.5 30 -68.5c0 -28.667 -9.5 -52.5 -28.5 -71.5s-42.833 -28.5 -71.5 -28.5
c-26.667 0 -49.834 9.83301 -69.501 29.5s-29.5 43.167 -29.5 70.5zM559.001 1774c0 25.333 9.99902 48 29.999 68s43 30 69 30s48.833 -9.66699 68.5 -29s29.5 -42.333 29.5 -69c0 -29.333 -9.33301 -53.333 -28 -72s-42 -28 -70 -28
c-27.333 0 -50.666 9.83301 -69.999 29.5s-29 43.167 -29 70.5z" />
    <glyph glyph-name="Aring" unicode="&#xc5;" horiz-adv-x="1341" 
d="M664 1731c0 -44 15 -80.999 45 -110.999s66.667 -45 110 -45c42.667 0 79 15.167 109 45.5s45 67.166 45 110.499s-14.833 80 -44.5 110s-66.167 45 -109.5 45c-44 0 -80.833 -14.833 -110.5 -44.5s-44.5 -66.5 -44.5 -110.5zM-72 0.000976562
c-14.667 0 -26.1641 3.83008 -34.4971 11.4971s-12.5 18.167 -12.5 31.5c0 18.667 15 35 45 49c18 8.66699 31 16.334 39 23.001c18 13.333 43 60.333 75 141c20 49.333 36.667 89 50 119c72 163.333 165 340 279 530s245.667 387.333 395 592
c-56.667 15.333 -101.834 44.333 -135.501 87s-50.5 92.334 -50.5 149.001c0 66.667 23 123.167 69 169.5s102.667 69.5 170 69.5c68 0 125.333 -23.5 172 -70.5s70 -104.5 70 -172.5c0 -62 -20.333 -114.833 -61 -158.5s-93.334 -69.5 -158.001 -77.5
c76.667 -198 141.834 -392.167 195.501 -582.5s94.167 -372.166 121.5 -545.499c5.33301 -32.667 11.666 -73.667 18.999 -123c9.33301 -64.667 16.666 -101.667 21.999 -111s19 -20.666 41 -33.999s33 -28.666 33 -45.999c0 -18.667 -6.66699 -31.834 -20 -39.501
s-36 -11.5 -68 -11.5h-256c-15.333 0 -27 3.83301 -35 11.5s-12 18.167 -12 31.5c0 19.333 16.667 36.666 50 51.999l12 6h1c36.667 16.667 55 41 55 73c0 24.667 -4.83301 67.167 -14.5 127.5s-23.167 128.5 -40.5 204.5h-643c-44.667 -89.333 -80 -165.833 -106 -229.5
s-39 -105.167 -39 -124.5c0 -20 14.667 -38.833 44 -56.5s44 -35.167 44 -52.5c0 -12.667 -5 -23 -15 -31s-23 -12 -39 -12h-262zM360.003 622.998h564c-21.333 99.333 -47 202.166 -77 308.499s-65.333 218.5 -106 336.5c-68.667 -95.333 -134 -195.666 -196 -300.999
s-123.667 -220 -185 -344z" />
    <glyph glyph-name="AE" unicode="&#xc6;" horiz-adv-x="2001" 
d="M967 866l86 515.999c-65.333 -45.333 -138.333 -111.166 -219 -197.499s-169 -192.5 -265 -318.5h398zM1894 1479l13.001 0.00585938c28.667 0 46.667 -3.5 54 -10.5s11 -19.833 11 -38.5c0 -92.667 -3 -149.334 -9 -170.001s-17.333 -31 -34 -31
s-34.334 12.667 -53.001 38s-33 42.666 -43 51.999c-22.667 19.333 -59.167 33.333 -109.5 42s-123.833 13 -220.5 13c-70 0 -120.5 -1.83301 -151.5 -5.5s-56.5 -10.167 -76.5 -19.5c-34.667 -16 -59.334 -70.333 -74.001 -163l-1 -2l-51 -318h403
c24 0 40.667 0.666992 50 2s17.666 3.66602 24.999 6.99902c4.66699 2 17.5 12 38.5 30s40.5 27 58.5 27c11.333 0 19.666 -3 24.999 -9s8 -14.667 8 -26c0 -5.33301 -0.166992 -9.33301 -0.5 -12s-0.833008 -5 -1.5 -7l-22 -157c-2.66699 -13.333 -8.66699 -23.5 -18 -30.5
s-21.333 -10.5 -36 -10.5c-14 0 -29.833 8 -47.5 24s-29.5 25.667 -35.5 29c-10 6 -28.333 10.667 -55 14s-59 5 -97 5h-316l-77 -500c-4 -23.333 -6.83301 -40.5 -8.5 -51.5s-2.5 -19.167 -2.5 -24.5c0 -28.667 11.167 -48.167 33.5 -58.5s77.5 -15.5 165.5 -15.5h74
c108 0 188.167 4.33301 240.5 13s97.166 23 134.499 43c23.333 12 52.5 33.667 87.5 65s62.5 47 82.5 47c8 0 15.333 -3 22 -9s10 -13 10 -21c0 -8.66699 -0.833008 -17 -2.5 -25s-4.16699 -16 -7.5 -24l-49 -136c-8.66699 -21.333 -18.334 -35.833 -29.001 -43.5
s-32.334 -11.5 -65.001 -11.5h-963c-14.667 0 -26.167 3.83301 -34.5 11.5s-12.5 18.167 -12.5 31.5c0 20 17.333 37.667 52 53c18.667 8 33 15 43 21c10.667 7.33301 19.334 19.166 26.001 35.499s13.334 46.833 20.001 91.5l80 510h-461
c-103.333 -144.667 -187.833 -274.167 -253.5 -388.5s-98.5 -187.166 -98.5 -218.499c0 -6.66699 1.83301 -13.834 5.5 -21.501s7.83398 -13.167 12.501 -16.5c6 -4 15.333 -9 28 -15c30.667 -14 46 -30.333 46 -49c0 -14.667 -4 -25.834 -12 -33.501s-19 -11.5 -33 -11.5
h-245c-22 0 -37.5 2.66699 -46.5 8s-13.5 14.333 -13.5 27c0 17.333 15.667 37.666 47 60.999c3.33301 2.66699 6 4.66699 8 6c34.667 26 60.334 57.333 77.001 94c2.66699 5.33301 4.33398 9 5.00098 11c4.66699 8 12.334 22.333 23.001 43
c122 239.333 267.333 467.333 436 684c88 112 173.5 211.667 256.5 299s160.167 158.333 231.5 213c15.333 12 30.5 20.5 45.5 25.5s35.833 7.5 62.5 7.5h14h811z" />
    <glyph glyph-name="Ccedilla" unicode="&#xc7;" horiz-adv-x="1464" 
d="M1401 1110c-4 -33.333 -10.1689 -54.668 -18.502 -64.001s-22.166 -14 -41.499 -14c-24.667 0 -43.334 25.667 -56.001 77c-6.66699 28.667 -13 51.334 -19 68.001c-27.333 72.667 -71.166 128.5 -131.499 167.5s-133.5 58.5 -219.5 58.5
c-80.667 0 -156.167 -17.5 -226.5 -52.5s-133.166 -86.5 -188.499 -154.5c-66.667 -80.667 -118.5 -174.5 -155.5 -281.5s-55.5 -215.833 -55.5 -326.5c0 -154 39.667 -277.167 119 -369.5s185 -138.5 317 -138.5c73.333 0 145.333 14.167 216 42.5s136.667 69.5 198 123.5
c16 14.667 36.333 35.334 61 62.001c36.667 40.667 66 61 88 61c14.667 0 27.5 -6.83301 38.5 -20.5s16.5 -29.5 16.5 -47.5c0 -13.333 -7.33301 -30.333 -22 -51s-36.667 -44.667 -66 -72c-78 -72 -163.167 -126.833 -255.5 -164.5s-187.833 -56.5 -286.5 -56.5
c-189.333 0 -342.833 58.167 -460.5 174.5s-176.5 268.5 -176.5 456.5c0 108 18.333 214.667 55 320s88 198.666 154 279.999c85.333 106 183.833 186.333 295.5 241s232.834 82 363.501 82c121.333 0 231.166 -24.5 329.499 -73.5s147.5 -98.167 147.5 -147.5v-4z
M388.998 -373.002l33.001 80.002c41.333 -22.667 81.666 -40.334 120.999 -53.001s74 -19 104 -19c42 0 72.667 7.5 92 22.5s29 38.5 29 70.5c0 27.333 -9.83301 49.166 -29.5 65.499s-46.5 24.5 -80.5 24.5c-10.667 0 -23.667 -1 -39 -3s-33 -5.33301 -53 -10l63 195h64
l-37 -112l32.5 4c11 1.33301 21.167 2 30.5 2c56 0 100.333 -14.833 133 -44.5s49 -69.5 49 -119.5c0 -54.667 -19.833 -97.667 -59.5 -129s-94.167 -47 -163.5 -47c-36 0 -77.333 5.83301 -124 17.5s-101.667 30.167 -165 55.5z" />
    <glyph glyph-name="Egrave" unicode="&#xc8;" horiz-adv-x="1280" 
d="M-2 0c-15.333 0 -26.9971 3.83789 -34.9971 11.5049s-12 18.167 -12 31.5c0 19.333 17.667 36.666 53 51.999c19.333 8.66699 33.666 16 42.999 22c11.333 7.33301 20.333 19.166 27 35.499s13.334 46.833 20.001 91.5l160 989c2.66699 16 4.66699 30.833 6 44.5
s2 25.5 2 35.5c0 26 -11.667 46 -35 60c-8 4.66699 -14 8.33398 -18 11.001c-0.666992 0.666992 -2.33398 2 -5.00098 4c-22.667 16.667 -34 32.667 -34 48c0 12.667 4.83301 23 14.5 31s22.5 12 38.5 12h963c28 0 45.5 -3.5 52.5 -10.5s10.5 -19.833 10.5 -38.5
c0 -92.667 -3 -149.334 -9 -170.001s-17.333 -31 -34 -31s-33.834 12.667 -51.501 38s-31.834 42.666 -42.501 51.999c-23.333 20 -62.166 34.5 -116.499 43.5s-134.166 13.5 -239.499 13.5c-80 0 -137.5 -2 -172.5 -6s-62.833 -10.667 -83.5 -20
c-35.333 -16.667 -60.666 -71.334 -75.999 -164.001v-2l-51 -320h422c34.667 0 59 0.833008 73 2.5s26 4.5 36 8.5c4.66699 2 17.5 12 38.5 30s40.5 27 58.5 27c12 0 20.833 -3.16699 26.5 -9.5s8.5 -15.5 8.5 -27.5c0 -4 -0.166992 -7.33301 -0.5 -10s-0.833008 -5 -1.5 -7
l-24 -157c-2.66699 -13.333 -8.33398 -23.5 -17.001 -30.5s-20.334 -10.5 -35.001 -10.5c-14 0 -29.833 8 -47.5 24s-29.5 25.667 -35.5 29c-10 6 -28.167 10.667 -54.5 14s-58.833 5 -97.5 5h-369l-80 -501c-2 -14.667 -3.83301 -28.834 -5.5 -42.501
s-2.5 -24.5 -2.5 -32.5c0 -28.667 11.833 -48.167 35.5 -58.5s78.834 -15.5 165.501 -15.5h125c107.333 0 187 4.33301 239 13s96.667 23 134 43c23.333 12 52.833 33.667 88.5 65s63.5 47 83.5 47c8 0 15 -3 21 -9s9 -13 9 -21c0 -8.66699 -0.833008 -17 -2.5 -25
s-4.16699 -16.333 -7.5 -25l-49 -135c-8.66699 -21.333 -18.334 -35.833 -29.001 -43.5s-32.334 -11.5 -65.001 -11.5h-1016zM924.003 1624h-67.999l-244 203c-22.667 18.667 -37.834 34.167 -45.501 46.5s-11.5 25.5 -11.5 39.5c0 18.667 6.66699 35 20 49s29.333 21 48 21
c14 0 29 -5.16699 45 -15.5s30.333 -24.5 43 -42.5z" />
    <glyph glyph-name="Eacute" unicode="&#xc9;" horiz-adv-x="1280" 
d="M-2 0c-15.333 0 -26.9971 3.83789 -34.9971 11.5049s-12 18.167 -12 31.5c0 19.333 17.667 36.666 53 51.999c19.333 8.66699 33.666 16 42.999 22c11.333 7.33301 20.333 19.166 27 35.499s13.334 46.833 20.001 91.5l160 989c2.66699 16 4.66699 30.833 6 44.5
s2 25.5 2 35.5c0 26 -11.667 46 -35 60c-8 4.66699 -14 8.33398 -18 11.001c-0.666992 0.666992 -2.33398 2 -5.00098 4c-22.667 16.667 -34 32.667 -34 48c0 12.667 4.83301 23 14.5 31s22.5 12 38.5 12h963c28 0 45.5 -3.5 52.5 -10.5s10.5 -19.833 10.5 -38.5
c0 -92.667 -3 -149.334 -9 -170.001s-17.333 -31 -34 -31s-33.834 12.667 -51.501 38s-31.834 42.666 -42.501 51.999c-23.333 20 -62.166 34.5 -116.499 43.5s-134.166 13.5 -239.499 13.5c-80 0 -137.5 -2 -172.5 -6s-62.833 -10.667 -83.5 -20
c-35.333 -16.667 -60.666 -71.334 -75.999 -164.001v-2l-51 -320h422c34.667 0 59 0.833008 73 2.5s26 4.5 36 8.5c4.66699 2 17.5 12 38.5 30s40.5 27 58.5 27c12 0 20.833 -3.16699 26.5 -9.5s8.5 -15.5 8.5 -27.5c0 -4 -0.166992 -7.33301 -0.5 -10s-0.833008 -5 -1.5 -7
l-24 -157c-2.66699 -13.333 -8.33398 -23.5 -17.001 -30.5s-20.334 -10.5 -35.001 -10.5c-14 0 -29.833 8 -47.5 24s-29.5 25.667 -35.5 29c-10 6 -28.167 10.667 -54.5 14s-58.833 5 -97.5 5h-369l-80 -501c-2 -14.667 -3.83301 -28.834 -5.5 -42.501
s-2.5 -24.5 -2.5 -32.5c0 -28.667 11.833 -48.167 35.5 -58.5s78.834 -15.5 165.501 -15.5h125c107.333 0 187 4.33301 239 13s96.667 23 134 43c23.333 12 52.833 33.667 88.5 65s63.5 47 83.5 47c8 0 15 -3 21 -9s9 -13 9 -21c0 -8.66699 -0.833008 -17 -2.5 -25
s-4.16699 -16.333 -7.5 -25l-49 -135c-8.66699 -21.333 -18.334 -35.833 -29.001 -43.5s-32.334 -11.5 -65.001 -11.5h-1016zM680.003 1624l-70 -0.000976562l297 314c12.667 12.667 26.5 23 41.5 31s28.5 12 40.5 12c18.667 0 34.667 -7 48 -21s20 -30.333 20 -49
c0 -14 -5.16699 -27.167 -15.5 -39.5s-28.5 -27.166 -54.5 -44.499z" />
    <glyph glyph-name="Ecircumflex" unicode="&#xca;" horiz-adv-x="1280" 
d="M-2 0c-15.333 0 -26.9971 3.83789 -34.9971 11.5049s-12 18.167 -12 31.5c0 19.333 17.667 36.666 53 51.999c19.333 8.66699 33.666 16 42.999 22c11.333 7.33301 20.333 19.166 27 35.499s13.334 46.833 20.001 91.5l160 989c2.66699 16 4.66699 30.833 6 44.5
s2 25.5 2 35.5c0 26 -11.667 46 -35 60c-8 4.66699 -14 8.33398 -18 11.001c-0.666992 0.666992 -2.33398 2 -5.00098 4c-22.667 16.667 -34 32.667 -34 48c0 12.667 4.83301 23 14.5 31s22.5 12 38.5 12h963c28 0 45.5 -3.5 52.5 -10.5s10.5 -19.833 10.5 -38.5
c0 -92.667 -3 -149.334 -9 -170.001s-17.333 -31 -34 -31s-33.834 12.667 -51.501 38s-31.834 42.666 -42.501 51.999c-23.333 20 -62.166 34.5 -116.499 43.5s-134.166 13.5 -239.499 13.5c-80 0 -137.5 -2 -172.5 -6s-62.833 -10.667 -83.5 -20
c-35.333 -16.667 -60.666 -71.334 -75.999 -164.001v-2l-51 -320h422c34.667 0 59 0.833008 73 2.5s26 4.5 36 8.5c4.66699 2 17.5 12 38.5 30s40.5 27 58.5 27c12 0 20.833 -3.16699 26.5 -9.5s8.5 -15.5 8.5 -27.5c0 -4 -0.166992 -7.33301 -0.5 -10s-0.833008 -5 -1.5 -7
l-24 -157c-2.66699 -13.333 -8.33398 -23.5 -17.001 -30.5s-20.334 -10.5 -35.001 -10.5c-14 0 -29.833 8 -47.5 24s-29.5 25.667 -35.5 29c-10 6 -28.167 10.667 -54.5 14s-58.833 5 -97.5 5h-369l-80 -501c-2 -14.667 -3.83301 -28.834 -5.5 -42.501
s-2.5 -24.5 -2.5 -32.5c0 -28.667 11.833 -48.167 35.5 -58.5s78.834 -15.5 165.501 -15.5h125c107.333 0 187 4.33301 239 13s96.667 23 134 43c23.333 12 52.833 33.667 88.5 65s63.5 47 83.5 47c8 0 15 -3 21 -9s9 -13 9 -21c0 -8.66699 -0.833008 -17 -2.5 -25
s-4.16699 -16.333 -7.5 -25l-49 -135c-8.66699 -21.333 -18.334 -35.833 -29.001 -43.5s-32.334 -11.5 -65.001 -11.5h-1016zM1040 1624h-55l-178 207l-274 -207h-68l309 349h105z" />
    <glyph glyph-name="Edieresis" unicode="&#xcb;" horiz-adv-x="1280" 
d="M-2 0c-15.333 0 -26.9971 3.83789 -34.9971 11.5049s-12 18.167 -12 31.5c0 19.333 17.667 36.666 53 51.999c19.333 8.66699 33.666 16 42.999 22c11.333 7.33301 20.333 19.166 27 35.499s13.334 46.833 20.001 91.5l160 989c2.66699 16 4.66699 30.833 6 44.5
s2 25.5 2 35.5c0 26 -11.667 46 -35 60c-8 4.66699 -14 8.33398 -18 11.001c-0.666992 0.666992 -2.33398 2 -5.00098 4c-22.667 16.667 -34 32.667 -34 48c0 12.667 4.83301 23 14.5 31s22.5 12 38.5 12h963c28 0 45.5 -3.5 52.5 -10.5s10.5 -19.833 10.5 -38.5
c0 -92.667 -3 -149.334 -9 -170.001s-17.333 -31 -34 -31s-33.834 12.667 -51.501 38s-31.834 42.666 -42.501 51.999c-23.333 20 -62.166 34.5 -116.499 43.5s-134.166 13.5 -239.499 13.5c-80 0 -137.5 -2 -172.5 -6s-62.833 -10.667 -83.5 -20
c-35.333 -16.667 -60.666 -71.334 -75.999 -164.001v-2l-51 -320h422c34.667 0 59 0.833008 73 2.5s26 4.5 36 8.5c4.66699 2 17.5 12 38.5 30s40.5 27 58.5 27c12 0 20.833 -3.16699 26.5 -9.5s8.5 -15.5 8.5 -27.5c0 -4 -0.166992 -7.33301 -0.5 -10s-0.833008 -5 -1.5 -7
l-24 -157c-2.66699 -13.333 -8.33398 -23.5 -17.001 -30.5s-20.334 -10.5 -35.001 -10.5c-14 0 -29.833 8 -47.5 24s-29.5 25.667 -35.5 29c-10 6 -28.167 10.667 -54.5 14s-58.833 5 -97.5 5h-369l-80 -501c-2 -14.667 -3.83301 -28.834 -5.5 -42.501
s-2.5 -24.5 -2.5 -32.5c0 -28.667 11.833 -48.167 35.5 -58.5s78.834 -15.5 165.501 -15.5h125c107.333 0 187 4.33301 239 13s96.667 23 134 43c23.333 12 52.833 33.667 88.5 65s63.5 47 83.5 47c8 0 15 -3 21 -9s9 -13 9 -21c0 -8.66699 -0.833008 -17 -2.5 -25
s-4.16699 -16.333 -7.5 -25l-49 -135c-8.66699 -21.333 -18.334 -35.833 -29.001 -43.5s-32.334 -11.5 -65.001 -11.5h-1016zM868.003 1774c0 25.333 10.001 48 30.001 68s43 30 69 30c26.667 0 50 -9.83301 70 -29.5s30 -42.5 30 -68.5c0 -28.667 -9.5 -52.5 -28.5 -71.5
s-42.833 -28.5 -71.5 -28.5c-26.667 0 -49.834 9.83301 -69.501 29.5s-29.5 43.167 -29.5 70.5zM520.004 1774c0 25.333 9.99902 48 29.999 68s43 30 69 30s48.833 -9.66699 68.5 -29s29.5 -42.333 29.5 -69c0 -29.333 -9.33301 -53.333 -28 -72s-42 -28 -70 -28
c-27.333 0 -50.666 9.83301 -69.999 29.5s-29 43.167 -29 70.5z" />
    <glyph glyph-name="Igrave" unicode="&#xcc;" horiz-adv-x="563" 
d="M299 246c-2.66699 -16 -4.66699 -31.333 -6 -46s-2 -26 -2 -34c0 -27.333 12.333 -47.666 37 -60.999c8 -4 14.667 -7.66699 20 -11c14 -8 24 -16 30 -24s9 -17 9 -27c0 -12.667 -4.83301 -23 -14.5 -31s-22.5 -12 -38.5 -12h-334c-14.667 0 -26.167 3.83301 -34.5 11.5
s-12.5 18.167 -12.5 31.5c0 22 23 41.667 69 59c20 7.33301 35.333 13.666 46 18.999c17.333 8 32 47.333 44 118l1 5l159 989c2.66699 16.667 4.83398 32 6.50098 46s2.5 25.333 2.5 34c0 26.667 -12.667 46 -38 58l-26 13c-13.333 8 -22.833 16 -28.5 24
s-8.5 17.333 -8.5 28c0 12.667 5 23 15 31s22.667 12 38 12h340c15.333 0 26.666 -3.5 33.999 -10.5s11 -17.167 11 -30.5c0 -23.333 -24 -44.333 -72 -63l-42 -17c-17.333 -8 -32 -47.667 -44 -119l-1 -4zM588 1624h-67.999l-244 203
c-22.667 18.667 -37.834 34.167 -45.501 46.5s-11.5 25.5 -11.5 39.5c0 18.667 6.66699 35 20 49s29.333 21 48 21c14 0 29 -5.16699 45 -15.5s30.333 -24.5 43 -42.5z" />
    <glyph glyph-name="Iacute" unicode="&#xcd;" horiz-adv-x="563" 
d="M299 246c-2.66699 -16 -4.66699 -31.333 -6 -46s-2 -26 -2 -34c0 -27.333 12.333 -47.666 37 -60.999c8 -4 14.667 -7.66699 20 -11c14 -8 24 -16 30 -24s9 -17 9 -27c0 -12.667 -4.83301 -23 -14.5 -31s-22.5 -12 -38.5 -12h-334c-14.667 0 -26.167 3.83301 -34.5 11.5
s-12.5 18.167 -12.5 31.5c0 22 23 41.667 69 59c20 7.33301 35.333 13.666 46 18.999c17.333 8 32 47.333 44 118l1 5l159 989c2.66699 16.667 4.83398 32 6.50098 46s2.5 25.333 2.5 34c0 26.667 -12.667 46 -38 58l-26 13c-13.333 8 -22.833 16 -28.5 24
s-8.5 17.333 -8.5 28c0 12.667 5 23 15 31s22.667 12 38 12h340c15.333 0 26.666 -3.5 33.999 -10.5s11 -17.167 11 -30.5c0 -23.333 -24 -44.333 -72 -63l-42 -17c-17.333 -8 -32 -47.667 -44 -119l-1 -4zM344 1624l-70 -0.000976562l297 314
c12.667 12.667 26.5 23 41.5 31s28.5 12 40.5 12c18.667 0 34.667 -7 48 -21s20 -30.333 20 -49c0 -14 -5.16699 -27.167 -15.5 -39.5s-28.5 -27.166 -54.5 -44.499z" />
    <glyph glyph-name="Icircumflex" unicode="&#xce;" horiz-adv-x="563" 
d="M299 246c-2.66699 -16 -4.66699 -31.333 -6 -46s-2 -26 -2 -34c0 -27.333 12.333 -47.666 37 -60.999c8 -4 14.667 -7.66699 20 -11c14 -8 24 -16 30 -24s9 -17 9 -27c0 -12.667 -4.83301 -23 -14.5 -31s-22.5 -12 -38.5 -12h-334c-14.667 0 -26.167 3.83301 -34.5 11.5
s-12.5 18.167 -12.5 31.5c0 22 23 41.667 69 59c20 7.33301 35.333 13.666 46 18.999c17.333 8 32 47.333 44 118l1 5l159 989c2.66699 16.667 4.83398 32 6.50098 46s2.5 25.333 2.5 34c0 26.667 -12.667 46 -38 58l-26 13c-13.333 8 -22.833 16 -28.5 24
s-8.5 17.333 -8.5 28c0 12.667 5 23 15 31s22.667 12 38 12h340c15.333 0 26.666 -3.5 33.999 -10.5s11 -17.167 11 -30.5c0 -23.333 -24 -44.333 -72 -63l-42 -17c-17.333 -8 -32 -47.667 -44 -119l-1 -4zM704 1624h-55l-178 207l-274 -207h-68l309 349h105z" />
    <glyph glyph-name="Idieresis" unicode="&#xcf;" horiz-adv-x="563" 
d="M299 246c-2.66699 -16 -4.66699 -31.333 -6 -46s-2 -26 -2 -34c0 -27.333 12.333 -47.666 37 -60.999c8 -4 14.667 -7.66699 20 -11c14 -8 24 -16 30 -24s9 -17 9 -27c0 -12.667 -4.83301 -23 -14.5 -31s-22.5 -12 -38.5 -12h-334c-14.667 0 -26.167 3.83301 -34.5 11.5
s-12.5 18.167 -12.5 31.5c0 22 23 41.667 69 59c20 7.33301 35.333 13.666 46 18.999c17.333 8 32 47.333 44 118l1 5l159 989c2.66699 16.667 4.83398 32 6.50098 46s2.5 25.333 2.5 34c0 26.667 -12.667 46 -38 58l-26 13c-13.333 8 -22.833 16 -28.5 24
s-8.5 17.333 -8.5 28c0 12.667 5 23 15 31s22.667 12 38 12h340c15.333 0 26.666 -3.5 33.999 -10.5s11 -17.167 11 -30.5c0 -23.333 -24 -44.333 -72 -63l-42 -17c-17.333 -8 -32 -47.667 -44 -119l-1 -4zM532 1774c0 25.333 10.001 48 30.001 68s43 30 69 30
c26.667 0 50 -9.83301 70 -29.5s30 -42.5 30 -68.5c0 -28.667 -9.5 -52.5 -28.5 -71.5s-42.833 -28.5 -71.5 -28.5c-26.667 0 -49.834 9.83301 -69.501 29.5s-29.5 43.167 -29.5 70.5zM184.001 1774c0 25.333 9.99902 48 29.999 68s43 30 69 30s48.833 -9.66699 68.5 -29
s29.5 -42.333 29.5 -69c0 -29.333 -9.33301 -53.333 -28 -72s-42 -28 -70 -28c-27.333 0 -50.666 9.83301 -69.999 29.5s-29 43.167 -29 70.5z" />
    <glyph glyph-name="Eth" unicode="&#xd0;" horiz-adv-x="1475" 
d="M367 758l-67.999 -422c-4 -24 -7 -46.5 -9 -67.5s-3 -37.5 -3 -49.5c0 -43.333 12.167 -73.333 36.5 -90s70.833 -25 139.5 -25c118 0 219.5 16 304.5 48s160.167 82.333 225.5 151c70 73.333 123.667 158.666 161 255.999s56 200.333 56 309
c0 172 -45.167 300.667 -135.5 386s-226.5 128 -408.5 128c-80.667 0 -135.334 -10.167 -164.001 -30.5s-48 -61.166 -58 -122.499l-61 -375h358c13.333 0 23.5 -3.66699 30.5 -11s10.5 -17.333 10.5 -30c0 -15.333 -4.5 -28.333 -13.5 -39s-20.167 -16 -33.5 -16h-368z
M8.00098 0c-14.667 0 -26.168 3.83691 -34.501 11.5039s-12.5 18.167 -12.5 31.5c0 19.333 17.667 36.666 53 51.999c19.333 8.66699 34 16 44 22c10.667 7.33301 19.334 19.166 26.001 35.499s13.334 46.833 20.001 91.5l82 514h-133c-12.667 0 -22.667 3.66699 -30 11
s-11 17.333 -11 30c0 15.333 4.66699 28.333 14 39s20.333 16 33 16h144l61 378c2.66699 16 4.66699 31.167 6 45.5s2 26.166 2 35.499c0 26 -11.667 46 -35 60c-7.33301 4.66699 -13.333 8.33398 -18 11.001l-3 3c-24 17.333 -36 33.666 -36 48.999c0 12.667 5 23 15 31
s22.667 12 38 12h422c118 0 204.5 -4.83301 259.5 -14.5s105.833 -25.5 152.5 -47.5c106.667 -48.667 189 -122.167 247 -220.5s87 -212.5 87 -342.5c0 -144 -31.833 -279.333 -95.5 -406s-150.834 -229 -261.501 -307c-70 -48.667 -148.833 -84.334 -236.5 -107.001
s-192.167 -34 -313.5 -34h-486z" />
    <glyph glyph-name="Ntilde" unicode="&#xd1;" horiz-adv-x="1464" 
d="M107 351l123.999 731.997c8.66699 45.333 15 83.833 19 115.5s6 56.834 6 75.501c0 26.667 -5.5 47.334 -16.5 62.001s-31.5 28 -61.5 40c-26 10.667 -43 20.167 -51 28.5s-12 18.833 -12 31.5s4.83301 23 14.5 31s22.5 12 38.5 12h250c42.667 0 131 -102 265 -306
s283 -468 447 -792l125 851l5 32c2.66699 19.333 4 31.333 4 36c0 33.333 -15 58.333 -45 75c-7.33301 4 -12.666 7 -15.999 9c-16 10.667 -26.5 19.5 -31.5 26.5s-7.83301 15.5 -8.5 25.5c0 12.667 5 23 15 31s23 12 39 12h272c15.333 0 27 -3.5 35 -10.5
s12 -17.167 12 -30.5c0 -20.667 -18 -39 -54 -55c-16.667 -7.33301 -29.334 -13.666 -38.001 -18.999c-17.333 -10.667 -30.5 -25 -39.5 -43s-16.5 -46.667 -22.5 -86l-178 -1153c-5.33301 -38 -11.5 -62.167 -18.5 -72.5s-17.167 -15.5 -30.5 -15.5
c-36.667 0 -74 46.667 -112 140c-13.333 34 -24.333 61 -33 81c-87.333 196.667 -183.666 383.5 -288.999 560.5s-218 341.833 -338 494.5l-143 -901c-10.667 -61.333 -17.5 -105 -20.5 -131s-4.5 -47.333 -4.5 -64c0 -18 5.16699 -32.833 15.5 -44.5
s27.166 -21.5 50.499 -29.5c20.667 -6.66699 35.334 -14.5 44.001 -23.5s13 -20.167 13 -33.5c0 -12.667 -5 -23 -15 -31s-22.667 -12 -38 -12h-330c-15.333 -0 -27 3.83301 -35 11.5s-12 18.167 -12 31.5c0 26 24.333 46 73 60c16 4.66699 27.667 8.66699 35 12
c36 14.667 64 79.667 84 195c2.66699 17.333 5 31 7 41zM1188 1895c-12.667 -66 -34.0039 -115.001 -64.0039 -147.001s-69.667 -48 -119 -48c-11.333 0 -22 0.666992 -32 2s-19.667 3.33301 -29 6l-131 37c-17.333 4 -30.833 6.66699 -40.5 8s-18.834 2 -27.501 2
c-26 0 -46.833 -6.16699 -62.5 -18.5s-26.167 -30.5 -31.5 -54.5h-49c10 61.333 29.5 107.333 58.5 138s67.5 46 115.5 46c14.667 0 27.834 -0.833008 39.501 -2.5s22.834 -4.16699 33.501 -7.5l132 -37c14.667 -3.33301 25.834 -5.5 33.501 -6.5s14.834 -1.5 21.501 -1.5
c28 0 50.333 6.83301 67 20.5s28.334 34.834 35.001 63.501h50z" />
    <glyph glyph-name="Ograve" unicode="&#xd2;" horiz-adv-x="1583" 
d="M905 1397c-96 0 -183.668 -22.498 -263.001 -67.498s-148 -111.5 -206 -199.5c-50.667 -76.667 -90.667 -165.667 -120 -267s-44 -201.333 -44 -300c0 -148 39.333 -265.833 118 -353.5s184.334 -131.5 317.001 -131.5c94.667 0 182 22.5 262 67.5
s147.333 109.833 202 194.5c46 69.333 82.167 153.666 108.5 252.999s39.5 200.666 39.5 303.999c0 155.333 -37 277.5 -111 366.5s-175 133.5 -303 133.5zM69.999 602.002c0 118 20 232.333 60 343s96.333 208 169 292c78 91.333 167.167 159.833 267.5 205.5
s211.833 68.5 334.5 68.5c188 0 338.5 -59.333 451.5 -178s169.5 -277 169.5 -475c0 -124 -20 -242.167 -60 -354.5s-96.667 -209.166 -170 -290.499c-76 -85.333 -163 -149.333 -261 -192s-206.667 -64 -326 -64c-192.667 0 -346.667 58.667 -462 176
s-173 273.666 -173 468.999zM1092 1624h-67.999l-244 203c-22.667 18.667 -37.834 34.167 -45.501 46.5s-11.5 25.5 -11.5 39.5c0 18.667 6.66699 35 20 49s29.333 21 48 21c14 0 29 -5.16699 45 -15.5s30.333 -24.5 43 -42.5z" />
    <glyph glyph-name="Oacute" unicode="&#xd3;" horiz-adv-x="1583" 
d="M905 1397c-96 0 -183.668 -22.498 -263.001 -67.498s-148 -111.5 -206 -199.5c-50.667 -76.667 -90.667 -165.667 -120 -267s-44 -201.333 -44 -300c0 -148 39.333 -265.833 118 -353.5s184.334 -131.5 317.001 -131.5c94.667 0 182 22.5 262 67.5
s147.333 109.833 202 194.5c46 69.333 82.167 153.666 108.5 252.999s39.5 200.666 39.5 303.999c0 155.333 -37 277.5 -111 366.5s-175 133.5 -303 133.5zM69.999 602.002c0 118 20 232.333 60 343s96.333 208 169 292c78 91.333 167.167 159.833 267.5 205.5
s211.833 68.5 334.5 68.5c188 0 338.5 -59.333 451.5 -178s169.5 -277 169.5 -475c0 -124 -20 -242.167 -60 -354.5s-96.667 -209.166 -170 -290.499c-76 -85.333 -163 -149.333 -261 -192s-206.667 -64 -326 -64c-192.667 0 -346.667 58.667 -462 176
s-173 273.666 -173 468.999zM847.999 1624l-70 -0.000976562l297 314c12.667 12.667 26.5 23 41.5 31s28.5 12 40.5 12c18.667 0 34.667 -7 48 -21s20 -30.333 20 -49c0 -14 -5.16699 -27.167 -15.5 -39.5s-28.5 -27.166 -54.5 -44.499z" />
    <glyph glyph-name="Ocircumflex" unicode="&#xd4;" horiz-adv-x="1583" 
d="M905 1397c-96 0 -183.668 -22.498 -263.001 -67.498s-148 -111.5 -206 -199.5c-50.667 -76.667 -90.667 -165.667 -120 -267s-44 -201.333 -44 -300c0 -148 39.333 -265.833 118 -353.5s184.334 -131.5 317.001 -131.5c94.667 0 182 22.5 262 67.5
s147.333 109.833 202 194.5c46 69.333 82.167 153.666 108.5 252.999s39.5 200.666 39.5 303.999c0 155.333 -37 277.5 -111 366.5s-175 133.5 -303 133.5zM69.999 602.002c0 118 20 232.333 60 343s96.333 208 169 292c78 91.333 167.167 159.833 267.5 205.5
s211.833 68.5 334.5 68.5c188 0 338.5 -59.333 451.5 -178s169.5 -277 169.5 -475c0 -124 -20 -242.167 -60 -354.5s-96.667 -209.166 -170 -290.499c-76 -85.333 -163 -149.333 -261 -192s-206.667 -64 -326 -64c-192.667 0 -346.667 58.667 -462 176
s-173 273.666 -173 468.999zM1208 1624h-55l-178 207l-274 -207h-68l309 349h105z" />
    <glyph glyph-name="Otilde" unicode="&#xd5;" horiz-adv-x="1583" 
d="M905 1397c-96 0 -183.668 -22.498 -263.001 -67.498s-148 -111.5 -206 -199.5c-50.667 -76.667 -90.667 -165.667 -120 -267s-44 -201.333 -44 -300c0 -148 39.333 -265.833 118 -353.5s184.334 -131.5 317.001 -131.5c94.667 0 182 22.5 262 67.5
s147.333 109.833 202 194.5c46 69.333 82.167 153.666 108.5 252.999s39.5 200.666 39.5 303.999c0 155.333 -37 277.5 -111 366.5s-175 133.5 -303 133.5zM69.999 602.002c0 118 20 232.333 60 343s96.333 208 169 292c78 91.333 167.167 159.833 267.5 205.5
s211.833 68.5 334.5 68.5c188 0 338.5 -59.333 451.5 -178s169.5 -277 169.5 -475c0 -124 -20 -242.167 -60 -354.5s-96.667 -209.166 -170 -290.499c-76 -85.333 -163 -149.333 -261 -192s-206.667 -64 -326 -64c-192.667 0 -346.667 58.667 -462 176
s-173 273.666 -173 468.999zM1258 1895c-12.667 -66 -34.0039 -115.001 -64.0039 -147.001s-69.667 -48 -119 -48c-11.333 0 -22 0.666992 -32 2s-19.667 3.33301 -29 6l-131 37c-17.333 4 -30.833 6.66699 -40.5 8s-18.834 2 -27.501 2c-26 0 -46.833 -6.16699 -62.5 -18.5
s-26.167 -30.5 -31.5 -54.5h-49c10 61.333 29.5 107.333 58.5 138s67.5 46 115.5 46c14.667 0 27.834 -0.833008 39.501 -2.5s22.834 -4.16699 33.501 -7.5l132 -37c14.667 -3.33301 25.834 -5.5 33.501 -6.5s14.834 -1.5 21.501 -1.5c28 0 50.333 6.83301 67 20.5
s28.334 34.834 35.001 63.501h50z" />
    <glyph glyph-name="Odieresis" unicode="&#xd6;" horiz-adv-x="1583" 
d="M905 1397c-96 0 -183.668 -22.498 -263.001 -67.498s-148 -111.5 -206 -199.5c-50.667 -76.667 -90.667 -165.667 -120 -267s-44 -201.333 -44 -300c0 -148 39.333 -265.833 118 -353.5s184.334 -131.5 317.001 -131.5c94.667 0 182 22.5 262 67.5
s147.333 109.833 202 194.5c46 69.333 82.167 153.666 108.5 252.999s39.5 200.666 39.5 303.999c0 155.333 -37 277.5 -111 366.5s-175 133.5 -303 133.5zM69.999 602.002c0 118 20 232.333 60 343s96.333 208 169 292c78 91.333 167.167 159.833 267.5 205.5
s211.833 68.5 334.5 68.5c188 0 338.5 -59.333 451.5 -178s169.5 -277 169.5 -475c0 -124 -20 -242.167 -60 -354.5s-96.667 -209.166 -170 -290.499c-76 -85.333 -163 -149.333 -261 -192s-206.667 -64 -326 -64c-192.667 0 -346.667 58.667 -462 176
s-173 273.666 -173 468.999zM1036 1774c0 25.333 10.001 48 30.001 68s43 30 69 30c26.667 0 50 -9.83301 70 -29.5s30 -42.5 30 -68.5c0 -28.667 -9.5 -52.5 -28.5 -71.5s-42.833 -28.5 -71.5 -28.5c-26.667 0 -49.834 9.83301 -69.501 29.5s-29.5 43.167 -29.5 70.5z
M688 1774c0 25.333 9.99902 48 29.999 68s43 30 69 30s48.833 -9.66699 68.5 -29s29.5 -42.333 29.5 -69c0 -29.333 -9.33301 -53.333 -28 -72s-42 -28 -70 -28c-27.333 0 -50.666 9.83301 -69.999 29.5s-29 43.167 -29 70.5z" />
    <glyph glyph-name="multiply" unicode="&#xd7;" horiz-adv-x="1706" 
d="M381 1169l477 -477l475 477l82 -82l-475 -477l475 -475l-82 -82l-475 475l-477 -475l-80 82l475 475l-475 477z" />
    <glyph glyph-name="Oslash" unicode="&#xd8;" horiz-adv-x="1583" 
d="M432 6l-136.997 -242c-4 -6.66699 -9.66699 -12.334 -17 -17.001s-14.666 -7 -21.999 -7c-14.667 0 -26.167 3.83301 -34.5 11.5s-12.5 18.167 -12.5 31.5c0 5.33301 0.5 10 1.5 14s2.5 7.66699 4.5 11l137 239c-94.667 60.667 -165.667 136.5 -213 227.5
s-71 196.833 -71 317.5c0 119.333 20 234.833 60 346.5s97 211.167 171 298.5c76.667 90.667 165.167 159 265.5 205s211.166 69 332.499 69c53.333 0 101.666 -4 144.999 -12s83 -20.333 119 -37l111 195c4 8 10.167 14.333 18.5 19s17.166 7 26.499 7
c12 0 22.167 -3.83301 30.5 -11.5s12.5 -17.5 12.5 -29.5c0 -4 -0.5 -8.16699 -1.5 -12.5s-2.83301 -8.5 -5.5 -12.5l-112 -196c90.667 -55.333 160.167 -131.666 208.5 -228.999s72.5 -210 72.5 -338c0 -122.667 -19.833 -239.5 -59.5 -350.5s-96.5 -207.833 -170.5 -290.5
c-74.667 -85.333 -161.334 -149 -260.001 -191s-210 -63 -334 -63c-53.333 0 -101.5 3.83301 -144.5 11.5s-83.5 19.5 -121.5 35.5zM424.003 176l674 1176c-30.667 15.333 -62.334 27 -95.001 35s-66.667 12 -102 12c-73.333 0 -143.166 -14.667 -209.499 -44
s-125.5 -71.333 -177.5 -126c-73.333 -78.667 -132.333 -179.334 -177 -302.001s-67 -246.667 -67 -372c0 -80.667 12.833 -152.667 38.5 -216s64.167 -117.666 115.5 -162.999zM1171 1300l-667 -1173c29.333 -16 61 -27.833 95 -35.5s72.667 -11.5 116 -11.5
c178 0 323.167 76.167 435.5 228.5s168.5 351.166 168.5 596.499c0 87.333 -12.833 165.166 -38.5 233.499s-62.167 122.166 -109.5 161.499z" />
    <glyph glyph-name="Ugrave" unicode="&#xd9;" horiz-adv-x="1460" 
d="M530 1479c30 0 49.502 -3.00684 58.502 -9.00684s13.5 -17.333 13.5 -34c0 -24 -17.667 -45.333 -53 -64l-4 -2c-4 -2 -9.33301 -4.33301 -16 -7c-36 -16 -61.333 -42 -76 -78c-8 -18.667 -17.167 -48.834 -27.5 -90.501s-26.5 -115.5 -48.5 -221.5
c-34 -161.333 -58.167 -286.666 -72.5 -375.999s-21.5 -158 -21.5 -206c0 -105.333 31.5 -185.166 94.5 -239.499s154.833 -81.5 275.5 -81.5c143.333 0 255.833 38.667 337.5 116s137.834 199 168.501 365c24 126 42.333 252.833 55 380.5s19 245.834 19 354.501
c0 19.333 -2.33301 35.5 -7 48.5s-12 22.833 -22 29.5c-6.66699 4.66699 -17.334 11 -32.001 19c-33.333 18.667 -50 36.334 -50 53.001c0 14.667 6 25.5 18 32.5s30.667 10.5 56 10.5h256c26 0 42.667 -2.66699 50 -8s11 -14.333 11 -27c0 -22 -18 -42.333 -54 -61
s-59.333 -34.667 -70 -48c-12.667 -13.333 -22 -68.666 -28 -165.999c-2.66699 -43.333 -5 -78 -7 -104c-17.333 -213.333 -36.5 -380 -57.5 -500s-46.833 -214.667 -77.5 -284c-46.667 -105.333 -119.834 -185.333 -219.501 -240s-221.834 -82 -366.501 -82
c-170 0 -302 35 -396 105s-141 168 -141 294c0 59.333 5.5 126.333 16.5 201s30.833 176.334 59.5 305.001c13.333 62.667 31.333 141.334 54 236.001c25.333 107.333 38 171.333 38 192c0 32.667 -13.333 58.334 -40 77.001c-2 1.33301 -3.66699 2.33301 -5 3
c-2.66699 2 -6 4.33301 -10 7c-22 14 -33 29.333 -33 46c0 18 6.16699 31.5 18.5 40.5s30.833 13.5 55.5 13.5h280zM1049 1623.99h-67.999l-244 203c-22.667 18.667 -37.834 34.167 -45.501 46.5s-11.5 25.5 -11.5 39.5c0 18.667 6.66699 35 20 49s29.333 21 48 21
c14 0 29 -5.16699 45 -15.5s30.333 -24.5 43 -42.5z" />
    <glyph glyph-name="Uacute" unicode="&#xda;" horiz-adv-x="1460" 
d="M530 1479c30 0 49.502 -3.00684 58.502 -9.00684s13.5 -17.333 13.5 -34c0 -24 -17.667 -45.333 -53 -64l-4 -2c-4 -2 -9.33301 -4.33301 -16 -7c-36 -16 -61.333 -42 -76 -78c-8 -18.667 -17.167 -48.834 -27.5 -90.501s-26.5 -115.5 -48.5 -221.5
c-34 -161.333 -58.167 -286.666 -72.5 -375.999s-21.5 -158 -21.5 -206c0 -105.333 31.5 -185.166 94.5 -239.499s154.833 -81.5 275.5 -81.5c143.333 0 255.833 38.667 337.5 116s137.834 199 168.501 365c24 126 42.333 252.833 55 380.5s19 245.834 19 354.501
c0 19.333 -2.33301 35.5 -7 48.5s-12 22.833 -22 29.5c-6.66699 4.66699 -17.334 11 -32.001 19c-33.333 18.667 -50 36.334 -50 53.001c0 14.667 6 25.5 18 32.5s30.667 10.5 56 10.5h256c26 0 42.667 -2.66699 50 -8s11 -14.333 11 -27c0 -22 -18 -42.333 -54 -61
s-59.333 -34.667 -70 -48c-12.667 -13.333 -22 -68.666 -28 -165.999c-2.66699 -43.333 -5 -78 -7 -104c-17.333 -213.333 -36.5 -380 -57.5 -500s-46.833 -214.667 -77.5 -284c-46.667 -105.333 -119.834 -185.333 -219.501 -240s-221.834 -82 -366.501 -82
c-170 0 -302 35 -396 105s-141 168 -141 294c0 59.333 5.5 126.333 16.5 201s30.833 176.334 59.5 305.001c13.333 62.667 31.333 141.334 54 236.001c25.333 107.333 38 171.333 38 192c0 32.667 -13.333 58.334 -40 77.001c-2 1.33301 -3.66699 2.33301 -5 3
c-2.66699 2 -6 4.33301 -10 7c-22 14 -33 29.333 -33 46c0 18 6.16699 31.5 18.5 40.5s30.833 13.5 55.5 13.5h280zM805.002 1623.99l-70 -0.000976562l297 314c12.667 12.667 26.5 23 41.5 31s28.5 12 40.5 12c18.667 0 34.667 -7 48 -21s20 -30.333 20 -49
c0 -14 -5.16699 -27.167 -15.5 -39.5s-28.5 -27.166 -54.5 -44.499z" />
    <glyph glyph-name="Ucircumflex" unicode="&#xdb;" horiz-adv-x="1460" 
d="M530 1479c30 0 49.502 -3.00684 58.502 -9.00684s13.5 -17.333 13.5 -34c0 -24 -17.667 -45.333 -53 -64l-4 -2c-4 -2 -9.33301 -4.33301 -16 -7c-36 -16 -61.333 -42 -76 -78c-8 -18.667 -17.167 -48.834 -27.5 -90.501s-26.5 -115.5 -48.5 -221.5
c-34 -161.333 -58.167 -286.666 -72.5 -375.999s-21.5 -158 -21.5 -206c0 -105.333 31.5 -185.166 94.5 -239.499s154.833 -81.5 275.5 -81.5c143.333 0 255.833 38.667 337.5 116s137.834 199 168.501 365c24 126 42.333 252.833 55 380.5s19 245.834 19 354.501
c0 19.333 -2.33301 35.5 -7 48.5s-12 22.833 -22 29.5c-6.66699 4.66699 -17.334 11 -32.001 19c-33.333 18.667 -50 36.334 -50 53.001c0 14.667 6 25.5 18 32.5s30.667 10.5 56 10.5h256c26 0 42.667 -2.66699 50 -8s11 -14.333 11 -27c0 -22 -18 -42.333 -54 -61
s-59.333 -34.667 -70 -48c-12.667 -13.333 -22 -68.666 -28 -165.999c-2.66699 -43.333 -5 -78 -7 -104c-17.333 -213.333 -36.5 -380 -57.5 -500s-46.833 -214.667 -77.5 -284c-46.667 -105.333 -119.834 -185.333 -219.501 -240s-221.834 -82 -366.501 -82
c-170 0 -302 35 -396 105s-141 168 -141 294c0 59.333 5.5 126.333 16.5 201s30.833 176.334 59.5 305.001c13.333 62.667 31.333 141.334 54 236.001c25.333 107.333 38 171.333 38 192c0 32.667 -13.333 58.334 -40 77.001c-2 1.33301 -3.66699 2.33301 -5 3
c-2.66699 2 -6 4.33301 -10 7c-22 14 -33 29.333 -33 46c0 18 6.16699 31.5 18.5 40.5s30.833 13.5 55.5 13.5h280zM1165 1623.99h-55l-178 207l-274 -207h-68l309 349h105z" />
    <glyph glyph-name="Udieresis" unicode="&#xdc;" horiz-adv-x="1460" 
d="M530 1479c30 0 49.502 -3.00684 58.502 -9.00684s13.5 -17.333 13.5 -34c0 -24 -17.667 -45.333 -53 -64l-4 -2c-4 -2 -9.33301 -4.33301 -16 -7c-36 -16 -61.333 -42 -76 -78c-8 -18.667 -17.167 -48.834 -27.5 -90.501s-26.5 -115.5 -48.5 -221.5
c-34 -161.333 -58.167 -286.666 -72.5 -375.999s-21.5 -158 -21.5 -206c0 -105.333 31.5 -185.166 94.5 -239.499s154.833 -81.5 275.5 -81.5c143.333 0 255.833 38.667 337.5 116s137.834 199 168.501 365c24 126 42.333 252.833 55 380.5s19 245.834 19 354.501
c0 19.333 -2.33301 35.5 -7 48.5s-12 22.833 -22 29.5c-6.66699 4.66699 -17.334 11 -32.001 19c-33.333 18.667 -50 36.334 -50 53.001c0 14.667 6 25.5 18 32.5s30.667 10.5 56 10.5h256c26 0 42.667 -2.66699 50 -8s11 -14.333 11 -27c0 -22 -18 -42.333 -54 -61
s-59.333 -34.667 -70 -48c-12.667 -13.333 -22 -68.666 -28 -165.999c-2.66699 -43.333 -5 -78 -7 -104c-17.333 -213.333 -36.5 -380 -57.5 -500s-46.833 -214.667 -77.5 -284c-46.667 -105.333 -119.834 -185.333 -219.501 -240s-221.834 -82 -366.501 -82
c-170 0 -302 35 -396 105s-141 168 -141 294c0 59.333 5.5 126.333 16.5 201s30.833 176.334 59.5 305.001c13.333 62.667 31.333 141.334 54 236.001c25.333 107.333 38 171.333 38 192c0 32.667 -13.333 58.334 -40 77.001c-2 1.33301 -3.66699 2.33301 -5 3
c-2.66699 2 -6 4.33301 -10 7c-22 14 -33 29.333 -33 46c0 18 6.16699 31.5 18.5 40.5s30.833 13.5 55.5 13.5h280zM993.002 1773.99c0 25.333 10.001 48 30.001 68s43 30 69 30c26.667 0 50 -9.83301 70 -29.5s30 -42.5 30 -68.5c0 -28.667 -9.5 -52.5 -28.5 -71.5
s-42.833 -28.5 -71.5 -28.5c-26.667 0 -49.834 9.83301 -69.501 29.5s-29.5 43.167 -29.5 70.5zM645.003 1773.99c0 25.333 9.99902 48 29.999 68s43 30 69 30s48.833 -9.66699 68.5 -29s29.5 -42.333 29.5 -69c0 -29.333 -9.33301 -53.333 -28 -72s-42 -28 -70 -28
c-27.333 0 -50.666 9.83301 -69.999 29.5s-29 43.167 -29 70.5z" />
    <glyph glyph-name="Yacute" unicode="&#xdd;" horiz-adv-x="1341" 
d="M680 246c-2.66699 -18.667 -4.66406 -34.8291 -5.99707 -48.4961s-2 -23.5 -2 -29.5c0 -28 13.667 -49.667 41 -65c7.33301 -4 12.666 -7 15.999 -9c0.666992 0 1 -0.333008 1 -1c28 -16 42 -32.667 42 -50c0 -12.667 -4.83301 -23 -14.5 -31s-22.5 -12 -38.5 -12h-334
c-14.667 0 -25.834 3.66699 -33.501 11s-11.5 18 -11.5 32c0 22 20 39.667 60 53c22 8 39 15 51 21c12 6.66699 21.5 18.167 28.5 34.5s13.833 47.166 20.5 92.499l51 350c-70.667 99.333 -134.834 200.166 -192.501 302.499s-110.167 208.166 -157.5 317.499
c-3.33301 7.33301 -7.33301 17.666 -12 30.999c-21.333 56 -48 97.667 -80 125c-2.66699 2 -5.33398 4.33301 -8.00098 7c-23.333 20.667 -35 39 -35 55c0 12.667 5.16699 23.667 15.5 33s22.833 14 37.5 14h270c23.333 0 40.5 -3.33301 51.5 -10s16.5 -17 16.5 -31
c0 -18.667 -13.667 -35 -41 -49c-3.33301 -2 -6.33301 -3.66699 -9 -5l-4 -2c-38 -20 -57 -39.667 -57 -59c0 -36.667 30.5 -113.167 91.5 -229.5s140.5 -246.833 238.5 -391.5c147.333 148.667 267.833 281.5 361.5 398.5s140.5 191.167 140.5 222.5
c0 19.333 -16.833 38.666 -50.5 57.999s-50.5 38.333 -50.5 57c0 11.333 4.83301 21 14.5 29s21.834 12 36.501 12h275c12.667 0 22.667 -3.5 30 -10.5s11 -16.5 11 -28.5c0 -16 -13.667 -34.667 -41 -56l-23 -18c-18 -16 -49.333 -56 -94 -120
c-14.667 -22 -26.334 -38.667 -35.001 -50c-78 -109.333 -159.667 -213.666 -245 -312.999s-175.666 -195 -270.999 -287zM733.003 1624l-70 -0.000976562l297 314c12.667 12.667 26.5 23 41.5 31s28.5 12 40.5 12c18.667 0 34.667 -7 48 -21s20 -30.333 20 -49
c0 -14 -5.16699 -27.167 -15.5 -39.5s-28.5 -27.166 -54.5 -44.499z" />
    <glyph glyph-name="Thorn" unicode="&#xde;" horiz-adv-x="1255" 
d="M313 428c217.333 6.66699 390.502 50.668 519.502 132.001s193.5 185.333 193.5 312c0 81.333 -33.333 144.666 -100 189.999s-160.334 68 -281.001 68c-86.667 0 -147.334 -13.667 -182.001 -41s-58.667 -83 -72 -167zM543.002 1479
c14 0 24.999 -3.66211 32.999 -10.9951s12 -17.333 12 -30c0 -20 -18 -38.333 -54 -55c-17.333 -8 -30.666 -15 -39.999 -21c-12 -7.33301 -21.333 -19.333 -28 -36s-13.334 -47 -20.001 -91h201c196.667 0 341.834 -28 435.501 -84s140.5 -142.667 140.5 -260
c0 -162.667 -85.333 -298.334 -256 -407.001s-394.667 -166.334 -672 -173.001l-10 -65c-0.666992 -6 -2 -15 -4 -27c-3.33301 -26.667 -5 -43.667 -5 -51c0 -26.667 12.667 -47.667 38 -63l16 -11c15.333 -10 25.666 -18.833 30.999 -26.5s8 -15.834 8 -24.501
c0 -12.667 -5 -23 -15 -31s-23 -12 -39 -12h-307c-14.667 0 -25.834 3.66699 -33.501 11s-11.5 18 -11.5 32c0 20 17.667 37.667 53 53c18 8 32 15 42 21c10.667 7.33301 19.334 19.166 26.001 35.499s13.334 46.833 20.001 91.5l160 989c2.66699 16 4.66699 30.5 6 43.5
s2 24.5 2 34.5c0 27.333 -11.667 48.333 -35 63l-16 10l-3 3c-24 17.333 -36 33.666 -36 48.999c0 12.667 5 23 15 31s23 12 39 12h307z" />
    <glyph glyph-name="germandbls" unicode="&#xdf;" horiz-adv-x="1346" 
d="M293 262c-4 -26.667 -7.00195 -49.165 -9.00195 -67.498s-3 -32.5 -3 -42.5c0 -13.333 6.33301 -29.666 19 -48.999s19 -36 19 -50c0 -19.333 -6 -33 -18 -41s-35.333 -12 -70 -12h-223c-21.333 0 -37.5 3.83301 -48.5 11.5s-16.5 18.834 -16.5 33.501
c0 17.333 4.66699 30.833 14 40.5s31.333 19.5 66 29.5c61.333 16.667 100 75.667 116 177c1.33301 7.33301 2 12.333 2 15l97 572c18.667 112.667 35.334 193 50.001 241s32.667 90.333 54 127c48 84 113.833 148.333 197.5 193s180.167 67 289.5 67
c126 0 226.5 -30.167 301.5 -90.5s112.5 -139.833 112.5 -238.5c0 -92.667 -30.667 -171.334 -92 -236.001s-146 -107 -254 -127c114 -24.667 202.5 -68.834 265.5 -132.501s94.5 -139.5 94.5 -227.5c0 -143.333 -47.667 -259.5 -143 -348.5s-220.333 -133.5 -375 -133.5
c-107.333 0 -193.5 26 -258.5 78s-97.5 120.333 -97.5 205c0 66.667 15.167 121.834 45.5 165.501s67.833 65.5 112.5 65.5c18.667 0 33.167 -3.83301 43.5 -11.5s15.5 -18.834 15.5 -33.501c0 -7.33301 -1.5 -14.5 -4.5 -21.5s-8.16699 -14.5 -15.5 -22.5
c-4 -4.66699 -11 -11.667 -21 -21c-36.667 -34.667 -55 -73 -55 -115c0 -56 21.667 -101.667 65 -137s100 -53 170 -53c106 0 190.5 32.5 253.5 97.5s94.5 151.833 94.5 260.5s-35.167 190.167 -105.5 244.5s-175.5 81.5 -315.5 81.5h-62c-18 0 -31.667 4 -41 12
s-14 20.333 -14 37c0 39.333 43.667 59.333 131 60c25.333 0.666992 45 1 59 1c104.667 3.33301 187.834 32.666 249.501 87.999s92.5 127.666 92.5 216.999c0 74.667 -24 133.667 -72 177s-112.667 65 -194 65c-62.667 0 -119.667 -13.5 -171 -40.5
s-96.666 -67.5 -135.999 -121.5c-24.667 -33.333 -45.334 -76.833 -62.001 -130.5s-35 -142.5 -55 -266.5z" />
    <glyph glyph-name="agrave" unicode="&#xe0;" horiz-adv-x="1010" 
d="M557 858c-42.667 0 -83.167 -11.667 -121.5 -35s-74.833 -58.666 -109.5 -105.999c-37.333 -49.333 -65.833 -104 -85.5 -164s-29.5 -121.333 -29.5 -184c0 -84 18.667 -151.167 56 -201.5s86.333 -75.5 147 -75.5c40 0 78.833 12 116.5 36s70.5 57.667 98.5 101
c34.667 54.667 62 118.167 82 190.5s30 144.166 30 215.499s-16 126.333 -48 165s-77.333 58 -136 58zM711 227c-25.333 -80 -67.834 -142.33 -127.501 -186.997s-130.5 -67 -212.5 -67c-98 0 -175.5 35 -232.5 105s-85.5 165.667 -85.5 287
c0 78.667 14.667 156.167 44 232.5s70.666 144.833 123.999 205.5c48.667 56 102.667 98.333 162 127s122 43 188 43c48.667 0 90.834 -8.33301 126.501 -25s64.5 -42 86.5 -76c26.667 29.333 50.667 51.5 72 66.5s40.333 22.5 57 22.5c9.33301 0 16.833 -3 22.5 -9
s8.5 -14 8.5 -24c0 -6 -4 -31.5 -12 -76.5l-21 -118.5l-41 -256c-7.33301 -47.333 -12.833 -92.333 -16.5 -135s-5.5 -80.334 -5.5 -113.001c0 -18 1.5 -33.333 4.5 -46s6.83301 -20.334 11.5 -23.001c11.333 -7.33301 28.5 -14.333 51.5 -21s34.5 -16 34.5 -28
c0 -9.33301 -3 -19 -9 -29s-13.667 -18.333 -23 -25c-31.333 -21.333 -62.166 -38.5 -92.499 -51.5s-53.5 -19.5 -69.5 -19.5c-18.667 0 -32.334 8.5 -41.001 25.5s-13 44.5 -13 82.5c0 15.333 0.833008 34.666 2.5 57.999s3.83398 48.333 6.50098 75zM749.999 1083h-67.999
l-244 203c-22.667 18.667 -37.834 34.167 -45.501 46.5s-11.5 25.5 -11.5 39.5c0 18.667 6.66699 35 20 49s29.333 21 48 21c14 0 29 -5.16699 45 -15.5s30.333 -24.5 43 -42.5z" />
    <glyph glyph-name="aacute" unicode="&#xe1;" horiz-adv-x="1010" 
d="M557 858c-42.667 0 -83.167 -11.667 -121.5 -35s-74.833 -58.666 -109.5 -105.999c-37.333 -49.333 -65.833 -104 -85.5 -164s-29.5 -121.333 -29.5 -184c0 -84 18.667 -151.167 56 -201.5s86.333 -75.5 147 -75.5c40 0 78.833 12 116.5 36s70.5 57.667 98.5 101
c34.667 54.667 62 118.167 82 190.5s30 144.166 30 215.499s-16 126.333 -48 165s-77.333 58 -136 58zM711 227c-25.333 -80 -67.834 -142.33 -127.501 -186.997s-130.5 -67 -212.5 -67c-98 0 -175.5 35 -232.5 105s-85.5 165.667 -85.5 287
c0 78.667 14.667 156.167 44 232.5s70.666 144.833 123.999 205.5c48.667 56 102.667 98.333 162 127s122 43 188 43c48.667 0 90.834 -8.33301 126.501 -25s64.5 -42 86.5 -76c26.667 29.333 50.667 51.5 72 66.5s40.333 22.5 57 22.5c9.33301 0 16.833 -3 22.5 -9
s8.5 -14 8.5 -24c0 -6 -4 -31.5 -12 -76.5l-21 -118.5l-41 -256c-7.33301 -47.333 -12.833 -92.333 -16.5 -135s-5.5 -80.334 -5.5 -113.001c0 -18 1.5 -33.333 4.5 -46s6.83301 -20.334 11.5 -23.001c11.333 -7.33301 28.5 -14.333 51.5 -21s34.5 -16 34.5 -28
c0 -9.33301 -3 -19 -9 -29s-13.667 -18.333 -23 -25c-31.333 -21.333 -62.166 -38.5 -92.499 -51.5s-53.5 -19.5 -69.5 -19.5c-18.667 0 -32.334 8.5 -41.001 25.5s-13 44.5 -13 82.5c0 15.333 0.833008 34.666 2.5 57.999s3.83398 48.333 6.50098 75zM505.999 1083
l-70 -0.000976562l297 314c12.667 12.667 26.5 23 41.5 31s28.5 12 40.5 12c18.667 0 34.667 -7 48 -21s20 -30.333 20 -49c0 -14 -5.16699 -27.167 -15.5 -39.5s-28.5 -27.166 -54.5 -44.499z" />
    <glyph glyph-name="acircumflex" unicode="&#xe2;" horiz-adv-x="1010" 
d="M557 858c-42.667 0 -83.167 -11.667 -121.5 -35s-74.833 -58.666 -109.5 -105.999c-37.333 -49.333 -65.833 -104 -85.5 -164s-29.5 -121.333 -29.5 -184c0 -84 18.667 -151.167 56 -201.5s86.333 -75.5 147 -75.5c40 0 78.833 12 116.5 36s70.5 57.667 98.5 101
c34.667 54.667 62 118.167 82 190.5s30 144.166 30 215.499s-16 126.333 -48 165s-77.333 58 -136 58zM711 227c-25.333 -80 -67.834 -142.33 -127.501 -186.997s-130.5 -67 -212.5 -67c-98 0 -175.5 35 -232.5 105s-85.5 165.667 -85.5 287
c0 78.667 14.667 156.167 44 232.5s70.666 144.833 123.999 205.5c48.667 56 102.667 98.333 162 127s122 43 188 43c48.667 0 90.834 -8.33301 126.501 -25s64.5 -42 86.5 -76c26.667 29.333 50.667 51.5 72 66.5s40.333 22.5 57 22.5c9.33301 0 16.833 -3 22.5 -9
s8.5 -14 8.5 -24c0 -6 -4 -31.5 -12 -76.5l-21 -118.5l-41 -256c-7.33301 -47.333 -12.833 -92.333 -16.5 -135s-5.5 -80.334 -5.5 -113.001c0 -18 1.5 -33.333 4.5 -46s6.83301 -20.334 11.5 -23.001c11.333 -7.33301 28.5 -14.333 51.5 -21s34.5 -16 34.5 -28
c0 -9.33301 -3 -19 -9 -29s-13.667 -18.333 -23 -25c-31.333 -21.333 -62.166 -38.5 -92.499 -51.5s-53.5 -19.5 -69.5 -19.5c-18.667 0 -32.334 8.5 -41.001 25.5s-13 44.5 -13 82.5c0 15.333 0.833008 34.666 2.5 57.999s3.83398 48.333 6.50098 75zM865.999 1083h-55
l-178 207l-274 -207h-68l309 349h105z" />
    <glyph glyph-name="atilde" unicode="&#xe3;" horiz-adv-x="1010" 
d="M557 858c-42.667 0 -83.167 -11.667 -121.5 -35s-74.833 -58.666 -109.5 -105.999c-37.333 -49.333 -65.833 -104 -85.5 -164s-29.5 -121.333 -29.5 -184c0 -84 18.667 -151.167 56 -201.5s86.333 -75.5 147 -75.5c40 0 78.833 12 116.5 36s70.5 57.667 98.5 101
c34.667 54.667 62 118.167 82 190.5s30 144.166 30 215.499s-16 126.333 -48 165s-77.333 58 -136 58zM711 227c-25.333 -80 -67.834 -142.33 -127.501 -186.997s-130.5 -67 -212.5 -67c-98 0 -175.5 35 -232.5 105s-85.5 165.667 -85.5 287
c0 78.667 14.667 156.167 44 232.5s70.666 144.833 123.999 205.5c48.667 56 102.667 98.333 162 127s122 43 188 43c48.667 0 90.834 -8.33301 126.501 -25s64.5 -42 86.5 -76c26.667 29.333 50.667 51.5 72 66.5s40.333 22.5 57 22.5c9.33301 0 16.833 -3 22.5 -9
s8.5 -14 8.5 -24c0 -6 -4 -31.5 -12 -76.5l-21 -118.5l-41 -256c-7.33301 -47.333 -12.833 -92.333 -16.5 -135s-5.5 -80.334 -5.5 -113.001c0 -18 1.5 -33.333 4.5 -46s6.83301 -20.334 11.5 -23.001c11.333 -7.33301 28.5 -14.333 51.5 -21s34.5 -16 34.5 -28
c0 -9.33301 -3 -19 -9 -29s-13.667 -18.333 -23 -25c-31.333 -21.333 -62.166 -38.5 -92.499 -51.5s-53.5 -19.5 -69.5 -19.5c-18.667 0 -32.334 8.5 -41.001 25.5s-13 44.5 -13 82.5c0 15.333 0.833008 34.666 2.5 57.999s3.83398 48.333 6.50098 75zM915.999 1354
c-12.667 -66 -34.0039 -115.001 -64.0039 -147.001s-69.667 -48 -119 -48c-11.333 0 -22 0.666992 -32 2s-19.667 3.33301 -29 6l-131 37c-17.333 4 -30.833 6.66699 -40.5 8s-18.834 2 -27.501 2c-26 0 -46.833 -6.16699 -62.5 -18.5s-26.167 -30.5 -31.5 -54.5h-49
c10 61.333 29.5 107.333 58.5 138s67.5 46 115.5 46c14.667 0 27.834 -0.833008 39.501 -2.5s22.834 -4.16699 33.501 -7.5l132 -37c14.667 -3.33301 25.834 -5.5 33.501 -6.5s14.834 -1.5 21.501 -1.5c28 0 50.333 6.83301 67 20.5s28.334 34.834 35.001 63.501h50z" />
    <glyph glyph-name="adieresis" unicode="&#xe4;" horiz-adv-x="1010" 
d="M557 858c-42.667 0 -83.167 -11.667 -121.5 -35s-74.833 -58.666 -109.5 -105.999c-37.333 -49.333 -65.833 -104 -85.5 -164s-29.5 -121.333 -29.5 -184c0 -84 18.667 -151.167 56 -201.5s86.333 -75.5 147 -75.5c40 0 78.833 12 116.5 36s70.5 57.667 98.5 101
c34.667 54.667 62 118.167 82 190.5s30 144.166 30 215.499s-16 126.333 -48 165s-77.333 58 -136 58zM711 227c-25.333 -80 -67.834 -142.33 -127.501 -186.997s-130.5 -67 -212.5 -67c-98 0 -175.5 35 -232.5 105s-85.5 165.667 -85.5 287
c0 78.667 14.667 156.167 44 232.5s70.666 144.833 123.999 205.5c48.667 56 102.667 98.333 162 127s122 43 188 43c48.667 0 90.834 -8.33301 126.501 -25s64.5 -42 86.5 -76c26.667 29.333 50.667 51.5 72 66.5s40.333 22.5 57 22.5c9.33301 0 16.833 -3 22.5 -9
s8.5 -14 8.5 -24c0 -6 -4 -31.5 -12 -76.5l-21 -118.5l-41 -256c-7.33301 -47.333 -12.833 -92.333 -16.5 -135s-5.5 -80.334 -5.5 -113.001c0 -18 1.5 -33.333 4.5 -46s6.83301 -20.334 11.5 -23.001c11.333 -7.33301 28.5 -14.333 51.5 -21s34.5 -16 34.5 -28
c0 -9.33301 -3 -19 -9 -29s-13.667 -18.333 -23 -25c-31.333 -21.333 -62.166 -38.5 -92.499 -51.5s-53.5 -19.5 -69.5 -19.5c-18.667 0 -32.334 8.5 -41.001 25.5s-13 44.5 -13 82.5c0 15.333 0.833008 34.666 2.5 57.999s3.83398 48.333 6.50098 75zM693.999 1233
c0 25.333 10.001 48 30.001 68s43 30 69 30c26.667 0 50 -9.83301 70 -29.5s30 -42.5 30 -68.5c0 -28.667 -9.5 -52.5 -28.5 -71.5s-42.833 -28.5 -71.5 -28.5c-26.667 0 -49.834 9.83301 -69.501 29.5s-29.5 43.167 -29.5 70.5zM346 1233c0 25.333 9.99902 48 29.999 68
s43 30 69 30s48.833 -9.66699 68.5 -29s29.5 -42.333 29.5 -69c0 -29.333 -9.33301 -53.333 -28 -72s-42 -28 -70 -28c-27.333 0 -50.666 9.83301 -69.999 29.5s-29 43.167 -29 70.5z" />
    <glyph glyph-name="aring" unicode="&#xe5;" horiz-adv-x="1010" 
d="M485 1278c0 -43.333 15.168 -80.166 45.501 -110.499s67.166 -45.5 110.499 -45.5c42.667 0 79 15.167 109 45.5s45 67.166 45 110.499c0 44 -14.833 81 -44.5 111s-66.167 45 -109.5 45c-44 0 -81 -15 -111 -45s-45 -67 -45 -111zM399.001 1280
c0 67.333 23.333 124.166 70 170.499s104 69.5 172 69.5c67.333 0 124.166 -23.167 170.499 -69.5s69.5 -103.166 69.5 -170.499c0 -68 -23.167 -125.333 -69.5 -172s-103.166 -70 -170.499 -70s-124.5 23.5 -171.5 70.5s-70.5 104.167 -70.5 171.5zM557.001 858
c-42.667 0 -83.167 -11.667 -121.5 -35s-74.833 -58.666 -109.5 -105.999c-37.333 -49.333 -65.833 -104 -85.5 -164s-29.5 -121.333 -29.5 -184c0 -84 18.667 -151.167 56 -201.5s86.333 -75.5 147 -75.5c40 0 78.833 12 116.5 36s70.5 57.667 98.5 101
c34.667 54.667 62 118.167 82 190.5s30 144.166 30 215.499s-16 126.333 -48 165s-77.333 58 -136 58zM711.001 227c-25.333 -80 -67.834 -142.33 -127.501 -186.997s-130.5 -67 -212.5 -67c-98 0 -175.5 35 -232.5 105s-85.5 165.667 -85.5 287
c0 78.667 14.667 156.167 44 232.5s70.666 144.833 123.999 205.5c48.667 56 102.667 98.333 162 127s122 43 188 43c48.667 0 90.834 -8.33301 126.501 -25s64.5 -42 86.5 -76c26.667 29.333 50.667 51.5 72 66.5s40.333 22.5 57 22.5c9.33301 0 16.833 -3 22.5 -9
s8.5 -14 8.5 -24c0 -6 -4 -31.5 -12 -76.5l-21 -118.5l-41 -256c-7.33301 -47.333 -12.833 -92.333 -16.5 -135s-5.5 -80.334 -5.5 -113.001c0 -18 1.5 -33.333 4.5 -46s6.83301 -20.334 11.5 -23.001c11.333 -7.33301 28.5 -14.333 51.5 -21s34.5 -16 34.5 -28
c0 -9.33301 -3 -19 -9 -29s-13.667 -18.333 -23 -25c-31.333 -21.333 -62.166 -38.5 -92.499 -51.5s-53.5 -19.5 -69.5 -19.5c-18.667 0 -32.334 8.5 -41.001 25.5s-13 44.5 -13 82.5c0 15.333 0.833008 34.666 2.5 57.999s3.83398 48.333 6.50098 75z" />
    <glyph glyph-name="ae" unicode="&#xe6;" horiz-adv-x="1688" 
d="M950 537l49.001 -0.000976562c149.333 0 268 19 356 57s132 88.333 132 151c0 38.667 -13.167 69.167 -39.5 91.5s-62.5 33.5 -108.5 33.5c-82.667 0 -160.834 -31.167 -234.501 -93.5s-125.167 -142.166 -154.5 -239.499zM754.001 437.999
c-26.667 7.33301 -55.332 12.667 -85.999 16s-64.334 5 -101.001 5c-103.333 0 -186.166 -20.833 -248.499 -62.5s-93.5 -96.167 -93.5 -163.5c0 -45.333 15.667 -81.5 47 -108.5s73.666 -40.5 126.999 -40.5c99.333 0 180 31 242 93s99.667 149 113 261zM780.003 162
c-48.667 -61.333 -109.164 -108.168 -181.497 -140.501s-153.166 -48.5 -242.499 -48.5c-92.667 0 -167.334 22.833 -224.001 68.5s-85 105.5 -85 179.5c0 102 46 183.5 138 244.5s216 91.5 372 91.5c29.333 0 61.666 -1 96.999 -3s73.333 -5 114 -9
c0.666992 12 1.16699 24.167 1.5 36.5s0.5 26.166 0.5 41.499c0 78 -19.333 137 -58 177s-95.667 60 -171 60c-34 0 -64.667 -3.5 -92 -10.5s-48.333 -16.167 -63 -27.5l-36 -28c-48.667 -39.333 -85.334 -59 -110.001 -59c-16.667 0 -30.5 4.33301 -41.5 13
s-16.5 19.334 -16.5 32.001c0 43.333 38.833 85 116.5 125s166.5 60 266.5 60c103.333 0 184.666 -18.5 243.999 -55.5s93.333 -90.833 102 -161.5c56 69.333 123.333 122.833 202 160.5s162.334 56.5 251.001 56.5c85.333 0 154.166 -20 206.499 -60
s78.5 -91.667 78.5 -155c0 -95.333 -59.333 -171.5 -178 -228.5s-279.334 -85.5 -482.001 -85.5h-57c-2 -19.333 -3.5 -36.166 -4.5 -50.499s-1.5 -26.833 -1.5 -37.5c0 -82 22.333 -144.167 67 -186.5s110.334 -63.5 197.001 -63.5c48 0 95.667 7 143 21
s90.333 33.667 129 59c12 8 28.5 21 49.5 39s37.5 27 49.5 27c10 0 18.167 -3.5 24.5 -10.5s9.5 -15.833 9.5 -26.5c0 -13.333 -5.66699 -28 -17 -44s-27.333 -32 -48 -48c-60 -46.667 -124 -82 -192 -106s-138.667 -36 -212 -36c-76 0 -141.5 15 -196.5 45
s-104.833 78 -149.5 144z" />
    <glyph glyph-name="ccedilla" unicode="&#xe7;" horiz-adv-x="895" 
d="M422 -29c-118.667 0 -211.498 35.1621 -278.498 105.495s-100.5 167.833 -100.5 292.5c0 65.333 11.667 130 35 194s58 126.333 104 187c56.667 73.333 120.834 129.5 192.501 168.5s147.5 58.5 227.5 58.5c82 0 149.333 -18 202 -54s79 -81 79 -135
c0 -28 -8 -50.667 -24 -68s-37.333 -26 -64 -26c-22.667 0 -40.834 5.83301 -54.501 17.5s-25.5 31.834 -35.5 60.501c-12 30.667 -27.667 52.334 -47 65.001s-46 19 -80 19c-38.667 0 -76.5 -10.333 -113.5 -31s-71.833 -50.667 -104.5 -90
c-42.667 -52.667 -75.834 -112.667 -99.501 -180s-35.5 -135.666 -35.5 -204.999c0 -83.333 23.167 -149.166 69.5 -197.499s109.166 -72.5 188.499 -72.5c43.333 0 84.333 8.16699 123 24.5s74.334 40.833 107.001 73.5c7.33301 7.33301 17 18.333 29 33
c22.667 27.333 41 41 55 41c10 0 18.667 -4.16699 26 -12.5s11 -18.5 11 -30.5c0 -18 -10 -40.167 -30 -66.5s-46.333 -51.166 -79 -74.499c-44 -31.333 -91.833 -55.333 -143.5 -72s-104.834 -25 -159.501 -25zM118.002 -373.005l33.001 80.002
c41.333 -22.667 81.666 -40.334 120.999 -53.001s74 -19 104 -19c42 0 72.667 7.5 92 22.5s29 38.5 29 70.5c0 27.333 -9.83301 49.166 -29.5 65.499s-46.5 24.5 -80.5 24.5c-10.667 0 -23.667 -1 -39 -3s-33 -5.33301 -53 -10l63 195h64l-37 -112l32.5 4
c11 1.33301 21.167 2 30.5 2c56 0 100.333 -14.833 133 -44.5s49 -69.5 49 -119.5c0 -54.667 -19.833 -97.667 -59.5 -129s-94.167 -47 -163.5 -47c-36 0 -77.333 5.83301 -124 17.5s-101.667 30.167 -165 55.5z" />
    <glyph glyph-name="egrave" unicode="&#xe8;" horiz-adv-x="1010" 
d="M238 489c178.667 15.333 317.167 45.333 415.5 90s147.5 100 147.5 166c0 36 -14.667 65.167 -44 87.5s-68 33.5 -116 33.5c-90 0 -172.333 -34.5 -247 -103.5s-126.667 -160.167 -156 -273.5zM226 391c-1.33301 -5.33301 -2.16504 -10.665 -2.49805 -15.998
s-0.5 -13 -0.5 -23c0 -78.667 24.333 -141 73 -187s114.667 -69 198 -69c44.667 0 89.167 6.66699 133.5 20s88.5 33.333 132.5 60c13.333 8.66699 31 21 53 37c37.333 27.333 64 41 80 41c11.333 0 20.666 -4.16699 27.999 -12.5s11 -18.5 11 -30.5
c0 -16 -7.5 -32.5 -22.5 -49.5s-41.167 -38.167 -78.5 -63.5c-64 -43.333 -128 -75.333 -192 -96s-130.333 -31 -199 -31c-117.333 0 -212.5 35.667 -285.5 107s-109.5 164.666 -109.5 279.999c0 68.667 12.667 135.5 38 200.5s62.666 125.833 111.999 182.5
c64.667 75.333 137.5 132.833 218.5 172.5s166.5 59.5 256.5 59.5c91.333 0 164.333 -19.5 219 -58.5s82 -90.5 82 -154.5c0 -100.667 -66.833 -184.334 -200.5 -251.001s-315.167 -106 -544.5 -118zM783.001 1083h-67.999l-244 203
c-22.667 18.667 -37.834 34.167 -45.501 46.5s-11.5 25.5 -11.5 39.5c0 18.667 6.66699 35 20 49s29.333 21 48 21c14 0 29 -5.16699 45 -15.5s30.333 -24.5 43 -42.5z" />
    <glyph glyph-name="eacute" unicode="&#xe9;" horiz-adv-x="1010" 
d="M238 489c178.667 15.333 317.167 45.333 415.5 90s147.5 100 147.5 166c0 36 -14.667 65.167 -44 87.5s-68 33.5 -116 33.5c-90 0 -172.333 -34.5 -247 -103.5s-126.667 -160.167 -156 -273.5zM226 391c-1.33301 -5.33301 -2.16504 -10.665 -2.49805 -15.998
s-0.5 -13 -0.5 -23c0 -78.667 24.333 -141 73 -187s114.667 -69 198 -69c44.667 0 89.167 6.66699 133.5 20s88.5 33.333 132.5 60c13.333 8.66699 31 21 53 37c37.333 27.333 64 41 80 41c11.333 0 20.666 -4.16699 27.999 -12.5s11 -18.5 11 -30.5
c0 -16 -7.5 -32.5 -22.5 -49.5s-41.167 -38.167 -78.5 -63.5c-64 -43.333 -128 -75.333 -192 -96s-130.333 -31 -199 -31c-117.333 0 -212.5 35.667 -285.5 107s-109.5 164.666 -109.5 279.999c0 68.667 12.667 135.5 38 200.5s62.666 125.833 111.999 182.5
c64.667 75.333 137.5 132.833 218.5 172.5s166.5 59.5 256.5 59.5c91.333 0 164.333 -19.5 219 -58.5s82 -90.5 82 -154.5c0 -100.667 -66.833 -184.334 -200.5 -251.001s-315.167 -106 -544.5 -118zM539.001 1083l-70 -0.000976562l297 314c12.667 12.667 26.5 23 41.5 31
s28.5 12 40.5 12c18.667 0 34.667 -7 48 -21s20 -30.333 20 -49c0 -14 -5.16699 -27.167 -15.5 -39.5s-28.5 -27.166 -54.5 -44.499z" />
    <glyph glyph-name="ecircumflex" unicode="&#xea;" horiz-adv-x="1010" 
d="M238 489c178.667 15.333 317.167 45.333 415.5 90s147.5 100 147.5 166c0 36 -14.667 65.167 -44 87.5s-68 33.5 -116 33.5c-90 0 -172.333 -34.5 -247 -103.5s-126.667 -160.167 -156 -273.5zM226 391c-1.33301 -5.33301 -2.16504 -10.665 -2.49805 -15.998
s-0.5 -13 -0.5 -23c0 -78.667 24.333 -141 73 -187s114.667 -69 198 -69c44.667 0 89.167 6.66699 133.5 20s88.5 33.333 132.5 60c13.333 8.66699 31 21 53 37c37.333 27.333 64 41 80 41c11.333 0 20.666 -4.16699 27.999 -12.5s11 -18.5 11 -30.5
c0 -16 -7.5 -32.5 -22.5 -49.5s-41.167 -38.167 -78.5 -63.5c-64 -43.333 -128 -75.333 -192 -96s-130.333 -31 -199 -31c-117.333 0 -212.5 35.667 -285.5 107s-109.5 164.666 -109.5 279.999c0 68.667 12.667 135.5 38 200.5s62.666 125.833 111.999 182.5
c64.667 75.333 137.5 132.833 218.5 172.5s166.5 59.5 256.5 59.5c91.333 0 164.333 -19.5 219 -58.5s82 -90.5 82 -154.5c0 -100.667 -66.833 -184.334 -200.5 -251.001s-315.167 -106 -544.5 -118zM899.001 1083h-55l-178 207l-274 -207h-68l309 349h105z" />
    <glyph glyph-name="edieresis" unicode="&#xeb;" horiz-adv-x="1010" 
d="M238 489c178.667 15.333 317.167 45.333 415.5 90s147.5 100 147.5 166c0 36 -14.667 65.167 -44 87.5s-68 33.5 -116 33.5c-90 0 -172.333 -34.5 -247 -103.5s-126.667 -160.167 -156 -273.5zM226 391c-1.33301 -5.33301 -2.16504 -10.665 -2.49805 -15.998
s-0.5 -13 -0.5 -23c0 -78.667 24.333 -141 73 -187s114.667 -69 198 -69c44.667 0 89.167 6.66699 133.5 20s88.5 33.333 132.5 60c13.333 8.66699 31 21 53 37c37.333 27.333 64 41 80 41c11.333 0 20.666 -4.16699 27.999 -12.5s11 -18.5 11 -30.5
c0 -16 -7.5 -32.5 -22.5 -49.5s-41.167 -38.167 -78.5 -63.5c-64 -43.333 -128 -75.333 -192 -96s-130.333 -31 -199 -31c-117.333 0 -212.5 35.667 -285.5 107s-109.5 164.666 -109.5 279.999c0 68.667 12.667 135.5 38 200.5s62.666 125.833 111.999 182.5
c64.667 75.333 137.5 132.833 218.5 172.5s166.5 59.5 256.5 59.5c91.333 0 164.333 -19.5 219 -58.5s82 -90.5 82 -154.5c0 -100.667 -66.833 -184.334 -200.5 -251.001s-315.167 -106 -544.5 -118zM727.001 1233c0 25.333 10.001 48 30.001 68s43 30 69 30
c26.667 0 50 -9.83301 70 -29.5s30 -42.5 30 -68.5c0 -28.667 -9.5 -52.5 -28.5 -71.5s-42.833 -28.5 -71.5 -28.5c-26.667 0 -49.834 9.83301 -69.501 29.5s-29.5 43.167 -29.5 70.5zM379.002 1233c0 25.333 9.99902 48 29.999 68s43 30 69 30s48.833 -9.66699 68.5 -29
s29.5 -42.333 29.5 -69c0 -29.333 -9.33301 -53.333 -28 -72s-42 -28 -70 -28c-27.333 0 -50.666 9.83301 -69.999 29.5s-29 43.167 -29 70.5z" />
    <glyph glyph-name="igrave" unicode="&#xec;" horiz-adv-x="492" 
d="M113 135l94 580.003c1.33301 9.33301 2.33301 16.666 3 21.999s1 9.66602 1 12.999c0 12 -2.33301 21.833 -7 29.5s-12 13.5 -22 17.5c-6.66699 2 -16.334 4.66699 -29.001 8c-32.667 7.33301 -49 22.333 -49 45c0 8.66699 4 17.167 12 25.5s20 16.833 36 25.5
c32 18.667 65.833 33.667 101.5 45s63.834 17 84.501 17c16 0 27.833 -4.5 35.5 -13.5s11.5 -23.167 11.5 -42.5c0 -12 -1.66699 -31.667 -5 -59s-9.33301 -66.333 -18 -117l-83 -520c-0.666992 -4 -1.33398 -9.33301 -2.00098 -16c-2 -12 -3 -19.667 -3 -23
c0.666992 -16 4.66699 -27.667 12 -35s21 -12.666 41 -15.999c3.33301 -0.666992 7.33301 -1.33398 12 -2.00098c30.667 -4.66699 46 -15 46 -31c0 -24 -21.833 -47 -65.5 -69s-92.167 -33 -145.5 -33c-25.333 0 -43.333 5.16699 -54 15.5s-16 28.166 -16 53.499
c0 12 0.833008 24.667 2.5 38s3.83398 27.333 6.50098 42zM490 1083h-67.999l-244 203c-22.667 18.667 -37.834 34.167 -45.501 46.5s-11.5 25.5 -11.5 39.5c0 18.667 6.66699 35 20 49s29.333 21 48 21c14 0 29 -5.16699 45 -15.5s30.333 -24.5 43 -42.5z" />
    <glyph glyph-name="iacute" unicode="&#xed;" horiz-adv-x="492" 
d="M113 135l94 580.003c1.33301 9.33301 2.33301 16.666 3 21.999s1 9.66602 1 12.999c0 12 -2.33301 21.833 -7 29.5s-12 13.5 -22 17.5c-6.66699 2 -16.334 4.66699 -29.001 8c-32.667 7.33301 -49 22.333 -49 45c0 8.66699 4 17.167 12 25.5s20 16.833 36 25.5
c32 18.667 65.833 33.667 101.5 45s63.834 17 84.501 17c16 0 27.833 -4.5 35.5 -13.5s11.5 -23.167 11.5 -42.5c0 -12 -1.66699 -31.667 -5 -59s-9.33301 -66.333 -18 -117l-83 -520c-0.666992 -4 -1.33398 -9.33301 -2.00098 -16c-2 -12 -3 -19.667 -3 -23
c0.666992 -16 4.66699 -27.667 12 -35s21 -12.666 41 -15.999c3.33301 -0.666992 7.33301 -1.33398 12 -2.00098c30.667 -4.66699 46 -15 46 -31c0 -24 -21.833 -47 -65.5 -69s-92.167 -33 -145.5 -33c-25.333 0 -43.333 5.16699 -54 15.5s-16 28.166 -16 53.499
c0 12 0.833008 24.667 2.5 38s3.83398 27.333 6.50098 42zM246 1083l-70 -0.000976562l297 314c12.667 12.667 26.5 23 41.5 31s28.5 12 40.5 12c18.667 0 34.667 -7 48 -21s20 -30.333 20 -49c0 -14 -5.16699 -27.167 -15.5 -39.5s-28.5 -27.166 -54.5 -44.499z" />
    <glyph glyph-name="icircumflex" unicode="&#xee;" horiz-adv-x="492" 
d="M113 135l94 580.003c1.33301 9.33301 2.33301 16.666 3 21.999s1 9.66602 1 12.999c0 12 -2.33301 21.833 -7 29.5s-12 13.5 -22 17.5c-6.66699 2 -16.334 4.66699 -29.001 8c-32.667 7.33301 -49 22.333 -49 45c0 8.66699 4 17.167 12 25.5s20 16.833 36 25.5
c32 18.667 65.833 33.667 101.5 45s63.834 17 84.501 17c16 0 27.833 -4.5 35.5 -13.5s11.5 -23.167 11.5 -42.5c0 -12 -1.66699 -31.667 -5 -59s-9.33301 -66.333 -18 -117l-83 -520c-0.666992 -4 -1.33398 -9.33301 -2.00098 -16c-2 -12 -3 -19.667 -3 -23
c0.666992 -16 4.66699 -27.667 12 -35s21 -12.666 41 -15.999c3.33301 -0.666992 7.33301 -1.33398 12 -2.00098c30.667 -4.66699 46 -15 46 -31c0 -24 -21.833 -47 -65.5 -69s-92.167 -33 -145.5 -33c-25.333 0 -43.333 5.16699 -54 15.5s-16 28.166 -16 53.499
c0 12 0.833008 24.667 2.5 38s3.83398 27.333 6.50098 42zM606 1083h-55l-178 207l-274 -207h-68l309 349h105z" />
    <glyph glyph-name="idieresis" unicode="&#xef;" horiz-adv-x="492" 
d="M113 135l94 580.003c1.33301 9.33301 2.33301 16.666 3 21.999s1 9.66602 1 12.999c0 12 -2.33301 21.833 -7 29.5s-12 13.5 -22 17.5c-6.66699 2 -16.334 4.66699 -29.001 8c-32.667 7.33301 -49 22.333 -49 45c0 8.66699 4 17.167 12 25.5s20 16.833 36 25.5
c32 18.667 65.833 33.667 101.5 45s63.834 17 84.501 17c16 0 27.833 -4.5 35.5 -13.5s11.5 -23.167 11.5 -42.5c0 -12 -1.66699 -31.667 -5 -59s-9.33301 -66.333 -18 -117l-83 -520c-0.666992 -4 -1.33398 -9.33301 -2.00098 -16c-2 -12 -3 -19.667 -3 -23
c0.666992 -16 4.66699 -27.667 12 -35s21 -12.666 41 -15.999c3.33301 -0.666992 7.33301 -1.33398 12 -2.00098c30.667 -4.66699 46 -15 46 -31c0 -24 -21.833 -47 -65.5 -69s-92.167 -33 -145.5 -33c-25.333 0 -43.333 5.16699 -54 15.5s-16 28.166 -16 53.499
c0 12 0.833008 24.667 2.5 38s3.83398 27.333 6.50098 42zM434 1233c0 25.333 10.001 48 30.001 68s43 30 69 30c26.667 0 50 -9.83301 70 -29.5s30 -42.5 30 -68.5c0 -28.667 -9.5 -52.5 -28.5 -71.5s-42.833 -28.5 -71.5 -28.5c-26.667 0 -49.834 9.83301 -69.501 29.5
s-29.5 43.167 -29.5 70.5zM86.001 1233c0 25.333 9.99902 48 29.999 68s43 30 69 30s48.833 -9.66699 68.5 -29s29.5 -42.333 29.5 -69c0 -29.333 -9.33301 -53.333 -28 -72s-42 -28 -70 -28c-27.333 0 -50.666 9.83301 -69.999 29.5s-29 43.167 -29 70.5z" />
    <glyph glyph-name="eth" unicode="&#xf0;" horiz-adv-x="1118" 
d="M720 967c-21.333 35.333 -43.167 69.499 -65.5 102.499s-45.166 64.833 -68.499 95.5l-186 -73l-13 -5c-23.333 -9.33301 -41.666 -14 -54.999 -14c-12 0 -22.167 3.5 -30.5 10.5s-12.5 15.167 -12.5 24.5c0 22 25 43.667 75 65l1 1l161 69
c-30 45.333 -66.5 92.166 -109.5 140.499s-64.5 78.166 -64.5 89.499c0 8.66699 4.66699 17.167 14 25.5s19 12.5 29 12.5c23.333 0 54.166 -16.5 92.499 -49.5s92.833 -90.833 163.5 -173.5l215 90c19.333 7.33301 34 12.333 44 15s18.667 4 26 4
c12 0 21.833 -3.5 29.5 -10.5s11.5 -15.167 11.5 -24.5c0 -21.333 -22.667 -41.666 -68 -60.999l-5 -2l-191 -78c131.333 -159.333 222.5 -289.166 273.5 -389.499s76.5 -195.166 76.5 -284.499c0 -73.333 -14.333 -144.5 -43 -213.5s-70.334 -133.167 -125.001 -192.5
c-52.667 -56.667 -113.834 -99.834 -183.501 -129.501s-145.167 -44.5 -226.5 -44.5c-130.667 0 -235 35.667 -313 107s-117 167.333 -117 288c0 79.333 13.667 156 41 230s65.666 138 114.999 192c56.667 62.667 120.334 109.834 191.001 141.501
s148.334 47.5 233.001 47.5c13.333 0 27.5 -0.5 42.5 -1.5s29.167 -2.5 42.5 -4.5zM626.999 867.999c-110 0 -202.667 -46.668 -278 -140.001s-113 -208.333 -113 -345c0 -98.667 23 -175.5 69 -230.5s110.333 -82.5 193 -82.5c108.667 0 199.667 47 273 141
s110 212 110 354c0 94.667 -22.667 168.834 -68 222.501s-107.333 80.5 -186 80.5z" />
    <glyph glyph-name="ntilde" unicode="&#xf1;" horiz-adv-x="1128" 
d="M340 684c44 91.333 98.499 160.665 163.499 207.998s138.167 71 219.5 71c84 0 150.333 -24 199 -72s73 -113.667 73 -197c0 -17.333 -1.5 -40.166 -4.5 -68.499s-7.5 -59.833 -13.5 -94.5l-45 -272c-4.66699 -28 -7.5 -46.667 -8.5 -56s-1.5 -17.666 -1.5 -24.999
c0 -26.667 14.667 -43.667 44 -51h1c2 -0.666992 4.66699 -1.33398 8 -2.00098c22.667 -4.66699 34.334 -15.667 35.001 -33c0 -23.333 -23 -47.166 -69 -71.499s-94 -36.5 -144 -36.5c-18 0 -31.5 4.83301 -40.5 14.5s-13.5 24.5 -13.5 44.5c0 6 0.166992 10.833 0.5 14.5
s0.833008 6.83398 1.5 9.50098l86 525c2.66699 18 4.83398 34.167 6.50098 48.5s2.5 25.5 2.5 33.5c0 56.667 -13 100.167 -39 130.5s-63 45.5 -111 45.5c-92 0 -169.833 -48.667 -233.5 -146s-116.834 -249.333 -159.501 -456l-43 -211
c-2.66699 -15.333 -6.66699 -25.333 -12 -30s-15.666 -7 -30.999 -7h-94c-9.33301 0 -16.833 2.66699 -22.5 8s-8.5 12.333 -8.5 21c0 4 0.166992 7.83301 0.5 11.5s0.833008 7.16699 1.5 10.5l59 314c20.667 108 33.834 183 39.501 225s8.5 76.667 8.5 104
c-0.666992 21.333 -2.83398 39.5 -6.50098 54.5s-8.5 24.833 -14.5 29.5c-8.66699 6.66699 -23.5 14 -44.5 22s-31.5 17.667 -31.5 29c0 8.66699 3 17.334 9 26.001s14 16.667 24 24c34 24 64.167 42.5 90.5 55.5s46.833 19.5 61.5 19.5
c23.333 0 40.666 -8.33301 51.999 -25s17 -42.334 17 -77.001c0 -8.66699 -1.5 -32.334 -4.5 -71.001zM984.999 1354c-12.667 -66 -34.0039 -115.001 -64.0039 -147.001s-69.667 -48 -119 -48c-11.333 0 -22 0.666992 -32 2s-19.667 3.33301 -29 6l-131 37
c-17.333 4 -30.833 6.66699 -40.5 8s-18.834 2 -27.501 2c-26 0 -46.833 -6.16699 -62.5 -18.5s-26.167 -30.5 -31.5 -54.5h-49c10 61.333 29.5 107.333 58.5 138s67.5 46 115.5 46c14.667 0 27.834 -0.833008 39.501 -2.5s22.834 -4.16699 33.501 -7.5l132 -37
c14.667 -3.33301 25.834 -5.5 33.501 -6.5s14.834 -1.5 21.501 -1.5c28 0 50.333 6.83301 67 20.5s28.334 34.834 35.001 63.501h50z" />
    <glyph glyph-name="ograve" unicode="&#xf2;" horiz-adv-x="1118" 
d="M236 387c0 -100.667 23.168 -178.666 69.501 -233.999s111.166 -83 194.499 -83c108.667 0 199.667 47 273 141s110 212 110 354c0 93.333 -23 167.166 -69 221.499s-108.333 81.5 -187 81.5c-60.667 0 -114.167 -12.833 -160.5 -38.5s-89.833 -66.5 -130.5 -122.5
c-32 -44.667 -56.667 -95 -74 -151s-26 -112.333 -26 -169zM55.001 383.001c0 70 14 141.168 42 213.501s66 134.833 114 187.5c56.667 63.333 120.5 110.666 191.5 141.999s149.167 47 234.5 47c130.667 0 234.334 -37.167 311.001 -111.5s115 -174.5 115 -300.5
c0 -78 -14.5 -153 -43.5 -225s-71.167 -137.667 -126.5 -197c-52.667 -56.667 -113.334 -99.5 -182.001 -128.5s-144 -43.5 -226 -43.5c-135.333 0 -240.833 36.5 -316.5 109.5s-113.5 175.167 -113.5 306.5zM807.001 1083h-67.999l-244 203
c-22.667 18.667 -37.834 34.167 -45.501 46.5s-11.5 25.5 -11.5 39.5c0 18.667 6.66699 35 20 49s29.333 21 48 21c14 0 29 -5.16699 45 -15.5s30.333 -24.5 43 -42.5z" />
    <glyph glyph-name="oacute" unicode="&#xf3;" horiz-adv-x="1118" 
d="M236 387c0 -100.667 23.168 -178.666 69.501 -233.999s111.166 -83 194.499 -83c108.667 0 199.667 47 273 141s110 212 110 354c0 93.333 -23 167.166 -69 221.499s-108.333 81.5 -187 81.5c-60.667 0 -114.167 -12.833 -160.5 -38.5s-89.833 -66.5 -130.5 -122.5
c-32 -44.667 -56.667 -95 -74 -151s-26 -112.333 -26 -169zM55.001 383.001c0 70 14 141.168 42 213.501s66 134.833 114 187.5c56.667 63.333 120.5 110.666 191.5 141.999s149.167 47 234.5 47c130.667 0 234.334 -37.167 311.001 -111.5s115 -174.5 115 -300.5
c0 -78 -14.5 -153 -43.5 -225s-71.167 -137.667 -126.5 -197c-52.667 -56.667 -113.334 -99.5 -182.001 -128.5s-144 -43.5 -226 -43.5c-135.333 0 -240.833 36.5 -316.5 109.5s-113.5 175.167 -113.5 306.5zM563.001 1083l-70 -0.000976562l297 314
c12.667 12.667 26.5 23 41.5 31s28.5 12 40.5 12c18.667 0 34.667 -7 48 -21s20 -30.333 20 -49c0 -14 -5.16699 -27.167 -15.5 -39.5s-28.5 -27.166 -54.5 -44.499z" />
    <glyph glyph-name="ocircumflex" unicode="&#xf4;" horiz-adv-x="1118" 
d="M236 387c0 -100.667 23.168 -178.666 69.501 -233.999s111.166 -83 194.499 -83c108.667 0 199.667 47 273 141s110 212 110 354c0 93.333 -23 167.166 -69 221.499s-108.333 81.5 -187 81.5c-60.667 0 -114.167 -12.833 -160.5 -38.5s-89.833 -66.5 -130.5 -122.5
c-32 -44.667 -56.667 -95 -74 -151s-26 -112.333 -26 -169zM55.001 383.001c0 70 14 141.168 42 213.501s66 134.833 114 187.5c56.667 63.333 120.5 110.666 191.5 141.999s149.167 47 234.5 47c130.667 0 234.334 -37.167 311.001 -111.5s115 -174.5 115 -300.5
c0 -78 -14.5 -153 -43.5 -225s-71.167 -137.667 -126.5 -197c-52.667 -56.667 -113.334 -99.5 -182.001 -128.5s-144 -43.5 -226 -43.5c-135.333 0 -240.833 36.5 -316.5 109.5s-113.5 175.167 -113.5 306.5zM923.001 1083h-55l-178 207l-274 -207h-68l309 349h105z" />
    </font>
</defs>
</svg>
